<REAPER_PROJECT 0.1 "6.27-beta/macOS-arm64" 1666527640
  RIPPLE 0
  GROUPOVERRIDE 0 0 0
  AUTOXFADE 1
  ENVATTACH 1
  POOLEDENVATTACH 0
  MIXERUIFLAGS 11 48
  PEAKGAIN 1
  FEEDBACK 0
  PANLAW 1
  PROJOFFS 0 0 0
  MAXPROJLEN 0 600
  GRID 3199 8 1 8 1 0 0 0
  TIMEMODE 1 5 -1 30 0 0 -1
  VIDEO_CONFIG 0 0 256
  PANMODE 3
  CURSOR 45.570548
  ZOOM 9.13579078940041 297 0
  VZOOMEX 4 0
  USE_REC_CFG 0
  RECMODE 1
  SMPTESYNC 0 30 100 40 1000 300 0 0 1 0 0
  LOOP 0
  LOOPGRAN 0 4
  RECORD_PATH "" ""
  <RECORD_CFG
  >
  <APPLYFX_CFG
  >
  RENDER_FILE ""
  RENDER_PATTERN ""
  RENDER_FMT 0 2 0
  RENDER_1X 0
  RENDER_RANGE 1 0 0 18 1000
  RENDER_RESAMPLE 3 0 1
  RENDER_ADDTOPROJ 0
  RENDER_STEMS 0
  RENDER_DITHER 0
  TIMELOCKMODE 1
  TEMPOENVLOCKMODE 1
  ITEMMIX 0
  DEFPITCHMODE 589824 0
  TAKELANE 1
  SAMPLERATE 44100 0 0
  <RENDER_CFG
  >
  LOCK 1
  <METRONOME 6 2
    VOL 0.25 0.125
    FREQ 800 1600 1
    BEATLEN 4
    SAMPLES "" ""
    PATTERN 2863311530 2863311529
  >
  GLOBAL_AUTO -1
  TEMPO 120 4 4
  PLAYRATE 1 0 0.25 4
  SELECTION 159.24546 0
  SELECTION2 159.24546 0
  MASTERAUTOMODE 0
  MASTERTRACKHEIGHT 176 0
  MASTERPEAKCOL 16576
  MASTERMUTESOLO 0
  MASTERTRACKVIEW 0 0.6667 0.5 0.5 -1 -1 -1 0 0 0 -1 -1 0
  MASTERHWOUT 0 0 1 0 0 0 0 -1
  MASTER_NCH 2 2
  MASTER_VOLUME 3.98107170553497 0 -1 -1 1
  MASTER_FX 1
  MASTER_SEL 0
  <MASTERPLAYSPEEDENV
    EGUID {61E76B19-1DAE-CD4D-8D2A-1167E3D6ED6C}
    ACT 0 -1
    VIS 0 1 1
    LANEHEIGHT 0 0
    ARM 0
    DEFSHAPE 0 -1 -1
  >
  <TEMPOENVEX
    EGUID {15C01451-543D-CD43-9329-78DD1B30A6F1}
    ACT 0 -1
    VIS 1 0 1
    LANEHEIGHT 0 0
    ARM 0
    DEFSHAPE 1 -1 -1
    PT 0.000000000000 150.0000000000 1 262148 0 1
    PT 1.600000000000 149.0002086003 1
    PT 22.539568000000 150.0000000000 1
    PT 33.739568000000 142.0000710000 1
    PT 54.021248000000 144.0002304004 1
    PT 64.021232000000 149.0002086003 1
    PT 75.296384000000 150.0000000000 1
    PT 76.896384000000 149.0002086003 1
    PT 94.614480000000 150.0000000000 1
    PT 97.014480000000 142.0000710000 1
    PT 97.859550000000 150.0000000000 1
    PT 104.259550000000 150.0000000000 1
    PT 123.459550000000 150.0000000000 1
    PT 148.259550000000 142.0000710000 1
    PT 168.541230000000 144.0002304004 1
    PT 178.541214000000 149.0002086003 1
    PT 191.427102000000 149.0002086003 1
    PT 211.561302000000 142.0000710000 1
    PT 265.645782000000 120.0000000000 1
    PT 270.645782000000 120.0000000000 1
  >
  <PROJBAY
  >
  <TRACK {DA257B23-F09E-644D-8A2F-366AE15C9B8D}
    NAME lead1
    PEAKCOL 16576
    BEAT -1
    AUTOMODE 0
    VOLPAN 3.98107170553497 -1 -1 -1 1
    MUTESOLO 0 0 0
    IPHASE 0
    PLAYOFFS 0 1
    ISBUS 0 0
    BUSCOMP 0 0 0 0 0
    SHOWINMIX 1 0.6667 0.5 1 0.5 -1 -1 -1
    FREEMODE 0
    SEL 0
    REC 0 0 1 0 0 0 0
    VU 2
    TRACKHEIGHT 0 0 0 0 0 0
    INQ 0 0 0 0.5 100 0 0 100
    NCHAN 2
    FX 1
    TRACKID {DA257B23-F09E-644D-8A2F-366AE15C9B8D}
    PERF 0
    MIDIOUT -1
    MAINSEND 1 0
    <FXCHAIN
      WNDRECT 133 414 1013 581
      SHOW 0
      LASTSEL 0
      DOCKED 0
      BYPASS 0 0 0
      <AU "AUi: sforzando (Plogue Art et Technologie)" "Plogue Art et Technologie: sforzando" "" 1635085685 1347176273 1347178311
        6QMAAAAAAAAAAAAAAgAAAAEAAAAAAAAAAgAAAAAAAACLGgAAPD94bWwgdmVyc2lvbj0iMS4wIiBlbmNvZGluZz0iVVRGLTgiPz4KPCFET0NUWVBFIHBsaXN0IFBVQkxJ
        QyAiLS8vQXBwbGUvL0RURCBQTElTVCAxLjAvL0VOIiAiaHR0cDovL3d3dy5hcHBsZS5jb20vRFREcy9Qcm9wZXJ0eUxpc3QtMS4wLmR0ZCI+CjxwbGlzdCB2ZXJzaW9u
        PSIxLjAiPgo8ZGljdD4KCTxrZXk+QXJpYURhdGE8L2tleT4KCTxkYXRhPgoJUTBWSFVBVUZBQUI0bklXVXdZNmJNQkNHNzNrS3kvY0VuRUIySTBGV2FYWmJjWWkyRXRz
        ekdveVRvQm83QlJ0dDM3NEQKCWhBUlZHNW1UL2MvbnNlZEhNOUhMWnlWSksrcW0xQ3FtYk9GVDhyS2RSYnU2aEJSYU1RbHQxaHRLTHJVdUxEZkpLd28rCglDK2gyUnZD
        TFVtRk1xVTROK1dOQmx1WXZSaWxwVEMyZ1FqbW1xeVVsRlh5bXZiS1RVdlBEdDVpR0RPVkQ4cHE4VzNQUQoJaGVoUGdUVzZBb04zcGxLYm1QcFRTWXBXeUppV0NuUGJT
        aWhEaVN4Yk1SeEdzdUV4WFQ4L2RRdVFnQklqY3lLNlJ5MGEKCUxxL3lIcytKR2tFOGNKSTZCL2xoVmY5TUZMeXhJcnljbEVXdkthZ3dmWE5jZXVsK0hvWlpxcTBxdm10
        bHNwWmx5enpyCglJcjd2ZXo3YlpQdXpyZms1ZTY5UEN5d21CL1U3d1NRQmh1bmRTMXp6TXlqVjFUSkg3S0lsV3JZT0tESDNsMXp5ckFaMQoJRWxmRTRLYnBBOVZrcWJu
        QnZ6U3BQVVRSbWw0Wkt1bXJPVUNweG1wYWtIYXcydnVLWURmQ2YwQXNuY1RLU1FST0luUVMKCWF5Zng1Q1NlbmNUR1NURGZqYmhkWlc1Ym1kdFg1amFXUFhUMko5UlEv
        V2NjZTRTd0Zmc0Npcnl1Y2E3cnQrTlJjRFB0CglwRnQvRGkyMXEvSlNLQzd1amRJUGxlblFDWWFodzI4dFBsNzA0MWN5WmdWdWNBZ2s5M25SNzk5dSswWklmSWNvUGlB
        ZgoJbWdselJONDQ0cmF6Zi9BUldGZz0KCTwvZGF0YT4KCTxrZXk+ZGF0YTwva2V5PgoJPGRhdGE+CglBQUFBQUFBQUFBQUFBQUlBQUFBQUFBQUFBQUFBQUFBQkFBQUFB
        QUFBQUFJQUFBQUFBQUFBQXdBQUFBQUFBQUFFQUFBQQoJQUFBQUFBVUFBQUFBQUFBQUJnQUFBQUFBQUFBSEFBQUFBQUFBQUFnQUFBQUFBQUFBQ1FBQUFBQUFBQUFLQUFB
        QUFBQUEKCUFBc0FBQUFBQUFBQURBQUFBQUFBQUFBTkFBQUFBQUFBQUE0QUFBQUFBQUFBRHdBQUFBQUFBQUFRQUFBQUFBQUFBQkVBCglBQUFBQUFBQUVnQUFBQUFBQUFB
        VEFBQUFBQUFBQUJRQUFBQUFBQUFBRlFBQUFBQUFBQUFXQUFBQUFBQUFBQmNBQUFBQQoJQUFBQUdBQUFBQUFBQUFBWkFBQUFBQUFBQUJvQUFBQUFBQUFBR3dBQUFBQUFB
        QUFjQUFBQUFBQUFBQjBBQUFBQUFBQUEKCUhnQUFBQUFBQUFBZkFBQUFBQUFBQUNBQUFBQUFBQUFBSVFBQUFBQUFBQUFpQUFBQUFBQUFBQ01BQUFBQUFBQUFKQUFBCglB
        QUFBQUFBbEFBQUFBQUFBQUNZQUFBQUFBQUFBSndBQUFBQUFBQUFvQUFBQUFBQUFBQ2tBQUFBQUFBQUFLZ0FBQUFBQQoJQUFBckFBQUFBQUFBQUN3QUFBQUFBQUFBTFFB
        QUFBQUFBQUF1QUFBQUFBQUFBQzhBQUFBQUFBQUFNQUFBQUFBQUFBQXgKCUFBQUFBQUFBQURJQUFBQUFBQUFBTXdBQUFBQUFBQUEwQUFBQUFBQUFBRFVBQUFBQUFBQUFO
        Z0FBQUFBQUFBQTNBQUFBCglBQUFBQURnQUFBQUFBQUFBT1FBQUFBQUFBQUE2QUFBQUFBQUFBRHNBQUFBQUFBQUFQQUFBQUFBQUFBQTlBQUFBQUFBQQoJQUQ0QUFBQUFB
        QUFBUHdBQUFBQUFBQUJBQUFBQUFBQUFBRUVBQUFBQUFBQUFRZ0FBQUFBQUFBQkRBQUFBQUFBQUFFUUEKCUFBQUFBQUFBUlFBQUFBQUFBQUJHQUFBQUFBQUFBRWNBQUFB
        QUFBQUFTQUFBQUFBQUFBQkpBQUFBQUFBQUFFb0FBQUFBCglBQUFBU3dBQUFBQUFBQUJNQUFBQUFBQUFBRTBBQUFBQUFBQUFUZ0FBQUFBQUFBQlBBQUFBQUFBQUFGQUFB
        QUFBQUFBQQoJVVFBQUFBQUFBQUJTQUFBQUFBQUFBRk1BQUFBQUFBQUFWQUFBQUFBQUFBQlZBQUFBQUFBQUFGWUFBQUFBQUFBQVZ3QUEKCUFBQUFBQUJZQUFBQUFBQUFB
        RmtBQUFBQUFBQUFXZ0FBQUFBQUFBQmJBQUFBQUFBQUFGd0FBQUFBQUFBQVhRQUFBQUFBCglBQUJlQUFBQUFBQUFBRjhBQUFBQUFBQUFZQUFBQUFBQUFBQmhBQUFBQUFB
        QUFHSUFBQUFBQUFBQVl3QUFBQUFBQUFCawoJQUFBQUFBQUFBR1VBQUFBQUFBQUFaZ0FBQUFBQUFBQm5BQUFBQUFBQUFHZ0FBQUFBQUFBQWFRQUFBQUFBQUFCcUFBQUEK
        CUFBQUFBR3NBQUFBQUFBQUFiQUFBQUFBQUFBQnRBQUFBQUFBQUFHNEFBQUFBQUFBQWJ3QUFBQUFBQUFCd0FBQUFBQUFBCglBSEVBQUFBQUFBQUFjZ0FBQUFBQUFBQnpB
        QUFBQUFBQUFIUUFBQUFBQUFBQWRRQUFBQUFBQUFCMkFBQUFBQUFBQUhjQQoJQUFBQUFBQUFlQUFBQUFBQUFBQjVBQUFBQUFBQUFIb0FBQUFBQUFBQWV3QUFBQUFBQUFC
        OEFBQUFBQUFBQUgwQUFBQUEKCUFBQUFmZ0FBQUFBQUFBQi9BQUFBQUFBQUFJQUFBQUFBQUFBQWdRQUFBQUFBQUFDQ0FBQUFBQUFBQUlNQUFBQUFBQUFBCgloQUFBQUFB
        QUFBQ0ZBQUFBQUFBQUFJWUFBQUFBQUFBQWh3QUFBQUFBQUFDSUFBQUFBQUFBQUlrQUFBQUFBQUFBaWdBQQoJQUFBQUFBQ0xBQUFBQUFBQUFJd0FBQUFBQUFBQWpRQUFB
        QUFBQUFDT0FBQUFBQUFBQUk4QUFBQUFBQUFBa0FBQUFBQUEKCUFBQ1JBQUFBQUFBQUFKSUFBQUFBQUFBQWt3QUFBQUFBQUFDVUFBQUFBQUFBQUpVQUFBQUFBQUFBbGdB
        QUFBQUFBQUNYCglBQUFBQUFBQUFKZ0FBQUFBQUFBQW1RQUFBQUFBQUFDYUFBQUFBQUFBQUpzQUFBQUFBQUFBbkFBQUFBQUFBQUNkQUFBQQoJQUFBQUFKNEFBQUFBQUFB
        QW53QUFBQUFBQUFDZ0FBQUFBQUFBQUtFQUFBQUFBQUFBb2dBQUFBQUFBQUNqQUFBQUFBQUEKCUFLUUFBQUFBQUFBQXBRQUFBQUFBQUFDbUFBQUFBQUFBQUtjQUFBQUFB
        QUFBcUFBQUFBQUFBQUNwQUFBQUFBQUFBS29BCglBQUFBQUFBQXF3QUFBQUFBQUFDc0FBQUFBQUFBQUswQUFBQUFBQUFBcmdBQUFBQUFBQUN2QUFBQUFBQUFBTEFBQUFB
        QQoJQUFBQXNRQUFBQUFBQUFDeUFBQUFBQUFBQUxNQUFBQUFBQUFBdEFBQUFBQUFBQUMxQUFBQUFBQUFBTFlBQUFBQUFBQUEKCXR3QUFBQUFBQUFDNEFBQUFBQUFBQUxr
        QUFBQUFBQUFBdWdBQUFBQUFBQUM3QUFBQUFBQUFBTHdBQUFBQUFBQUF2UUFBCglBQUFBQUFDK0FBQUFBQUFBQUw4QUFBQUFBQUFBd0FBQUFBQUFBQURCQUFBQUFBQUFB
        TUlBQUFBQUFBQUF3d0FBQUFBQQoJQUFERUFBQUFBQUFBQU1VQUFBQUFBQUFBeGdBQUFBQUFBQURIQUFBQUFBQUFBTWdBQUFBQUFBQUF5UUFBQUFBQUFBREsKCUFBQUFB
        QUFBQU1zQUFBQUFBQUFBekFBQUFBQUFBQUROQUFBQUFBQUFBTTRBQUFBQUFBQUF6d0FBQUFBQUFBRFFBQUFBCglBQUFBQU5FQUFBQUFBQUFBMGdBQUFBQUFBQURUQUFB
        QUFBQUFBTlFBQUFBQUFBQUExUUFBQUFBQUFBRFdBQUFBQUFBQQoJQU5jQUFBQUFBQUFBMkFBQUFBQUFBQURaQUFBQUFBQUFBTm9BQUFBQUFBQUEyd0FBQUFBQUFBRGNB
        QUFBQUFBQUFOMEEKCUFBQUFBQUFBM2dBQUFBQUFBQURmQUFBQUFBQUFBT0FBQUFBQUFBQUE0UUFBQUFBQUFBRGlBQUFBQUFBQUFPTUFBQUFBCglBQUFBNUFBQUFBQUFB
        QURsQUFBQUFBQUFBT1lBQUFBQUFBQUE1d0FBQUFBQUFBRG9BQUFBQUFBQUFPa0FBQUFBQUFBQQoJNmdBQUFBQUFBQURyQUFBQUFBQUFBT3dBQUFBQUFBQUE3UUFBQUFB
        QUFBRHVBQUFBQUFBQUFPOEFBQUFBQUFBQThBQUEKCUFBQUFBQUR4QUFBQUFBQUFBUElBQUFBQUFBQUE4d0FBQUFBQUFBRDBBQUFBQUFBQUFQVUFBQUFBQUFBQTlnQUFB
        QUFBCglBQUQzQUFBQUFBQUFBUGdBQUFBQUFBQUErUUFBQUFBQUFBRDZBQUFBQUFBQUFQc0FBQUFBQUFBQS9BQUFBQUFBQUFEOQoJQUFBQUFBQUFBUDRBQUFBQUFBQUEv
        d0FBQUFBQUFBRUFBQUFBQUFBQUFRRUFBQUFBQUFBQkFnQUFBQUFBQUFFREFBQUEKCUFBQUFBUVFBQUFBQUFBQUJCUUFBQUFBQUFBRUdBQUFBQUFBQUFRY0FBQUFBQUFB
        QkNBQUFBQUFBQUFFSkFBQUFBQUFBCglBUW9BQUFBQUFBQUJDd0FBQUFBQUFBRU1BQUFBQUFBQUFRMEFBQUFBQUFBQkRnQUFBQUFBQUFFUEFBQUFBQUFBQVJBQQoJQUFB
        QUFBQUJFUUFBQUFBQUFBRVNBQUFBQUFBQUFSTUFBQUFBQUFBQkZBQUFBQUFBQUFFVkFBQUFBQUFBQVJZQUFBQUEKCUFBQUJGd0FBQUFBQUFBRVlBQUFBQUFBQUFSa0FB
        QUFBQUFBQkdnQUFBQUFBQUFFYkFBQUFBQUFBQVJ3QUFBQUFBQUFCCglIUUFBQUFBQUFBRWVBQUFBQUFBQUFSOEFBQUFBQUFBQklBQUFBQUFBQUFFaEFBQUFBQUFBQVNJ
        QUFBQUFBQUFCSXdBQQoJQUFBQUFBRWtBQUFBQUFBQUFTVUFBQUFBQUFBQkpnQUFBQUFBQUFFbkFBQUFBQUFBQVNnQUFBQUFBQUFCS1FBQUFBQUEKCUFBRXFBQUFBQUFB
        QUFTc0FBQUFBQUFBQkxBQUFBQUFBQUFFdEFBQUFBQUFBQVM0QUFBQUFBQUFCTHdBQUFBQUFBQUV3CglBQUFBQUFBQUFURUFBQUFBQUFBQk1nQUFBQUFBQUFFekFBQUFB
        QUFBQVRRQUFBQUFBQUFCTlFBQUFBQUFBQUUyQUFBQQoJQUFBQUFUY0FBQUFBQUFBQk9BQUFBQUFBQUFFNUFBQUFBQUFBQVRvQUFBQUFBQUFCT3dBQUFBQUFBQUU4QUFB
        QUFBQUEKCUFUMEFBQUFBQUFBQlBnQUFBQUFBQUFFL0FBQUFBQUFBQVVBQUFBQUFBQUFCUVFBQUFBQUFBQUZDQUFBQUFBQUFBVU1BCglBQUFBQUFBQlJBQUFBQUFBQUFG
        RkFBQUFBQUFBQVVZQUFBQUFBQUFCUndBQUFBQUFBQUZJQUFBQUFBQUFBVWtBQUFBQQoJQUFBQlNnQUFBQUFBQUFGTEFBQUFBQUFBQVV3QUFBQUFBQUFCVFFBQUFBQUFB
        QUZPQUFBQUFBQUFBVThBQUFBQUFBQUIKCVVBQUFBQUFBQUFGUkFBQUFBQUFBQVZJQUFBQUFBQUFCVXdBQUFBQUFBQUZVQUFBQUFBQUFBVlVBQUFBQUFBQUJWZ0FBCglB
        QUFBQUFGWEFBQUFBQUFBQVZnQUFBQUFBQUFCV1FBQUFBQUFBQUZhQUFBQUFBQUFBVnNBQUFBQUFBQUJYQUFBQUFBQQoJQUFGZEFBQUFBQUFBQVY0QUFBQUFBQUFCWHdB
        QUFBQUFBQUZnQUFBQUFBQUFBV0VBQUFBQUFBQUJZZ0FBQUFBQUFBRmoKCUFBQUFBQUFBQVdRQUFBQUFBQUFCWlFBQUFBQUFBQUZtQUFBQUFBQUFBV2NBQUFBQUFBQUJh
        QUFBQUFBQUFBRnBBQUFBCglBQUFBQVdvQUFBQUFBQUFCYXdBQUFBQUFBQUZzQUFBQUFBQUFBVzBBQUFBQUFBQUJiZ0FBQUFBQUFBRnZBQUFBQUFBQQoJQVhBQUFBQUFB
        QUFCY1FBQUFBQUFBQUZ5QUFBQUFBQUFBWE1BQUFBQUFBQUJkQUFBQUFBQUFBRjFBQUFBQUFBQUFYWUEKCUFBQUFBQUFCZHdBQUFBQUFBQUY0QUFBQUFBQUFBWGtBQUFB
        QUFBQUJlZ0FBQUFBQUFBRjdBQUFBQUFBQUFYd0FBQUFBCglBQUFCZlFBQUFBQUFBQUYrQUFBQUFBQUFBWDhBQUFBQUFBQUJnQUFBQUFBQUFBR0JBQUFBQUFBQUFZSUFB
        QUFBQUFBQgoJZ3dBQUFBQUFBQUdFQUFBQUFBQUFBWVVBQUFBQUFBQUJoZ0FBQUFBQUFBR0hBQUFBQUFBQUFZZ0FBQUFBQUFBQmlRQUEKCUFBQUFBQUdLQUFBQUFBQUFB
        WXNBQUFBQUFBQUJqQUFBQUFBQUFBR05BQUFBQUFBQUFZNEFBQUFBQUFBQmp3QUFBQUFBCglBQUdRQUFBQUFBQUFBWkVBQUFBQUFBQUJrZ0FBQUFBQUFBR1RBQUFBQUFB
        QUFaUUFBQUFBQUFBQmxRQUFBQUFBQUFHVwoJQUFBQUFBQUFBWmNBQUFBQUFBQUJtQUFBQUFBQUFBR1pBQUFBQUFBQUFab0FBQUFBQUFBQm13QUFBQUFBQUFHY0FBQUEK
        CUFBQUFBWjBBQUFBQUFBQUJuZ0FBQUFBQUFBR2ZBQUFBQUFBQUFhQUFBQUFBQUFBQm9RQUFBQUFBQUFHaUFBQUFBQUFBCglBYU1BQUFBQUFBQUJwQUFBQUFBQUFBR2xB
        QUFBQUFBQUFhWUFBQUFBQUFBQnB3QUFBQUFBQUFHb0FBQUFBQUFBQWFrQQoJQUFBQUFBQUJxZ0FBQUFBQUFBR3JBQUFBQUFBQUFhd0FBQUFBQUFBQnJRQUFBQUFBQUFH
        dUFBQUFBQUFBQWE4QUFBQUEKCUFBQUJzQUFBQUFBQUFBR3hBQUFBQUFBQUFiSUFBQUFBQUFBQnN3QUFBQUFBQUFHMEFBQUFBQUFBQWJVQUFBQUFBQUFCCgl0Z0FBQUFB
        QUFBRzNBQUFBQUFBQUFiZ0FBQUFBQUFBQnVRQUFBQUFBQUFHNkFBQUFBQUFBQWJzQUFBQUFBQUFCdkFBQQoJQUFBQUFBRzlBQUFBQUFBQUFiNEFBQUFBQUFBQnZ3QUFB
        QUFBQUFIQUFBQUFBQUFBQWNFQUFBQUFBQUFCd2dBQUFBQUEKCUFBSERBQUFBQUFBQUFjUUFBQUFBQUFBQnhRQUFBQUFBQUFIR0FBQUFBQUFBQWNjQUFBQUFBQUFCeUFB
        QUFBQUFBQUhKCglBQUFBQUFBQUFjb0FBQUFBQUFBQnl3QUFBQUFBQUFITUFBQUFBQUFBQWMwQUFBQUFBQUFCemdBQUFBQUFBQUhQQUFBQQoJQUFBQUFkQUFBQUFBQUFB
        QjBRQUFBQUFBQUFIU0FBQUFBQUFBQWRNQUFBQUFBQUFCMUFBQUFBQUFBQUhWQUFBQUFBQUEKCUFkWUFBQUFBQUFBQjF3QUFBQUFBQUFIWUFBQUFBQUFBQWRrQUFBQUFB
        QUFCMmdBQUFBQUFBQUhiQUFBQUFBQUFBZHdBCglBQUFBQUFBQjNRQUFBQUFBQUFIZUFBQUFBQUFBQWQ4QUFBQUFBQUFCNEFBQUFBQUFBQUhoQUFBQUFBQUFBZUlBQUFB
        QQoJQUFBQjR3QUFBQUFBQUFIa0FBQUFBQUFBQWVVQUFBQUFBQUFCNWdBQUFBQUFBQUhuQUFBQUFBQUFBZWdBQUFBQUFBQUIKCTZRQUFBQUFBQUFIcUFBQUFBQUFBQWVz
        QUFBQUFBQUFCN0FBQUFBQUFBQUh0QUFBQUFBQUFBZTRBQUFBQUFBQUI3d0FBCglBQUFBQUFId0FBQUFBQUFBQWZFQUFBQUFBQUFCOGdBQUFBQUFBQUh6QUFBQUFBQUFB
        ZlFBQUFBQUFBQUI5UUFBQUFBQQoJQUFIMkFBQUFBQUFBQWZjQUFBQUFBQUFCK0FBQUFBQUFBQUg1QUFBQUFBQUFBZm9BQUFBQUFBQUIrd0FBQUFBQUFBSDgKCUFBQUFB
        QUFBQWYwQUFBQUFBQUFCL2dBQUFBQUFBQUgvQUFBQUFBPT0KCTwvZGF0YT4KCTxrZXk+bWFudWZhY3R1cmVyPC9rZXk+Cgk8aW50ZWdlcj4xMzQ3MTc4MzExPC9pbnRl
        Z2VyPgoJPGtleT5uYW1lPC9rZXk+Cgk8c3RyaW5nPlVudGl0bGVkPC9zdHJpbmc+Cgk8a2V5PnN1YnR5cGU8L2tleT4KCTxpbnRlZ2VyPjEzNDcxNzYyNzM8L2ludGVn
        ZXI+Cgk8a2V5PnR5cGU8L2tleT4KCTxpbnRlZ2VyPjE2MzUwODU2ODU8L2ludGVnZXI+Cgk8a2V5PnZlcnNpb248L2tleT4KCTxpbnRlZ2VyPjA8L2ludGVnZXI+Cjwv
        ZGljdD4KPC9wbGlzdD4KAQAAAAAAAAAAAA==
      >
      FLOATPOS 0 0 0 0
      FXID {0E513158-1284-964E-949F-E17E9A176F9A}
      WAK 0 0
    >
    <ITEM
      POSITION 0
      SNAPOFFS 0
      LENGTH 12.875152
      LOOP 1
      ALLTAKES 0
      FADEIN 1 0 0 1 0 0 0
      FADEOUT 1 0 0 1 0 0 0
      MUTE 0 0
      BEAT 1
      SEL 0
      IGUID {21A0FA43-A0D9-534B-90BA-8EB067B56ACC}
      IID 43
      NAME the_centennial_festival_for_magical.mid
      VOLPAN 1 0 1 -1
      SOFFS 1.6 4
      PLAYRATE 1 1 0 -1 0 0.0025
      CHANMODE 2
      GUID {AD560C54-C777-4943-9058-B8769F5455A6}
      <SOURCE MIDI
        HASDATA 1 96 QN
        CCINTERP 32
        POOLEDEVTS {E2B77831-C335-0549-8FA0-EBCFA0B76601}
        <X 0 0
          /yEBAA==
        >
        <X 0 0 0 0 4 "Piano 1"
          /wRQaWFubyAx
        >
        E 63 b7 00 00
        E 1 b7 20 00
        E 1 c7 00 00
        E 1 b7 0a 10
        E 1 b7 07 7f
        E 1 b7 0b 7f
        E 1 b7 5b 00
        E 1 b7 5d 00
        E 1 b7 5e 00
        E 144 b7 65 00
        E 0 b7 64 01
        E 0 b7 06 40
        E 0 b7 26 00
        <X 1 0
          8EEQQhJAGEBAQEBAQEBAQEBAQEBo9w==
        >
        E 2 b7 40 00
        E 1 b7 63 01
        E 0 b7 62 08
        E 0 b7 06 40
        E 1 b7 63 01
        E 0 b7 62 09
        E 0 b7 06 40
        E 1 b7 63 01
        E 0 b7 62 0a
        E 0 b7 06 40
        E 1 b7 63 01
        E 0 b7 62 20
        E 0 b7 06 40
        E 1 b7 63 01
        E 0 b7 62 21
        E 0 b7 06 40
        E 1 b7 63 01
        E 0 b7 62 63
        E 0 b7 06 40
        E 1 b7 63 01
        E 0 b7 62 64
        E 0 b7 06 40
        E 1 b7 63 01
        E 0 b7 62 66
        E 0 b7 06 40
        <X 1 0
          8EEQQhJASCAAWPc=
        >
        E 157 b7 40 00
        E 0 97 57 7f
        E 47 87 57 00
        E 1 97 52 7f
        E 47 87 52 00
        E 1 97 55 7f
        E 47 87 55 00
        E 1 97 50 7f
        E 47 87 50 00
        E 1 97 52 7f
        E 47 87 52 00
        E 1 97 4e 7f
        E 47 87 4e 00
        E 1 97 50 7f
        E 47 87 50 00
        E 1 97 4d 7f
        E 47 87 4d 00
        E 1 97 4e 7f
        E 47 87 4e 00
        E 1 97 4b 7f
        E 47 87 4b 00
        E 1 97 4d 7f
        E 47 87 4d 00
        E 1 97 49 7f
        E 47 87 49 00
        E 1 97 4b 7f
        E 47 87 4b 00
        E 1 97 46 7f
        E 47 87 46 00
        E 1 97 49 7f
        E 47 87 49 00
        e 1 97 44 7f
        e 47 87 44 00
        E 1 97 57 7f
        E 47 87 57 00
        E 1 97 52 7f
        E 47 87 52 00
        E 1 97 55 7f
        E 47 87 55 00
        E 1 97 50 7f
        E 47 87 50 00
        E 1 97 52 7f
        E 47 87 52 00
        E 1 97 4e 7f
        E 47 87 4e 00
        E 1 97 50 7f
        E 47 87 50 00
        E 1 97 4d 7f
        E 47 87 4d 00
        E 1 97 4e 7f
        E 47 87 4e 00
        E 1 97 4b 7f
        E 47 87 4b 00
        E 1 97 4d 7f
        E 47 87 4d 00
        E 1 97 49 7f
        E 47 87 49 00
        E 1 97 4b 7f
        E 47 87 4b 00
        E 1 97 46 7f
        E 47 87 46 00
        E 1 97 49 7f
        E 47 87 49 00
        E 1 97 44 7f
        E 47 87 44 00
        E 1 97 57 7f
        E 47 87 57 00
        E 1 97 52 7f
        E 47 87 52 00
        E 1 97 55 7f
        E 47 87 55 00
        E 1 97 50 7f
        E 47 87 50 00
        E 1 97 52 7f
        E 47 87 52 00
        E 1 97 4e 7f
        E 47 87 4e 00
        E 1 97 50 7f
        E 47 87 50 00
        E 1 97 4d 7f
        E 47 87 4d 00
        E 1 97 4e 7f
        E 47 87 4e 00
        E 1 97 4b 7f
        E 47 87 4b 00
        E 1 97 4d 7f
        E 47 87 4d 00
        E 1 97 49 7f
        E 47 87 49 00
        E 1 97 4b 7f
        E 47 87 4b 00
        E 1 97 46 7f
        E 47 87 46 00
        E 1 97 49 7f
        E 47 87 49 00
        E 1 97 44 7f
        E 47 87 44 00
        E 1 97 57 7f
        E 47 87 57 00
        E 1 97 52 7f
        E 47 87 52 00
        E 1 97 55 7f
        E 47 87 55 00
        E 1 97 50 7f
        E 47 87 50 00
        E 1 97 52 7f
        E 47 87 52 00
        E 1 97 4e 7f
        E 47 87 4e 00
        E 1 97 50 7f
        E 47 87 50 00
        E 1 97 4d 7f
        E 47 87 4d 00
        E 1 97 4e 7f
        E 47 87 4e 00
        E 1 97 4b 7f
        E 47 87 4b 00
        E 1 97 4d 7f
        E 47 87 4d 00
        E 1 97 49 7f
        E 47 87 49 00
        E 1 97 4b 7f
        E 47 87 4b 00
        E 1 97 46 7f
        E 47 87 46 00
        E 1 97 49 7f
        E 47 87 49 00
        E 1 97 44 7f
        E 47 87 44 00
        E 1 b0 7b 00
        CCINTERP 32
        CHASE_CC_TAKEOFFS 1
        GUID {95D2BE52-2B31-564C-91EC-87EC8C36DA25}
        IGNTEMPO 0 120 4 4
        SRCCOLOR 76
        VELLANE -1 100 0
        CFGEDITVIEW 144.073812 0.165885 33 12 0 -1 0 0 0 0.5
        KEYSNAP 0
        TRACKSEL 0
        EVTFILTER 0 -1 -1 -1 -1 0 0 0 0 -1 -1 -1 -1 0 -1 0 -1 -1
        CFGEDIT 1 1 0 1 0 0 1 1 1 1 1 0.25 2015 112 3360 851 0 0 0 0 0 0 0 0 0 0 0 0 1 64
      >
    >
    <ITEM
      POSITION 12.87515199999325
      SNAPOFFS 0
      LENGTH 12.864416
      LOOP 1
      ALLTAKES 0
      FADEIN 1 0 0 1 0 0 0
      FADEOUT 1 0 0 1 0 0 0
      MUTE 0 0
      BEAT 1
      SEL 0
      IGUID {CD9C0586-B882-F348-AA1F-76ADA4CA9BDC}
      IID 43
      NAME the_centennial_festival_for_magical.mid
      VOLPAN 1 0 1 -1
      SOFFS 1.610736 4
      PLAYRATE 1 1 0 -1 0 0.0025
      CHANMODE 2
      GUID {15FFE0B8-C4FB-1945-B2E5-3FE62A2370A2}
      <SOURCE MIDI
        HASDATA 1 96 QN
        CCINTERP 32
        POOLEDEVTS {697D7BF5-0226-1D4B-8D6E-37CD40ACF1E4}
        <X 0 0
          /yEBAA==
        >
        <X 0 0 0 0 4 "Piano 1"
          /wRQaWFubyAx
        >
        E 63 b7 00 00
        E 1 b7 20 00
        E 1 c7 00 00
        E 1 b7 0a 10
        E 1 b7 07 7f
        E 1 b7 0b 7f
        E 1 b7 5b 00
        E 1 b7 5d 00
        E 1 b7 5e 00
        E 144 b7 65 00
        E 0 b7 64 01
        E 0 b7 06 40
        E 0 b7 26 00
        <X 1 0
          8EEQQhJAGEBAQEBAQEBAQEBAQEBo9w==
        >
        E 2 b7 40 00
        E 1 b7 63 01
        E 0 b7 62 08
        E 0 b7 06 40
        E 1 b7 63 01
        E 0 b7 62 09
        E 0 b7 06 40
        E 1 b7 63 01
        E 0 b7 62 0a
        E 0 b7 06 40
        E 1 b7 63 01
        E 0 b7 62 20
        E 0 b7 06 40
        E 1 b7 63 01
        E 0 b7 62 21
        E 0 b7 06 40
        E 1 b7 63 01
        E 0 b7 62 63
        E 0 b7 06 40
        E 1 b7 63 01
        E 0 b7 62 64
        E 0 b7 06 40
        E 1 b7 63 01
        E 0 b7 62 66
        E 0 b7 06 40
        <X 1 0
          8EEQQhJASCAAWPc=
        >
        e 157 b7 40 00
        e 0 97 57 7f
        e 47 87 57 00
        e 1 97 52 7f
        e 47 87 52 00
        e 1 97 55 7f
        e 47 87 55 00
        e 1 97 50 7f
        e 47 87 50 00
        e 1 97 52 7f
        e 47 87 52 00
        e 1 97 4e 7f
        e 47 87 4e 00
        e 1 97 50 7f
        e 47 87 50 00
        e 1 97 4d 7f
        e 47 87 4d 00
        e 1 97 4e 7f
        e 47 87 4e 00
        e 1 97 4b 7f
        e 47 87 4b 00
        e 1 97 4d 7f
        e 47 87 4d 00
        e 1 97 49 7f
        e 47 87 49 00
        e 1 97 4b 7f
        e 47 87 4b 00
        e 1 97 46 7f
        e 47 87 46 00
        e 1 97 49 7f
        e 47 87 49 00
        e 1 97 44 7f
        e 47 87 44 00
        e 1 97 57 7f
        e 47 87 57 00
        e 1 97 52 7f
        e 47 87 52 00
        e 1 97 55 7f
        e 47 87 55 00
        e 1 97 50 7f
        e 47 87 50 00
        e 1 97 52 7f
        e 47 87 52 00
        e 1 97 4e 7f
        e 47 87 4e 00
        e 1 97 50 7f
        e 47 87 50 00
        e 1 97 4d 7f
        e 47 87 4d 00
        e 1 97 4e 7f
        e 47 87 4e 00
        e 1 97 4b 7f
        e 47 87 4b 00
        e 1 97 4d 7f
        e 47 87 4d 00
        e 1 97 49 7f
        e 47 87 49 00
        e 1 97 4b 7f
        e 47 87 4b 00
        e 1 97 46 7f
        e 47 87 46 00
        e 1 97 49 7f
        e 47 87 49 00
        e 1 97 44 7f
        e 47 87 44 00
        e 1 97 57 7f
        e 47 87 57 00
        e 1 97 52 7f
        e 47 87 52 00
        e 1 97 55 7f
        e 47 87 55 00
        e 1 97 50 7f
        e 47 87 50 00
        e 1 97 52 7f
        e 47 87 52 00
        e 1 97 4e 7f
        e 47 87 4e 00
        e 1 97 50 7f
        e 47 87 50 00
        e 1 97 4d 7f
        e 47 87 4d 00
        e 1 97 4e 7f
        e 47 87 4e 00
        e 1 97 4b 7f
        e 47 87 4b 00
        e 1 97 4d 7f
        e 47 87 4d 00
        e 1 97 49 7f
        e 47 87 49 00
        e 1 97 4b 7f
        e 47 87 4b 00
        e 1 97 46 7f
        e 47 87 46 00
        e 1 97 49 7f
        e 47 87 49 00
        e 1 97 44 7f
        e 47 87 44 00
        e 1 97 57 7f
        e 47 87 57 00
        e 1 97 52 7f
        e 47 87 52 00
        e 1 97 55 7f
        e 47 87 55 00
        e 1 97 50 7f
        e 47 87 50 00
        e 1 97 52 7f
        e 47 87 52 00
        e 1 97 4e 7f
        e 47 87 4e 00
        e 1 97 50 7f
        e 47 87 50 00
        e 1 97 4d 7f
        e 47 87 4d 00
        e 1 97 4e 7f
        e 47 87 4e 00
        e 1 97 4b 7f
        e 47 87 4b 00
        e 1 97 4d 7f
        e 47 87 4d 00
        e 1 97 49 7f
        e 47 87 49 00
        e 1 97 4b 7f
        e 47 87 4b 00
        e 1 97 46 7f
        e 47 87 46 00
        e 1 97 49 7f
        e 47 87 49 00
        e 1 97 44 7f
        e 47 87 44 00
        E 1 b0 7b 00
        CCINTERP 32
        CHASE_CC_TAKEOFFS 1
        GUID {95D2BE52-2B31-564C-91EC-87EC8C36DA25}
        IGNTEMPO 0 120 4 4
        SRCCOLOR 76
        VELLANE -1 100 0
        CFGEDITVIEW 2883.104945 0.7725 33 12 0 -1 0 0 0 0.5
        KEYSNAP 0
        TRACKSEL 0
        EVTFILTER 0 -1 -1 -1 -1 0 0 0 0 -1 -1 -1 -1 0 -1 0 -1 -1
        CFGEDIT 1 1 0 1 0 0 1 1 1 1 1 0.25 575 189 1920 928 0 0 0 0 0 0 0 0 0 0 0 0 1 64
      >
    >
    <ITEM
      POSITION 25.73956799996085
      SNAPOFFS 0
      LENGTH 6.4
      LOOP 1
      ALLTAKES 0
      FADEIN 1 0 0 1 0 0 0
      FADEOUT 1 0 0 1 0 0 0
      MUTE 0 0
      BEAT 1
      SEL 0
      IGUID {E0371C84-79EE-274D-9980-D252AD05D530}
      IID 73
      NAME the_centennial_festival_for_magical.mid
      VOLPAN 1 0 1 -1
      SOFFS 0 0
      PLAYRATE 1 1 0 -1 0 0.0025
      CHANMODE 0
      GUID {4E308AB5-5577-9647-8108-78410D21BC09}
      <SOURCE MIDI
        HASDATA 1 96 QN
        CCINTERP 32
        POOLEDEVTS {412FE1DF-B082-2841-B3FD-89DCE32A8FF6}
        E 1 91 2f 7f
        E 383 81 2f 00
        E 1 91 31 7f
        E 383 81 31 00
        E 1 91 33 7f
        E 383 81 33 00
        e 1 91 35 7f
        e 383 81 35 00
        E 0 b0 7b 00
        CCINTERP 32
        CHASE_CC_TAKEOFFS 1
        GUID {693B5240-099C-944B-BB52-766B91C93545}
        IGNTEMPO 0 120 4 4
        SRCCOLOR 141
        VELLANE -1 100 0
        CFGEDITVIEW -160.095387 0.25285 67 12 0 -1 0 0 0 0.5
        KEYSNAP 0
        TRACKSEL 0
        EVTFILTER 0 -1 -1 -1 -1 0 0 0 0 -1 -1 -1 -1 0 -1 0 -1 -1
        CFGEDIT 1 1 0 1 0 0 1 1 1 1 1 0.25 2049 43 3426 814 0 0 0 0 0 0 0 0 0 0 0 0 1 64
      >
    >
    <ITEM
      POSITION 32.139568
      SNAPOFFS 0
      LENGTH 13.43098
      LOOP 1
      ALLTAKES 0
      FADEIN 1 0 0 1 0 0 0
      FADEOUT 1 0 0 1 0 0 0
      MUTE 0 0
      BEAT 1
      SEL 0
      IGUID {719EC6A1-C236-D542-A59F-C669FC592E2C}
      IID 59
      NAME the_centennial_festival_for_magical.mid
      VOLPAN 1 0 1 -1
      SOFFS 33.739568 84
      PLAYRATE 1 1 0 -1 0 0.0025
      CHANMODE 2
      GUID {FA9EFD1A-07AB-AA4D-A149-ECE1D51C9FF3}
      <SOURCE MIDI
        HASDATA 1 96 QN
        CCINTERP 32
        POOLEDEVTS {1E1DE1C1-6B73-8943-BCB4-4826AB6367D5}
        <X 0 0
          /yEBAA==
        >
        <X 0 0 0 0 4 Marimba
          /wRNYXJpbWJh
        >
        E 36 b4 00 00
        E 1 b4 20 00
        E 1 c4 0c 00
        E 1 b4 0a 40
        E 1 b4 07 7f
        E 1 b4 0b 7f
        E 1 b4 5b 00
        E 1 b4 5d 00
        E 1 b4 5e 00
        E 129 b4 65 00
        E 0 b4 64 01
        E 0 b4 06 40
        E 0 b4 26 00
        <X 1 0
          8EEQQhJAFUBAQEBAQEBAQEBAQEBr9w==
        >
        E 2 b4 40 00
        E 1 b4 63 01
        E 0 b4 62 08
        E 0 b4 06 40
        E 1 b4 63 01
        E 0 b4 62 09
        E 0 b4 06 40
        E 1 b4 63 01
        E 0 b4 62 0a
        E 0 b4 06 40
        E 1 b4 63 01
        E 0 b4 62 20
        E 0 b4 06 40
        E 1 b4 63 01
        E 0 b4 62 21
        E 0 b4 06 40
        E 1 b4 63 01
        E 0 b4 62 63
        E 0 b4 06 40
        E 1 b4 63 01
        E 0 b4 62 64
        E 0 b4 06 40
        E 1 b4 63 01
        E 0 b4 62 66
        E 0 b4 06 40
        <X 1 0
          8EEQQhJARSAAW/c=
        >
        E 199 b4 40 00
        E 7680 94 4f 7f
        E 23 84 4f 00
        E 1 94 4f 7f
        E 23 84 4f 00
        E 1 94 4f 7f
        E 23 84 4f 00
        E 1 94 4f 7f
        E 23 84 4f 00
        E 1 94 4d 7f
        E 47 84 4d 00
        E 1 94 4d 7f
        E 47 84 4d 00
        E 1 94 4a 7f
        E 47 84 4a 00
        E 1 94 4a 7f
        E 47 84 4a 00
        E 1 94 4d 7f
        E 95 84 4d 00
        E 1 94 4f 7f
        E 23 84 4f 00
        E 1 94 4f 7f
        E 23 84 4f 00
        E 1 94 4f 7f
        E 23 84 4f 00
        E 1 94 4f 7f
        E 23 84 4f 00
        E 1 94 52 7f
        E 47 84 52 00
        E 1 94 51 7f
        E 47 84 51 00
        E 1 94 4d 7f
        E 95 84 4d 00
        E 1 94 4a 7f
        E 47 84 4a 00
        E 1 94 4d 7f
        E 47 84 4d 00
        E 1 94 4f 7f
        E 23 84 4f 00
        E 1 94 4f 7f
        E 23 84 4f 00
        E 1 94 4f 7f
        E 23 84 4f 00
        E 1 94 4f 7f
        E 23 84 4f 00
        E 1 94 4d 7f
        E 47 84 4d 00
        E 1 94 4d 7f
        E 47 84 4d 00
        E 1 94 4a 7f
        E 47 84 4a 00
        E 1 94 4a 7f
        E 47 84 4a 00
        E 1 94 4d 7f
        E 47 84 4d 00
        E 1 94 51 7f
        E 47 84 51 00
        E 1 94 4f 7f
        E 47 84 4f 00
        E 1 94 4d 7f
        E 47 84 4d 00
        E 1 94 4a 7f
        E 47 84 4a 00
        E 1 94 4f 7f
        E 47 84 4f 00
        E 1 94 4d 7f
        E 47 84 4d 00
        E 1 94 4a 7f
        E 47 84 4a 00
        E 1 94 4f 7f
        E 95 84 4f 00
        E 1 94 4f 7f
        E 23 84 4f 00
        E 1 94 4f 7f
        E 23 84 4f 00
        E 1 94 4f 7f
        E 23 84 4f 00
        E 1 94 4f 7f
        E 23 84 4f 00
        E 1 94 4d 7f
        E 47 84 4d 00
        E 1 94 4d 7f
        E 47 84 4d 00
        E 1 94 4a 7f
        E 47 84 4a 00
        E 1 94 4a 7f
        E 47 84 4a 00
        E 1 94 4d 7f
        E 95 84 4d 00
        E 2 94 4f 7f
        E 23 84 4f 00
        E 1 94 4f 7f
        E 23 84 4f 00
        E 0 94 4f 7f
        E 23 84 4f 00
        E 1 94 4f 7f
        E 23 84 4f 00
        E 1 94 52 7f
        E 47 84 52 00
        E 1 94 51 7f
        E 47 84 51 00
        E 1 94 4d 7f
        E 95 84 4d 00
        E 1 94 4a 7f
        E 47 84 4a 00
        E 1 94 4d 7f
        E 47 84 4d 00
        E 1 94 4f 7f
        E 23 84 4f 00
        E 1 94 4f 7f
        E 23 84 4f 00
        E 1 94 4f 7f
        E 23 84 4f 00
        E 1 94 4f 7f
        E 23 84 4f 00
        E 1 94 4d 7f
        E 47 84 4d 00
        E 1 94 4d 7f
        E 47 84 4d 00
        E 1 94 4a 7f
        E 47 84 4a 00
        E 1 94 4a 7f
        E 47 84 4a 00
        E 1 94 4d 7f
        E 95 84 4d 00
        e 1 94 4f 7f
        e 383 84 4f 00
        E 1 b0 7b 00
        CCINTERP 32
        CHASE_CC_TAKEOFFS 1
        GUID {C202B46B-E0AE-7C4A-A47F-2F54841D504B}
        IGNTEMPO 0 120 4 4
        SRCCOLOR 92
        VELLANE -1 100 0
        CFGEDITVIEW 5730.878273 0.212801 33 12 0 -1 0 0 0 0.5
        KEYSNAP 0
        TRACKSEL 0
        EVTFILTER 0 -1 -1 -1 -1 0 0 0 0 -1 -1 -1 -1 0 -1 0 -1 -1
        CFGEDIT 1 1 0 1 0 0 1 1 1 1 1 0.25 2007 117 3352 856 0 0 0 0 0 0 0 0 0 0 0 0 1 64
      >
    >
    <ITEM
      POSITION 45.570548
      SNAPOFFS 0
      LENGTH 6.76056
      LOOP 1
      ALLTAKES 0
      FADEIN 1 0 0 1 0 0 0
      FADEOUT 1 0 0 1 0 0 0
      MUTE 0 0
      BEAT 1
      SEL 0
      IGUID {EAA97694-CF13-EA44-B692-9B4C9DB9CE3E}
      IID 62
      NAME the_centennial_festival_for_magical.mid
      VOLPAN 1 0 1 -1
      SOFFS 47.170548 116
      PLAYRATE 1 1 0 -1 0 0.0025
      CHANMODE 2
      GUID {2D8DB877-D227-0C4A-8A90-DCDCA255B389}
      <SOURCE MIDI
        HASDATA 1 96 QN
        CCINTERP 32
        POOLEDEVTS {657AB650-C540-D946-8027-E461A9AC5065}
        <X 0 0
          /yEBAA==
        >
        <X 0 0 0 0 4 "Piano 1"
          /wRQaWFubyAx
        >
        E 63 b7 00 00
        E 1 b7 20 00
        E 1 c7 00 00
        E 1 b7 0a 10
        E 1 b7 07 7f
        E 1 b7 0b 7f
        E 1 b7 5b 00
        E 1 b7 5d 00
        E 1 b7 5e 00
        E 144 b7 65 00
        E 0 b7 64 01
        E 0 b7 06 40
        E 0 b7 26 00
        <X 1 0
          8EEQQhJAGEBAQEBAQEBAQEBAQEBo9w==
        >
        E 2 b7 40 00
        E 1 b7 63 01
        E 0 b7 62 08
        E 0 b7 06 40
        E 1 b7 63 01
        E 0 b7 62 09
        E 0 b7 06 40
        E 1 b7 63 01
        E 0 b7 62 0a
        E 0 b7 06 40
        E 1 b7 63 01
        E 0 b7 62 20
        E 0 b7 06 40
        E 1 b7 63 01
        E 0 b7 62 21
        E 0 b7 06 40
        E 1 b7 63 01
        E 0 b7 62 63
        E 0 b7 06 40
        E 1 b7 63 01
        E 0 b7 62 64
        E 0 b7 06 40
        E 1 b7 63 01
        E 0 b7 62 66
        E 0 b7 06 40
        <X 1 0
          8EEQQhJASCAAWPc=
        >
        E 157 b7 40 00
        E 0 97 57 5a
        E 47 87 57 00
        E 1 97 52 5a
        E 47 87 52 00
        E 1 97 55 5a
        E 47 87 55 00
        E 1 97 50 5a
        E 47 87 50 00
        E 1 97 52 5a
        E 47 87 52 00
        E 1 97 4e 5a
        E 47 87 4e 00
        E 1 97 50 5a
        E 47 87 50 00
        E 1 97 4d 5a
        E 47 87 4d 00
        E 1 97 4e 5a
        E 47 87 4e 00
        E 1 97 4b 5a
        E 47 87 4b 00
        E 1 97 4d 5a
        E 47 87 4d 00
        E 1 97 49 5a
        E 47 87 49 00
        E 1 97 4b 5a
        E 47 87 4b 00
        E 1 97 46 5a
        E 47 87 46 00
        E 1 97 49 5a
        E 47 87 49 00
        E 1 97 44 5a
        E 47 87 44 00
        E 1 97 57 5a
        E 47 87 57 00
        E 1 97 52 5a
        E 47 87 52 00
        E 1 97 55 5a
        E 47 87 55 00
        E 1 97 50 5a
        E 47 87 50 00
        E 1 97 52 5a
        E 47 87 52 00
        E 1 97 4e 5a
        E 47 87 4e 00
        E 1 97 50 5a
        E 47 87 50 00
        E 1 97 4d 5a
        E 47 87 4d 00
        E 1 97 4e 5a
        E 47 87 4e 00
        E 1 97 4b 5a
        E 47 87 4b 00
        E 1 97 4d 5a
        E 47 87 4d 00
        E 1 97 49 5a
        E 47 87 49 00
        E 1 97 4b 5a
        E 47 87 4b 00
        E 1 97 46 5a
        E 47 87 46 00
        E 1 97 49 5a
        E 47 87 49 00
        E 1 97 44 5a
        E 47 87 44 00
        E 1 97 57 5a
        E 47 87 57 00
        E 1 97 52 5a
        E 47 87 52 00
        E 1 97 55 5a
        E 47 87 55 00
        E 1 97 50 5a
        E 47 87 50 00
        E 1 97 52 5a
        E 47 87 52 00
        E 1 97 4e 5a
        E 47 87 4e 00
        E 1 97 50 5a
        E 47 87 50 00
        E 1 97 4d 5a
        E 47 87 4d 00
        E 1 97 4e 5a
        E 47 87 4e 00
        E 1 97 4b 5a
        E 47 87 4b 00
        E 1 97 4d 5a
        E 47 87 4d 00
        E 1 97 49 5a
        E 47 87 49 00
        E 1 97 4b 5a
        E 47 87 4b 00
        E 1 97 46 5a
        E 47 87 46 00
        E 1 97 49 5a
        E 47 87 49 00
        E 1 97 44 5a
        E 47 87 44 00
        E 1 97 57 5a
        E 47 87 57 00
        E 1 97 52 5a
        E 47 87 52 00
        E 1 97 55 5a
        E 47 87 55 00
        E 1 97 50 5a
        E 47 87 50 00
        E 1 97 52 5a
        E 47 87 52 00
        E 1 97 4e 5a
        E 47 87 4e 00
        E 1 97 50 5a
        E 47 87 50 00
        E 1 97 4d 5a
        E 47 87 4d 00
        E 1 97 4e 5a
        E 47 87 4e 00
        E 1 97 4b 5a
        E 47 87 4b 00
        E 1 97 4d 5a
        E 47 87 4d 00
        E 1 97 49 5a
        E 47 87 49 00
        E 1 97 4b 5a
        E 47 87 4b 00
        E 1 97 46 5a
        E 47 87 46 00
        E 1 97 49 5a
        E 47 87 49 00
        E 1 97 44 5a
        E 47 87 44 00
        E 1 97 57 5a
        E 47 87 57 00
        E 1 97 52 5a
        E 47 87 52 00
        E 1 97 55 5a
        E 47 87 55 00
        E 1 97 50 5a
        E 47 87 50 00
        E 1 97 52 5a
        E 47 87 52 00
        E 1 97 4e 5a
        E 47 87 4e 00
        E 1 97 50 5a
        E 47 87 50 00
        E 1 97 4d 5a
        E 47 87 4d 00
        E 1 97 4e 5a
        E 47 87 4e 00
        E 1 97 4b 5a
        E 47 87 4b 00
        E 1 97 4d 5a
        E 47 87 4d 00
        E 1 97 49 5a
        E 47 87 49 00
        E 1 97 4b 5a
        E 47 87 4b 00
        E 1 97 46 5a
        E 47 87 46 00
        E 1 97 49 5a
        E 47 87 49 00
        E 1 97 44 5a
        E 47 87 44 00
        E 1 97 57 5a
        E 47 87 57 00
        E 1 97 52 5a
        E 47 87 52 00
        E 1 97 55 5a
        E 47 87 55 00
        E 1 97 50 5a
        E 47 87 50 00
        E 1 97 52 5a
        E 47 87 52 00
        E 1 97 4e 5a
        E 47 87 4e 00
        E 1 97 50 5a
        E 47 87 50 00
        E 1 97 4d 5a
        E 47 87 4d 00
        E 1 97 4e 5a
        E 47 87 4e 00
        E 1 97 4b 5a
        E 47 87 4b 00
        E 1 97 4d 5a
        E 47 87 4d 00
        E 1 97 49 5a
        E 47 87 49 00
        E 1 97 4b 5a
        E 47 87 4b 00
        E 1 97 46 5a
        E 47 87 46 00
        E 1 97 49 5a
        E 47 87 49 00
        E 1 97 44 5a
        E 47 87 44 00
        E 1 97 57 5a
        E 47 87 57 00
        E 1 97 52 5a
        E 47 87 52 00
        E 1 97 55 5a
        E 47 87 55 00
        E 1 97 50 5a
        E 47 87 50 00
        E 1 97 52 5a
        E 47 87 52 00
        E 1 97 4e 5a
        E 47 87 4e 00
        E 1 97 50 5a
        E 47 87 50 00
        E 1 97 4d 5a
        E 47 87 4d 00
        E 1 97 4e 5a
        E 47 87 4e 00
        E 1 97 4b 5a
        E 47 87 4b 00
        E 1 97 4d 5a
        E 47 87 4d 00
        E 1 97 49 5a
        E 47 87 49 00
        E 1 97 4b 5a
        E 47 87 4b 00
        E 1 97 46 5a
        E 47 87 46 00
        E 1 97 49 5a
        E 47 87 49 00
        E 1 97 44 5a
        E 47 87 44 00
        E 1 97 57 5a
        E 47 87 57 00
        E 1 97 52 5a
        E 47 87 52 00
        E 1 97 55 5a
        E 47 87 55 00
        E 1 97 50 5a
        E 47 87 50 00
        E 1 97 52 5a
        E 47 87 52 00
        E 1 97 4e 5a
        E 47 87 4e 00
        E 1 97 50 5a
        E 47 87 50 00
        E 1 97 4d 5a
        E 47 87 4d 00
        E 1 97 4e 5a
        E 47 87 4e 00
        E 1 97 4b 5a
        E 47 87 4b 00
        E 1 97 4d 5a
        E 47 87 4d 00
        E 1 97 49 5a
        E 47 87 49 00
        E 1 97 4b 5a
        E 47 87 4b 00
        E 1 97 46 5a
        E 47 87 46 00
        E 1 97 49 5a
        E 47 87 49 00
        E 1 97 44 5a
        E 47 87 44 00
        E 1153 97 56 5a
        E 11 87 56 00
        E 1 97 55 5a
        E 11 87 55 00
        E 1 97 54 5a
        E 11 87 54 00
        E 1 97 53 5a
        E 11 87 53 00
        E 1 97 52 5a
        E 11 87 52 00
        E 1 97 51 5a
        E 11 87 51 00
        E 1 97 50 5a
        E 11 87 50 00
        E 1 97 4f 5a
        E 11 87 4f 00
        E 1 97 4e 5a
        E 11 87 4e 00
        E 1 97 4d 5a
        E 11 87 4d 00
        E 1 97 4c 5a
        E 11 87 4c 00
        E 1 97 4b 5a
        E 11 87 4b 00
        E 1 97 4a 5a
        E 11 87 4a 00
        E 1 97 49 5a
        E 11 87 49 00
        E 1 97 48 5a
        E 11 87 48 00
        E 1 97 47 5a
        E 11 87 47 00
        E 1 97 46 5a
        E 11 87 46 00
        E 1 97 45 5a
        E 11 87 45 00
        E 1 97 44 5a
        E 11 87 44 00
        E 1 97 43 5a
        E 11 87 43 00
        E 1 97 42 5a
        E 11 87 42 00
        E 1 97 41 5a
        E 11 87 41 00
        E 1 97 40 5a
        E 11 87 40 00
        E 1 97 3f 5a
        E 11 87 3f 00
        E 1 97 3e 5a
        E 11 87 3e 00
        E 1 97 3d 5a
        E 11 87 3d 00
        E 1 97 3c 5a
        E 11 87 3c 00
        E 1 97 3b 5a
        E 11 87 3b 00
        E 1 97 3a 5a
        E 11 87 3a 00
        E 1 97 39 5a
        E 11 87 39 00
        E 1 97 38 5a
        E 11 87 38 00
        E 1 97 37 5a
        E 11 87 37 00
        E 3073 97 4f 7f
        E 47 87 4f 00
        E 1 97 4d 7f
        E 47 87 4d 00
        E 1 97 4a 7f
        E 47 87 4a 00
        E 1 97 4f 7f
        E 47 87 4f 00
        E 1 97 4d 7f
        E 47 87 4d 00
        E 1 97 4a 7f
        E 47 87 4a 00
        E 1 97 4f 7f
        E 47 87 4f 00
        E 1 97 4d 7f
        E 47 87 4d 00
        E 1 97 4f 7f
        E 47 87 4f 00
        E 1 97 4d 7f
        E 47 87 4d 00
        E 1 97 4a 7f
        E 47 87 4a 00
        E 1 97 4f 7f
        E 47 87 4f 00
        E 1 97 4d 7f
        E 47 87 4d 00
        E 1 97 4a 7f
        E 47 87 4a 00
        E 1 97 4f 7f
        E 47 87 4f 00
        E 1 97 4d 7f
        E 47 87 4d 00
        E 1 97 4f 7f
        E 47 87 4f 00
        E 1 97 4d 7f
        E 47 87 4d 00
        E 1 97 4a 7f
        E 47 87 4a 00
        E 1 97 4f 7f
        E 47 87 4f 00
        E 1 97 4d 7f
        E 47 87 4d 00
        E 1 97 4a 7f
        E 47 87 4a 00
        E 1 97 4f 7f
        E 47 87 4f 00
        E 1 97 4d 7f
        E 47 87 4d 00
        E 1 97 4a 7f
        E 47 87 4a 00
        E 1 97 52 7f
        E 47 87 52 00
        E 1 97 51 7f
        E 47 87 51 00
        e 1 97 4d 7f
        e 47 87 4d 00
        E 1 97 4f 7f
        E 191 87 4f 00
        E 1 b0 7b 00
        CCINTERP 32
        CHASE_CC_TAKEOFFS 1
        GUID {A5EBA29A-70DC-7241-9AD2-A60ABFC02945}
        IGNTEMPO 0 120 4 4
        SRCCOLOR 95
        VELLANE -1 100 0
        CFGEDITVIEW 11112.286505 0.50264 17 12 0 -1 0 0 0 0.5
        KEYSNAP 0
        TRACKSEL 0
        EVTFILTER 0 -1 -1 -1 -1 0 0 0 0 -1 -1 -1 -1 0 -1 0 -1 -1
        CFGEDIT 1 1 0 1 0 0 1 1 1 1 1 0.25 2007 92 3352 831 0 0 0 0 0 0 0 0 0 0 0 0 1 64
      >
    >
    <ITEM
      POSITION 52.331108
      SNAPOFFS 0
      LENGTH 10.02346
      LOOP 1
      ALLTAKES 0
      FADEIN 1 0 0 1 0 0 0
      FADEOUT 1 0 0 1 0 0 0
      MUTE 0 0
      BEAT 1
      SEL 0
      IGUID {1A2B1066-4E13-F145-8188-9C754799C50C}
      IID 83
      NAME the_centennial_festival_for_magical.mid
      VOLPAN 1 0 1 -1
      SOFFS 0 0
      PLAYRATE 1 1 0 -1 0 0.0025
      CHANMODE 2
      GUID {7CA245E3-FACE-1046-907F-4EDAE092502C}
      <SOURCE MIDI
        HASDATA 1 96 QN
        CCINTERP 32
        POOLEDEVTS {06F71152-8B96-B241-ADE0-747C51A58E54}
        E 0 97 4f 7f
        E 47 87 4f 00
        E 1 97 4a 7f
        E 47 87 4a 00
        E 1 97 51 7f
        E 47 87 51 00
        E 1 97 4a 7f
        E 47 87 4a 00
        E 1 97 52 7f
        E 47 87 52 00
        E 1 97 4a 7f
        E 47 87 4a 00
        E 1 97 54 7f
        E 47 87 54 00
        E 1 97 4a 7f
        E 47 87 4a 00
        E 1 97 52 7f
        E 47 87 52 00
        E 1 97 4a 7f
        E 47 87 4a 00
        E 1 97 51 7f
        E 47 87 51 00
        E 1 97 4a 7f
        E 47 87 4a 00
        E 1 97 4f 7f
        E 47 87 4f 00
        E 1 97 4a 7f
        E 47 87 4a 00
        E 1 97 4d 7f
        E 47 87 4d 00
        E 1 97 4a 7f
        E 47 87 4a 00
        E 1 97 4b 7f
        E 47 87 4b 00
        E 1 97 46 7f
        E 47 87 46 00
        E 1 97 4d 7f
        E 47 87 4d 00
        E 1 97 46 7f
        E 47 87 46 00
        E 1 97 4e 7f
        E 47 87 4e 00
        E 1 97 46 7f
        E 47 87 46 00
        E 1 97 50 7f
        E 47 87 50 00
        E 1 97 46 7f
        E 47 87 46 00
        E 1 97 4e 7f
        E 47 87 4e 00
        E 1 97 46 7f
        E 47 87 46 00
        E 1 97 4d 7f
        E 47 87 4d 00
        E 1 97 46 7f
        E 47 87 46 00
        E 1 97 4b 7f
        E 47 87 4b 00
        E 1 97 46 7f
        E 47 87 46 00
        E 1 97 49 7f
        E 47 87 49 00
        E 1 97 46 7f
        E 47 87 46 00
        E 1 97 4b 7f
        E 47 87 4b 00
        E 1 97 42 7f
        E 47 87 42 00
        E 1 97 4d 7f
        E 47 87 4d 00
        E 1 97 44 7f
        E 47 87 44 00
        E 1 97 4e 7f
        E 47 87 4e 00
        E 1 97 46 7f
        E 47 87 46 00
        E 1 97 4d 7f
        E 47 87 4d 00
        E 1 97 44 7f
        E 47 87 44 00
        E 1 97 4d 7f
        E 47 87 4d 00
        E 1 97 44 7f
        E 47 87 44 00
        E 1 97 4e 7f
        E 47 87 4e 00
        E 1 97 46 7f
        E 47 87 46 00
        E 1 97 50 7f
        E 47 87 50 00
        E 1 97 4d 7f
        E 47 87 4d 00
        e 1 97 57 7f
        e 96 87 57 00
        E 0 b0 7b 00
        CCINTERP 32
        CHASE_CC_TAKEOFFS 1
        GUID {BC66506F-822A-A74E-BE6F-CAF117BAD71C}
        IGNTEMPO 0 120 4 4
        SRCCOLOR 151
        VELLANE -1 100 0
        CFGEDITVIEW -118.883531 0.340082 33 12 0 -1 0 0 0 0.5
        KEYSNAP 0
        TRACKSEL 0
        EVTFILTER 0 -1 -1 -1 -1 0 0 0 0 -1 -1 -1 -1 0 -1 0 -1 -1
        CFGEDIT 1 1 0 1 0 0 1 1 1 1 1 0.25 1924 115 3269 854 0 0 0 0 0 0 0 0 0 0 0 0 1 64
      >
    >
    <ITEM
      POSITION 62.354568
      SNAPOFFS 0
      LENGTH 25.816968
      LOOP 1
      ALLTAKES 0
      FADEIN 1 0 0 1 0 0 0
      FADEOUT 1 0 0 1 0 0 0
      MUTE 0 0
      BEAT 1
      SEL 0
      IGUID {B07587F9-B8D7-3041-9881-53FC466CC2E6}
      IID 81
      NAME the_centennial_festival_for_magical.mid
      VOLPAN 1 0 1 -1
      SOFFS 0 0
      PLAYRATE 1 1 0 -1 0 0.0025
      CHANMODE 2
      GUID {18249082-3B94-EA45-B55E-CA0FA078D2D8}
      <SOURCE MIDI
        HASDATA 1 96 QN
        CCINTERP 32
        POOLEDEVTS {49EB801B-E9E6-F54C-BAA5-C540D3F1DE17}
        e 0 97 57 7f
        e 47 87 57 00
        E 1 97 52 7f
        E 47 87 52 00
        E 1 97 55 7f
        E 47 87 55 00
        E 1 97 50 7f
        E 47 87 50 00
        E 1 97 52 7f
        E 47 87 52 00
        E 1 97 4e 7f
        E 47 87 4e 00
        E 1 97 50 7f
        E 47 87 50 00
        E 1 97 4d 7f
        E 47 87 4d 00
        E 1 97 4e 7f
        E 47 87 4e 00
        E 1 97 4b 7f
        E 47 87 4b 00
        E 1 97 4d 7f
        E 47 87 4d 00
        E 1 97 49 7f
        E 47 87 49 00
        E 1 97 4b 7f
        E 47 87 4b 00
        E 1 97 46 7f
        E 47 87 46 00
        E 1 97 49 7f
        E 47 87 49 00
        E 1 97 44 7f
        E 47 87 44 00
        E 1 97 57 7f
        E 47 87 57 00
        E 1 97 52 7f
        E 47 87 52 00
        E 1 97 55 7f
        E 47 87 55 00
        E 1 97 50 7f
        E 47 87 50 00
        E 1 97 52 7f
        E 47 87 52 00
        E 1 97 4e 7f
        E 47 87 4e 00
        E 1 97 50 7f
        E 47 87 50 00
        E 1 97 4d 7f
        E 47 87 4d 00
        E 1 97 4e 7f
        E 47 87 4e 00
        E 1 97 4b 7f
        E 47 87 4b 00
        E 1 97 4d 7f
        E 47 87 4d 00
        E 1 97 49 7f
        E 47 87 49 00
        E 1 97 4b 7f
        E 47 87 4b 00
        E 1 97 46 7f
        E 47 87 46 00
        E 1 97 49 7f
        E 47 87 49 00
        E 1 97 44 7f
        E 47 87 44 00
        E 1 97 57 7f
        E 47 87 57 00
        E 1 97 52 7f
        E 47 87 52 00
        E 1 97 55 7f
        E 47 87 55 00
        E 1 97 50 7f
        E 47 87 50 00
        E 1 97 52 7f
        E 47 87 52 00
        E 1 97 4e 7f
        E 47 87 4e 00
        E 1 97 50 7f
        E 47 87 50 00
        E 1 97 4d 7f
        E 47 87 4d 00
        E 1 97 4e 7f
        E 47 87 4e 00
        E 1 97 4b 7f
        E 47 87 4b 00
        E 1 97 4d 7f
        E 47 87 4d 00
        E 1 97 49 7f
        E 47 87 49 00
        E 1 97 4b 7f
        E 47 87 4b 00
        E 1 97 46 7f
        E 47 87 46 00
        E 1 97 49 7f
        E 47 87 49 00
        E 1 97 44 7f
        E 47 87 44 00
        E 1 97 57 7f
        E 47 87 57 00
        E 1 97 52 7f
        E 47 87 52 00
        E 1 97 55 7f
        E 47 87 55 00
        E 1 97 50 7f
        E 47 87 50 00
        E 1 97 52 7f
        E 47 87 52 00
        E 1 97 4e 7f
        E 47 87 4e 00
        E 1 97 50 7f
        E 47 87 50 00
        E 1 97 4d 7f
        E 47 87 4d 00
        E 1 97 4e 7f
        E 47 87 4e 00
        E 1 97 4b 7f
        E 47 87 4b 00
        E 1 97 4d 7f
        E 47 87 4d 00
        E 1 97 49 7f
        E 47 87 49 00
        E 1 97 4b 7f
        E 47 87 4b 00
        E 1 97 46 7f
        E 47 87 46 00
        E 1 97 49 7f
        E 47 87 49 00
        E 1 97 44 7f
        E 47 87 44 00
        E 1 97 57 7f
        E 47 87 57 00
        E 1 97 52 7f
        E 47 87 52 00
        E 1 97 55 7f
        E 47 87 55 00
        E 1 97 50 7f
        E 47 87 50 00
        E 1 97 52 7f
        E 47 87 52 00
        E 1 97 4e 7f
        E 47 87 4e 00
        E 1 97 50 7f
        E 47 87 50 00
        E 1 97 4d 7f
        E 47 87 4d 00
        E 1 97 4e 7f
        E 47 87 4e 00
        E 1 97 4b 7f
        E 47 87 4b 00
        E 1 97 4d 7f
        E 47 87 4d 00
        E 1 97 49 7f
        E 47 87 49 00
        E 1 97 4b 7f
        E 47 87 4b 00
        E 1 97 46 7f
        E 47 87 46 00
        E 1 97 49 7f
        E 47 87 49 00
        E 1 97 44 7f
        E 47 87 44 00
        E 1 97 57 7f
        E 47 87 57 00
        E 1 97 52 7f
        E 47 87 52 00
        E 1 97 55 7f
        E 47 87 55 00
        E 1 97 50 7f
        E 47 87 50 00
        E 1 97 52 7f
        E 47 87 52 00
        E 1 97 4e 7f
        E 47 87 4e 00
        E 1 97 50 7f
        E 47 87 50 00
        E 1 97 4d 7f
        E 47 87 4d 00
        E 1 97 4e 7f
        E 47 87 4e 00
        E 1 97 4b 7f
        E 47 87 4b 00
        E 1 97 4d 7f
        E 47 87 4d 00
        E 1 97 49 7f
        E 47 87 49 00
        E 1 97 4b 7f
        E 47 87 4b 00
        E 1 97 46 7f
        E 47 87 46 00
        E 1 97 49 7f
        E 47 87 49 00
        E 1 97 44 7f
        E 47 87 44 00
        E 1 97 57 7f
        E 47 87 57 00
        E 1 97 52 7f
        E 47 87 52 00
        E 1 97 55 7f
        E 47 87 55 00
        E 1 97 50 7f
        E 47 87 50 00
        E 1 97 52 7f
        E 47 87 52 00
        E 1 97 4e 7f
        E 47 87 4e 00
        E 1 97 50 7f
        E 47 87 50 00
        E 1 97 4d 7f
        E 47 87 4d 00
        E 1 97 4e 7f
        E 47 87 4e 00
        E 1 97 4b 7f
        E 47 87 4b 00
        E 1 97 4d 7f
        E 47 87 4d 00
        E 1 97 49 7f
        E 47 87 49 00
        E 1 97 4b 7f
        E 47 87 4b 00
        E 1 97 46 7f
        E 47 87 46 00
        E 1 97 49 7f
        E 47 87 49 00
        E 1 97 44 7f
        E 47 87 44 00
        E 1 97 57 7f
        E 47 87 57 00
        E 1 97 52 7f
        E 47 87 52 00
        E 1 97 55 7f
        E 47 87 55 00
        E 1 97 50 7f
        E 47 87 50 00
        E 1 97 52 7f
        E 47 87 52 00
        E 1 97 4e 7f
        E 47 87 4e 00
        E 1 97 50 7f
        E 47 87 50 00
        E 1 97 4d 7f
        E 47 87 4d 00
        E 1 97 4e 7f
        E 47 87 4e 00
        E 1 97 4b 7f
        E 47 87 4b 00
        E 1 97 4d 7f
        E 47 87 4d 00
        E 1 97 49 7f
        E 47 87 49 00
        E 1 97 4b 7f
        E 47 87 4b 00
        E 1 97 46 7f
        E 47 87 46 00
        E 1 97 49 7f
        E 47 87 49 00
        E 1 97 44 7f
        E 47 87 44 00
        E 1 b0 7b 00
        CCINTERP 32
        CHASE_CC_TAKEOFFS 1
        GUID {0803E46D-E55C-474C-AC6A-E7DF3A2FDA1A}
        IGNTEMPO 0 120 4 4
        SRCCOLOR 149
        VELLANE -1 100 0
        CFGEDITVIEW -191.139862 0.210048 33 12 0 -1 0 0 0 0.5
        KEYSNAP 0
        TRACKSEL 0
        EVTFILTER 0 -1 -1 -1 -1 0 0 0 0 -1 -1 -1 -1 0 -1 0 -1 -1
        CFGEDIT 1 1 0 1 0 0 1 1 1 1 1 0.25 575 189 1920 928 0 0 0 0 0 0 0 0 0 0 0 0 1 64
      >
    >
    <ITEM
      POSITION 88.17153599997982
      SNAPOFFS 0
      LENGTH 6.44294399999973
      LOOP 1
      ALLTAKES 0
      FADEIN 1 0 0 1 0 0 0
      FADEOUT 1 0 0 1 0 0 0
      MUTE 0 0
      BEAT 1
      SEL 0
      IGUID {53B070BC-A228-1B45-90B5-4B83B07403AD}
      IID 73
      NAME the_centennial_festival_for_magical.mid
      VOLPAN 1 0 1 -1
      SOFFS 0 0
      PLAYRATE 1 1 0 -1 0 0.0025
      CHANMODE 0
      GUID {EC018689-C2AD-F34C-A1BE-6597E2DC4C4F}
      <SOURCE MIDI
        HASDATA 1 96 QN
        CCINTERP 32
        POOLEDEVTS {2E2F1242-D8F5-DE49-97DB-085E9ADE9690}
        e 1 91 2f 7f
        e 383 81 2f 00
        e 1 91 31 7f
        e 383 81 31 00
        e 1 91 33 7f
        e 383 81 33 00
        e 1 91 35 7f
        e 383 81 35 00
        E 0 b0 7b 00
        CCINTERP 32
        CHASE_CC_TAKEOFFS 1
        GUID {693B5240-099C-944B-BB52-766B91C93545}
        IGNTEMPO 0 120 4 4
        SRCCOLOR 141
        VELLANE -1 100 0
        CFGEDITVIEW -160.095387 0.25285 67 12 0 -1 0 0 0 0.5
        KEYSNAP 0
        TRACKSEL 0
        EVTFILTER 0 -1 -1 -1 -1 0 0 0 0 -1 -1 -1 -1 0 -1 0 -1 -1
        CFGEDIT 1 1 0 1 0 0 1 1 1 1 1 0.25 543 172 1920 943 0 0 0 0 0 0 0 0 0 0 0 0 1 64
      >
    >
    <ITEM
      POSITION 94.61448
      SNAPOFFS 0
      LENGTH 12.84507
      LOOP 1
      ALLTAKES 0
      FADEIN 1 0 0 1 0 0 0
      FADEOUT 1 0 0 1 0 0 0
      MUTE 0 0
      BEAT 1
      SEL 0
      IGUID {FFBA18FA-8273-F641-BD04-8A802093756E}
      IID 26
      NAME the_centennial_festival_for_magical.mid
      VOLPAN 1 0 1 -1
      SOFFS 97.01448 238
      PLAYRATE 1 1 0 -1 0 0.0025
      CHANMODE 2
      GUID {6A100967-B7D7-094D-941A-4422AC8F15DB}
      <SOURCE MIDI
        HASDATA 1 96 QN
        CCINTERP 32
        POOLEDEVTS {CF4B9250-0083-2841-9AE7-C7319A31F527}
        <X 0 0
          /yEBAA==
        >
        <X 0 0 0 0 4 "Piano 1"
          /wRQaWFubyAx
        >
        E 63 b7 00 00
        E 1 b7 20 00
        E 1 c7 00 00
        E 1 b7 0a 10
        E 1 b7 07 7f
        E 1 b7 0b 7f
        E 1 b7 5b 00
        E 1 b7 5d 00
        E 1 b7 5e 00
        E 144 b7 65 00
        E 0 b7 64 01
        E 0 b7 06 40
        E 0 b7 26 00
        <X 1 0
          8EEQQhJAGEBAQEBAQEBAQEBAQEBo9w==
        >
        E 2 b7 40 00
        E 1 b7 63 01
        E 0 b7 62 08
        E 0 b7 06 40
        E 1 b7 63 01
        E 0 b7 62 09
        E 0 b7 06 40
        E 1 b7 63 01
        E 0 b7 62 0a
        E 0 b7 06 40
        E 1 b7 63 01
        E 0 b7 62 20
        E 0 b7 06 40
        E 1 b7 63 01
        E 0 b7 62 21
        E 0 b7 06 40
        E 1 b7 63 01
        E 0 b7 62 63
        E 0 b7 06 40
        E 1 b7 63 01
        E 0 b7 62 64
        E 0 b7 06 40
        E 1 b7 63 01
        E 0 b7 62 66
        E 0 b7 06 40
        <X 1 0
          8EEQQhJASCAAWPc=
        >
        E 157 b7 40 00
        E 0 97 57 5a
        E 47 87 57 00
        E 1 97 52 5a
        E 47 87 52 00
        E 1 97 55 5a
        E 47 87 55 00
        E 1 97 50 5a
        E 47 87 50 00
        E 1 97 52 5a
        E 47 87 52 00
        E 1 97 4e 5a
        E 47 87 4e 00
        E 1 97 50 5a
        E 47 87 50 00
        E 1 97 4d 5a
        E 47 87 4d 00
        E 1 97 4e 5a
        E 47 87 4e 00
        E 1 97 4b 5a
        E 47 87 4b 00
        E 1 97 4d 5a
        E 47 87 4d 00
        E 1 97 49 5a
        E 47 87 49 00
        E 1 97 4b 5a
        E 47 87 4b 00
        E 1 97 46 5a
        E 47 87 46 00
        E 1 97 49 5a
        E 47 87 49 00
        E 1 97 44 5a
        E 47 87 44 00
        E 1 97 57 5a
        E 47 87 57 00
        E 1 97 52 5a
        E 47 87 52 00
        E 1 97 55 5a
        E 47 87 55 00
        E 1 97 50 5a
        E 47 87 50 00
        E 1 97 52 5a
        E 47 87 52 00
        E 1 97 4e 5a
        E 47 87 4e 00
        E 1 97 50 5a
        E 47 87 50 00
        E 1 97 4d 5a
        E 47 87 4d 00
        E 1 97 4e 5a
        E 47 87 4e 00
        E 1 97 4b 5a
        E 47 87 4b 00
        E 1 97 4d 5a
        E 47 87 4d 00
        E 1 97 49 5a
        E 47 87 49 00
        E 1 97 4b 5a
        E 47 87 4b 00
        E 1 97 46 5a
        E 47 87 46 00
        E 1 97 49 5a
        E 47 87 49 00
        E 1 97 44 5a
        E 47 87 44 00
        E 1 97 57 5a
        E 47 87 57 00
        E 1 97 52 5a
        E 47 87 52 00
        E 1 97 55 5a
        E 47 87 55 00
        E 1 97 50 5a
        E 47 87 50 00
        E 1 97 52 5a
        E 47 87 52 00
        E 1 97 4e 5a
        E 47 87 4e 00
        E 1 97 50 5a
        E 47 87 50 00
        E 1 97 4d 5a
        E 47 87 4d 00
        E 1 97 4e 5a
        E 47 87 4e 00
        E 1 97 4b 5a
        E 47 87 4b 00
        E 1 97 4d 5a
        E 47 87 4d 00
        E 1 97 49 5a
        E 47 87 49 00
        E 1 97 4b 5a
        E 47 87 4b 00
        E 1 97 46 5a
        E 47 87 46 00
        E 1 97 49 5a
        E 47 87 49 00
        E 1 97 44 5a
        E 47 87 44 00
        E 1 97 57 5a
        E 47 87 57 00
        E 1 97 52 5a
        E 47 87 52 00
        E 1 97 55 5a
        E 47 87 55 00
        E 1 97 50 5a
        E 47 87 50 00
        E 1 97 52 5a
        E 47 87 52 00
        E 1 97 4e 5a
        E 47 87 4e 00
        E 1 97 50 5a
        E 47 87 50 00
        E 1 97 4d 5a
        E 47 87 4d 00
        E 1 97 4e 5a
        E 47 87 4e 00
        E 1 97 4b 5a
        E 47 87 4b 00
        E 1 97 4d 5a
        E 47 87 4d 00
        E 1 97 49 5a
        E 47 87 49 00
        E 1 97 4b 5a
        E 47 87 4b 00
        E 1 97 46 5a
        E 47 87 46 00
        E 1 97 49 5a
        E 47 87 49 00
        E 1 97 44 5a
        E 47 87 44 00
        E 1 97 57 5a
        E 47 87 57 00
        E 1 97 52 5a
        E 47 87 52 00
        E 1 97 55 5a
        E 47 87 55 00
        E 1 97 50 5a
        E 47 87 50 00
        E 1 97 52 5a
        E 47 87 52 00
        E 1 97 4e 5a
        E 47 87 4e 00
        E 1 97 50 5a
        E 47 87 50 00
        E 1 97 4d 5a
        E 47 87 4d 00
        E 1 97 4e 5a
        E 47 87 4e 00
        E 1 97 4b 5a
        E 47 87 4b 00
        E 1 97 4d 5a
        E 47 87 4d 00
        E 1 97 49 5a
        E 47 87 49 00
        E 1 97 4b 5a
        E 47 87 4b 00
        E 1 97 46 5a
        E 47 87 46 00
        E 1 97 49 5a
        E 47 87 49 00
        E 1 97 44 5a
        E 47 87 44 00
        E 1 97 57 5a
        E 47 87 57 00
        E 1 97 52 5a
        E 47 87 52 00
        E 1 97 55 5a
        E 47 87 55 00
        E 1 97 50 5a
        E 47 87 50 00
        E 1 97 52 5a
        E 47 87 52 00
        E 1 97 4e 5a
        E 47 87 4e 00
        E 1 97 50 5a
        E 47 87 50 00
        E 1 97 4d 5a
        E 47 87 4d 00
        E 1 97 4e 5a
        E 47 87 4e 00
        E 1 97 4b 5a
        E 47 87 4b 00
        E 1 97 4d 5a
        E 47 87 4d 00
        E 1 97 49 5a
        E 47 87 49 00
        E 1 97 4b 5a
        E 47 87 4b 00
        E 1 97 46 5a
        E 47 87 46 00
        E 1 97 49 5a
        E 47 87 49 00
        E 1 97 44 5a
        E 47 87 44 00
        E 1 97 57 5a
        E 47 87 57 00
        E 1 97 52 5a
        E 47 87 52 00
        E 1 97 55 5a
        E 47 87 55 00
        E 1 97 50 5a
        E 47 87 50 00
        E 1 97 52 5a
        E 47 87 52 00
        E 1 97 4e 5a
        E 47 87 4e 00
        E 1 97 50 5a
        E 47 87 50 00
        E 1 97 4d 5a
        E 47 87 4d 00
        E 1 97 4e 5a
        E 47 87 4e 00
        E 1 97 4b 5a
        E 47 87 4b 00
        E 1 97 4d 5a
        E 47 87 4d 00
        E 1 97 49 5a
        E 47 87 49 00
        E 1 97 4b 5a
        E 47 87 4b 00
        E 1 97 46 5a
        E 47 87 46 00
        E 1 97 49 5a
        E 47 87 49 00
        E 1 97 44 5a
        E 47 87 44 00
        E 1 97 57 5a
        E 47 87 57 00
        E 1 97 52 5a
        E 47 87 52 00
        E 1 97 55 5a
        E 47 87 55 00
        E 1 97 50 5a
        E 47 87 50 00
        E 1 97 52 5a
        E 47 87 52 00
        E 1 97 4e 5a
        E 47 87 4e 00
        E 1 97 50 5a
        E 47 87 50 00
        E 1 97 4d 5a
        E 47 87 4d 00
        E 1 97 4e 5a
        E 47 87 4e 00
        E 1 97 4b 5a
        E 47 87 4b 00
        E 1 97 4d 5a
        E 47 87 4d 00
        E 1 97 49 5a
        E 47 87 49 00
        E 1 97 4b 5a
        E 47 87 4b 00
        E 1 97 46 5a
        E 47 87 46 00
        E 1 97 49 5a
        E 47 87 49 00
        E 1 97 44 5a
        E 47 87 44 00
        E 1153 97 56 5a
        E 11 87 56 00
        E 1 97 55 5a
        E 11 87 55 00
        E 1 97 54 5a
        E 11 87 54 00
        E 1 97 53 5a
        E 11 87 53 00
        E 1 97 52 5a
        E 11 87 52 00
        E 1 97 51 5a
        E 11 87 51 00
        E 1 97 50 5a
        E 11 87 50 00
        E 1 97 4f 5a
        E 11 87 4f 00
        E 1 97 4e 5a
        E 11 87 4e 00
        E 1 97 4d 5a
        E 11 87 4d 00
        E 1 97 4c 5a
        E 11 87 4c 00
        E 1 97 4b 5a
        E 11 87 4b 00
        E 1 97 4a 5a
        E 11 87 4a 00
        E 1 97 49 5a
        E 11 87 49 00
        E 1 97 48 5a
        E 11 87 48 00
        E 1 97 47 5a
        E 11 87 47 00
        E 1 97 46 5a
        E 11 87 46 00
        E 1 97 45 5a
        E 11 87 45 00
        E 1 97 44 5a
        E 11 87 44 00
        E 1 97 43 5a
        E 11 87 43 00
        E 1 97 42 5a
        E 11 87 42 00
        E 1 97 41 5a
        E 11 87 41 00
        E 1 97 40 5a
        E 11 87 40 00
        E 1 97 3f 5a
        E 11 87 3f 00
        E 1 97 3e 5a
        E 11 87 3e 00
        E 1 97 3d 5a
        E 11 87 3d 00
        E 1 97 3c 5a
        E 11 87 3c 00
        E 1 97 3b 5a
        E 11 87 3b 00
        E 1 97 3a 5a
        E 11 87 3a 00
        E 1 97 39 5a
        E 11 87 39 00
        E 1 97 38 5a
        E 11 87 38 00
        E 1 97 37 5a
        E 11 87 37 00
        E 3073 97 4f 7f
        E 47 87 4f 00
        E 1 97 4d 7f
        E 47 87 4d 00
        E 1 97 4a 7f
        E 47 87 4a 00
        E 1 97 4f 7f
        E 47 87 4f 00
        E 1 97 4d 7f
        E 47 87 4d 00
        E 1 97 4a 7f
        E 47 87 4a 00
        E 1 97 4f 7f
        E 47 87 4f 00
        E 1 97 4d 7f
        E 47 87 4d 00
        E 1 97 4f 7f
        E 47 87 4f 00
        E 1 97 4d 7f
        E 47 87 4d 00
        E 1 97 4a 7f
        E 47 87 4a 00
        E 1 97 4f 7f
        E 47 87 4f 00
        E 1 97 4d 7f
        E 47 87 4d 00
        E 1 97 4a 7f
        E 47 87 4a 00
        E 1 97 4f 7f
        E 47 87 4f 00
        E 1 97 4d 7f
        E 47 87 4d 00
        E 1 97 4f 7f
        E 0 97 5b 7f
        E 47 87 4f 00
        E 0 87 5b 00
        E 1 97 4d 7f
        E 0 97 59 7f
        E 47 87 4d 00
        E 0 87 59 00
        E 1 97 56 7f
        E 0 97 4a 7f
        E 47 87 56 00
        E 0 87 4a 00
        E 1 97 5b 7f
        E 0 97 4f 7f
        E 47 87 5b 00
        E 0 87 4f 00
        E 1 97 4d 7f
        E 0 97 59 7f
        E 47 87 4d 00
        E 0 87 59 00
        E 1 97 56 7f
        E 0 97 4a 7f
        E 47 87 56 00
        E 0 87 4a 00
        E 1 97 5b 7f
        E 0 97 4f 7f
        E 47 87 5b 00
        E 0 87 4f 00
        E 1 97 4d 7f
        E 0 97 59 7f
        E 47 87 4d 00
        E 0 87 59 00
        E 1 97 56 7f
        E 0 97 4a 7f
        E 47 87 56 00
        E 0 87 4a 00
        E 1 97 52 7f
        E 0 97 5e 7f
        E 47 87 52 00
        E 0 87 5e 00
        E 1 97 5d 7f
        E 0 97 51 7f
        E 47 87 5d 00
        E 0 87 51 00
        E 1 97 4d 7f
        E 0 97 59 7f
        E 47 87 4d 00
        E 0 87 59 00
        E 1 97 4f 7f
        E 0 97 5b 7f
        E 191 87 4f 00
        E 0 87 5b 00
        E 1 97 4f 7f
        E 47 87 4f 00
        E 1 97 4a 7f
        E 47 87 4a 00
        E 1 97 51 7f
        E 47 87 51 00
        E 1 97 4a 7f
        E 47 87 4a 00
        E 1 97 52 7f
        E 47 87 52 00
        E 1 97 4a 7f
        E 47 87 4a 00
        E 1 97 54 7f
        E 47 87 54 00
        E 1 97 4a 7f
        E 47 87 4a 00
        E 1 97 52 7f
        E 47 87 52 00
        E 1 97 4a 7f
        E 47 87 4a 00
        E 1 97 51 7f
        E 47 87 51 00
        E 1 97 4a 7f
        E 47 87 4a 00
        E 1 97 4f 7f
        E 47 87 4f 00
        E 1 97 4a 7f
        E 47 87 4a 00
        E 1 97 4d 7f
        E 47 87 4d 00
        E 1 97 4a 7f
        E 47 87 4a 00
        E 1 97 4b 7f
        E 47 87 4b 00
        E 1 97 46 7f
        E 47 87 46 00
        E 1 97 4d 7f
        E 47 87 4d 00
        E 1 97 46 7f
        E 47 87 46 00
        E 1 97 4e 7f
        E 47 87 4e 00
        E 1 97 46 7f
        E 47 87 46 00
        E 1 97 50 7f
        E 47 87 50 00
        E 1 97 46 7f
        E 47 87 46 00
        E 1 97 4e 7f
        E 47 87 4e 00
        E 1 97 46 7f
        E 47 87 46 00
        E 1 97 4d 7f
        E 47 87 4d 00
        E 1 97 46 7f
        E 47 87 46 00
        E 1 97 4b 7f
        E 47 87 4b 00
        E 1 97 46 7f
        E 47 87 46 00
        E 1 97 49 7f
        E 47 87 49 00
        E 1 97 46 7f
        E 47 87 46 00
        E 1 97 4b 7f
        E 47 87 4b 00
        E 1 97 42 7f
        E 47 87 42 00
        E 1 97 4d 7f
        E 47 87 4d 00
        E 1 97 44 7f
        E 47 87 44 00
        E 1 97 4e 7f
        E 47 87 4e 00
        E 1 97 46 7f
        E 47 87 46 00
        E 1 97 4d 7f
        E 47 87 4d 00
        E 1 97 44 7f
        E 47 87 44 00
        E 1 97 4d 7f
        E 47 87 4d 00
        E 1 97 44 7f
        E 47 87 44 00
        E 1 97 4e 7f
        E 47 87 4e 00
        E 1 97 46 7f
        E 47 87 46 00
        E 1 97 50 7f
        E 47 87 50 00
        E 1 97 4d 7f
        E 47 87 4d 00
        E 1 97 52 7f
        E 11 87 52 00
        E 1 97 55 7f
        E 11 87 55 00
        E 1 97 57 7f
        E 11 87 57 00
        E 1 97 58 7f
        E 11 87 58 00
        E 1 97 59 7f
        E 11 87 59 00
        E 1 97 5a 7f
        E 11 87 5a 00
        E 1 97 5b 7f
        E 11 87 5b 00
        E 1 97 5c 7f
        E 11 87 5c 00
        E 1 97 57 7f
        E 47 87 57 00
        E 1 97 52 7f
        E 47 87 52 00
        E 1 97 55 7f
        E 47 87 55 00
        E 1 97 50 7f
        E 47 87 50 00
        E 1 97 52 7f
        E 47 87 52 00
        E 1 97 4e 7f
        E 47 87 4e 00
        E 1 97 50 7f
        E 47 87 50 00
        E 1 97 4d 7f
        E 47 87 4d 00
        E 1 97 4e 7f
        E 47 87 4e 00
        E 1 97 4b 7f
        E 47 87 4b 00
        E 1 97 4d 7f
        E 47 87 4d 00
        E 1 97 49 7f
        E 47 87 49 00
        E 1 97 4b 7f
        E 47 87 4b 00
        E 1 97 46 7f
        E 47 87 46 00
        E 1 97 49 7f
        E 47 87 49 00
        E 1 97 44 7f
        E 47 87 44 00
        E 1 97 57 7f
        E 47 87 57 00
        E 1 97 52 7f
        E 47 87 52 00
        E 1 97 55 7f
        E 47 87 55 00
        E 1 97 50 7f
        E 47 87 50 00
        E 1 97 52 7f
        E 47 87 52 00
        E 1 97 4e 7f
        E 47 87 4e 00
        E 1 97 50 7f
        E 47 87 50 00
        E 1 97 4d 7f
        E 47 87 4d 00
        E 1 97 4e 7f
        E 47 87 4e 00
        E 1 97 4b 7f
        E 47 87 4b 00
        E 1 97 4d 7f
        E 47 87 4d 00
        E 1 97 49 7f
        E 47 87 49 00
        E 1 97 4b 7f
        E 47 87 4b 00
        E 1 97 46 7f
        E 47 87 46 00
        E 1 97 49 7f
        E 47 87 49 00
        E 1 97 44 7f
        E 47 87 44 00
        E 1 97 57 7f
        E 47 87 57 00
        E 1 97 52 7f
        E 47 87 52 00
        E 1 97 55 7f
        E 47 87 55 00
        E 1 97 50 7f
        E 47 87 50 00
        E 1 97 52 7f
        E 47 87 52 00
        E 1 97 4e 7f
        E 47 87 4e 00
        E 1 97 50 7f
        E 47 87 50 00
        E 1 97 4d 7f
        E 47 87 4d 00
        E 1 97 4e 7f
        E 47 87 4e 00
        E 1 97 4b 7f
        E 47 87 4b 00
        E 1 97 4d 7f
        E 47 87 4d 00
        E 1 97 49 7f
        E 47 87 49 00
        E 1 97 4b 7f
        E 47 87 4b 00
        E 1 97 46 7f
        E 47 87 46 00
        E 1 97 49 7f
        E 47 87 49 00
        E 1 97 44 7f
        E 47 87 44 00
        E 1 97 57 7f
        E 47 87 57 00
        E 1 97 52 7f
        E 47 87 52 00
        E 1 97 55 7f
        E 47 87 55 00
        E 1 97 50 7f
        E 47 87 50 00
        E 1 97 52 7f
        E 47 87 52 00
        E 1 97 4e 7f
        E 47 87 4e 00
        E 1 97 50 7f
        E 47 87 50 00
        E 1 97 4d 7f
        E 47 87 4d 00
        E 1 97 4e 7f
        E 47 87 4e 00
        E 1 97 4b 7f
        E 47 87 4b 00
        E 1 97 4d 7f
        E 47 87 4d 00
        E 1 97 49 7f
        E 47 87 49 00
        E 1 97 4b 7f
        E 47 87 4b 00
        E 1 97 46 7f
        E 47 87 46 00
        E 1 97 49 7f
        E 47 87 49 00
        E 1 97 44 7f
        E 47 87 44 00
        E 1 97 57 7f
        E 47 87 57 00
        E 1 97 52 7f
        E 47 87 52 00
        E 1 97 55 7f
        E 47 87 55 00
        E 1 97 50 7f
        E 47 87 50 00
        E 1 97 52 7f
        E 47 87 52 00
        E 1 97 4e 7f
        E 47 87 4e 00
        E 1 97 50 7f
        E 47 87 50 00
        E 1 97 4d 7f
        E 47 87 4d 00
        E 1 97 4e 7f
        E 47 87 4e 00
        E 1 97 4b 7f
        E 47 87 4b 00
        E 1 97 4d 7f
        E 47 87 4d 00
        E 1 97 49 7f
        E 47 87 49 00
        E 1 97 4b 7f
        E 47 87 4b 00
        E 1 97 46 7f
        E 47 87 46 00
        E 1 97 49 7f
        E 47 87 49 00
        E 1 97 44 7f
        E 47 87 44 00
        E 1 97 57 7f
        E 47 87 57 00
        E 1 97 52 7f
        E 47 87 52 00
        E 1 97 55 7f
        E 47 87 55 00
        E 1 97 50 7f
        E 47 87 50 00
        E 1 97 52 7f
        E 47 87 52 00
        E 1 97 4e 7f
        E 47 87 4e 00
        E 1 97 50 7f
        E 47 87 50 00
        E 1 97 4d 7f
        E 47 87 4d 00
        E 1 97 4e 7f
        E 47 87 4e 00
        E 1 97 4b 7f
        E 47 87 4b 00
        E 1 97 4d 7f
        E 47 87 4d 00
        E 1 97 49 7f
        E 47 87 49 00
        E 1 97 4b 7f
        E 47 87 4b 00
        E 1 97 46 7f
        E 47 87 46 00
        E 1 97 49 7f
        E 47 87 49 00
        E 1 97 44 7f
        E 47 87 44 00
        E 1 97 57 7f
        E 47 87 57 00
        E 1 97 52 7f
        E 47 87 52 00
        E 1 97 55 7f
        E 47 87 55 00
        E 1 97 50 7f
        E 47 87 50 00
        E 1 97 52 7f
        E 47 87 52 00
        E 1 97 4e 7f
        E 47 87 4e 00
        E 1 97 50 7f
        E 47 87 50 00
        E 1 97 4d 7f
        E 47 87 4d 00
        E 1 97 4e 7f
        E 47 87 4e 00
        E 1 97 4b 7f
        E 47 87 4b 00
        E 1 97 4d 7f
        E 47 87 4d 00
        E 1 97 49 7f
        E 47 87 49 00
        E 1 97 4b 7f
        E 47 87 4b 00
        E 1 97 46 7f
        E 47 87 46 00
        E 1 97 49 7f
        E 47 87 49 00
        E 1 97 44 7f
        E 47 87 44 00
        E 1 97 57 7f
        E 47 87 57 00
        E 1 97 52 7f
        E 47 87 52 00
        E 1 97 55 7f
        E 47 87 55 00
        E 1 97 50 7f
        E 47 87 50 00
        E 1 97 52 7f
        E 47 87 52 00
        E 1 97 4e 7f
        E 47 87 4e 00
        E 1 97 50 7f
        E 47 87 50 00
        E 1 97 4d 7f
        E 47 87 4d 00
        E 1 97 4e 7f
        E 47 87 4e 00
        E 1 97 4b 7f
        E 47 87 4b 00
        E 1 97 4d 7f
        E 47 87 4d 00
        E 1 97 49 7f
        E 47 87 49 00
        E 1 97 4b 7f
        E 47 87 4b 00
        E 1 97 46 7f
        E 47 87 46 00
        E 1 97 49 7f
        E 47 87 49 00
        E 1 97 44 7f
        E 47 87 44 00
        E 1153 97 4a 7f
        E 11 87 4a 00
        E 1 97 49 7f
        E 11 87 49 00
        E 1 97 48 7f
        E 11 87 48 00
        E 1 97 47 7f
        E 11 87 47 00
        E 1 97 46 7f
        E 11 87 46 00
        E 1 97 45 7f
        E 11 87 45 00
        E 1 97 44 7f
        E 11 87 44 00
        E 1 97 43 7f
        E 11 87 43 00
        E 1 97 42 7f
        E 11 87 42 00
        E 1 97 41 7f
        E 11 87 41 00
        E 1 97 40 7f
        E 11 87 40 00
        E 1 97 3f 7f
        E 11 87 3f 00
        E 1 97 3e 7f
        E 11 87 3e 00
        E 1 97 3d 7f
        E 11 87 3d 00
        E 1 97 3c 7f
        E 11 87 3c 00
        E 1 97 3b 7f
        E 11 87 3b 00
        E 1 97 3a 7f
        E 11 87 3a 00
        E 1 97 39 7f
        E 11 87 39 00
        E 1 97 38 7f
        E 11 87 38 00
        E 1 97 37 7f
        E 11 87 37 00
        E 1 97 36 7f
        E 11 87 36 00
        E 1 97 35 7f
        E 11 87 35 00
        E 1 97 34 7f
        E 11 87 34 00
        E 1 97 33 7f
        E 11 87 33 00
        E 1 97 32 7f
        E 11 87 32 00
        E 1 97 31 7f
        E 11 87 31 00
        E 1 97 30 7f
        E 11 87 30 00
        E 1 97 2f 7f
        E 11 87 2f 00
        E 1 97 2e 7f
        E 11 87 2e 00
        E 1 97 2d 7f
        E 11 87 2d 00
        E 1 97 2c 7f
        E 11 87 2c 00
        E 1 97 2b 7f
        E 11 87 2b 00
        E 193 97 3f 7f
        E 191 87 3f 00
        E 1 97 35 7f
        E 47 87 35 00
        E 1 97 41 7f
        E 47 87 41 00
        E 1 97 45 7f
        E 95 87 45 00
        E 1 97 4a 7f
        E 47 87 4a 00
        E 1 97 43 7f
        E 47 87 43 00
        E 1 97 48 7f
        E 47 87 48 00
        E 1 97 41 7f
        E 47 87 41 00
        E 1 97 43 7f
        E 47 87 43 00
        E 1 97 46 7f
        E 47 87 46 00
        E 1 97 45 7f
        E 35 87 45 00
        E 1 97 43 7f
        E 35 87 43 00
        E 1 97 41 7f
        E 23 87 41 00
        E 1 97 41 7f
        E 191 87 41 00
        E 1 97 39 7f
        E 47 87 39 00
        E 1 97 3c 7f
        E 47 87 3c 00
        E 1 97 45 7f
        E 95 87 45 00
        E 1 97 35 7f
        E 23 87 35 00
        E 1 97 3c 7f
        E 23 87 3c 00
        E 1 97 46 7f
        E 47 87 46 00
        E 97 97 39 7f
        E 47 87 39 00
        E 1 97 3c 7f
        E 47 87 3c 00
        E 1 97 45 7f
        E 95 87 45 00
        e 1 97 3f 7f
        e 191 87 3f 00
        E 1 97 35 7f
        E 47 87 35 00
        E 1 97 41 7f
        E 47 87 41 00
        E 1 97 45 7f
        E 95 87 45 00
        E 1 97 4a 7f
        E 47 87 4a 00
        E 1 97 43 7f
        E 47 87 43 00
        E 1 97 48 7f
        E 47 87 48 00
        E 1 97 41 7f
        E 47 87 41 00
        E 1 97 43 7f
        E 47 87 43 00
        E 1 97 46 7f
        E 47 87 46 00
        E 1 97 45 7f
        E 35 87 45 00
        E 1 97 43 7f
        E 35 87 43 00
        E 1 97 41 7f
        E 23 87 41 00
        E 1 97 41 7f
        E 191 87 41 00
        E 1 97 41 7f
        E 47 87 41 00
        E 1 97 48 7f
        E 47 87 48 00
        E 1 97 45 7f
        E 47 87 45 00
        E 1 97 41 7f
        E 47 87 41 00
        E 1 97 43 7f
        E 47 87 43 00
        E 1 97 46 7f
        E 47 87 46 00
        E 1 97 41 7f
        E 47 87 41 00
        E 1 97 43 7f
        E 47 87 43 00
        E 1 97 48 7f
        E 47 87 48 00
        E 1 97 4a 7f
        E 47 87 4a 00
        E 1 97 45 7f
        E 35 87 45 00
        E 1 97 43 7f
        E 35 87 43 00
        E 1 97 41 7f
        E 23 87 41 00
        E 1 b0 7b 00
        CCINTERP 32
        CHASE_CC_TAKEOFFS 1
        GUID {32843D83-3297-AE4C-9D8D-264229A65DE2}
        IGNTEMPO 0 120 4 4
        SRCCOLOR 130
        VELLANE -1 100 0
        CFGEDITVIEW 23960.636174 0.580058 33 12 0 -1 0 0 0 0.5
        KEYSNAP 0
        TRACKSEL 0
        EVTFILTER 0 -1 -1 -1 -1 0 0 0 0 -1 -1 -1 -1 0 -1 0 -1 -1
        CFGEDIT 1 1 0 1 0 0 1 1 1 1 1 0.25 2015 72 3360 811 0 0 0 0 0 0 0 0 0 0 0 0 1 64
      >
    >
    <ITEM
      POSITION 107.45955000002868
      SNAPOFFS 0
      LENGTH 12.8
      LOOP 1
      ALLTAKES 0
      FADEIN 1 0 0 1 0 0 0
      FADEOUT 1 0 0 1 0 0 0
      MUTE 0 0
      BEAT 1
      SEL 0
      IGUID {8DF84ADE-D907-174C-A1D6-18C183A75C54}
      IID 26
      NAME the_centennial_festival_for_magical.mid
      VOLPAN 1 0 1 -1
      SOFFS 97.000502 238.00000000000045
      PLAYRATE 1 1 0 -1 0 0.0025
      CHANMODE 2
      GUID {AA34AFFA-AAD7-7945-9641-6D12845ACA52}
      <SOURCE MIDI
        HASDATA 1 96 QN
        CCINTERP 32
        POOLEDEVTS {50C2C33F-D190-AE4B-9686-849A808C3404}
        <X 0 0
          /yEBAA==
        >
        <X 0 0 0 0 4 "Piano 1"
          /wRQaWFubyAx
        >
        E 63 b7 00 00
        E 1 b7 20 00
        E 1 c7 00 00
        E 1 b7 0a 10
        E 1 b7 07 7f
        E 1 b7 0b 7f
        E 1 b7 5b 00
        E 1 b7 5d 00
        E 1 b7 5e 00
        E 144 b7 65 00
        E 0 b7 64 01
        E 0 b7 06 40
        E 0 b7 26 00
        <X 1 0
          8EEQQhJAGEBAQEBAQEBAQEBAQEBo9w==
        >
        E 2 b7 40 00
        E 1 b7 63 01
        E 0 b7 62 08
        E 0 b7 06 40
        E 1 b7 63 01
        E 0 b7 62 09
        E 0 b7 06 40
        E 1 b7 63 01
        E 0 b7 62 0a
        E 0 b7 06 40
        E 1 b7 63 01
        E 0 b7 62 20
        E 0 b7 06 40
        E 1 b7 63 01
        E 0 b7 62 21
        E 0 b7 06 40
        E 1 b7 63 01
        E 0 b7 62 63
        E 0 b7 06 40
        E 1 b7 63 01
        E 0 b7 62 64
        E 0 b7 06 40
        E 1 b7 63 01
        E 0 b7 62 66
        E 0 b7 06 40
        <X 1 0
          8EEQQhJASCAAWPc=
        >
        E 157 b7 40 00
        E 0 97 57 5a
        E 47 87 57 00
        E 1 97 52 5a
        E 47 87 52 00
        E 1 97 55 5a
        E 47 87 55 00
        E 1 97 50 5a
        E 47 87 50 00
        E 1 97 52 5a
        E 47 87 52 00
        E 1 97 4e 5a
        E 47 87 4e 00
        E 1 97 50 5a
        E 47 87 50 00
        E 1 97 4d 5a
        E 47 87 4d 00
        E 1 97 4e 5a
        E 47 87 4e 00
        E 1 97 4b 5a
        E 47 87 4b 00
        E 1 97 4d 5a
        E 47 87 4d 00
        E 1 97 49 5a
        E 47 87 49 00
        E 1 97 4b 5a
        E 47 87 4b 00
        E 1 97 46 5a
        E 47 87 46 00
        E 1 97 49 5a
        E 47 87 49 00
        E 1 97 44 5a
        E 47 87 44 00
        E 1 97 57 5a
        E 47 87 57 00
        E 1 97 52 5a
        E 47 87 52 00
        E 1 97 55 5a
        E 47 87 55 00
        E 1 97 50 5a
        E 47 87 50 00
        E 1 97 52 5a
        E 47 87 52 00
        E 1 97 4e 5a
        E 47 87 4e 00
        E 1 97 50 5a
        E 47 87 50 00
        E 1 97 4d 5a
        E 47 87 4d 00
        E 1 97 4e 5a
        E 47 87 4e 00
        E 1 97 4b 5a
        E 47 87 4b 00
        E 1 97 4d 5a
        E 47 87 4d 00
        E 1 97 49 5a
        E 47 87 49 00
        E 1 97 4b 5a
        E 47 87 4b 00
        E 1 97 46 5a
        E 47 87 46 00
        E 1 97 49 5a
        E 47 87 49 00
        E 1 97 44 5a
        E 47 87 44 00
        E 1 97 57 5a
        E 47 87 57 00
        E 1 97 52 5a
        E 47 87 52 00
        E 1 97 55 5a
        E 47 87 55 00
        E 1 97 50 5a
        E 47 87 50 00
        E 1 97 52 5a
        E 47 87 52 00
        E 1 97 4e 5a
        E 47 87 4e 00
        E 1 97 50 5a
        E 47 87 50 00
        E 1 97 4d 5a
        E 47 87 4d 00
        E 1 97 4e 5a
        E 47 87 4e 00
        E 1 97 4b 5a
        E 47 87 4b 00
        E 1 97 4d 5a
        E 47 87 4d 00
        E 1 97 49 5a
        E 47 87 49 00
        E 1 97 4b 5a
        E 47 87 4b 00
        E 1 97 46 5a
        E 47 87 46 00
        E 1 97 49 5a
        E 47 87 49 00
        E 1 97 44 5a
        E 47 87 44 00
        E 1 97 57 5a
        E 47 87 57 00
        E 1 97 52 5a
        E 47 87 52 00
        E 1 97 55 5a
        E 47 87 55 00
        E 1 97 50 5a
        E 47 87 50 00
        E 1 97 52 5a
        E 47 87 52 00
        E 1 97 4e 5a
        E 47 87 4e 00
        E 1 97 50 5a
        E 47 87 50 00
        E 1 97 4d 5a
        E 47 87 4d 00
        E 1 97 4e 5a
        E 47 87 4e 00
        E 1 97 4b 5a
        E 47 87 4b 00
        E 1 97 4d 5a
        E 47 87 4d 00
        E 1 97 49 5a
        E 47 87 49 00
        E 1 97 4b 5a
        E 47 87 4b 00
        E 1 97 46 5a
        E 47 87 46 00
        E 1 97 49 5a
        E 47 87 49 00
        E 1 97 44 5a
        E 47 87 44 00
        E 1 97 57 5a
        E 47 87 57 00
        E 1 97 52 5a
        E 47 87 52 00
        E 1 97 55 5a
        E 47 87 55 00
        E 1 97 50 5a
        E 47 87 50 00
        E 1 97 52 5a
        E 47 87 52 00
        E 1 97 4e 5a
        E 47 87 4e 00
        E 1 97 50 5a
        E 47 87 50 00
        E 1 97 4d 5a
        E 47 87 4d 00
        E 1 97 4e 5a
        E 47 87 4e 00
        E 1 97 4b 5a
        E 47 87 4b 00
        E 1 97 4d 5a
        E 47 87 4d 00
        E 1 97 49 5a
        E 47 87 49 00
        E 1 97 4b 5a
        E 47 87 4b 00
        E 1 97 46 5a
        E 47 87 46 00
        E 1 97 49 5a
        E 47 87 49 00
        E 1 97 44 5a
        E 47 87 44 00
        E 1 97 57 5a
        E 47 87 57 00
        E 1 97 52 5a
        E 47 87 52 00
        E 1 97 55 5a
        E 47 87 55 00
        E 1 97 50 5a
        E 47 87 50 00
        E 1 97 52 5a
        E 47 87 52 00
        E 1 97 4e 5a
        E 47 87 4e 00
        E 1 97 50 5a
        E 47 87 50 00
        E 1 97 4d 5a
        E 47 87 4d 00
        E 1 97 4e 5a
        E 47 87 4e 00
        E 1 97 4b 5a
        E 47 87 4b 00
        E 1 97 4d 5a
        E 47 87 4d 00
        E 1 97 49 5a
        E 47 87 49 00
        E 1 97 4b 5a
        E 47 87 4b 00
        E 1 97 46 5a
        E 47 87 46 00
        E 1 97 49 5a
        E 47 87 49 00
        E 1 97 44 5a
        E 47 87 44 00
        E 1 97 57 5a
        E 47 87 57 00
        E 1 97 52 5a
        E 47 87 52 00
        E 1 97 55 5a
        E 47 87 55 00
        E 1 97 50 5a
        E 47 87 50 00
        E 1 97 52 5a
        E 47 87 52 00
        E 1 97 4e 5a
        E 47 87 4e 00
        E 1 97 50 5a
        E 47 87 50 00
        E 1 97 4d 5a
        E 47 87 4d 00
        E 1 97 4e 5a
        E 47 87 4e 00
        E 1 97 4b 5a
        E 47 87 4b 00
        E 1 97 4d 5a
        E 47 87 4d 00
        E 1 97 49 5a
        E 47 87 49 00
        E 1 97 4b 5a
        E 47 87 4b 00
        E 1 97 46 5a
        E 47 87 46 00
        E 1 97 49 5a
        E 47 87 49 00
        E 1 97 44 5a
        E 47 87 44 00
        E 1 97 57 5a
        E 47 87 57 00
        E 1 97 52 5a
        E 47 87 52 00
        E 1 97 55 5a
        E 47 87 55 00
        E 1 97 50 5a
        E 47 87 50 00
        E 1 97 52 5a
        E 47 87 52 00
        E 1 97 4e 5a
        E 47 87 4e 00
        E 1 97 50 5a
        E 47 87 50 00
        E 1 97 4d 5a
        E 47 87 4d 00
        E 1 97 4e 5a
        E 47 87 4e 00
        E 1 97 4b 5a
        E 47 87 4b 00
        E 1 97 4d 5a
        E 47 87 4d 00
        E 1 97 49 5a
        E 47 87 49 00
        E 1 97 4b 5a
        E 47 87 4b 00
        E 1 97 46 5a
        E 47 87 46 00
        E 1 97 49 5a
        E 47 87 49 00
        E 1 97 44 5a
        E 47 87 44 00
        E 1153 97 56 5a
        E 11 87 56 00
        E 1 97 55 5a
        E 11 87 55 00
        E 1 97 54 5a
        E 11 87 54 00
        E 1 97 53 5a
        E 11 87 53 00
        E 1 97 52 5a
        E 11 87 52 00
        E 1 97 51 5a
        E 11 87 51 00
        E 1 97 50 5a
        E 11 87 50 00
        E 1 97 4f 5a
        E 11 87 4f 00
        E 1 97 4e 5a
        E 11 87 4e 00
        E 1 97 4d 5a
        E 11 87 4d 00
        E 1 97 4c 5a
        E 11 87 4c 00
        E 1 97 4b 5a
        E 11 87 4b 00
        E 1 97 4a 5a
        E 11 87 4a 00
        E 1 97 49 5a
        E 11 87 49 00
        E 1 97 48 5a
        E 11 87 48 00
        E 1 97 47 5a
        E 11 87 47 00
        E 1 97 46 5a
        E 11 87 46 00
        E 1 97 45 5a
        E 11 87 45 00
        E 1 97 44 5a
        E 11 87 44 00
        E 1 97 43 5a
        E 11 87 43 00
        E 1 97 42 5a
        E 11 87 42 00
        E 1 97 41 5a
        E 11 87 41 00
        E 1 97 40 5a
        E 11 87 40 00
        E 1 97 3f 5a
        E 11 87 3f 00
        E 1 97 3e 5a
        E 11 87 3e 00
        E 1 97 3d 5a
        E 11 87 3d 00
        E 1 97 3c 5a
        E 11 87 3c 00
        E 1 97 3b 5a
        E 11 87 3b 00
        E 1 97 3a 5a
        E 11 87 3a 00
        E 1 97 39 5a
        E 11 87 39 00
        E 1 97 38 5a
        E 11 87 38 00
        E 1 97 37 5a
        E 11 87 37 00
        e 3073 97 4f 7f
        e 47 87 4f 00
        e 1 97 4d 7f
        e 47 87 4d 00
        e 1 97 4a 7f
        e 47 87 4a 00
        e 1 97 4f 7f
        e 47 87 4f 00
        e 1 97 4d 7f
        e 47 87 4d 00
        e 1 97 4a 7f
        e 47 87 4a 00
        e 1 97 4f 7f
        e 47 87 4f 00
        e 1 97 4d 7f
        e 47 87 4d 00
        e 1 97 4f 7f
        e 47 87 4f 00
        e 1 97 4d 7f
        e 47 87 4d 00
        e 1 97 4a 7f
        e 47 87 4a 00
        e 1 97 4f 7f
        e 47 87 4f 00
        e 1 97 4d 7f
        e 47 87 4d 00
        e 1 97 4a 7f
        e 47 87 4a 00
        e 1 97 4f 7f
        e 47 87 4f 00
        e 1 97 4d 7f
        e 47 87 4d 00
        e 1 97 4f 7f
        e 0 97 5b 7f
        e 47 87 4f 00
        e 0 87 5b 00
        e 1 97 4d 7f
        e 0 97 59 7f
        e 47 87 4d 00
        e 0 87 59 00
        e 1 97 56 7f
        e 0 97 4a 7f
        e 47 87 56 00
        e 0 87 4a 00
        e 1 97 5b 7f
        e 0 97 4f 7f
        e 47 87 5b 00
        e 0 87 4f 00
        e 1 97 4d 7f
        e 0 97 59 7f
        e 47 87 4d 00
        e 0 87 59 00
        e 1 97 56 7f
        e 0 97 4a 7f
        e 47 87 56 00
        e 0 87 4a 00
        e 1 97 5b 7f
        e 0 97 4f 7f
        e 47 87 5b 00
        e 0 87 4f 00
        e 1 97 4d 7f
        e 0 97 59 7f
        e 47 87 4d 00
        e 0 87 59 00
        e 1 97 56 7f
        e 0 97 4a 7f
        e 47 87 56 00
        e 0 87 4a 00
        e 1 97 52 7f
        e 0 97 5e 7f
        e 47 87 52 00
        e 0 87 5e 00
        e 1 97 5d 7f
        e 0 97 51 7f
        e 47 87 5d 00
        e 0 87 51 00
        e 1 97 4d 7f
        e 0 97 59 7f
        e 47 87 4d 00
        e 0 87 59 00
        e 1 97 4f 7f
        e 0 97 5b 7f
        e 191 87 4f 00
        e 0 87 5b 00
        e 1 97 4f 7f
        e 47 87 4f 00
        e 1 97 4a 7f
        e 47 87 4a 00
        e 1 97 51 7f
        e 47 87 51 00
        e 1 97 4a 7f
        e 47 87 4a 00
        e 1 97 52 7f
        e 47 87 52 00
        e 1 97 4a 7f
        e 47 87 4a 00
        e 1 97 54 7f
        e 47 87 54 00
        e 1 97 4a 7f
        e 47 87 4a 00
        e 1 97 52 7f
        e 47 87 52 00
        e 1 97 4a 7f
        e 47 87 4a 00
        e 1 97 51 7f
        e 47 87 51 00
        e 1 97 4a 7f
        e 47 87 4a 00
        e 1 97 4f 7f
        e 47 87 4f 00
        e 1 97 4a 7f
        e 47 87 4a 00
        e 1 97 4d 7f
        e 47 87 4d 00
        e 1 97 4a 7f
        e 47 87 4a 00
        e 1 97 4b 7f
        e 47 87 4b 00
        e 1 97 46 7f
        e 47 87 46 00
        e 1 97 4d 7f
        e 47 87 4d 00
        e 1 97 46 7f
        e 47 87 46 00
        e 1 97 4e 7f
        e 47 87 4e 00
        e 1 97 46 7f
        e 47 87 46 00
        e 1 97 50 7f
        e 47 87 50 00
        e 1 97 46 7f
        e 47 87 46 00
        e 1 97 4e 7f
        e 47 87 4e 00
        e 1 97 46 7f
        e 47 87 46 00
        e 1 97 4d 7f
        e 47 87 4d 00
        e 1 97 46 7f
        e 47 87 46 00
        e 1 97 4b 7f
        e 47 87 4b 00
        e 1 97 46 7f
        e 47 87 46 00
        e 1 97 49 7f
        e 47 87 49 00
        e 1 97 46 7f
        e 47 87 46 00
        e 1 97 4b 7f
        e 47 87 4b 00
        e 1 97 42 7f
        e 47 87 42 00
        e 1 97 4d 7f
        e 47 87 4d 00
        e 1 97 44 7f
        e 47 87 44 00
        e 1 97 4e 7f
        e 47 87 4e 00
        e 1 97 46 7f
        e 47 87 46 00
        e 1 97 4d 7f
        e 47 87 4d 00
        e 1 97 44 7f
        e 47 87 44 00
        e 1 97 4d 7f
        e 47 87 4d 00
        e 1 97 44 7f
        e 47 87 44 00
        e 1 97 4e 7f
        e 47 87 4e 00
        e 1 97 46 7f
        e 47 87 46 00
        e 1 97 50 7f
        e 47 87 50 00
        e 1 97 4d 7f
        e 47 87 4d 00
        e 1 97 52 7f
        e 11 87 52 00
        e 1 97 55 7f
        e 11 87 55 00
        e 1 97 57 7f
        e 11 87 57 00
        e 1 97 58 7f
        e 11 87 58 00
        e 1 97 59 7f
        e 11 87 59 00
        e 1 97 5a 7f
        e 11 87 5a 00
        e 1 97 5b 7f
        e 11 87 5b 00
        e 1 97 5c 7f
        e 11 87 5c 00
        e 1 97 57 7f
        e 47 87 57 00
        e 1 97 52 7f
        e 47 87 52 00
        e 1 97 55 7f
        e 47 87 55 00
        e 1 97 50 7f
        e 47 87 50 00
        e 1 97 52 7f
        e 47 87 52 00
        e 1 97 4e 7f
        e 47 87 4e 00
        e 1 97 50 7f
        e 47 87 50 00
        e 1 97 4d 7f
        e 47 87 4d 00
        e 1 97 4e 7f
        e 47 87 4e 00
        e 1 97 4b 7f
        e 47 87 4b 00
        e 1 97 4d 7f
        e 47 87 4d 00
        e 1 97 49 7f
        e 47 87 49 00
        e 1 97 4b 7f
        e 47 87 4b 00
        e 1 97 46 7f
        e 47 87 46 00
        e 1 97 49 7f
        e 47 87 49 00
        e 1 97 44 7f
        e 47 87 44 00
        e 1 97 57 7f
        e 47 87 57 00
        e 1 97 52 7f
        e 47 87 52 00
        e 1 97 55 7f
        e 47 87 55 00
        e 1 97 50 7f
        e 47 87 50 00
        e 1 97 52 7f
        e 47 87 52 00
        e 1 97 4e 7f
        e 47 87 4e 00
        e 1 97 50 7f
        e 47 87 50 00
        e 1 97 4d 7f
        e 47 87 4d 00
        e 1 97 4e 7f
        e 47 87 4e 00
        e 1 97 4b 7f
        e 47 87 4b 00
        e 1 97 4d 7f
        e 47 87 4d 00
        e 1 97 49 7f
        e 47 87 49 00
        e 1 97 4b 7f
        e 47 87 4b 00
        e 1 97 46 7f
        e 47 87 46 00
        e 1 97 49 7f
        e 47 87 49 00
        e 1 97 44 7f
        e 47 87 44 00
        e 1 97 57 7f
        e 47 87 57 00
        e 1 97 52 7f
        e 47 87 52 00
        e 1 97 55 7f
        e 47 87 55 00
        e 1 97 50 7f
        e 47 87 50 00
        e 1 97 52 7f
        e 47 87 52 00
        e 1 97 4e 7f
        e 47 87 4e 00
        e 1 97 50 7f
        e 47 87 50 00
        e 1 97 4d 7f
        e 47 87 4d 00
        e 1 97 4e 7f
        e 47 87 4e 00
        e 1 97 4b 7f
        e 47 87 4b 00
        e 1 97 4d 7f
        e 47 87 4d 00
        e 1 97 49 7f
        e 47 87 49 00
        e 1 97 4b 7f
        e 47 87 4b 00
        e 1 97 46 7f
        e 47 87 46 00
        e 1 97 49 7f
        e 47 87 49 00
        e 1 97 44 7f
        e 47 87 44 00
        e 1 97 57 7f
        e 47 87 57 00
        e 1 97 52 7f
        e 47 87 52 00
        e 1 97 55 7f
        e 47 87 55 00
        e 1 97 50 7f
        e 47 87 50 00
        e 1 97 52 7f
        e 47 87 52 00
        e 1 97 4e 7f
        e 47 87 4e 00
        e 1 97 50 7f
        e 47 87 50 00
        e 1 97 4d 7f
        e 47 87 4d 00
        e 1 97 4e 7f
        e 47 87 4e 00
        e 1 97 4b 7f
        e 47 87 4b 00
        e 1 97 4d 7f
        e 47 87 4d 00
        e 1 97 49 7f
        e 47 87 49 00
        e 1 97 4b 7f
        e 47 87 4b 00
        e 1 97 46 7f
        e 47 87 46 00
        e 1 97 49 7f
        e 47 87 49 00
        e 1 97 44 7f
        e 47 87 44 00
        e 1 97 57 7f
        e 47 87 57 00
        e 1 97 52 7f
        e 47 87 52 00
        e 1 97 55 7f
        e 47 87 55 00
        e 1 97 50 7f
        e 47 87 50 00
        e 1 97 52 7f
        e 47 87 52 00
        e 1 97 4e 7f
        e 47 87 4e 00
        e 1 97 50 7f
        e 47 87 50 00
        e 1 97 4d 7f
        e 47 87 4d 00
        e 1 97 4e 7f
        e 47 87 4e 00
        e 1 97 4b 7f
        e 47 87 4b 00
        e 1 97 4d 7f
        e 47 87 4d 00
        e 1 97 49 7f
        e 47 87 49 00
        e 1 97 4b 7f
        e 47 87 4b 00
        e 1 97 46 7f
        e 47 87 46 00
        e 1 97 49 7f
        e 47 87 49 00
        e 1 97 44 7f
        e 47 87 44 00
        e 1 97 57 7f
        e 47 87 57 00
        e 1 97 52 7f
        e 47 87 52 00
        e 1 97 55 7f
        e 47 87 55 00
        e 1 97 50 7f
        e 47 87 50 00
        e 1 97 52 7f
        e 47 87 52 00
        e 1 97 4e 7f
        e 47 87 4e 00
        e 1 97 50 7f
        e 47 87 50 00
        e 1 97 4d 7f
        e 47 87 4d 00
        e 1 97 4e 7f
        e 47 87 4e 00
        e 1 97 4b 7f
        e 47 87 4b 00
        e 1 97 4d 7f
        e 47 87 4d 00
        e 1 97 49 7f
        e 47 87 49 00
        e 1 97 4b 7f
        e 47 87 4b 00
        e 1 97 46 7f
        e 47 87 46 00
        e 1 97 49 7f
        e 47 87 49 00
        e 1 97 44 7f
        e 47 87 44 00
        e 1 97 57 7f
        e 47 87 57 00
        e 1 97 52 7f
        e 47 87 52 00
        e 1 97 55 7f
        e 47 87 55 00
        e 1 97 50 7f
        e 47 87 50 00
        e 1 97 52 7f
        e 47 87 52 00
        e 1 97 4e 7f
        e 47 87 4e 00
        e 1 97 50 7f
        e 47 87 50 00
        e 1 97 4d 7f
        e 47 87 4d 00
        e 1 97 4e 7f
        e 47 87 4e 00
        e 1 97 4b 7f
        e 47 87 4b 00
        e 1 97 4d 7f
        e 47 87 4d 00
        e 1 97 49 7f
        e 47 87 49 00
        e 1 97 4b 7f
        e 47 87 4b 00
        e 1 97 46 7f
        e 47 87 46 00
        e 1 97 49 7f
        e 47 87 49 00
        e 1 97 44 7f
        e 47 87 44 00
        e 1 97 57 7f
        e 47 87 57 00
        e 1 97 52 7f
        e 47 87 52 00
        e 1 97 55 7f
        e 47 87 55 00
        e 1 97 50 7f
        e 47 87 50 00
        e 1 97 52 7f
        e 47 87 52 00
        e 1 97 4e 7f
        e 47 87 4e 00
        e 1 97 50 7f
        e 47 87 50 00
        e 1 97 4d 7f
        e 47 87 4d 00
        e 1 97 4e 7f
        e 47 87 4e 00
        e 1 97 4b 7f
        e 47 87 4b 00
        e 1 97 4d 7f
        e 47 87 4d 00
        e 1 97 49 7f
        e 47 87 49 00
        e 1 97 4b 7f
        e 47 87 4b 00
        e 1 97 46 7f
        e 47 87 46 00
        e 1 97 49 7f
        e 47 87 49 00
        e 1 97 44 7f
        e 47 87 44 00
        e 1153 97 4a 7f
        e 11 87 4a 00
        e 1 97 49 7f
        e 11 87 49 00
        e 1 97 48 7f
        e 11 87 48 00
        e 1 97 47 7f
        e 11 87 47 00
        e 1 97 46 7f
        e 11 87 46 00
        e 1 97 45 7f
        e 11 87 45 00
        e 1 97 44 7f
        e 11 87 44 00
        e 1 97 43 7f
        e 11 87 43 00
        e 1 97 42 7f
        e 11 87 42 00
        e 1 97 41 7f
        e 11 87 41 00
        e 1 97 40 7f
        e 11 87 40 00
        e 1 97 3f 7f
        e 11 87 3f 00
        e 1 97 3e 7f
        e 11 87 3e 00
        e 1 97 3d 7f
        e 11 87 3d 00
        e 1 97 3c 7f
        e 11 87 3c 00
        e 1 97 3b 7f
        e 11 87 3b 00
        e 1 97 3a 7f
        e 11 87 3a 00
        e 1 97 39 7f
        e 11 87 39 00
        e 1 97 38 7f
        e 11 87 38 00
        e 1 97 37 7f
        e 11 87 37 00
        e 1 97 36 7f
        e 11 87 36 00
        e 1 97 35 7f
        e 11 87 35 00
        e 1 97 34 7f
        e 11 87 34 00
        e 1 97 33 7f
        e 11 87 33 00
        e 1 97 32 7f
        e 11 87 32 00
        e 1 97 31 7f
        e 11 87 31 00
        e 1 97 30 7f
        e 11 87 30 00
        e 1 97 2f 7f
        e 11 87 2f 00
        e 1 97 2e 7f
        e 11 87 2e 00
        e 1 97 2d 7f
        e 11 87 2d 00
        e 1 97 2c 7f
        e 11 87 2c 00
        e 1 97 2b 7f
        e 11 87 2b 00
        e 193 97 3f 7f
        e 191 87 3f 00
        e 1 97 35 7f
        e 47 87 35 00
        e 1 97 41 7f
        e 47 87 41 00
        e 1 97 45 7f
        e 95 87 45 00
        e 1 97 4a 7f
        e 47 87 4a 00
        e 1 97 43 7f
        e 47 87 43 00
        e 1 97 48 7f
        e 47 87 48 00
        e 1 97 41 7f
        e 47 87 41 00
        e 1 97 43 7f
        e 47 87 43 00
        e 1 97 46 7f
        e 47 87 46 00
        e 1 97 45 7f
        e 35 87 45 00
        e 1 97 43 7f
        e 35 87 43 00
        e 1 97 41 7f
        e 23 87 41 00
        e 1 97 41 7f
        e 191 87 41 00
        e 1 97 39 7f
        e 47 87 39 00
        e 1 97 3c 7f
        e 47 87 3c 00
        e 1 97 45 7f
        e 95 87 45 00
        e 1 97 35 7f
        e 23 87 35 00
        e 1 97 3c 7f
        e 23 87 3c 00
        e 1 97 46 7f
        e 47 87 46 00
        e 97 97 39 7f
        e 47 87 39 00
        e 1 97 3c 7f
        e 47 87 3c 00
        e 1 97 45 7f
        e 95 87 45 00
        e 1 97 3f 7f
        e 191 87 3f 00
        e 1 97 35 7f
        e 47 87 35 00
        e 1 97 41 7f
        e 47 87 41 00
        e 1 97 45 7f
        e 95 87 45 00
        e 1 97 4a 7f
        e 47 87 4a 00
        e 1 97 43 7f
        e 47 87 43 00
        e 1 97 48 7f
        e 47 87 48 00
        e 1 97 41 7f
        e 47 87 41 00
        e 1 97 43 7f
        e 47 87 43 00
        e 1 97 46 7f
        e 47 87 46 00
        e 1 97 45 7f
        e 35 87 45 00
        e 1 97 43 7f
        e 35 87 43 00
        e 1 97 41 7f
        e 23 87 41 00
        e 1 97 41 7f
        e 191 87 41 00
        e 1 97 41 7f
        e 47 87 41 00
        e 1 97 48 7f
        e 47 87 48 00
        e 1 97 45 7f
        e 47 87 45 00
        e 1 97 41 7f
        e 47 87 41 00
        e 1 97 43 7f
        e 47 87 43 00
        e 1 97 46 7f
        e 47 87 46 00
        e 1 97 41 7f
        e 47 87 41 00
        e 1 97 43 7f
        e 47 87 43 00
        e 1 97 48 7f
        e 47 87 48 00
        e 1 97 4a 7f
        e 47 87 4a 00
        e 1 97 45 7f
        e 35 87 45 00
        e 1 97 43 7f
        e 35 87 43 00
        e 1 97 41 7f
        e 23 87 41 00
        E 1 b0 7b 00
        CCINTERP 32
        CHASE_CC_TAKEOFFS 1
        GUID {32843D83-3297-AE4C-9D8D-264229A65DE2}
        IGNTEMPO 0 120 4 4
        SRCCOLOR 130
        VELLANE -1 100 0
        CFGEDITVIEW 0 0.026835 33 12 0 -1 0 0 0 0.5
        KEYSNAP 0
        TRACKSEL 0
        EVTFILTER 0 -1 -1 -1 -1 0 0 0 0 -1 -1 -1 -1 0 -1 0 -1 -1
        CFGEDIT 1 1 0 1 0 0 1 1 1 1 1 0.25 575 189 1920 928 0 0 0 0 0 0 0 0 0 0 0 0 1 64
      >
    >
    <ITEM
      POSITION 120.25955
      SNAPOFFS 0
      LENGTH 12.8
      LOOP 1
      ALLTAKES 0
      FADEIN 1 0 0 1 0 0 0
      FADEOUT 1 0 0 1 0 0 0
      MUTE 0 0
      BEAT 1
      SEL 0
      IGUID {33E5647C-5E85-0D43-99CC-E56A3054CAB0}
      IID 58
      NAME the_centennial_festival_for_magical.mid
      VOLPAN 1 0 1 -1
      SOFFS 122.65955 302
      PLAYRATE 1 1 0 -1 0 0.0025
      CHANMODE 2
      GUID {4CB2A0A2-2192-5C4A-98C6-DCD1DC717A5C}
      <SOURCE MIDI
        HASDATA 1 96 QN
        CCINTERP 32
        POOLEDEVTS {F54E99AE-5D84-6943-B868-0F2CD5AAB348}
        <X 0 0
          /yEBAA==
        >
        <X 0 0 0 0 4 Trumpet
          /wRUcnVtcGV0
        >
        E 108 bc 00 00
        E 1 bc 20 00
        E 1 cc 38 00
        E 1 bc 0a 40
        E 1 bc 07 7f
        E 1 bc 0b 7f
        E 1 bc 5b 00
        E 1 bc 5d 00
        E 1 bc 5e 00
        E 169 bc 65 00
        E 0 bc 64 01
        E 0 bc 06 40
        E 0 bc 26 00
        <X 1 0
          8EEQQhJAHEBAQEBAQEBAQEBAQEBk9w==
        >
        E 2 bc 40 00
        E 1 bc 63 01
        E 0 bc 62 08
        E 0 bc 06 40
        E 1 bc 63 01
        E 0 bc 62 09
        E 0 bc 06 40
        E 1 bc 63 01
        E 0 bc 62 0a
        E 0 bc 06 40
        E 1 bc 63 01
        E 0 bc 62 20
        E 0 bc 06 40
        E 1 bc 63 01
        E 0 bc 62 21
        E 0 bc 06 40
        E 1 bc 63 01
        E 0 bc 62 63
        E 0 bc 06 40
        E 1 bc 63 01
        E 0 bc 62 64
        E 0 bc 06 40
        E 1 bc 63 01
        E 0 bc 62 66
        E 0 bc 06 40
        <X 1 0
          8EEQQhJATCAAVPc=
        >
        E 87 bc 40 00
        E 28608 9c 46 7f
        E 95 8c 46 00
        E 1 9c 45 7f
        E 47 8c 45 00
        E 1 9c 46 7f
        E 47 8c 46 00
        E 49 9c 45 7f
        E 47 8c 45 00
        E 1 9c 46 7f
        E 47 8c 46 00
        E 1 9c 48 7f
        E 47 8c 48 00
        E 1 9c 4a 7f
        E 47 8c 4a 00
        E 1 9c 43 7f
        E 47 8c 43 00
        E 1 9c 48 7f
        E 47 8c 48 00
        E 1 9c 41 7f
        E 47 8c 41 00
        E 1 9c 46 7f
        E 191 8c 46 00
        E 1 9c 46 7f
        E 47 8c 46 00
        E 1 9c 45 7f
        E 47 8c 45 00
        E 1 9c 41 7f
        E 47 8c 41 00
        E 1 9c 45 7f
        E 47 8c 45 00
        E 1 9c 41 7f
        E 191 8c 41 00
        E 1 9c 41 7f
        E 47 8c 41 00
        E 1 9c 3f 7f
        E 47 8c 3f 00
        E 1 9c 3c 7f
        E 47 8c 3c 00
        E 1 9c 3f 7f
        E 47 8c 3f 00
        E 1 9c 42 7f
        E 191 8c 42 00
        E 1 9c 43 7f
        E 95 8c 43 00
        E 1 9c 41 7f
        E 47 8c 41 00
        E 1 9c 43 7f
        E 47 8c 43 00
        E 49 9c 41 7f
        E 47 8c 41 00
        E 1 9c 43 7f
        E 47 8c 43 00
        E 1 9c 45 7f
        E 47 8c 45 00
        E 1 9c 46 7f
        E 47 8c 46 00
        E 1 9c 43 7f
        E 47 8c 43 00
        E 1 9c 48 7f
        E 47 8c 48 00
        E 1 9c 43 7f
        E 47 8c 43 00
        E 1 9c 4a 7f
        E 95 8c 4a 00
        E 1 9c 3e 7f
        E 95 8c 3e 00
        E 1 9c 4a 7f
        E 47 8c 4a 00
        E 1 9c 48 7f
        E 47 8c 48 00
        E 1 9c 46 7f
        E 95 8c 46 00
        E 1 9c 43 7f
        E 47 8c 43 00
        E 1 9c 45 7f
        E 47 8c 45 00
        E 1 9c 41 7f
        E 95 8c 41 00
        E 1 9c 46 7f
        E 383 8c 46 00
        E 1 b0 7b 00
        CCINTERP 32
        CHASE_CC_TAKEOFFS 1
        GUID {3AED2226-094E-2343-B27D-73ADF91BE8BC}
        IGNTEMPO 0 120 4 4
        SRCCOLOR 91
        VELLANE -1 100 0
        CFGEDITVIEW -28992 0.026835 33 12 0 -1 0 0 0 0.5
        KEYSNAP 0
        TRACKSEL 0
        EVTFILTER 0 -1 -1 -1 -1 0 0 0 0 -1 -1 -1 -1 0 -1 0 -1 -1
        CFGEDIT 1 1 0 1 0 0 1 1 1 1 1 0.25 575 189 1920 928 0 0 0 0 0 0 0 0 0 0 0 0 1 64
      >
    >
    <ITEM
      POSITION 133.05955
      SNAPOFFS 0
      LENGTH 12.8
      LOOP 1
      ALLTAKES 0
      FADEIN 1 0 0 1 0 0 0
      FADEOUT 1 0 0 1 0 0 0
      MUTE 0 0
      BEAT 1
      SEL 0
      IGUID {55853069-0524-334E-8B84-971650986DA5}
      IID 55
      NAME the_centennial_festival_for_magical.mid
      VOLPAN 1 0 1 -1
      SOFFS 135.45955 334
      PLAYRATE 1 1 0 -1 0 0.0025
      CHANMODE 2
      GUID {7066FECE-242B-8549-A1C6-FC7C008E4402}
      <SOURCE MIDI
        HASDATA 1 96 QN
        CCINTERP 32
        POOLEDEVTS {635860EC-CC8B-994D-BADB-0D5DBC6FDCB6}
        <X 0 0
          /yEBAA==
        >
        <X 0 0 0 0 4 Trumpet
          /wRUcnVtcGV0
        >
        E 108 bc 00 00
        E 1 bc 20 00
        E 1 cc 38 00
        E 1 bc 0a 40
        E 1 bc 07 7f
        E 1 bc 0b 7f
        E 1 bc 5b 00
        E 1 bc 5d 00
        E 1 bc 5e 00
        E 169 bc 65 00
        E 0 bc 64 01
        E 0 bc 06 40
        E 0 bc 26 00
        <X 1 0
          8EEQQhJAHEBAQEBAQEBAQEBAQEBk9w==
        >
        E 2 bc 40 00
        E 1 bc 63 01
        E 0 bc 62 08
        E 0 bc 06 40
        E 1 bc 63 01
        E 0 bc 62 09
        E 0 bc 06 40
        E 1 bc 63 01
        E 0 bc 62 0a
        E 0 bc 06 40
        E 1 bc 63 01
        E 0 bc 62 20
        E 0 bc 06 40
        E 1 bc 63 01
        E 0 bc 62 21
        E 0 bc 06 40
        E 1 bc 63 01
        E 0 bc 62 63
        E 0 bc 06 40
        E 1 bc 63 01
        E 0 bc 62 64
        E 0 bc 06 40
        E 1 bc 63 01
        E 0 bc 62 66
        E 0 bc 06 40
        <X 1 0
          8EEQQhJATCAAVPc=
        >
        E 87 bc 40 00
        E 28608 9c 46 7f
        E 95 8c 46 00
        E 1 9c 45 7f
        E 47 8c 45 00
        E 1 9c 46 7f
        E 47 8c 46 00
        E 49 9c 45 7f
        E 47 8c 45 00
        E 1 9c 46 7f
        E 47 8c 46 00
        E 1 9c 48 7f
        E 47 8c 48 00
        E 1 9c 4a 7f
        E 47 8c 4a 00
        E 1 9c 43 7f
        E 47 8c 43 00
        E 1 9c 48 7f
        E 47 8c 48 00
        E 1 9c 41 7f
        E 47 8c 41 00
        E 1 9c 46 7f
        E 191 8c 46 00
        E 1 9c 46 7f
        E 47 8c 46 00
        E 1 9c 45 7f
        E 47 8c 45 00
        E 1 9c 41 7f
        E 47 8c 41 00
        E 1 9c 45 7f
        E 47 8c 45 00
        E 1 9c 41 7f
        E 191 8c 41 00
        E 1 9c 41 7f
        E 47 8c 41 00
        E 1 9c 3f 7f
        E 47 8c 3f 00
        E 1 9c 3c 7f
        E 47 8c 3c 00
        E 1 9c 3f 7f
        E 47 8c 3f 00
        E 1 9c 42 7f
        E 191 8c 42 00
        E 1 9c 43 7f
        E 95 8c 43 00
        E 1 9c 41 7f
        E 47 8c 41 00
        E 1 9c 43 7f
        E 47 8c 43 00
        E 49 9c 41 7f
        E 47 8c 41 00
        E 1 9c 43 7f
        E 47 8c 43 00
        E 1 9c 45 7f
        E 47 8c 45 00
        E 1 9c 46 7f
        E 47 8c 46 00
        E 1 9c 43 7f
        E 47 8c 43 00
        E 1 9c 48 7f
        E 47 8c 48 00
        E 1 9c 43 7f
        E 47 8c 43 00
        E 1 9c 4a 7f
        E 95 8c 4a 00
        E 1 9c 3e 7f
        E 95 8c 3e 00
        E 1 9c 4a 7f
        E 47 8c 4a 00
        E 1 9c 48 7f
        E 47 8c 48 00
        E 1 9c 46 7f
        E 95 8c 46 00
        E 1 9c 43 7f
        E 47 8c 43 00
        E 1 9c 45 7f
        E 47 8c 45 00
        E 1 9c 41 7f
        E 95 8c 41 00
        E 1 9c 46 7f
        E 383 8c 46 00
        E 1 9c 46 7f
        E 95 8c 46 00
        E 1 9c 45 7f
        E 47 8c 45 00
        E 1 9c 46 7f
        E 47 8c 46 00
        E 49 9c 45 7f
        E 47 8c 45 00
        E 1 9c 46 7f
        E 47 8c 46 00
        E 1 9c 48 7f
        E 47 8c 48 00
        E 1 9c 4a 7f
        E 47 8c 4a 00
        E 1 9c 43 7f
        E 47 8c 43 00
        E 1 9c 48 7f
        E 47 8c 48 00
        E 1 9c 41 7f
        E 47 8c 41 00
        E 1 9c 46 7f
        E 191 8c 46 00
        E 1 9c 46 7f
        E 47 8c 46 00
        E 1 9c 45 7f
        E 47 8c 45 00
        E 1 9c 41 7f
        E 47 8c 41 00
        E 1 9c 45 7f
        E 47 8c 45 00
        E 1 9c 41 7f
        E 191 8c 41 00
        E 1 9c 41 7f
        E 47 8c 41 00
        E 1 9c 3f 7f
        E 47 8c 3f 00
        E 1 9c 3c 7f
        E 47 8c 3c 00
        E 1 9c 3f 7f
        E 47 8c 3f 00
        E 1 9c 42 7f
        E 191 8c 42 00
        E 1 9c 43 7f
        E 95 8c 43 00
        E 1 9c 41 7f
        E 47 8c 41 00
        E 1 9c 43 7f
        E 47 8c 43 00
        E 49 9c 41 7f
        E 47 8c 41 00
        E 1 9c 43 7f
        E 47 8c 43 00
        E 1 9c 45 7f
        E 47 8c 45 00
        E 1 9c 46 7f
        E 47 8c 46 00
        E 1 9c 43 7f
        E 47 8c 43 00
        E 1 9c 48 7f
        E 47 8c 48 00
        E 1 9c 43 7f
        E 47 8c 43 00
        E 1 9c 4a 7f
        E 191 8c 4a 00
        E 1 9c 4a 7f
        E 47 8c 4a 00
        E 1 9c 48 7f
        E 47 8c 48 00
        E 1 9c 46 7f
        E 47 8c 46 00
        E 1 9c 4a 7f
        E 47 8c 4a 00
        E 1 9c 4f 7f
        E 47 8c 4f 00
        E 1 9c 51 7f
        E 47 8c 51 00
        E 1 9c 4d 7f
        E 47 8c 4d 00
        E 1 9c 4a 7f
        E 47 8c 4a 00
        E 1 9c 46 7f
        E 383 8c 46 00
        E 1 b0 7b 00
        CCINTERP 32
        CHASE_CC_TAKEOFFS 1
        GUID {36E520E4-9950-2F46-8C4B-2E5E974E5D4B}
        IGNTEMPO 0 120 4 4
        SRCCOLOR 88
        VELLANE -1 100 0
        CFGEDITVIEW 31971.84 0.362372 33 12 0 -1 0 0 0 0.5
        KEYSNAP 0
        TRACKSEL 0
        EVTFILTER 0 -1 -1 -1 -1 0 0 0 0 -1 -1 -1 -1 0 -1 0 -1 -1
        CFGEDIT 1 1 0 1 0 0 1 1 1 1 1 0.25 575 189 1920 928 0 0 0 0 0 0 0 0 0 0 0 0 1 64
      >
    >
  >
  <TRACK {2D45A358-C311-664E-8C9B-677BF1221587}
    NAME lead2
    PEAKCOL 16576
    BEAT -1
    AUTOMODE 0
    VOLPAN 3.98107170553497 1 -1 -1 1
    MUTESOLO 0 0 0
    IPHASE 0
    PLAYOFFS 0 1
    ISBUS 0 0
    BUSCOMP 0 0 0 0 0
    SHOWINMIX 1 0.6667 0.5 1 0.5 -1 -1 -1
    FREEMODE 0
    SEL 0
    REC 0 0 1 0 0 0 0
    VU 2
    TRACKHEIGHT 0 0 0 0 0 0
    INQ 0 0 0 0.5 100 0 0 100
    NCHAN 2
    FX 1
    TRACKID {2D45A358-C311-664E-8C9B-677BF1221587}
    PERF 0
    MIDIOUT -1
    MAINSEND 1 0
    <FXCHAIN
      WNDRECT 133 414 1013 581
      SHOW 0
      LASTSEL 0
      DOCKED 0
      BYPASS 0 0 0
      <AU "AUi: sforzando (Plogue Art et Technologie)" "Plogue Art et Technologie: sforzando" "" 1635085685 1347176273 1347178311
        6QMAAAAAAAAAAAAAAgAAAAEAAAAAAAAAAgAAAAAAAACLGgAAPD94bWwgdmVyc2lvbj0iMS4wIiBlbmNvZGluZz0iVVRGLTgiPz4KPCFET0NUWVBFIHBsaXN0IFBVQkxJ
        QyAiLS8vQXBwbGUvL0RURCBQTElTVCAxLjAvL0VOIiAiaHR0cDovL3d3dy5hcHBsZS5jb20vRFREcy9Qcm9wZXJ0eUxpc3QtMS4wLmR0ZCI+CjxwbGlzdCB2ZXJzaW9u
        PSIxLjAiPgo8ZGljdD4KCTxrZXk+QXJpYURhdGE8L2tleT4KCTxkYXRhPgoJUTBWSFVBVUZBQUI0bklXVVRXK2pNQkNHNy9rVmx1OEpPQ0haalFTcDB2UkRIS0t1UlBl
        TUJ1TWtxTVpPd1VidHY5OEIKCVFvSldqY3pKZnYxNFBQT2ltZkRocTVTa0VWVmRhQlZSTnZNcGVkaE13bTFWUUFLTkdCMnRWMnRLenBYT0xUZnhFd28rCglDK2htUXZB
        TEUyRk1vWTQxK2JRZ0MvT05wNVRVcGhKUW9oelJ4WnlTRXI2U1R0bEtxZm4rTWFKTGh2SStmb3Jmck5ucgoJWEhTM3dCcGRnc0UzRTZsTlJQMnhKRVVqWkVRTGhiRnRL
        WlNoUkJhTjZDOGpXZk9JcmxaQnV3QUpLREV5SmFKTmFsWnoKCWVaRjNlRTlVQ09LRm85UVp5SGVydWpSUjhJYUs4SEZTNUoybW9NVHc5V0h1SmJ2cGNwa20ycXI4UlN1
        VE5peWRaMmw3Cgk0dnUrNTdOMXVqdlppcC9TdCtvNHcySXlVQjh4Qmdud21ONjh4RFUvZ1ZKdExWUEV6bHFpWlczZTVwYkpPVXNyVUVkeAoJUVF4dTZ1NmdIQzAxTi9p
        WFJyVzNSbHZUS1gwbFhUVjdLTlJRVFFQUzlsWjdQeEhzU3ZoM2lMbVRXRGlKd0Vrc25jVEsKCVNmeHlFcitkeE5wSk1OK051RjFsYmx1WjIxZm1OcGJkZGZZUFZGRCta
        eHk3aDdBRit3RUt2Ylp4THV2bncwRndNKzZrCglhMy8yTGJVdHMwSW9MbTZOMGcyVjhkQUorcUhEcnkwK1BQVDZOeDZpQWpjNEJPTGJ2T2oyejlkOUxTVG1JZkozeVBw
        bQoJd2hpaE40eTR6ZVFmeUVkWVNRPT0KCTwvZGF0YT4KCTxrZXk+ZGF0YTwva2V5PgoJPGRhdGE+CglBQUFBQUFBQUFBQUFBQUlBQUFBQUFBQUFBQUFBQUFBQkFBQUFB
        QUFBQUFJQUFBQUFBQUFBQXdBQUFBQUFBQUFFQUFBQQoJQUFBQUFBVUFBQUFBQUFBQUJnQUFBQUFBQUFBSEFBQUFBQUFBQUFnQUFBQUFBQUFBQ1FBQUFBQUFBQUFLQUFB
        QUFBQUEKCUFBc0FBQUFBQUFBQURBQUFBQUFBQUFBTkFBQUFBQUFBQUE0QUFBQUFBQUFBRHdBQUFBQUFBQUFRQUFBQUFBQUFBQkVBCglBQUFBQUFBQUVnQUFBQUFBQUFB
        VEFBQUFBQUFBQUJRQUFBQUFBQUFBRlFBQUFBQUFBQUFXQUFBQUFBQUFBQmNBQUFBQQoJQUFBQUdBQUFBQUFBQUFBWkFBQUFBQUFBQUJvQUFBQUFBQUFBR3dBQUFBQUFB
        QUFjQUFBQUFBQUFBQjBBQUFBQUFBQUEKCUhnQUFBQUFBQUFBZkFBQUFBQUFBQUNBQUFBQUFBQUFBSVFBQUFBQUFBQUFpQUFBQUFBQUFBQ01BQUFBQUFBQUFKQUFBCglB
        QUFBQUFBbEFBQUFBQUFBQUNZQUFBQUFBQUFBSndBQUFBQUFBQUFvQUFBQUFBQUFBQ2tBQUFBQUFBQUFLZ0FBQUFBQQoJQUFBckFBQUFBQUFBQUN3QUFBQUFBQUFBTFFB
        QUFBQUFBQUF1QUFBQUFBQUFBQzhBQUFBQUFBQUFNQUFBQUFBQUFBQXgKCUFBQUFBQUFBQURJQUFBQUFBQUFBTXdBQUFBQUFBQUEwQUFBQUFBQUFBRFVBQUFBQUFBQUFO
        Z0FBQUFBQUFBQTNBQUFBCglBQUFBQURnQUFBQUFBQUFBT1FBQUFBQUFBQUE2QUFBQUFBQUFBRHNBQUFBQUFBQUFQQUFBQUFBQUFBQTlBQUFBQUFBQQoJQUQ0QUFBQUFB
        QUFBUHdBQUFBQUFBQUJBQUFBQUFBQUFBRUVBQUFBQUFBQUFRZ0FBQUFBQUFBQkRBQUFBQUFBQUFFUUEKCUFBQUFBQUFBUlFBQUFBQUFBQUJHQUFBQUFBQUFBRWNBQUFB
        QUFBQUFTQUFBQUFBQUFBQkpBQUFBQUFBQUFFb0FBQUFBCglBQUFBU3dBQUFBQUFBQUJNQUFBQUFBQUFBRTBBQUFBQUFBQUFUZ0FBQUFBQUFBQlBBQUFBQUFBQUFGQUFB
        QUFBQUFBQQoJVVFBQUFBQUFBQUJTQUFBQUFBQUFBRk1BQUFBQUFBQUFWQUFBQUFBQUFBQlZBQUFBQUFBQUFGWUFBQUFBQUFBQVZ3QUEKCUFBQUFBQUJZQUFBQUFBQUFB
        RmtBQUFBQUFBQUFXZ0FBQUFBQUFBQmJBQUFBQUFBQUFGd0FBQUFBQUFBQVhRQUFBQUFBCglBQUJlQUFBQUFBQUFBRjhBQUFBQUFBQUFZQUFBQUFBQUFBQmhBQUFBQUFB
        QUFHSUFBQUFBQUFBQVl3QUFBQUFBQUFCawoJQUFBQUFBQUFBR1VBQUFBQUFBQUFaZ0FBQUFBQUFBQm5BQUFBQUFBQUFHZ0FBQUFBQUFBQWFRQUFBQUFBQUFCcUFBQUEK
        CUFBQUFBR3NBQUFBQUFBQUFiQUFBQUFBQUFBQnRBQUFBQUFBQUFHNEFBQUFBQUFBQWJ3QUFBQUFBQUFCd0FBQUFBQUFBCglBSEVBQUFBQUFBQUFjZ0FBQUFBQUFBQnpB
        QUFBQUFBQUFIUUFBQUFBQUFBQWRRQUFBQUFBQUFCMkFBQUFBQUFBQUhjQQoJQUFBQUFBQUFlQUFBQUFBQUFBQjVBQUFBQUFBQUFIb0FBQUFBQUFBQWV3QUFBQUFBQUFC
        OEFBQUFBQUFBQUgwQUFBQUEKCUFBQUFmZ0FBQUFBQUFBQi9BQUFBQUFBQUFJQUFBQUFBQUFBQWdRQUFBQUFBQUFDQ0FBQUFBQUFBQUlNQUFBQUFBQUFBCgloQUFBQUFB
        QUFBQ0ZBQUFBQUFBQUFJWUFBQUFBQUFBQWh3QUFBQUFBQUFDSUFBQUFBQUFBQUlrQUFBQUFBQUFBaWdBQQoJQUFBQUFBQ0xBQUFBQUFBQUFJd0FBQUFBQUFBQWpRQUFB
        QUFBQUFDT0FBQUFBQUFBQUk4QUFBQUFBQUFBa0FBQUFBQUEKCUFBQ1JBQUFBQUFBQUFKSUFBQUFBQUFBQWt3QUFBQUFBQUFDVUFBQUFBQUFBQUpVQUFBQUFBQUFBbGdB
        QUFBQUFBQUNYCglBQUFBQUFBQUFKZ0FBQUFBQUFBQW1RQUFBQUFBQUFDYUFBQUFBQUFBQUpzQUFBQUFBQUFBbkFBQUFBQUFBQUNkQUFBQQoJQUFBQUFKNEFBQUFBQUFB
        QW53QUFBQUFBQUFDZ0FBQUFBQUFBQUtFQUFBQUFBQUFBb2dBQUFBQUFBQUNqQUFBQUFBQUEKCUFLUUFBQUFBQUFBQXBRQUFBQUFBQUFDbUFBQUFBQUFBQUtjQUFBQUFB
        QUFBcUFBQUFBQUFBQUNwQUFBQUFBQUFBS29BCglBQUFBQUFBQXF3QUFBQUFBQUFDc0FBQUFBQUFBQUswQUFBQUFBQUFBcmdBQUFBQUFBQUN2QUFBQUFBQUFBTEFBQUFB
        QQoJQUFBQXNRQUFBQUFBQUFDeUFBQUFBQUFBQUxNQUFBQUFBQUFBdEFBQUFBQUFBQUMxQUFBQUFBQUFBTFlBQUFBQUFBQUEKCXR3QUFBQUFBQUFDNEFBQUFBQUFBQUxr
        QUFBQUFBQUFBdWdBQUFBQUFBQUM3QUFBQUFBQUFBTHdBQUFBQUFBQUF2UUFBCglBQUFBQUFDK0FBQUFBQUFBQUw4QUFBQUFBQUFBd0FBQUFBQUFBQURCQUFBQUFBQUFB
        TUlBQUFBQUFBQUF3d0FBQUFBQQoJQUFERUFBQUFBQUFBQU1VQUFBQUFBQUFBeGdBQUFBQUFBQURIQUFBQUFBQUFBTWdBQUFBQUFBQUF5UUFBQUFBQUFBREsKCUFBQUFB
        QUFBQU1zQUFBQUFBQUFBekFBQUFBQUFBQUROQUFBQUFBQUFBTTRBQUFBQUFBQUF6d0FBQUFBQUFBRFFBQUFBCglBQUFBQU5FQUFBQUFBQUFBMGdBQUFBQUFBQURUQUFB
        QUFBQUFBTlFBQUFBQUFBQUExUUFBQUFBQUFBRFdBQUFBQUFBQQoJQU5jQUFBQUFBQUFBMkFBQUFBQUFBQURaQUFBQUFBQUFBTm9BQUFBQUFBQUEyd0FBQUFBQUFBRGNB
        QUFBQUFBQUFOMEEKCUFBQUFBQUFBM2dBQUFBQUFBQURmQUFBQUFBQUFBT0FBQUFBQUFBQUE0UUFBQUFBQUFBRGlBQUFBQUFBQUFPTUFBQUFBCglBQUFBNUFBQUFBQUFB
        QURsQUFBQUFBQUFBT1lBQUFBQUFBQUE1d0FBQUFBQUFBRG9BQUFBQUFBQUFPa0FBQUFBQUFBQQoJNmdBQUFBQUFBQURyQUFBQUFBQUFBT3dBQUFBQUFBQUE3UUFBQUFB
        QUFBRHVBQUFBQUFBQUFPOEFBQUFBQUFBQThBQUEKCUFBQUFBQUR4QUFBQUFBQUFBUElBQUFBQUFBQUE4d0FBQUFBQUFBRDBBQUFBQUFBQUFQVUFBQUFBQUFBQTlnQUFB
        QUFBCglBQUQzQUFBQUFBQUFBUGdBQUFBQUFBQUErUUFBQUFBQUFBRDZBQUFBQUFBQUFQc0FBQUFBQUFBQS9BQUFBQUFBQUFEOQoJQUFBQUFBQUFBUDRBQUFBQUFBQUEv
        d0FBQUFBQUFBRUFBQUFBQUFBQUFRRUFBQUFBQUFBQkFnQUFBQUFBQUFFREFBQUEKCUFBQUFBUVFBQUFBQUFBQUJCUUFBQUFBQUFBRUdBQUFBQUFBQUFRY0FBQUFBQUFB
        QkNBQUFBQUFBQUFFSkFBQUFBQUFBCglBUW9BQUFBQUFBQUJDd0FBQUFBQUFBRU1BQUFBQUFBQUFRMEFBQUFBQUFBQkRnQUFBQUFBQUFFUEFBQUFBQUFBQVJBQQoJQUFB
        QUFBQUJFUUFBQUFBQUFBRVNBQUFBQUFBQUFSTUFBQUFBQUFBQkZBQUFBQUFBQUFFVkFBQUFBQUFBQVJZQUFBQUEKCUFBQUJGd0FBQUFBQUFBRVlBQUFBQUFBQUFSa0FB
        QUFBQUFBQkdnQUFBQUFBQUFFYkFBQUFBQUFBQVJ3QUFBQUFBQUFCCglIUUFBQUFBQUFBRWVBQUFBQUFBQUFSOEFBQUFBQUFBQklBQUFBQUFBQUFFaEFBQUFBQUFBQVNJ
        QUFBQUFBQUFCSXdBQQoJQUFBQUFBRWtBQUFBQUFBQUFTVUFBQUFBQUFBQkpnQUFBQUFBQUFFbkFBQUFBQUFBQVNnQUFBQUFBQUFCS1FBQUFBQUEKCUFBRXFBQUFBQUFB
        QUFTc0FBQUFBQUFBQkxBQUFBQUFBQUFFdEFBQUFBQUFBQVM0QUFBQUFBQUFCTHdBQUFBQUFBQUV3CglBQUFBQUFBQUFURUFBQUFBQUFBQk1nQUFBQUFBQUFFekFBQUFB
        QUFBQVRRQUFBQUFBQUFCTlFBQUFBQUFBQUUyQUFBQQoJQUFBQUFUY0FBQUFBQUFBQk9BQUFBQUFBQUFFNUFBQUFBQUFBQVRvQUFBQUFBQUFCT3dBQUFBQUFBQUU4QUFB
        QUFBQUEKCUFUMEFBQUFBQUFBQlBnQUFBQUFBQUFFL0FBQUFBQUFBQVVBQUFBQUFBQUFCUVFBQUFBQUFBQUZDQUFBQUFBQUFBVU1BCglBQUFBQUFBQlJBQUFBQUFBQUFG
        RkFBQUFBQUFBQVVZQUFBQUFBQUFCUndBQUFBQUFBQUZJQUFBQUFBQUFBVWtBQUFBQQoJQUFBQlNnQUFBQUFBQUFGTEFBQUFBQUFBQVV3QUFBQUFBQUFCVFFBQUFBQUFB
        QUZPQUFBQUFBQUFBVThBQUFBQUFBQUIKCVVBQUFBQUFBQUFGUkFBQUFBQUFBQVZJQUFBQUFBQUFCVXdBQUFBQUFBQUZVQUFBQUFBQUFBVlVBQUFBQUFBQUJWZ0FBCglB
        QUFBQUFGWEFBQUFBQUFBQVZnQUFBQUFBQUFCV1FBQUFBQUFBQUZhQUFBQUFBQUFBVnNBQUFBQUFBQUJYQUFBQUFBQQoJQUFGZEFBQUFBQUFBQVY0QUFBQUFBQUFCWHdB
        QUFBQUFBQUZnQUFBQUFBQUFBV0VBQUFBQUFBQUJZZ0FBQUFBQUFBRmoKCUFBQUFBQUFBQVdRQUFBQUFBQUFCWlFBQUFBQUFBQUZtQUFBQUFBQUFBV2NBQUFBQUFBQUJh
        QUFBQUFBQUFBRnBBQUFBCglBQUFBQVdvQUFBQUFBQUFCYXdBQUFBQUFBQUZzQUFBQUFBQUFBVzBBQUFBQUFBQUJiZ0FBQUFBQUFBRnZBQUFBQUFBQQoJQVhBQUFBQUFB
        QUFCY1FBQUFBQUFBQUZ5QUFBQUFBQUFBWE1BQUFBQUFBQUJkQUFBQUFBQUFBRjFBQUFBQUFBQUFYWUEKCUFBQUFBQUFCZHdBQUFBQUFBQUY0QUFBQUFBQUFBWGtBQUFB
        QUFBQUJlZ0FBQUFBQUFBRjdBQUFBQUFBQUFYd0FBQUFBCglBQUFCZlFBQUFBQUFBQUYrQUFBQUFBQUFBWDhBQUFBQUFBQUJnQUFBQUFBQUFBR0JBQUFBQUFBQUFZSUFB
        QUFBQUFBQgoJZ3dBQUFBQUFBQUdFQUFBQUFBQUFBWVVBQUFBQUFBQUJoZ0FBQUFBQUFBR0hBQUFBQUFBQUFZZ0FBQUFBQUFBQmlRQUEKCUFBQUFBQUdLQUFBQUFBQUFB
        WXNBQUFBQUFBQUJqQUFBQUFBQUFBR05BQUFBQUFBQUFZNEFBQUFBQUFBQmp3QUFBQUFBCglBQUdRQUFBQUFBQUFBWkVBQUFBQUFBQUJrZ0FBQUFBQUFBR1RBQUFBQUFB
        QUFaUUFBQUFBQUFBQmxRQUFBQUFBQUFHVwoJQUFBQUFBQUFBWmNBQUFBQUFBQUJtQUFBQUFBQUFBR1pBQUFBQUFBQUFab0FBQUFBQUFBQm13QUFBQUFBQUFHY0FBQUEK
        CUFBQUFBWjBBQUFBQUFBQUJuZ0FBQUFBQUFBR2ZBQUFBQUFBQUFhQUFBQUFBQUFBQm9RQUFBQUFBQUFHaUFBQUFBQUFBCglBYU1BQUFBQUFBQUJwQUFBQUFBQUFBR2xB
        QUFBQUFBQUFhWUFBQUFBQUFBQnB3QUFBQUFBQUFHb0FBQUFBQUFBQWFrQQoJQUFBQUFBQUJxZ0FBQUFBQUFBR3JBQUFBQUFBQUFhd0FBQUFBQUFBQnJRQUFBQUFBQUFH
        dUFBQUFBQUFBQWE4QUFBQUEKCUFBQUJzQUFBQUFBQUFBR3hBQUFBQUFBQUFiSUFBQUFBQUFBQnN3QUFBQUFBQUFHMEFBQUFBQUFBQWJVQUFBQUFBQUFCCgl0Z0FBQUFB
        QUFBRzNBQUFBQUFBQUFiZ0FBQUFBQUFBQnVRQUFBQUFBQUFHNkFBQUFBQUFBQWJzQUFBQUFBQUFCdkFBQQoJQUFBQUFBRzlBQUFBQUFBQUFiNEFBQUFBQUFBQnZ3QUFB
        QUFBQUFIQUFBQUFBQUFBQWNFQUFBQUFBQUFCd2dBQUFBQUEKCUFBSERBQUFBQUFBQUFjUUFBQUFBQUFBQnhRQUFBQUFBQUFIR0FBQUFBQUFBQWNjQUFBQUFBQUFCeUFB
        QUFBQUFBQUhKCglBQUFBQUFBQUFjb0FBQUFBQUFBQnl3QUFBQUFBQUFITUFBQUFBQUFBQWMwQUFBQUFBQUFCemdBQUFBQUFBQUhQQUFBQQoJQUFBQUFkQUFBQUFBQUFB
        QjBRQUFBQUFBQUFIU0FBQUFBQUFBQWRNQUFBQUFBQUFCMUFBQUFBQUFBQUhWQUFBQUFBQUEKCUFkWUFBQUFBQUFBQjF3QUFBQUFBQUFIWUFBQUFBQUFBQWRrQUFBQUFB
        QUFCMmdBQUFBQUFBQUhiQUFBQUFBQUFBZHdBCglBQUFBQUFBQjNRQUFBQUFBQUFIZUFBQUFBQUFBQWQ4QUFBQUFBQUFCNEFBQUFBQUFBQUhoQUFBQUFBQUFBZUlBQUFB
        QQoJQUFBQjR3QUFBQUFBQUFIa0FBQUFBQUFBQWVVQUFBQUFBQUFCNWdBQUFBQUFBQUhuQUFBQUFBQUFBZWdBQUFBQUFBQUIKCTZRQUFBQUFBQUFIcUFBQUFBQUFBQWVz
        QUFBQUFBQUFCN0FBQUFBQUFBQUh0QUFBQUFBQUFBZTRBQUFBQUFBQUI3d0FBCglBQUFBQUFId0FBQUFBQUFBQWZFQUFBQUFBQUFCOGdBQUFBQUFBQUh6QUFBQUFBQUFB
        ZlFBQUFBQUFBQUI5UUFBQUFBQQoJQUFIMkFBQUFBQUFBQWZjQUFBQUFBQUFCK0FBQUFBQUFBQUg1QUFBQUFBQUFBZm9BQUFBQUFBQUIrd0FBQUFBQUFBSDgKCUFBQUFB
        QUFBQWYwQUFBQUFBQUFCL2dBQUFBQUFBQUgvQUFBQUFBPT0KCTwvZGF0YT4KCTxrZXk+bWFudWZhY3R1cmVyPC9rZXk+Cgk8aW50ZWdlcj4xMzQ3MTc4MzExPC9pbnRl
        Z2VyPgoJPGtleT5uYW1lPC9rZXk+Cgk8c3RyaW5nPlVudGl0bGVkPC9zdHJpbmc+Cgk8a2V5PnN1YnR5cGU8L2tleT4KCTxpbnRlZ2VyPjEzNDcxNzYyNzM8L2ludGVn
        ZXI+Cgk8a2V5PnR5cGU8L2tleT4KCTxpbnRlZ2VyPjE2MzUwODU2ODU8L2ludGVnZXI+Cgk8a2V5PnZlcnNpb248L2tleT4KCTxpbnRlZ2VyPjA8L2ludGVnZXI+Cjwv
        ZGljdD4KPC9wbGlzdD4KAQAAAAAAAAAAAA==
      >
      FLOATPOS 0 0 0 0
      FXID {C177E105-9310-9942-8F48-C7F7C2054B2A}
      WAK 0 0
    >
    <ITEM
      POSITION 12.875152
      SNAPOFFS 0
      LENGTH 12.864416
      LOOP 1
      ALLTAKES 0
      FADEIN 1 0 0 1 0 0 0
      FADEOUT 1 0 0 1 0 0 0
      MUTE 0 0
      BEAT 1
      SEL 0
      IGUID {A22EB2E3-B1F6-1B48-A3E4-8A908E8B33FF}
      IID 69
      NAME the_centennial_festival_for_magical.mid
      VOLPAN 1 0 1 -1
      SOFFS 14.475152 36
      PLAYRATE 1 1 0 -1 0 0.0025
      CHANMODE 0
      GUID {3CAAF637-E562-E944-B4E9-BDDCFB83E77B}
      <SOURCE MIDI
        HASDATA 1 96 QN
        CCINTERP 32
        POOLEDEVTS {F215D505-11F4-CB43-BB76-2324506F8C95}
        <X 0 0
          /yEBAA==
        >
        <X 0 0 0 0 4 Trumpet
          /wRUcnVtcGV0
        >
        E 27 b3 00 00
        E 1 b3 20 00
        E 1 c3 38 00
        E 1 b3 0a 6d
        E 1 b3 07 71
        E 1 b3 0b 7f
        E 1 b3 5b 00
        E 1 b3 5d 00
        E 1 b3 5e 00
        E 124 b3 65 00
        E 0 b3 64 01
        E 0 b3 06 40
        E 0 b3 26 00
        <X 1 0
          8EEQQhJAFEBAQEBAQEBAQEBAQEBs9w==
        >
        E 2 b3 40 00
        E 1 b3 63 01
        E 0 b3 62 08
        E 0 b3 06 40
        E 1 b3 63 01
        E 0 b3 62 09
        E 0 b3 06 40
        E 1 b3 63 01
        E 0 b3 62 0a
        E 0 b3 06 40
        E 1 b3 63 01
        E 0 b3 62 20
        E 0 b3 06 40
        E 1 b3 63 01
        E 0 b3 62 21
        E 0 b3 06 40
        E 1 b3 63 01
        E 0 b3 62 63
        E 0 b3 06 40
        E 1 b3 63 01
        E 0 b3 62 64
        E 0 b3 06 40
        E 1 b3 63 01
        E 0 b3 62 66
        E 0 b3 06 40
        <X 1 0
          8EEQQhJARCAAXPc=
        >
        E 213 b3 40 00
        E 3120 93 4e 7f
        E 47 83 4e 00
        E 1 93 4e 7f
        E 47 83 4e 00
        E 49 93 4e 7f
        E 71 83 4e 00
        E 1 93 50 7f
        E 71 83 50 00
        E 1 93 4e 7f
        E 47 83 4e 00
        E 49 93 4e 7f
        E 47 83 4e 00
        E 1 93 4e 7f
        E 47 83 4e 00
        E 49 93 4e 7f
        E 71 83 4e 00
        e 1 93 4d 7f
        e 71 83 4d 00
        E 1 93 4e 7f
        E 47 83 4e 00
        E 49 93 4e 7f
        E 47 83 4e 00
        E 1 93 4e 7f
        E 47 83 4e 00
        E 49 93 4e 7f
        E 71 83 4e 00
        E 1 93 50 7f
        E 71 83 50 00
        E 1 93 4e 7f
        E 47 83 4e 00
        E 49 93 4e 7f
        E 47 83 4e 00
        E 1 93 4e 7f
        E 47 83 4e 00
        E 49 93 4e 7f
        E 71 83 4e 00
        E 1 93 4d 7f
        E 71 83 4d 00
        E 1 93 4e 7f
        E 47 83 4e 00
        E 49 93 4e 7f
        E 47 83 4e 00
        E 1 93 4e 7f
        E 47 83 4e 00
        E 49 93 4e 7f
        E 71 83 4e 00
        E 1 93 50 7f
        E 71 83 50 00
        E 1 93 4e 7f
        E 47 83 4e 00
        E 49 93 4e 7f
        E 47 83 4e 00
        E 1 93 4e 7f
        E 47 83 4e 00
        E 49 93 4e 7f
        E 71 83 4e 00
        E 1 93 4d 7f
        E 71 83 4d 00
        E 1 93 4e 7f
        E 47 83 4e 00
        E 49 93 4e 7f
        E 47 83 4e 00
        E 1 93 4e 7f
        E 47 83 4e 00
        E 49 93 4e 7f
        E 71 83 4e 00
        E 1 93 50 7f
        E 71 83 50 00
        E 1 93 4e 7f
        E 47 83 4e 00
        E 49 93 4e 7f
        E 47 83 4e 00
        E 1 93 4e 7f
        E 47 83 4e 00
        E 49 93 4e 7f
        E 71 83 4e 00
        E 1 93 4d 7f
        E 71 83 4d 00
        E 1 93 4e 7f
        E 47 83 4e 00
        E 1 b0 7b 00
        CCINTERP 32
        CHASE_CC_TAKEOFFS 1
        GUID {B4EEFB2F-B4CC-0449-9C97-B5AAE6F27F4F}
        IGNTEMPO 0 120 4 4
        SRCCOLOR 137
        VELLANE -1 100 0
        CFGEDITVIEW 864.281759 0.183164 35 12 0 -1 0 0 0 0.5
        KEYSNAP 0
        TRACKSEL 0
        EVTFILTER 0 -1 -1 -1 -1 0 0 0 0 -1 -1 -1 -1 0 -1 0 -1 -1
        CFGEDIT 1 1 0 1 0 0 1 1 1 1 1 0.25 1994 76 3339 815 0 0 0 0 0 0 0 0 0 0 0 0 1 64
      >
    >
    <ITEM
      POSITION 25.739568
      SNAPOFFS 0
      LENGTH 6.4
      LOOP 1
      ALLTAKES 0
      FADEIN 1 0 0 1 0 0 0
      FADEOUT 1 0 0 1 0 0 0
      MUTE 0 0
      BEAT 1
      SEL 0
      IGUID {8CF3415A-D531-5241-8C99-AB487D32371F}
      IID 64
      NAME the_centennial_festival_for_magical.mid
      VOLPAN 1 0 1 -1
      SOFFS 27.339568 68
      PLAYRATE 1 1 0 -1 0 0.0025
      CHANMODE 0
      GUID {7BBC1057-B7D0-9B41-91ED-AFF7D75F61BC}
      <SOURCE MIDI
        HASDATA 1 96 QN
        CCINTERP 32
        POOLEDEVTS {854689C1-3533-864E-B14E-65E1D371AD05}
        <X 0 0
          /yEBAA==
        >
        <X 0 0 0 0 4 "Strings   :"
          /wRTdHJpbmdzICAgOg==
        >
        E 18 b2 00 00
        E 1 b2 20 00
        E 1 c2 30 00
        E 1 b2 0a 1f
        E 1 b2 07 75
        E 1 b2 0b 7f
        E 1 b2 5b 00
        E 1 b2 5d 00
        E 1 b2 5e 00
        E 119 b2 65 00
        E 0 b2 64 01
        E 0 b2 06 40
        E 0 b2 26 00
        <X 1 0
          8EEQQhJAE0BAQEBAQEBAQEBAQEBt9w==
        >
        E 2 b2 40 00
        E 1 b2 63 01
        E 0 b2 62 08
        E 0 b2 06 40
        E 1 b2 63 01
        E 0 b2 62 09
        E 0 b2 06 40
        E 1 b2 63 01
        E 0 b2 62 0a
        E 0 b2 06 40
        E 1 b2 63 01
        E 0 b2 62 20
        E 0 b2 06 40
        E 1 b2 63 01
        E 0 b2 62 21
        E 0 b2 06 40
        E 1 b2 63 01
        E 0 b2 62 63
        E 0 b2 06 40
        E 1 b2 63 01
        E 0 b2 62 64
        E 0 b2 06 40
        E 1 b2 63 01
        E 0 b2 62 66
        E 0 b2 06 40
        <X 1 0
          8EEQQhJAQyAAXfc=
        >
        E 227 b2 40 00
        E 1536 92 46 64
        E 143 82 46 00
        E 1 92 4e 64
        E 383 82 4e 00
        E 1 92 55 64
        E 143 82 55 00
        E 1 92 53 64
        E 95 82 53 00
        E 1 92 52 64
        E 767 82 52 00
        E 1 92 46 50
        E 71 82 46 00
        E 1 92 4b 50
        E 71 82 4b 00
        E 1 92 4e 50
        E 47 82 4e 00
        E 1 92 52 50
        E 71 82 52 00
        E 1 92 4e 50
        E 71 82 4e 00
        E 1 92 4b 50
        E 47 82 4b 00
        E 1 92 46 50
        E 71 82 46 00
        E 1 92 4b 50
        E 71 82 4b 00
        E 1 92 4e 50
        E 47 82 4e 00
        E 1 92 4b 50
        E 71 82 4b 00
        E 1 92 4e 50
        E 71 82 4e 00
        E 1 92 57 50
        E 47 82 57 00
        E 1 92 53 50
        E 71 82 53 00
        E 1 92 4e 50
        E 71 82 4e 00
        E 1 92 4b 50
        E 47 82 4b 00
        E 1 92 47 50
        E 71 82 47 00
        E 1 92 42 50
        E 71 82 42 00
        E 1 92 3f 50
        E 47 82 3f 00
        E 1 92 3b 50
        E 71 82 3b 00
        E 1 92 3f 50
        E 71 82 3f 00
        E 1 92 42 50
        E 47 82 42 00
        E 1 92 47 50
        E 71 82 47 00
        E 1 92 4e 50
        E 71 82 4e 00
        E 1 92 57 50
        E 47 82 57 00
        E 1 92 46 50
        E 71 82 46 00
        E 1 92 4b 50
        E 71 82 4b 00
        E 1 92 4e 50
        E 47 82 4e 00
        E 1 92 52 50
        E 71 82 52 00
        E 1 92 4e 50
        E 71 82 4e 00
        E 1 92 4b 50
        E 47 82 4b 00
        E 1 92 46 50
        E 71 82 46 00
        E 1 92 4b 50
        E 71 82 4b 00
        E 1 92 4e 50
        E 47 82 4e 00
        E 1 92 4b 50
        E 71 82 4b 00
        E 1 92 4e 50
        E 71 82 4e 00
        E 1 92 57 50
        E 47 82 57 00
        E 1 92 53 50
        E 71 82 53 00
        E 1 92 4e 50
        E 71 82 4e 00
        E 1 92 4b 50
        E 47 82 4b 00
        E 1 92 47 50
        E 71 82 47 00
        E 1 92 42 50
        E 71 82 42 00
        E 1 92 3f 50
        E 47 82 3f 00
        E 1 92 3b 50
        E 71 82 3b 00
        E 1 92 3f 50
        E 71 82 3f 00
        E 1 92 42 50
        E 47 82 42 00
        E 1 92 47 50
        E 71 82 47 00
        E 1 92 4e 50
        E 71 82 4e 00
        E 1 92 57 50
        E 47 82 57 00
        E 1 92 4b 7f
        E 191 82 4b 00
        E 1 92 4b 7f
        E 71 82 4b 00
        E 1 92 4d 7f
        E 71 82 4d 00
        E 1 92 4e 7f
        E 47 82 4e 00
        E 1 92 4d 7f
        E 143 82 4d 00
        E 1 92 4e 7f
        E 143 82 4e 00
        E 1 92 50 7f
        E 95 82 50 00
        E 1 92 4f 7f
        E 143 82 4f 00
        E 1 92 51 7f
        E 143 82 51 00
        E 1 92 52 7f
        E 95 82 52 00
        e 1 92 54 7f
        e 383 82 54 00
        E 1 b0 7b 00
        CCINTERP 32
        CHASE_CC_TAKEOFFS 1
        GUID {3646463D-839F-B44F-95BB-F5353BF33387}
        IGNTEMPO 0 120 4 4
        SRCCOLOR 97
        VELLANE -1 100 0
        CFGEDITVIEW 6528 0.656887 40 12 0 -1 0 0 0 0.5
        KEYSNAP 0
        TRACKSEL 0
        EVTFILTER 0 -1 -1 -1 -1 0 0 0 0 -1 -1 -1 -1 0 -1 0 -1 -1
        CFGEDIT 1 1 0 1 0 0 1 1 1 1 1 0.25 2108 79 3437 802 0 0 0 0 0 0 0 0 0 0 0 0 1 64
      >
    >
    <ITEM
      POSITION 32.139568
      SNAPOFFS 0
      LENGTH 13.43098
      LOOP 1
      ALLTAKES 0
      FADEIN 1 0 0 1 0 0 0
      FADEOUT 1 0 0 1 0 0 0
      MUTE 0 0
      BEAT 1
      SEL 0
      IGUID {394CAFA3-732B-1941-AF12-00DD5EDA9621}
      IID 74
      NAME the_centennial_festival_for_magical.mid
      VOLPAN 1 0 1 -1
      SOFFS 0 0
      PLAYRATE 1 1 0 -1 0 0.0025
      CHANMODE 0
      GUID {F0C3A666-0899-FC40-B6AE-D608AE5163EE}
      <SOURCE MIDI
        HASDATA 1 96 QN
        CCINTERP 32
        POOLEDEVTS {0804EDBE-3FAC-014A-8203-1883EFBD8102}
        E 0 92 43 7f
        E 23 82 43 00
        E 1 92 43 7f
        E 743 82 43 00
        E 1 92 3f 7f
        E 23 82 3f 00
        e 1 92 3f 7f
        e 743 82 3f 00
        E 1 92 43 7f
        E 23 82 43 00
        E 1 92 43 7f
        E 743 82 43 00
        E 1 92 3f 7f
        E 23 82 3f 00
        E 1 92 3f 7f
        E 743 82 3f 00
        E 1 b0 7b 00
        CCINTERP 32
        CHASE_CC_TAKEOFFS 1
        GUID {1D7C844F-0472-7E4C-814D-920285C805C5}
        IGNTEMPO 0 120 4 4
        SRCCOLOR 142
        VELLANE -1 100 0
        CFGEDITVIEW 0 0.061395 40 12 0 -1 0 0 0 0.5
        KEYSNAP 0
        TRACKSEL 0
        EVTFILTER 0 -1 -1 -1 -1 0 0 0 0 -1 -1 -1 -1 0 -1 0 -1 -1
        CFGEDIT 1 1 0 1 0 0 1 1 1 1 1 0.25 2057 118 3386 841 0 0 0 0 0 0 0 0 0 0 0 0 1 64
      >
    >
    <ITEM
      POSITION 45.570548
      SNAPOFFS 0
      LENGTH 6.76056
      LOOP 1
      ALLTAKES 0
      FADEIN 1 0 0 1 0 0 0
      FADEOUT 1 0 0 1 0 0 0
      MUTE 0 0
      BEAT 1
      SEL 0
      IGUID {A1DC5002-43EE-1B4C-8FA8-88525897A09C}
      IID 78
      NAME the_centennial_festival_for_magical.mid
      VOLPAN 1 0 1 -1
      SOFFS 13.43098 32
      PLAYRATE 1 1 0 -1 0 0.0025
      CHANMODE 0
      GUID {F0D3B835-AEAA-0C48-9096-3F0AEA2A7547}
      <SOURCE MIDI
        HASDATA 1 96 QN
        CCINTERP 32
        POOLEDEVTS {F1C47ED8-59B9-934D-AAC4-8BB613E33B8F}
        E 0 92 43 7f
        E 23 82 43 00
        E 1 92 43 7f
        E 743 82 43 00
        E 1 92 3f 7f
        E 23 82 3f 00
        E 1 92 3f 7f
        E 743 82 3f 00
        E 1 92 43 7f
        E 23 82 43 00
        E 1 92 43 7f
        E 743 82 43 00
        E 1 92 3f 7f
        E 23 82 3f 00
        E 1 92 3f 7f
        E 743 82 3f 00
        E 1 92 33 7f
        E 383 82 33 00
        E 1 92 35 7f
        E 383 82 35 00
        E 2 92 3f 7f
        E 191 82 3f 00
        E 1 92 41 7f
        E 191 82 41 00
        E 1 92 3f 7f
        E 95 82 3f 00
        E 1 92 41 7f
        E 95 82 41 00
        e 1 92 43 7f
        e 191 82 43 00
        E 0 b0 7b 00
        CCINTERP 32
        CHASE_CC_TAKEOFFS 1
        GUID {0D123451-5725-0447-8D8A-96F3D356F71B}
        IGNTEMPO 0 120 4 4
        SRCCOLOR 146
        VELLANE -1 100 0
        CFGEDITVIEW 1593.485434 0.312687 40 12 0 -1 0 0 0 0.5
        KEYSNAP 0
        TRACKSEL 0
        EVTFILTER 0 -1 -1 -1 -1 0 0 0 0 -1 -1 -1 -1 0 -1 0 -1 -1
        CFGEDIT 1 1 0 1 0 0 1 1 1 1 1 0.25 1965 44 3294 767 0 0 0 0 0 0 0 0 0 0 0 0 1 64
      >
    >
    <ITEM
      POSITION 59.02124
      SNAPOFFS 0
      LENGTH 3.33332800001305
      LOOP 1
      ALLTAKES 0
      FADEIN 1 0 0 1 0 0 0
      FADEOUT 1 0 0 1 0 0 0
      MUTE 0 0
      BEAT 1
      SEL 0
      IGUID {0E5B0DE4-512A-534D-9FB7-C11BA9DA723C}
      IID 91
      NAME the_centennial_festival_for_magical.mid
      VOLPAN 1 0 1 -1
      SOFFS 6.69013199998695 15.99999999996911
      PLAYRATE 1 1 0 -1 0 0.0025
      CHANMODE 0
      GUID {A4FB50CC-263D-9347-A8FC-147DC5F6C800}
      <SOURCE MIDI
        HASDATA 1 96 QN
        CCINTERP 32
        POOLEDEVTS {856A11D7-6988-534F-AE9F-18A85B4AB0C8}
        E 1537 91 2a 7f
        E 383 81 2a 00
        e 0 91 2c 7f
        e 383 81 2c 00
        E 1 b0 7b 00
        CCINTERP 32
        CHASE_CC_TAKEOFFS 1
        GUID {D814B791-0FB9-DF49-B8B5-0F9704832BC5}
        IGNTEMPO 0 120 4 4
        SRCCOLOR 159
        VELLANE -1 100 0
        CFGEDITVIEW 0 0.368878 67 12 0 -1 0 0 0 0.5
        KEYSNAP 0
        TRACKSEL 0
        EVTFILTER 0 -1 -1 -1 -1 0 0 0 0 -1 -1 -1 -1 0 -1 0 -1 -1
        CFGEDIT 1 1 0 1 0 0 1 1 1 1 1 0.25 1955 92 3332 863 0 0 0 0 0 0 0 0 0 0 0 0 1 64
      >
    >
    <ITEM
      POSITION 62.354568
      SNAPOFFS 0
      LENGTH 25.816968
      LOOP 1
      ALLTAKES 0
      FADEIN 1 0 0 1 0 0 0
      FADEOUT 1 0 0 1 0 0 0
      MUTE 0 0
      BEAT 1
      SEL 0
      IGUID {9866C208-EB5C-6D41-8FD9-5FC96752295C}
      IID 80
      NAME the_centennial_festival_for_magical.mid
      VOLPAN 1 0 1 -1
      SOFFS 0 0
      PLAYRATE 1 1 0 -1 0 0.0025
      CHANMODE 0
      GUID {D4E87D36-515C-854B-BD04-40AAC65DA178}
      <SOURCE MIDI
        HASDATA 1 96 QN
        CCINTERP 32
        POOLEDEVTS {307C47C7-CD33-AE40-928D-A4E76119CD7A}
        E 48 93 4e 7f
        E 47 83 4e 00
        E 1 93 4e 7f
        E 47 83 4e 00
        E 49 93 4e 7f
        E 71 83 4e 00
        E 1 93 50 7f
        E 71 83 50 00
        E 1 93 50 7f
        E 47 83 50 00
        E 49 93 4e 7f
        E 47 83 4e 00
        E 1 93 4e 7f
        E 47 83 4e 00
        E 49 93 4e 7f
        E 71 83 4e 00
        E 1 93 4d 7f
        E 71 83 4d 00
        E 1 93 4e 7f
        E 47 83 4e 00
        E 49 93 4e 7f
        E 47 83 4e 00
        E 1 93 4e 7f
        E 47 83 4e 00
        E 49 93 4e 7f
        E 71 83 4e 00
        E 1 93 50 7f
        E 71 83 50 00
        E 1 93 50 7f
        E 47 83 50 00
        E 49 93 4e 7f
        E 47 83 4e 00
        E 1 93 4e 7f
        E 47 83 4e 00
        E 49 93 4e 7f
        E 71 83 4e 00
        E 1 93 4d 7f
        E 71 83 4d 00
        E 1 93 4e 7f
        E 47 83 4e 00
        E 49 93 4e 7f
        E 47 83 4e 00
        E 1 93 4e 7f
        E 47 83 4e 00
        E 49 93 4e 7f
        E 71 83 4e 00
        E 1 93 50 7f
        E 71 83 50 00
        E 1 93 50 7f
        E 47 83 50 00
        E 49 93 4e 7f
        E 47 83 4e 00
        E 1 93 4e 7f
        E 47 83 4e 00
        E 49 93 4e 7f
        E 71 83 4e 00
        E 1 93 4d 7f
        E 71 83 4d 00
        E 1 93 4e 7f
        E 47 83 4e 00
        E 49 93 4e 7f
        E 47 83 4e 00
        E 1 93 4e 7f
        E 47 83 4e 00
        E 49 93 4e 7f
        E 71 83 4e 00
        E 1 93 50 7f
        E 71 83 50 00
        E 1 93 50 7f
        E 47 83 50 00
        E 49 93 4e 7f
        E 47 83 4e 00
        E 1 93 4e 7f
        E 47 83 4e 00
        E 49 93 4e 7f
        E 71 83 4e 00
        E 1 93 4d 7f
        E 71 83 4d 00
        E 1 93 4e 7f
        E 47 83 4e 00
        E 49 93 4e 7f
        E 47 83 4e 00
        E 1 93 4e 7f
        E 47 83 4e 00
        E 49 93 4e 7f
        E 71 83 4e 00
        E 1 93 50 7f
        E 71 83 50 00
        E 1 93 50 7f
        E 47 83 50 00
        E 49 93 4e 7f
        E 47 83 4e 00
        E 1 93 4e 7f
        E 47 83 4e 00
        E 49 93 4e 7f
        E 71 83 4e 00
        E 1 93 4d 7f
        E 71 83 4d 00
        E 1 93 4e 7f
        E 47 83 4e 00
        E 49 93 4e 7f
        E 47 83 4e 00
        E 1 93 4e 7f
        E 47 83 4e 00
        E 49 93 4e 7f
        E 71 83 4e 00
        E 1 93 50 7f
        E 71 83 50 00
        E 1 93 50 7f
        E 47 83 50 00
        E 49 93 4e 7f
        E 47 83 4e 00
        E 1 93 4e 7f
        E 47 83 4e 00
        E 49 93 4e 7f
        E 71 83 4e 00
        E 1 93 4d 7f
        E 71 83 4d 00
        E 1 93 4e 7f
        E 47 83 4e 00
        E 49 93 4e 7f
        E 47 83 4e 00
        E 1 93 4e 7f
        E 47 83 4e 00
        E 49 93 4e 7f
        E 71 83 4e 00
        E 1 93 50 7f
        E 71 83 50 00
        E 1 93 50 7f
        E 47 83 50 00
        E 49 93 4e 7f
        E 47 83 4e 00
        E 1 93 4e 7f
        E 47 83 4e 00
        E 49 93 4e 7f
        E 71 83 4e 00
        E 1 93 4d 7f
        E 71 83 4d 00
        E 1 93 4e 7f
        E 47 83 4e 00
        E 49 93 4e 7f
        E 47 83 4e 00
        E 1 93 4e 7f
        E 47 83 4e 00
        E 49 93 4e 7f
        E 71 83 4e 00
        E 1 93 50 7f
        E 71 83 50 00
        E 1 93 50 7f
        E 47 83 50 00
        E 49 93 4e 7f
        E 47 83 4e 00
        E 1 93 4e 7f
        E 47 83 4e 00
        E 49 93 4e 7f
        E 71 83 4e 00
        E 1 93 4d 7f
        E 71 83 4d 00
        E 1 93 4e 7f
        E 47 83 4e 00
        E 1 b0 7b 00
        CCINTERP 32
        CHASE_CC_TAKEOFFS 1
        GUID {9B25F27E-C433-AD4E-B23B-339BFD3EF86D}
        IGNTEMPO 0 120 4 4
        SRCCOLOR 148
        VELLANE -1 100 0
        CFGEDITVIEW 2176.611017 0.21347 34 12 0 -1 0 0 0 0.5
        KEYSNAP 0
        TRACKSEL 0
        EVTFILTER 0 -1 -1 -1 -1 0 0 0 0 -1 -1 -1 -1 0 -1 0 -1 -1
        CFGEDIT 1 1 0 1 0 0 1 1 1 1 1 0.25 591 205 1920 928 0 0 0 0 0 0 0 0 0 0 0 0 1 64
      >
    >
    <ITEM
      POSITION 88.17153600009624
      SNAPOFFS 0
      LENGTH 6.44294399999936
      LOOP 1
      ALLTAKES 0
      FADEIN 1 0 0 1 0 0 0
      FADEOUT 1 0 0 1 0 0 0
      MUTE 0 0
      BEAT 1
      SEL 0
      IGUID {4C533389-92BA-EF47-B780-77D0D0073566}
      IID 64
      NAME the_centennial_festival_for_magical.mid
      VOLPAN 1 0 1 -1
      SOFFS 27.48363199999864 68.00000000000475
      PLAYRATE 1 1 0 -1 0 0.0025
      CHANMODE 0
      GUID {8F56657B-F55B-7542-B8C2-ED1094081205}
      <SOURCE MIDI
        HASDATA 1 96 QN
        CCINTERP 32
        POOLEDEVTS {476C9995-2670-E64A-992B-87DA4780BE3F}
        <X 0 0
          /yEBAA==
        >
        <X 0 0 0 0 4 "Strings   :"
          /wRTdHJpbmdzICAgOg==
        >
        E 18 b2 00 00
        E 1 b2 20 00
        E 1 c2 30 00
        E 1 b2 0a 1f
        E 1 b2 07 75
        E 1 b2 0b 7f
        E 1 b2 5b 00
        E 1 b2 5d 00
        E 1 b2 5e 00
        E 119 b2 65 00
        E 0 b2 64 01
        E 0 b2 06 40
        E 0 b2 26 00
        <X 1 0
          8EEQQhJAE0BAQEBAQEBAQEBAQEBt9w==
        >
        E 2 b2 40 00
        E 1 b2 63 01
        E 0 b2 62 08
        E 0 b2 06 40
        E 1 b2 63 01
        E 0 b2 62 09
        E 0 b2 06 40
        E 1 b2 63 01
        E 0 b2 62 0a
        E 0 b2 06 40
        E 1 b2 63 01
        E 0 b2 62 20
        E 0 b2 06 40
        E 1 b2 63 01
        E 0 b2 62 21
        E 0 b2 06 40
        E 1 b2 63 01
        E 0 b2 62 63
        E 0 b2 06 40
        E 1 b2 63 01
        E 0 b2 62 64
        E 0 b2 06 40
        E 1 b2 63 01
        E 0 b2 62 66
        E 0 b2 06 40
        <X 1 0
          8EEQQhJAQyAAXfc=
        >
        E 227 b2 40 00
        E 1536 92 46 64
        E 143 82 46 00
        E 1 92 4e 64
        E 383 82 4e 00
        E 1 92 55 64
        E 143 82 55 00
        E 1 92 53 64
        E 95 82 53 00
        E 1 92 52 64
        E 767 82 52 00
        E 1 92 46 50
        E 71 82 46 00
        E 1 92 4b 50
        E 71 82 4b 00
        E 1 92 4e 50
        E 47 82 4e 00
        E 1 92 52 50
        E 71 82 52 00
        E 1 92 4e 50
        E 71 82 4e 00
        E 1 92 4b 50
        E 47 82 4b 00
        E 1 92 46 50
        E 71 82 46 00
        E 1 92 4b 50
        E 71 82 4b 00
        E 1 92 4e 50
        E 47 82 4e 00
        E 1 92 4b 50
        E 71 82 4b 00
        E 1 92 4e 50
        E 71 82 4e 00
        E 1 92 57 50
        E 47 82 57 00
        E 1 92 53 50
        E 71 82 53 00
        E 1 92 4e 50
        E 71 82 4e 00
        E 1 92 4b 50
        E 47 82 4b 00
        E 1 92 47 50
        E 71 82 47 00
        E 1 92 42 50
        E 71 82 42 00
        E 1 92 3f 50
        E 47 82 3f 00
        E 1 92 3b 50
        E 71 82 3b 00
        E 1 92 3f 50
        E 71 82 3f 00
        E 1 92 42 50
        E 47 82 42 00
        E 1 92 47 50
        E 71 82 47 00
        E 1 92 4e 50
        E 71 82 4e 00
        E 1 92 57 50
        E 47 82 57 00
        E 1 92 46 50
        E 71 82 46 00
        E 1 92 4b 50
        E 71 82 4b 00
        E 1 92 4e 50
        E 47 82 4e 00
        E 1 92 52 50
        E 71 82 52 00
        E 1 92 4e 50
        E 71 82 4e 00
        E 1 92 4b 50
        E 47 82 4b 00
        E 1 92 46 50
        E 71 82 46 00
        E 1 92 4b 50
        E 71 82 4b 00
        E 1 92 4e 50
        E 47 82 4e 00
        E 1 92 4b 50
        E 71 82 4b 00
        E 1 92 4e 50
        E 71 82 4e 00
        E 1 92 57 50
        E 47 82 57 00
        E 1 92 53 50
        E 71 82 53 00
        E 1 92 4e 50
        E 71 82 4e 00
        E 1 92 4b 50
        E 47 82 4b 00
        E 1 92 47 50
        E 71 82 47 00
        E 1 92 42 50
        E 71 82 42 00
        E 1 92 3f 50
        E 47 82 3f 00
        E 1 92 3b 50
        E 71 82 3b 00
        E 1 92 3f 50
        E 71 82 3f 00
        E 1 92 42 50
        E 47 82 42 00
        E 1 92 47 50
        E 71 82 47 00
        E 1 92 4e 50
        E 71 82 4e 00
        E 1 92 57 50
        E 47 82 57 00
        E 1 92 4b 7f
        E 191 82 4b 00
        E 1 92 4b 7f
        E 71 82 4b 00
        E 1 92 4d 7f
        E 71 82 4d 00
        E 1 92 4e 7f
        E 47 82 4e 00
        E 1 92 4d 7f
        E 143 82 4d 00
        E 1 92 4e 7f
        E 143 82 4e 00
        E 1 92 50 7f
        E 95 82 50 00
        E 1 92 4f 7f
        E 143 82 4f 00
        E 1 92 51 7f
        E 143 82 51 00
        E 1 92 52 7f
        E 95 82 52 00
        e 1 92 54 7f
        e 383 82 54 00
        E 1 b0 7b 00
        CCINTERP 32
        CHASE_CC_TAKEOFFS 1
        GUID {3646463D-839F-B44F-95BB-F5353BF33387}
        IGNTEMPO 0 120 4 4
        SRCCOLOR 97
        VELLANE -1 100 0
        CFGEDITVIEW 6747.49922 0.656887 40 12 0 -1 0 0 0 0.5
        KEYSNAP 0
        TRACKSEL 0
        EVTFILTER 0 -1 -1 -1 -1 0 0 0 0 -1 -1 -1 -1 0 -1 0 -1 -1
        CFGEDIT 1 1 0 1 0 0 1 1 1 1 1 0.25 591 205 1920 928 0 0 0 0 0 0 0 0 0 0 0 0 1 64
      >
    >
    <ITEM
      POSITION 94.61448
      SNAPOFFS 0
      LENGTH 12.84507
      LOOP 1
      ALLTAKES 0
      FADEIN 1 0 0 1 0 0 0
      FADEOUT 1 0 0 1 0 0 0
      MUTE 0 0
      BEAT 1
      SEL 0
      IGUID {C3D7713D-6628-154D-9475-F86D446B912B}
      IID 27
      NAME the_centennial_festival_for_magical.mid
      VOLPAN 1 0 1 -1
      SOFFS 97.01448 238
      PLAYRATE 1 1 0 -1 0 0.0025
      CHANMODE 0
      GUID {009E315A-7D05-9A4E-89CC-FF03C1B779BC}
      <SOURCE MIDI
        HASDATA 1 96 QN
        CCINTERP 32
        POOLEDEVTS {72ABF86C-0E1C-864C-9DD6-F4D714128ADB}
        <X 0 0
          /yEBAA==
        >
        <X 0 0 0 0 4 Trumpet
          /wRUcnVtcGV0
        >
        E 27 b3 00 00
        E 1 b3 20 00
        E 1 c3 38 00
        E 1 b3 0a 6d
        E 1 b3 07 71
        E 1 b3 0b 7f
        E 1 b3 5b 00
        E 1 b3 5d 00
        E 1 b3 5e 00
        E 124 b3 65 00
        E 0 b3 64 01
        E 0 b3 06 40
        E 0 b3 26 00
        <X 1 0
          8EEQQhJAFEBAQEBAQEBAQEBAQEBs9w==
        >
        E 2 b3 40 00
        E 1 b3 63 01
        E 0 b3 62 08
        E 0 b3 06 40
        E 1 b3 63 01
        E 0 b3 62 09
        E 0 b3 06 40
        E 1 b3 63 01
        E 0 b3 62 0a
        E 0 b3 06 40
        E 1 b3 63 01
        E 0 b3 62 20
        E 0 b3 06 40
        E 1 b3 63 01
        E 0 b3 62 21
        E 0 b3 06 40
        E 1 b3 63 01
        E 0 b3 62 63
        E 0 b3 06 40
        E 1 b3 63 01
        E 0 b3 62 64
        E 0 b3 06 40
        E 1 b3 63 01
        E 0 b3 62 66
        E 0 b3 06 40
        <X 1 0
          8EEQQhJARCAAXPc=
        >
        E 213 b3 40 00
        E 3120 93 4e 6e
        E 0 93 4b 6e
        E 47 83 4e 00
        E 0 83 4b 00
        E 1 93 4e 6e
        E 0 93 4b 6e
        E 47 83 4e 00
        E 0 83 4b 00
        E 49 93 4b 6e
        E 0 93 4e 6e
        E 71 83 4b 00
        E 0 83 4e 00
        E 1 93 4d 6e
        E 0 93 50 6e
        E 71 83 4d 00
        E 0 83 50 00
        E 1 93 4b 6e
        E 0 93 4e 6e
        E 47 83 4b 00
        E 0 83 4e 00
        E 49 93 4e 6e
        E 0 93 4b 6e
        E 47 83 4e 00
        E 0 83 4b 00
        E 1 93 4b 6e
        E 0 93 4e 6e
        E 47 83 4b 00
        E 0 83 4e 00
        E 49 93 4b 6e
        E 0 93 4e 6e
        E 71 83 4b 00
        E 0 83 4e 00
        E 1 93 49 6e
        E 0 93 4d 6e
        E 71 83 49 00
        E 0 83 4d 00
        E 1 93 4e 6e
        E 0 93 4b 6e
        E 47 83 4e 00
        E 0 83 4b 00
        E 49 93 4e 6e
        E 0 93 4b 6e
        E 47 83 4e 00
        E 0 83 4b 00
        E 1 93 4e 6e
        E 0 93 4b 6e
        E 47 83 4e 00
        E 0 83 4b 00
        E 49 93 4b 6e
        E 0 93 4e 6e
        E 71 83 4b 00
        E 0 83 4e 00
        E 1 93 50 6e
        E 0 93 4d 6e
        E 71 83 50 00
        E 0 83 4d 00
        E 1 93 4e 6e
        E 0 93 4b 6e
        E 47 83 4e 00
        E 0 83 4b 00
        E 49 93 4b 6e
        E 0 93 4e 6e
        E 47 83 4b 00
        E 0 83 4e 00
        E 1 93 4e 6e
        E 0 93 4b 6e
        E 47 83 4e 00
        E 0 83 4b 00
        E 49 93 4e 6e
        E 0 93 4b 6e
        E 71 83 4e 00
        E 0 83 4b 00
        E 1 93 4d 6e
        E 0 93 49 6e
        E 71 83 4d 00
        E 0 83 49 00
        E 1 93 4e 6e
        E 0 93 4b 6e
        E 47 83 4e 00
        E 0 83 4b 00
        E 49 93 4e 6e
        E 0 93 4b 6e
        E 47 83 4e 00
        E 0 83 4b 00
        E 1 93 4b 6e
        E 0 93 4e 6e
        E 47 83 4b 00
        E 0 83 4e 00
        E 49 93 4b 6e
        E 0 93 4e 6e
        E 71 83 4b 00
        E 0 83 4e 00
        E 1 93 4d 6e
        E 0 93 50 6e
        E 71 83 4d 00
        E 0 83 50 00
        E 1 93 4e 6e
        E 0 93 4b 6e
        E 47 83 4e 00
        E 0 83 4b 00
        E 49 93 4b 6e
        E 0 93 4e 6e
        E 47 83 4b 00
        E 0 83 4e 00
        E 1 93 4e 6e
        E 0 93 4b 6e
        E 47 83 4e 00
        E 0 83 4b 00
        E 49 93 4e 6e
        E 0 93 4b 6e
        E 71 83 4e 00
        E 0 83 4b 00
        E 1 93 4d 6e
        E 0 93 49 6e
        E 71 83 4d 00
        E 0 83 49 00
        E 1 93 4b 6e
        E 0 93 4e 6e
        E 47 83 4b 00
        E 0 83 4e 00
        E 49 93 4e 6e
        E 0 93 4b 6e
        E 47 83 4e 00
        E 0 83 4b 00
        E 1 93 4e 6e
        E 0 93 4b 6e
        E 47 83 4e 00
        E 0 83 4b 00
        E 49 93 4e 6e
        E 0 93 4b 6e
        E 71 83 4e 00
        E 0 83 4b 00
        E 1 93 50 6e
        E 0 93 4d 6e
        E 71 83 50 00
        E 0 83 4d 00
        E 1 93 4b 6e
        E 0 93 4e 6e
        E 47 83 4b 00
        E 0 83 4e 00
        E 49 93 4e 6e
        E 0 93 4b 6e
        E 47 83 4e 00
        E 0 83 4b 00
        E 1 93 4e 6e
        E 0 93 4b 6e
        E 47 83 4e 00
        E 0 83 4b 00
        E 49 93 4e 6e
        E 0 93 4b 6e
        E 71 83 4e 00
        E 0 83 4b 00
        E 1 93 4d 6e
        E 0 93 49 6e
        E 71 83 4d 00
        E 0 83 49 00
        E 1 93 4e 6e
        E 0 93 4b 6e
        E 47 83 4e 00
        E 0 83 4b 00
        E 8497 93 4e 7f
        E 0 93 4b 7f
        E 47 83 4e 00
        E 0 83 4b 00
        E 1 93 4e 7f
        E 0 93 4b 7f
        E 47 83 4e 00
        E 0 83 4b 00
        E 49 93 4b 7f
        E 0 93 4e 7f
        E 71 83 4b 00
        E 0 83 4e 00
        E 1 93 4d 7f
        E 0 93 50 7f
        E 71 83 4d 00
        E 0 83 50 00
        E 1 93 50 7f
        E 0 93 4d 7f
        E 47 83 50 00
        E 0 83 4d 00
        E 49 93 4e 7f
        E 0 93 4b 7f
        E 47 83 4e 00
        E 0 83 4b 00
        E 1 93 4b 7f
        E 0 93 4e 7f
        E 47 83 4b 00
        E 0 83 4e 00
        E 49 93 4b 7f
        E 0 93 4e 7f
        E 71 83 4b 00
        E 0 83 4e 00
        E 1 93 49 7f
        E 0 93 4d 7f
        E 71 83 49 00
        E 0 83 4d 00
        E 1 93 4e 7f
        E 0 93 4b 7f
        E 47 83 4e 00
        E 0 83 4b 00
        E 49 93 4b 7f
        E 0 93 4e 7f
        E 47 83 4b 00
        E 0 83 4e 00
        E 1 93 4e 7f
        E 0 93 4b 7f
        E 47 83 4e 00
        E 0 83 4b 00
        E 49 93 4e 7f
        E 0 93 4b 7f
        E 71 83 4e 00
        E 0 83 4b 00
        E 1 93 4d 7f
        E 0 93 50 7f
        E 71 83 4d 00
        E 0 83 50 00
        E 1 93 50 7f
        E 0 93 4d 7f
        E 47 83 50 00
        E 0 83 4d 00
        E 49 93 4b 7f
        E 0 93 4e 7f
        E 47 83 4b 00
        E 0 83 4e 00
        E 1 93 4e 7f
        E 0 93 4b 7f
        E 47 83 4e 00
        E 0 83 4b 00
        E 49 93 4e 7f
        E 0 93 4b 7f
        E 71 83 4e 00
        E 0 83 4b 00
        E 1 93 49 7f
        E 0 93 4d 7f
        E 71 83 49 00
        E 0 83 4d 00
        E 1 93 4b 7f
        E 0 93 4e 7f
        E 47 83 4b 00
        E 0 83 4e 00
        E 49 93 4b 7f
        E 0 93 4e 7f
        E 47 83 4b 00
        E 0 83 4e 00
        E 1 93 4e 7f
        E 0 93 4b 7f
        E 47 83 4e 00
        E 0 83 4b 00
        E 49 93 4e 7f
        E 0 93 4b 7f
        E 71 83 4e 00
        E 0 83 4b 00
        E 1 93 4d 7f
        E 0 93 50 7f
        E 71 83 4d 00
        E 0 83 50 00
        E 1 93 4d 7f
        E 0 93 50 7f
        E 47 83 4d 00
        E 0 83 50 00
        E 49 93 4e 7f
        E 0 93 4b 7f
        E 47 83 4e 00
        E 0 83 4b 00
        E 1 93 4e 7f
        E 0 93 4b 7f
        E 47 83 4e 00
        E 0 83 4b 00
        E 49 93 4e 7f
        E 0 93 4b 7f
        E 71 83 4e 00
        E 0 83 4b 00
        E 1 93 4d 7f
        E 0 93 49 7f
        E 71 83 4d 00
        E 0 83 49 00
        E 1 93 4e 7f
        E 0 93 4b 7f
        E 47 83 4e 00
        E 0 83 4b 00
        E 49 93 4e 7f
        E 0 93 4b 7f
        E 47 83 4e 00
        E 0 83 4b 00
        E 1 93 4e 7f
        E 0 93 4b 7f
        E 47 83 4e 00
        E 0 83 4b 00
        E 49 93 4e 7f
        E 0 93 4b 7f
        E 71 83 4e 00
        E 0 83 4b 00
        E 1 93 4d 7f
        E 0 93 50 7f
        E 71 83 4d 00
        E 0 83 50 00
        E 1 93 50 7f
        E 0 93 4d 7f
        E 47 83 50 00
        E 0 83 4d 00
        E 49 93 4b 7f
        E 0 93 4e 7f
        E 47 83 4b 00
        E 0 83 4e 00
        E 1 93 4e 7f
        E 0 93 4b 7f
        E 47 83 4e 00
        E 0 83 4b 00
        E 49 93 4b 7f
        E 0 93 4e 7f
        E 71 83 4b 00
        E 0 83 4e 00
        E 1 93 49 7f
        E 0 93 4d 7f
        E 71 83 49 00
        E 0 83 4d 00
        E 1 93 4e 7f
        E 0 93 4b 7f
        E 47 83 4e 00
        E 0 83 4b 00
        E 49 93 4e 7f
        E 0 93 4b 7f
        E 47 83 4e 00
        E 0 83 4b 00
        E 1 93 4e 7f
        E 0 93 4b 7f
        E 47 83 4e 00
        E 0 83 4b 00
        E 49 93 4b 7f
        E 0 93 4e 7f
        E 71 83 4b 00
        E 0 83 4e 00
        E 1 93 50 7f
        E 0 93 4d 7f
        E 71 83 50 00
        E 0 83 4d 00
        E 1 93 50 7f
        E 0 93 4d 7f
        E 47 83 50 00
        E 0 83 4d 00
        E 49 93 4b 7f
        E 0 93 4e 7f
        E 47 83 4b 00
        E 0 83 4e 00
        E 1 93 4e 7f
        E 0 93 4b 7f
        E 47 83 4e 00
        E 0 83 4b 00
        E 49 93 4b 7f
        E 0 93 4e 7f
        E 71 83 4b 00
        E 0 83 4e 00
        E 1 93 4d 7f
        E 0 93 49 7f
        E 71 83 4d 00
        E 0 83 49 00
        E 1 93 4b 7f
        E 0 93 4e 7f
        E 47 83 4b 00
        E 0 83 4e 00
        E 49 93 4e 7f
        E 0 93 4b 7f
        E 47 83 4e 00
        E 0 83 4b 00
        E 1 93 4e 7f
        E 0 93 4b 7f
        E 47 83 4e 00
        E 0 83 4b 00
        E 49 93 4e 7f
        E 0 93 4b 7f
        E 71 83 4e 00
        E 0 83 4b 00
        E 1 93 50 7f
        E 0 93 4d 7f
        E 71 83 50 00
        E 0 83 4d 00
        E 1 93 50 7f
        E 0 93 4d 7f
        E 47 83 50 00
        E 0 83 4d 00
        E 49 93 4e 7f
        E 0 93 4b 7f
        E 47 83 4e 00
        E 0 83 4b 00
        E 1 93 4b 7f
        E 0 93 4e 7f
        E 47 83 4b 00
        E 0 83 4e 00
        E 49 93 4e 7f
        E 0 93 4b 7f
        E 71 83 4e 00
        E 0 83 4b 00
        E 1 93 49 7f
        E 0 93 4d 7f
        E 71 83 49 00
        E 0 83 4d 00
        E 1 93 4b 7f
        E 0 93 4e 7f
        E 47 83 4b 00
        E 0 83 4e 00
        E 49 93 4e 7f
        E 0 93 4b 7f
        E 47 83 4e 00
        E 0 83 4b 00
        E 1 93 4b 7f
        E 0 93 4e 7f
        E 47 83 4b 00
        E 0 83 4e 00
        E 49 93 4e 7f
        E 0 93 4b 7f
        E 71 83 4e 00
        E 0 83 4b 00
        E 1 93 4d 7f
        E 0 93 50 7f
        E 71 83 4d 00
        E 0 83 50 00
        E 1 93 4d 7f
        E 0 93 50 7f
        E 47 83 4d 00
        E 0 83 50 00
        E 49 93 4e 7f
        E 0 93 4b 7f
        E 47 83 4e 00
        E 0 83 4b 00
        E 1 93 4b 7f
        E 0 93 4e 7f
        E 47 83 4b 00
        E 0 83 4e 00
        E 49 93 4b 7f
        E 0 93 4e 7f
        E 71 83 4b 00
        E 0 83 4e 00
        E 1 93 4d 7f
        E 0 93 49 7f
        E 71 83 4d 00
        E 0 83 49 00
        E 1 93 4b 7f
        E 0 93 4e 7f
        E 47 83 4b 00
        E 0 83 4e 00
        E 49 93 4b 7f
        E 0 93 4e 7f
        E 47 83 4b 00
        E 0 83 4e 00
        E 1 93 4b 7f
        E 0 93 4e 7f
        E 47 83 4b 00
        E 0 83 4e 00
        E 49 93 4e 7f
        E 0 93 4b 7f
        E 71 83 4e 00
        E 0 83 4b 00
        E 1 93 50 7f
        E 0 93 4d 7f
        E 71 83 50 00
        E 0 83 4d 00
        E 1 93 50 7f
        E 0 93 4d 7f
        E 47 83 50 00
        E 0 83 4d 00
        E 49 93 4b 7f
        E 0 93 4e 7f
        E 47 83 4b 00
        E 0 83 4e 00
        E 1 93 4b 7f
        E 0 93 4e 7f
        E 47 83 4b 00
        E 0 83 4e 00
        E 49 93 4e 7f
        E 0 93 4b 7f
        E 71 83 4e 00
        E 0 83 4b 00
        E 1 93 4d 7f
        E 0 93 49 7f
        E 71 83 4d 00
        E 0 83 49 00
        E 1 93 4e 7f
        E 0 93 4b 7f
        E 47 83 4e 00
        E 0 83 4b 00
        E 1729 93 4f 7f
        E 95 83 4f 00
        E 1 93 4d 7f
        E 47 83 4d 00
        E 1 93 4f 7f
        E 47 83 4f 00
        E 49 93 4d 7f
        E 47 83 4d 00
        E 1 93 4f 7f
        E 47 83 4f 00
        E 1 93 51 7f
        E 47 83 51 00
        E 1 93 52 7f
        E 47 83 52 00
        E 1 93 4a 7f
        E 47 83 4a 00
        E 1 93 51 7f
        E 47 83 51 00
        E 1 93 4a 7f
        E 47 83 4a 00
        E 1 93 4f 7f
        E 191 83 4f 00
        E 1 93 4f 7f
        E 47 83 4f 00
        E 1 93 4d 7f
        E 47 83 4d 00
        E 1 93 4a 7f
        E 47 83 4a 00
        E 1 93 4d 7f
        E 47 83 4d 00
        E 1 93 48 7f
        E 191 83 48 00
        E 1 93 48 7f
        E 47 83 48 00
        E 1 93 46 7f
        E 47 83 46 00
        E 1 93 43 7f
        E 47 83 43 00
        E 1 93 46 7f
        E 47 83 46 00
        E 1 93 45 7f
        E 191 83 45 00
        e 1 93 4a 7f
        e 95 83 4a 00
        E 1 93 48 7f
        E 47 83 48 00
        E 1 93 4a 7f
        E 47 83 4a 00
        E 49 93 48 7f
        E 47 83 48 00
        E 1 93 4a 7f
        E 47 83 4a 00
        E 1 93 4d 7f
        E 47 83 4d 00
        E 1 93 4f 7f
        E 47 83 4f 00
        E 1 93 4a 7f
        E 47 83 4a 00
        E 1 93 51 7f
        E 47 83 51 00
        E 1 93 4a 7f
        E 47 83 4a 00
        E 1 93 52 7f
        E 191 83 52 00
        E 1 93 4f 7f
        E 47 83 4f 00
        E 1 93 4d 7f
        E 47 83 4d 00
        E 1 93 4a 7f
        E 47 83 4a 00
        E 1 93 4f 7f
        E 47 83 4f 00
        E 1 93 52 7f
        E 47 83 52 00
        E 1 93 54 7f
        E 47 83 54 00
        E 1 93 51 7f
        E 47 83 51 00
        E 1 93 4d 7f
        E 47 83 4d 00
        E 1 93 4f 7f
        E 383 83 4f 00
        E 1 b0 7b 00
        CCINTERP 32
        CHASE_CC_TAKEOFFS 1
        GUID {417B9018-EE4E-F841-A89B-F6BAF2104A2E}
        IGNTEMPO 0 120 4 4
        SRCCOLOR 131
        VELLANE -1 100 0
        CFGEDITVIEW 22756.121334 0.425691 34 12 0 -1 0 0 0 0.5
        KEYSNAP 0
        TRACKSEL 0
        EVTFILTER 0 -1 -1 -1 -1 0 0 0 0 -1 -1 -1 -1 0 -1 0 -1 -1
        CFGEDIT 1 1 0 1 0 0 1 1 1 1 1 0.25 2027 64 3356 787 0 0 0 0 0 0 0 0 0 0 0 0 1 64
      >
    >
    <ITEM
      POSITION 107.45955000002868
      SNAPOFFS 0
      LENGTH 12.8
      LOOP 1
      ALLTAKES 0
      FADEIN 1 0 0 1 0 0 0
      FADEOUT 1 0 0 1 0 0 0
      MUTE 0 0
      BEAT 1
      SEL 0
      IGUID {A70C448C-2746-734A-B271-DC4C0D3864D8}
      IID 27
      NAME the_centennial_festival_for_magical.mid
      VOLPAN 1 0 1 -1
      SOFFS 97.000502 238.00000000000048
      PLAYRATE 1 1 0 -1 0 0.0025
      CHANMODE 0
      GUID {D733DB20-C37D-CA4C-890B-B5F965875A43}
      <SOURCE MIDI
        HASDATA 1 96 QN
        CCINTERP 32
        POOLEDEVTS {AB4B5954-0032-C34B-8671-CAA7985C471C}
        <X 0 0
          /yEBAA==
        >
        <X 0 0 0 0 4 Trumpet
          /wRUcnVtcGV0
        >
        E 27 b3 00 00
        E 1 b3 20 00
        E 1 c3 38 00
        E 1 b3 0a 6d
        E 1 b3 07 71
        E 1 b3 0b 7f
        E 1 b3 5b 00
        E 1 b3 5d 00
        E 1 b3 5e 00
        E 124 b3 65 00
        E 0 b3 64 01
        E 0 b3 06 40
        E 0 b3 26 00
        <X 1 0
          8EEQQhJAFEBAQEBAQEBAQEBAQEBs9w==
        >
        E 2 b3 40 00
        E 1 b3 63 01
        E 0 b3 62 08
        E 0 b3 06 40
        E 1 b3 63 01
        E 0 b3 62 09
        E 0 b3 06 40
        E 1 b3 63 01
        E 0 b3 62 0a
        E 0 b3 06 40
        E 1 b3 63 01
        E 0 b3 62 20
        E 0 b3 06 40
        E 1 b3 63 01
        E 0 b3 62 21
        E 0 b3 06 40
        E 1 b3 63 01
        E 0 b3 62 63
        E 0 b3 06 40
        E 1 b3 63 01
        E 0 b3 62 64
        E 0 b3 06 40
        E 1 b3 63 01
        E 0 b3 62 66
        E 0 b3 06 40
        <X 1 0
          8EEQQhJARCAAXPc=
        >
        E 213 b3 40 00
        E 3120 93 4e 6e
        E 0 93 4b 6e
        E 47 83 4e 00
        E 0 83 4b 00
        E 1 93 4e 6e
        E 0 93 4b 6e
        E 47 83 4e 00
        E 0 83 4b 00
        E 49 93 4b 6e
        E 0 93 4e 6e
        E 71 83 4b 00
        E 0 83 4e 00
        E 1 93 4d 6e
        E 0 93 50 6e
        E 71 83 4d 00
        E 0 83 50 00
        E 1 93 4b 6e
        E 0 93 4e 6e
        E 47 83 4b 00
        E 0 83 4e 00
        E 49 93 4e 6e
        E 0 93 4b 6e
        E 47 83 4e 00
        E 0 83 4b 00
        E 1 93 4b 6e
        E 0 93 4e 6e
        E 47 83 4b 00
        E 0 83 4e 00
        E 49 93 4b 6e
        E 0 93 4e 6e
        E 71 83 4b 00
        E 0 83 4e 00
        E 1 93 49 6e
        E 0 93 4d 6e
        E 71 83 49 00
        E 0 83 4d 00
        E 1 93 4e 6e
        E 0 93 4b 6e
        E 47 83 4e 00
        E 0 83 4b 00
        E 49 93 4e 6e
        E 0 93 4b 6e
        E 47 83 4e 00
        E 0 83 4b 00
        E 1 93 4e 6e
        E 0 93 4b 6e
        E 47 83 4e 00
        E 0 83 4b 00
        E 49 93 4b 6e
        E 0 93 4e 6e
        E 71 83 4b 00
        E 0 83 4e 00
        E 1 93 50 6e
        E 0 93 4d 6e
        E 71 83 50 00
        E 0 83 4d 00
        E 1 93 4e 6e
        E 0 93 4b 6e
        E 47 83 4e 00
        E 0 83 4b 00
        E 49 93 4b 6e
        E 0 93 4e 6e
        E 47 83 4b 00
        E 0 83 4e 00
        E 1 93 4e 6e
        E 0 93 4b 6e
        E 47 83 4e 00
        E 0 83 4b 00
        E 49 93 4e 6e
        E 0 93 4b 6e
        E 71 83 4e 00
        E 0 83 4b 00
        E 1 93 4d 6e
        E 0 93 49 6e
        E 71 83 4d 00
        E 0 83 49 00
        E 1 93 4e 6e
        E 0 93 4b 6e
        E 47 83 4e 00
        E 0 83 4b 00
        E 49 93 4e 6e
        E 0 93 4b 6e
        E 47 83 4e 00
        E 0 83 4b 00
        E 1 93 4b 6e
        E 0 93 4e 6e
        E 47 83 4b 00
        E 0 83 4e 00
        E 49 93 4b 6e
        E 0 93 4e 6e
        E 71 83 4b 00
        E 0 83 4e 00
        E 1 93 4d 6e
        E 0 93 50 6e
        E 71 83 4d 00
        E 0 83 50 00
        E 1 93 4e 6e
        E 0 93 4b 6e
        E 47 83 4e 00
        E 0 83 4b 00
        E 49 93 4b 6e
        E 0 93 4e 6e
        E 47 83 4b 00
        E 0 83 4e 00
        E 1 93 4e 6e
        E 0 93 4b 6e
        E 47 83 4e 00
        E 0 83 4b 00
        E 49 93 4e 6e
        E 0 93 4b 6e
        E 71 83 4e 00
        E 0 83 4b 00
        E 1 93 4d 6e
        E 0 93 49 6e
        E 71 83 4d 00
        E 0 83 49 00
        E 1 93 4b 6e
        E 0 93 4e 6e
        E 47 83 4b 00
        E 0 83 4e 00
        E 49 93 4e 6e
        E 0 93 4b 6e
        E 47 83 4e 00
        E 0 83 4b 00
        E 1 93 4e 6e
        E 0 93 4b 6e
        E 47 83 4e 00
        E 0 83 4b 00
        E 49 93 4e 6e
        E 0 93 4b 6e
        E 71 83 4e 00
        E 0 83 4b 00
        E 1 93 50 6e
        E 0 93 4d 6e
        E 71 83 50 00
        E 0 83 4d 00
        E 1 93 4b 6e
        E 0 93 4e 6e
        E 47 83 4b 00
        E 0 83 4e 00
        E 49 93 4e 6e
        E 0 93 4b 6e
        E 47 83 4e 00
        E 0 83 4b 00
        E 1 93 4e 6e
        E 0 93 4b 6e
        E 47 83 4e 00
        E 0 83 4b 00
        E 49 93 4e 6e
        E 0 93 4b 6e
        E 71 83 4e 00
        E 0 83 4b 00
        E 1 93 4d 6e
        E 0 93 49 6e
        E 71 83 4d 00
        E 0 83 49 00
        E 1 93 4e 6e
        E 0 93 4b 6e
        E 47 83 4e 00
        E 0 83 4b 00
        E 8497 93 4e 7f
        E 0 93 4b 7f
        E 47 83 4e 00
        E 0 83 4b 00
        E 1 93 4e 7f
        E 0 93 4b 7f
        E 47 83 4e 00
        E 0 83 4b 00
        E 49 93 4b 7f
        E 0 93 4e 7f
        E 71 83 4b 00
        E 0 83 4e 00
        E 1 93 4d 7f
        E 0 93 50 7f
        E 71 83 4d 00
        E 0 83 50 00
        E 1 93 50 7f
        E 0 93 4d 7f
        E 47 83 50 00
        E 0 83 4d 00
        E 49 93 4e 7f
        E 0 93 4b 7f
        E 47 83 4e 00
        E 0 83 4b 00
        E 1 93 4b 7f
        E 0 93 4e 7f
        E 47 83 4b 00
        E 0 83 4e 00
        E 49 93 4b 7f
        E 0 93 4e 7f
        E 71 83 4b 00
        E 0 83 4e 00
        E 1 93 49 7f
        E 0 93 4d 7f
        E 71 83 49 00
        E 0 83 4d 00
        E 1 93 4e 7f
        E 0 93 4b 7f
        E 47 83 4e 00
        E 0 83 4b 00
        E 49 93 4b 7f
        E 0 93 4e 7f
        E 47 83 4b 00
        E 0 83 4e 00
        E 1 93 4e 7f
        E 0 93 4b 7f
        E 47 83 4e 00
        E 0 83 4b 00
        E 49 93 4e 7f
        E 0 93 4b 7f
        E 71 83 4e 00
        E 0 83 4b 00
        E 1 93 4d 7f
        E 0 93 50 7f
        E 71 83 4d 00
        E 0 83 50 00
        E 1 93 50 7f
        E 0 93 4d 7f
        E 47 83 50 00
        E 0 83 4d 00
        E 49 93 4b 7f
        E 0 93 4e 7f
        E 47 83 4b 00
        E 0 83 4e 00
        E 1 93 4e 7f
        E 0 93 4b 7f
        E 47 83 4e 00
        E 0 83 4b 00
        E 49 93 4e 7f
        E 0 93 4b 7f
        E 71 83 4e 00
        E 0 83 4b 00
        E 1 93 49 7f
        E 0 93 4d 7f
        E 71 83 49 00
        E 0 83 4d 00
        E 1 93 4b 7f
        E 0 93 4e 7f
        E 47 83 4b 00
        E 0 83 4e 00
        E 49 93 4b 7f
        E 0 93 4e 7f
        E 47 83 4b 00
        E 0 83 4e 00
        E 1 93 4e 7f
        E 0 93 4b 7f
        E 47 83 4e 00
        E 0 83 4b 00
        E 49 93 4e 7f
        E 0 93 4b 7f
        E 71 83 4e 00
        E 0 83 4b 00
        E 1 93 4d 7f
        E 0 93 50 7f
        E 71 83 4d 00
        E 0 83 50 00
        E 1 93 4d 7f
        E 0 93 50 7f
        E 47 83 4d 00
        E 0 83 50 00
        E 49 93 4e 7f
        E 0 93 4b 7f
        E 47 83 4e 00
        E 0 83 4b 00
        E 1 93 4e 7f
        E 0 93 4b 7f
        E 47 83 4e 00
        E 0 83 4b 00
        E 49 93 4e 7f
        E 0 93 4b 7f
        E 71 83 4e 00
        E 0 83 4b 00
        E 1 93 4d 7f
        E 0 93 49 7f
        E 71 83 4d 00
        E 0 83 49 00
        E 1 93 4e 7f
        E 0 93 4b 7f
        E 47 83 4e 00
        E 0 83 4b 00
        E 49 93 4e 7f
        E 0 93 4b 7f
        E 47 83 4e 00
        E 0 83 4b 00
        E 1 93 4e 7f
        E 0 93 4b 7f
        E 47 83 4e 00
        E 0 83 4b 00
        E 49 93 4e 7f
        E 0 93 4b 7f
        E 71 83 4e 00
        E 0 83 4b 00
        E 1 93 4d 7f
        E 0 93 50 7f
        E 71 83 4d 00
        E 0 83 50 00
        E 1 93 50 7f
        E 0 93 4d 7f
        E 47 83 50 00
        E 0 83 4d 00
        E 49 93 4b 7f
        E 0 93 4e 7f
        E 47 83 4b 00
        E 0 83 4e 00
        E 1 93 4e 7f
        E 0 93 4b 7f
        E 47 83 4e 00
        E 0 83 4b 00
        E 49 93 4b 7f
        E 0 93 4e 7f
        E 71 83 4b 00
        E 0 83 4e 00
        E 1 93 49 7f
        E 0 93 4d 7f
        E 71 83 49 00
        E 0 83 4d 00
        E 1 93 4e 7f
        E 0 93 4b 7f
        E 47 83 4e 00
        E 0 83 4b 00
        E 49 93 4e 7f
        E 0 93 4b 7f
        E 47 83 4e 00
        E 0 83 4b 00
        E 1 93 4e 7f
        E 0 93 4b 7f
        E 47 83 4e 00
        E 0 83 4b 00
        E 49 93 4b 7f
        E 0 93 4e 7f
        E 71 83 4b 00
        E 0 83 4e 00
        E 1 93 50 7f
        E 0 93 4d 7f
        E 71 83 50 00
        E 0 83 4d 00
        E 1 93 50 7f
        E 0 93 4d 7f
        E 47 83 50 00
        E 0 83 4d 00
        E 49 93 4b 7f
        E 0 93 4e 7f
        E 47 83 4b 00
        E 0 83 4e 00
        E 1 93 4e 7f
        E 0 93 4b 7f
        E 47 83 4e 00
        E 0 83 4b 00
        E 49 93 4b 7f
        E 0 93 4e 7f
        E 71 83 4b 00
        E 0 83 4e 00
        E 1 93 4d 7f
        E 0 93 49 7f
        E 71 83 4d 00
        E 0 83 49 00
        E 1 93 4b 7f
        E 0 93 4e 7f
        E 47 83 4b 00
        E 0 83 4e 00
        E 49 93 4e 7f
        E 0 93 4b 7f
        E 47 83 4e 00
        E 0 83 4b 00
        E 1 93 4e 7f
        E 0 93 4b 7f
        E 47 83 4e 00
        E 0 83 4b 00
        E 49 93 4e 7f
        E 0 93 4b 7f
        E 71 83 4e 00
        E 0 83 4b 00
        E 1 93 50 7f
        E 0 93 4d 7f
        E 71 83 50 00
        E 0 83 4d 00
        E 1 93 50 7f
        E 0 93 4d 7f
        E 47 83 50 00
        E 0 83 4d 00
        E 49 93 4e 7f
        E 0 93 4b 7f
        E 47 83 4e 00
        E 0 83 4b 00
        E 1 93 4b 7f
        E 0 93 4e 7f
        E 47 83 4b 00
        E 0 83 4e 00
        E 49 93 4e 7f
        E 0 93 4b 7f
        E 71 83 4e 00
        E 0 83 4b 00
        E 1 93 49 7f
        E 0 93 4d 7f
        E 71 83 49 00
        E 0 83 4d 00
        E 1 93 4b 7f
        E 0 93 4e 7f
        E 47 83 4b 00
        E 0 83 4e 00
        E 49 93 4e 7f
        E 0 93 4b 7f
        E 47 83 4e 00
        E 0 83 4b 00
        E 1 93 4b 7f
        E 0 93 4e 7f
        E 47 83 4b 00
        E 0 83 4e 00
        E 49 93 4e 7f
        E 0 93 4b 7f
        E 71 83 4e 00
        E 0 83 4b 00
        E 1 93 4d 7f
        E 0 93 50 7f
        E 71 83 4d 00
        E 0 83 50 00
        E 1 93 4d 7f
        E 0 93 50 7f
        E 47 83 4d 00
        E 0 83 50 00
        E 49 93 4e 7f
        E 0 93 4b 7f
        E 47 83 4e 00
        E 0 83 4b 00
        E 1 93 4b 7f
        E 0 93 4e 7f
        E 47 83 4b 00
        E 0 83 4e 00
        E 49 93 4b 7f
        E 0 93 4e 7f
        E 71 83 4b 00
        E 0 83 4e 00
        E 1 93 4d 7f
        E 0 93 49 7f
        E 71 83 4d 00
        E 0 83 49 00
        E 1 93 4b 7f
        E 0 93 4e 7f
        E 47 83 4b 00
        E 0 83 4e 00
        E 49 93 4b 7f
        E 0 93 4e 7f
        E 47 83 4b 00
        E 0 83 4e 00
        E 1 93 4b 7f
        E 0 93 4e 7f
        E 47 83 4b 00
        E 0 83 4e 00
        E 49 93 4e 7f
        E 0 93 4b 7f
        E 71 83 4e 00
        E 0 83 4b 00
        E 1 93 50 7f
        E 0 93 4d 7f
        E 71 83 50 00
        E 0 83 4d 00
        E 1 93 50 7f
        E 0 93 4d 7f
        E 47 83 50 00
        E 0 83 4d 00
        E 49 93 4b 7f
        E 0 93 4e 7f
        E 47 83 4b 00
        E 0 83 4e 00
        E 1 93 4b 7f
        E 0 93 4e 7f
        E 47 83 4b 00
        E 0 83 4e 00
        E 49 93 4e 7f
        E 0 93 4b 7f
        E 71 83 4e 00
        E 0 83 4b 00
        E 1 93 4d 7f
        E 0 93 49 7f
        E 71 83 4d 00
        E 0 83 49 00
        E 1 93 4e 7f
        E 0 93 4b 7f
        E 47 83 4e 00
        E 0 83 4b 00
        E 1729 93 4f 7f
        E 95 83 4f 00
        E 1 93 4d 7f
        E 47 83 4d 00
        E 1 93 4f 7f
        E 47 83 4f 00
        E 49 93 4d 7f
        E 47 83 4d 00
        E 1 93 4f 7f
        E 47 83 4f 00
        E 1 93 51 7f
        E 47 83 51 00
        E 1 93 52 7f
        E 47 83 52 00
        E 1 93 4a 7f
        E 47 83 4a 00
        E 1 93 51 7f
        E 47 83 51 00
        E 1 93 4a 7f
        E 47 83 4a 00
        E 1 93 4f 7f
        E 191 83 4f 00
        E 1 93 4f 7f
        E 47 83 4f 00
        E 1 93 4d 7f
        E 47 83 4d 00
        E 1 93 4a 7f
        E 47 83 4a 00
        E 1 93 4d 7f
        E 47 83 4d 00
        E 1 93 48 7f
        E 191 83 48 00
        E 1 93 48 7f
        E 47 83 48 00
        E 1 93 46 7f
        E 47 83 46 00
        E 1 93 43 7f
        E 47 83 43 00
        E 1 93 46 7f
        E 47 83 46 00
        E 1 93 45 7f
        E 191 83 45 00
        E 1 93 4a 7f
        E 95 83 4a 00
        E 1 93 48 7f
        E 47 83 48 00
        E 1 93 4a 7f
        E 47 83 4a 00
        E 49 93 48 7f
        E 47 83 48 00
        E 1 93 4a 7f
        E 47 83 4a 00
        E 1 93 4d 7f
        E 47 83 4d 00
        E 1 93 4f 7f
        E 47 83 4f 00
        E 1 93 4a 7f
        E 47 83 4a 00
        E 1 93 51 7f
        E 47 83 51 00
        E 1 93 4a 7f
        E 47 83 4a 00
        E 1 93 52 7f
        E 191 83 52 00
        E 1 93 4f 7f
        E 47 83 4f 00
        E 1 93 4d 7f
        E 47 83 4d 00
        E 1 93 4a 7f
        E 47 83 4a 00
        E 1 93 4f 7f
        E 47 83 4f 00
        E 1 93 52 7f
        E 47 83 52 00
        E 1 93 54 7f
        E 47 83 54 00
        E 1 93 51 7f
        E 47 83 51 00
        E 1 93 4d 7f
        E 47 83 4d 00
        E 1 93 4f 7f
        E 383 83 4f 00
        E 1 b0 7b 00
        CCINTERP 32
        CHASE_CC_TAKEOFFS 1
        GUID {417B9018-EE4E-F841-A89B-F6BAF2104A2E}
        IGNTEMPO 0 120 4 4
        SRCCOLOR 131
        VELLANE -1 100 0
        CFGEDITVIEW 22773.616411 0.524309 34 12 0 -1 0 0 0 0.5
        KEYSNAP 0
        TRACKSEL 0
        EVTFILTER 0 -1 -1 -1 -1 0 0 0 0 -1 -1 -1 -1 0 -1 0 -1 -1
        CFGEDIT 1 1 0 1 0 0 1 1 1 1 1 0.25 92 200 1421 923 0 0 0 0 0 0 0 0 0 0 0 0 1 64
      >
    >
    <ITEM
      POSITION 120.25955
      SNAPOFFS 0
      LENGTH 25.6
      LOOP 1
      ALLTAKES 0
      FADEIN 1 0 0 1 0 0 0
      FADEOUT 1 0 0 1 0 0 0
      MUTE 0 0
      BEAT 1
      SEL 0
      IGUID {F141D6D1-A3DB-1045-96CB-67F369177D07}
      IID 97
      NAME the_centennial_festival_for_magical.mid
      VOLPAN 1 0 1 -1
      SOFFS 122.65955 302
      PLAYRATE 1 1 0 -1 0 0.0025
      CHANMODE 0
      GUID {D730D040-3630-BF49-B6DB-04A09EE148BD}
      <SOURCE MIDI
        HASDATA 1 96 QN
        CCINTERP 32
        POOLEDEVTS {5C0FAD01-3A74-1D46-80A8-1DB2F3A020D5}
        <X 0 0
          /yEBAA==
        >
        <X 0 0 0 0 4 Trumpet
          /wRUcnVtcGV0
        >
        E 27 b3 00 00
        E 1 b3 20 00
        E 1 c3 38 00
        E 1 b3 0a 6d
        E 1 b3 07 71
        E 1 b3 0b 7f
        E 1 b3 5b 00
        E 1 b3 5d 00
        E 1 b3 5e 00
        E 124 b3 65 00
        E 0 b3 64 01
        E 0 b3 06 40
        E 0 b3 26 00
        <X 1 0
          8EEQQhJAFEBAQEBAQEBAQEBAQEBs9w==
        >
        E 2 b3 40 00
        E 1 b3 63 01
        E 0 b3 62 08
        E 0 b3 06 40
        E 1 b3 63 01
        E 0 b3 62 09
        E 0 b3 06 40
        E 1 b3 63 01
        E 0 b3 62 0a
        E 0 b3 06 40
        E 1 b3 63 01
        E 0 b3 62 20
        E 0 b3 06 40
        E 1 b3 63 01
        E 0 b3 62 21
        E 0 b3 06 40
        E 1 b3 63 01
        E 0 b3 62 63
        E 0 b3 06 40
        E 1 b3 63 01
        E 0 b3 62 64
        E 0 b3 06 40
        E 1 b3 63 01
        E 0 b3 62 66
        E 0 b3 06 40
        <X 1 0
          8EEQQhJARCAAXPc=
        >
        E 213 b3 40 00
        E 3120 93 4e 6e
        E 0 93 4b 6e
        E 47 83 4e 00
        E 0 83 4b 00
        E 1 93 4e 6e
        E 0 93 4b 6e
        E 47 83 4e 00
        E 0 83 4b 00
        E 49 93 4b 6e
        E 0 93 4e 6e
        E 71 83 4b 00
        E 0 83 4e 00
        E 1 93 4d 6e
        E 0 93 50 6e
        E 71 83 4d 00
        E 0 83 50 00
        E 1 93 4b 6e
        E 0 93 4e 6e
        E 47 83 4b 00
        E 0 83 4e 00
        E 49 93 4e 6e
        E 0 93 4b 6e
        E 47 83 4e 00
        E 0 83 4b 00
        E 1 93 4b 6e
        E 0 93 4e 6e
        E 47 83 4b 00
        E 0 83 4e 00
        E 49 93 4b 6e
        E 0 93 4e 6e
        E 71 83 4b 00
        E 0 83 4e 00
        E 1 93 49 6e
        E 0 93 4d 6e
        E 71 83 49 00
        E 0 83 4d 00
        E 1 93 4e 6e
        E 0 93 4b 6e
        E 47 83 4e 00
        E 0 83 4b 00
        E 49 93 4e 6e
        E 0 93 4b 6e
        E 47 83 4e 00
        E 0 83 4b 00
        E 1 93 4e 6e
        E 0 93 4b 6e
        E 47 83 4e 00
        E 0 83 4b 00
        E 49 93 4b 6e
        E 0 93 4e 6e
        E 71 83 4b 00
        E 0 83 4e 00
        E 1 93 50 6e
        E 0 93 4d 6e
        E 71 83 50 00
        E 0 83 4d 00
        E 1 93 4e 6e
        E 0 93 4b 6e
        E 47 83 4e 00
        E 0 83 4b 00
        E 49 93 4b 6e
        E 0 93 4e 6e
        E 47 83 4b 00
        E 0 83 4e 00
        E 1 93 4e 6e
        E 0 93 4b 6e
        E 47 83 4e 00
        E 0 83 4b 00
        E 49 93 4e 6e
        E 0 93 4b 6e
        E 71 83 4e 00
        E 0 83 4b 00
        E 1 93 4d 6e
        E 0 93 49 6e
        E 71 83 4d 00
        E 0 83 49 00
        E 1 93 4e 6e
        E 0 93 4b 6e
        E 47 83 4e 00
        E 0 83 4b 00
        E 49 93 4e 6e
        E 0 93 4b 6e
        E 47 83 4e 00
        E 0 83 4b 00
        E 1 93 4b 6e
        E 0 93 4e 6e
        E 47 83 4b 00
        E 0 83 4e 00
        E 49 93 4b 6e
        E 0 93 4e 6e
        E 71 83 4b 00
        E 0 83 4e 00
        E 1 93 4d 6e
        E 0 93 50 6e
        E 71 83 4d 00
        E 0 83 50 00
        E 1 93 4e 6e
        E 0 93 4b 6e
        E 47 83 4e 00
        E 0 83 4b 00
        E 49 93 4b 6e
        E 0 93 4e 6e
        E 47 83 4b 00
        E 0 83 4e 00
        E 1 93 4e 6e
        E 0 93 4b 6e
        E 47 83 4e 00
        E 0 83 4b 00
        E 49 93 4e 6e
        E 0 93 4b 6e
        E 71 83 4e 00
        E 0 83 4b 00
        E 1 93 4d 6e
        E 0 93 49 6e
        E 71 83 4d 00
        E 0 83 49 00
        E 1 93 4b 6e
        E 0 93 4e 6e
        E 47 83 4b 00
        E 0 83 4e 00
        E 49 93 4e 6e
        E 0 93 4b 6e
        E 47 83 4e 00
        E 0 83 4b 00
        E 1 93 4e 6e
        E 0 93 4b 6e
        E 47 83 4e 00
        E 0 83 4b 00
        E 49 93 4e 6e
        E 0 93 4b 6e
        E 71 83 4e 00
        E 0 83 4b 00
        E 1 93 50 6e
        E 0 93 4d 6e
        E 71 83 50 00
        E 0 83 4d 00
        E 1 93 4b 6e
        E 0 93 4e 6e
        E 47 83 4b 00
        E 0 83 4e 00
        E 49 93 4e 6e
        E 0 93 4b 6e
        E 47 83 4e 00
        E 0 83 4b 00
        E 1 93 4e 6e
        E 0 93 4b 6e
        E 47 83 4e 00
        E 0 83 4b 00
        E 49 93 4e 6e
        E 0 93 4b 6e
        E 71 83 4e 00
        E 0 83 4b 00
        E 1 93 4d 6e
        E 0 93 49 6e
        E 71 83 4d 00
        E 0 83 49 00
        E 1 93 4e 6e
        E 0 93 4b 6e
        E 47 83 4e 00
        E 0 83 4b 00
        E 8497 93 4e 7f
        E 0 93 4b 7f
        E 47 83 4e 00
        E 0 83 4b 00
        E 1 93 4e 7f
        E 0 93 4b 7f
        E 47 83 4e 00
        E 0 83 4b 00
        E 49 93 4b 7f
        E 0 93 4e 7f
        E 71 83 4b 00
        E 0 83 4e 00
        E 1 93 4d 7f
        E 0 93 50 7f
        E 71 83 4d 00
        E 0 83 50 00
        E 1 93 50 7f
        E 0 93 4d 7f
        E 47 83 50 00
        E 0 83 4d 00
        E 49 93 4e 7f
        E 0 93 4b 7f
        E 47 83 4e 00
        E 0 83 4b 00
        E 1 93 4b 7f
        E 0 93 4e 7f
        E 47 83 4b 00
        E 0 83 4e 00
        E 49 93 4b 7f
        E 0 93 4e 7f
        E 71 83 4b 00
        E 0 83 4e 00
        E 1 93 49 7f
        E 0 93 4d 7f
        E 71 83 49 00
        E 0 83 4d 00
        E 1 93 4e 7f
        E 0 93 4b 7f
        E 47 83 4e 00
        E 0 83 4b 00
        E 49 93 4b 7f
        E 0 93 4e 7f
        E 47 83 4b 00
        E 0 83 4e 00
        E 1 93 4e 7f
        E 0 93 4b 7f
        E 47 83 4e 00
        E 0 83 4b 00
        E 49 93 4e 7f
        E 0 93 4b 7f
        E 71 83 4e 00
        E 0 83 4b 00
        E 1 93 4d 7f
        E 0 93 50 7f
        E 71 83 4d 00
        E 0 83 50 00
        E 1 93 50 7f
        E 0 93 4d 7f
        E 47 83 50 00
        E 0 83 4d 00
        E 49 93 4b 7f
        E 0 93 4e 7f
        E 47 83 4b 00
        E 0 83 4e 00
        E 1 93 4e 7f
        E 0 93 4b 7f
        E 47 83 4e 00
        E 0 83 4b 00
        E 49 93 4e 7f
        E 0 93 4b 7f
        E 71 83 4e 00
        E 0 83 4b 00
        E 1 93 49 7f
        E 0 93 4d 7f
        E 71 83 49 00
        E 0 83 4d 00
        E 1 93 4b 7f
        E 0 93 4e 7f
        E 47 83 4b 00
        E 0 83 4e 00
        E 49 93 4b 7f
        E 0 93 4e 7f
        E 47 83 4b 00
        E 0 83 4e 00
        E 1 93 4e 7f
        E 0 93 4b 7f
        E 47 83 4e 00
        E 0 83 4b 00
        E 49 93 4e 7f
        E 0 93 4b 7f
        E 71 83 4e 00
        E 0 83 4b 00
        E 1 93 4d 7f
        E 0 93 50 7f
        E 71 83 4d 00
        E 0 83 50 00
        E 1 93 4d 7f
        E 0 93 50 7f
        E 47 83 4d 00
        E 0 83 50 00
        E 49 93 4e 7f
        E 0 93 4b 7f
        E 47 83 4e 00
        E 0 83 4b 00
        E 1 93 4e 7f
        E 0 93 4b 7f
        E 47 83 4e 00
        E 0 83 4b 00
        E 49 93 4e 7f
        E 0 93 4b 7f
        E 71 83 4e 00
        E 0 83 4b 00
        E 1 93 4d 7f
        E 0 93 49 7f
        E 71 83 4d 00
        E 0 83 49 00
        E 1 93 4e 7f
        E 0 93 4b 7f
        E 47 83 4e 00
        E 0 83 4b 00
        E 49 93 4e 7f
        E 0 93 4b 7f
        E 47 83 4e 00
        E 0 83 4b 00
        E 1 93 4e 7f
        E 0 93 4b 7f
        E 47 83 4e 00
        E 0 83 4b 00
        E 49 93 4e 7f
        E 0 93 4b 7f
        E 71 83 4e 00
        E 0 83 4b 00
        E 1 93 4d 7f
        E 0 93 50 7f
        E 71 83 4d 00
        E 0 83 50 00
        E 1 93 50 7f
        E 0 93 4d 7f
        E 47 83 50 00
        E 0 83 4d 00
        E 49 93 4b 7f
        E 0 93 4e 7f
        E 47 83 4b 00
        E 0 83 4e 00
        E 1 93 4e 7f
        E 0 93 4b 7f
        E 47 83 4e 00
        E 0 83 4b 00
        E 49 93 4b 7f
        E 0 93 4e 7f
        E 71 83 4b 00
        E 0 83 4e 00
        E 1 93 49 7f
        E 0 93 4d 7f
        E 71 83 49 00
        E 0 83 4d 00
        E 1 93 4e 7f
        E 0 93 4b 7f
        E 47 83 4e 00
        E 0 83 4b 00
        E 49 93 4e 7f
        E 0 93 4b 7f
        E 47 83 4e 00
        E 0 83 4b 00
        E 1 93 4e 7f
        E 0 93 4b 7f
        E 47 83 4e 00
        E 0 83 4b 00
        E 49 93 4b 7f
        E 0 93 4e 7f
        E 71 83 4b 00
        E 0 83 4e 00
        E 1 93 50 7f
        E 0 93 4d 7f
        E 71 83 50 00
        E 0 83 4d 00
        E 1 93 50 7f
        E 0 93 4d 7f
        E 47 83 50 00
        E 0 83 4d 00
        E 49 93 4b 7f
        E 0 93 4e 7f
        E 47 83 4b 00
        E 0 83 4e 00
        E 1 93 4e 7f
        E 0 93 4b 7f
        E 47 83 4e 00
        E 0 83 4b 00
        E 49 93 4b 7f
        E 0 93 4e 7f
        E 71 83 4b 00
        E 0 83 4e 00
        E 1 93 4d 7f
        E 0 93 49 7f
        E 71 83 4d 00
        E 0 83 49 00
        E 1 93 4b 7f
        E 0 93 4e 7f
        E 47 83 4b 00
        E 0 83 4e 00
        E 49 93 4e 7f
        E 0 93 4b 7f
        E 47 83 4e 00
        E 0 83 4b 00
        E 1 93 4e 7f
        E 0 93 4b 7f
        E 47 83 4e 00
        E 0 83 4b 00
        E 49 93 4e 7f
        E 0 93 4b 7f
        E 71 83 4e 00
        E 0 83 4b 00
        E 1 93 50 7f
        E 0 93 4d 7f
        E 71 83 50 00
        E 0 83 4d 00
        E 1 93 50 7f
        E 0 93 4d 7f
        E 47 83 50 00
        E 0 83 4d 00
        E 49 93 4e 7f
        E 0 93 4b 7f
        E 47 83 4e 00
        E 0 83 4b 00
        E 1 93 4b 7f
        E 0 93 4e 7f
        E 47 83 4b 00
        E 0 83 4e 00
        E 49 93 4e 7f
        E 0 93 4b 7f
        E 71 83 4e 00
        E 0 83 4b 00
        E 1 93 49 7f
        E 0 93 4d 7f
        E 71 83 49 00
        E 0 83 4d 00
        E 1 93 4b 7f
        E 0 93 4e 7f
        E 47 83 4b 00
        E 0 83 4e 00
        E 49 93 4e 7f
        E 0 93 4b 7f
        E 47 83 4e 00
        E 0 83 4b 00
        E 1 93 4b 7f
        E 0 93 4e 7f
        E 47 83 4b 00
        E 0 83 4e 00
        E 49 93 4e 7f
        E 0 93 4b 7f
        E 71 83 4e 00
        E 0 83 4b 00
        E 1 93 4d 7f
        E 0 93 50 7f
        E 71 83 4d 00
        E 0 83 50 00
        E 1 93 4d 7f
        E 0 93 50 7f
        E 47 83 4d 00
        E 0 83 50 00
        E 49 93 4e 7f
        E 0 93 4b 7f
        E 47 83 4e 00
        E 0 83 4b 00
        E 1 93 4b 7f
        E 0 93 4e 7f
        E 47 83 4b 00
        E 0 83 4e 00
        E 49 93 4b 7f
        E 0 93 4e 7f
        E 71 83 4b 00
        E 0 83 4e 00
        E 1 93 4d 7f
        E 0 93 49 7f
        E 71 83 4d 00
        E 0 83 49 00
        E 1 93 4b 7f
        E 0 93 4e 7f
        E 47 83 4b 00
        E 0 83 4e 00
        E 49 93 4b 7f
        E 0 93 4e 7f
        E 47 83 4b 00
        E 0 83 4e 00
        E 1 93 4b 7f
        E 0 93 4e 7f
        E 47 83 4b 00
        E 0 83 4e 00
        E 49 93 4e 7f
        E 0 93 4b 7f
        E 71 83 4e 00
        E 0 83 4b 00
        E 1 93 50 7f
        E 0 93 4d 7f
        E 71 83 50 00
        E 0 83 4d 00
        E 1 93 50 7f
        E 0 93 4d 7f
        E 47 83 50 00
        E 0 83 4d 00
        E 49 93 4b 7f
        E 0 93 4e 7f
        E 47 83 4b 00
        E 0 83 4e 00
        E 1 93 4b 7f
        E 0 93 4e 7f
        E 47 83 4b 00
        E 0 83 4e 00
        E 49 93 4e 7f
        E 0 93 4b 7f
        E 71 83 4e 00
        E 0 83 4b 00
        E 1 93 4d 7f
        E 0 93 49 7f
        E 71 83 4d 00
        E 0 83 49 00
        E 1 93 4e 7f
        E 0 93 4b 7f
        E 47 83 4e 00
        E 0 83 4b 00
        E 1729 93 4f 7f
        E 95 83 4f 00
        E 1 93 4d 7f
        E 47 83 4d 00
        E 1 93 4f 7f
        E 47 83 4f 00
        E 49 93 4d 7f
        E 47 83 4d 00
        E 1 93 4f 7f
        E 47 83 4f 00
        E 1 93 51 7f
        E 47 83 51 00
        E 1 93 52 7f
        E 47 83 52 00
        E 1 93 4a 7f
        E 47 83 4a 00
        E 1 93 51 7f
        E 47 83 51 00
        E 1 93 4a 7f
        E 47 83 4a 00
        E 1 93 4f 7f
        E 191 83 4f 00
        E 1 93 4f 7f
        E 47 83 4f 00
        E 1 93 4d 7f
        E 47 83 4d 00
        E 1 93 4a 7f
        E 47 83 4a 00
        E 1 93 4d 7f
        E 47 83 4d 00
        E 1 93 48 7f
        E 191 83 48 00
        E 1 93 48 7f
        E 47 83 48 00
        E 1 93 46 7f
        E 47 83 46 00
        E 1 93 43 7f
        E 47 83 43 00
        E 1 93 46 7f
        E 47 83 46 00
        E 1 93 45 7f
        E 191 83 45 00
        E 1 93 4a 7f
        E 95 83 4a 00
        E 1 93 48 7f
        E 47 83 48 00
        E 1 93 4a 7f
        E 47 83 4a 00
        E 49 93 48 7f
        E 47 83 48 00
        E 1 93 4a 7f
        E 47 83 4a 00
        E 1 93 4d 7f
        E 47 83 4d 00
        E 1 93 4f 7f
        E 47 83 4f 00
        E 1 93 4a 7f
        E 47 83 4a 00
        E 1 93 51 7f
        E 47 83 51 00
        E 1 93 4a 7f
        E 47 83 4a 00
        E 1 93 52 7f
        E 191 83 52 00
        E 1 93 4f 7f
        E 47 83 4f 00
        E 1 93 4d 7f
        E 47 83 4d 00
        E 1 93 4a 7f
        E 47 83 4a 00
        E 1 93 4f 7f
        E 47 83 4f 00
        E 1 93 52 7f
        E 47 83 52 00
        E 1 93 54 7f
        E 47 83 54 00
        E 1 93 51 7f
        E 47 83 51 00
        E 1 93 4d 7f
        E 47 83 4d 00
        E 1 93 4f 7f
        E 383 83 4f 00
        E 1 93 4f 7f
        E 95 83 4f 00
        E 1 93 4d 7f
        E 47 83 4d 00
        E 1 93 4f 7f
        E 47 83 4f 00
        E 49 93 4d 7f
        E 47 83 4d 00
        E 1 93 4f 7f
        E 47 83 4f 00
        E 1 93 51 7f
        E 47 83 51 00
        E 1 93 52 7f
        E 47 83 52 00
        E 1 93 4a 7f
        E 47 83 4a 00
        E 1 93 51 7f
        E 47 83 51 00
        E 1 93 4a 7f
        E 47 83 4a 00
        E 1 93 4f 7f
        E 191 83 4f 00
        E 1 93 4f 7f
        E 47 83 4f 00
        E 1 93 4d 7f
        E 47 83 4d 00
        E 1 93 4a 7f
        E 47 83 4a 00
        E 1 93 4d 7f
        E 47 83 4d 00
        E 1 93 48 7f
        E 191 83 48 00
        E 1 93 48 7f
        E 47 83 48 00
        E 1 93 46 7f
        E 47 83 46 00
        E 1 93 43 7f
        E 47 83 43 00
        E 1 93 46 7f
        E 47 83 46 00
        E 1 93 45 7f
        E 191 83 45 00
        E 1 93 4a 7f
        E 95 83 4a 00
        E 1 93 48 7f
        E 47 83 48 00
        E 1 93 4a 7f
        E 47 83 4a 00
        E 49 93 48 7f
        E 47 83 48 00
        E 1 93 4a 7f
        E 47 83 4a 00
        E 1 93 4d 7f
        E 47 83 4d 00
        E 1 93 4f 7f
        E 47 83 4f 00
        E 1 93 4a 7f
        E 47 83 4a 00
        E 1 93 51 7f
        E 47 83 51 00
        E 1 93 4a 7f
        E 47 83 4a 00
        E 1 93 52 7f
        E 191 83 52 00
        E 1 93 4f 7f
        E 47 83 4f 00
        E 1 93 4d 7f
        E 47 83 4d 00
        E 1 93 4a 7f
        E 47 83 4a 00
        E 1 93 4f 7f
        E 47 83 4f 00
        E 1 93 52 7f
        E 47 83 52 00
        E 1 93 54 7f
        E 47 83 54 00
        E 1 93 51 7f
        E 47 83 51 00
        E 1 93 4d 7f
        E 47 83 4d 00
        E 1 93 4f 7f
        E 383 83 4f 00
        E 1 93 4f 7f
        E 383 83 4f 00
        E 625 93 4f 7f
        E 47 83 4f 00
        E 1 93 51 7f
        E 47 83 51 00
        E 1 93 56 7f
        E 47 83 56 00
        E 1 93 54 7f
        E 47 83 54 00
        E 1 93 52 7f
        E 47 83 52 00
        E 1 93 51 7f
        E 47 83 51 00
        E 1 93 4f 7f
        E 47 83 4f 00
        E 1 93 4e 7f
        E 191 83 4e 00
        E 1 93 4a 7f
        E 287 83 4a 00
        E 1 93 4d 7f
        E 95 83 4d 00
        E 1 93 4f 7f
        E 287 83 4f 00
        E 1 93 56 7f
        E 95 83 56 00
        E 1 93 54 7f
        E 47 83 54 00
        E 1 93 52 7f
        E 47 83 52 00
        E 1 93 51 7f
        E 191 83 51 00
        E 1 93 4d 7f
        E 95 83 4d 00
        E 1 93 4f 7f
        E 47 83 4f 00
        E 1 93 52 7f
        E 47 83 52 00
        E 1 93 51 7f
        E 47 83 51 00
        E 1 93 4d 7f
        E 47 83 4d 00
        E 1 93 4f 7f
        E 191 83 4f 00
        E 1 93 52 7f
        E 95 83 52 00
        E 1 93 51 7f
        E 47 83 51 00
        E 1 93 52 7f
        E 47 83 52 00
        E 49 93 51 7f
        E 47 83 51 00
        E 1 93 52 7f
        E 47 83 52 00
        E 1 93 54 7f
        E 47 83 54 00
        E 1 93 56 7f
        E 47 83 56 00
        E 1 93 4f 7f
        E 47 83 4f 00
        E 1 93 54 7f
        E 47 83 54 00
        E 1 93 4d 7f
        E 47 83 4d 00
        E 1 93 52 7f
        E 191 83 52 00
        E 1 93 52 7f
        E 47 83 52 00
        E 1 93 51 7f
        E 47 83 51 00
        E 1 93 4d 7f
        E 47 83 4d 00
        E 1 93 51 7f
        E 47 83 51 00
        E 1 93 4d 7f
        E 191 83 4d 00
        E 1 93 4d 7f
        E 47 83 4d 00
        E 1 93 4b 7f
        E 47 83 4b 00
        E 1 93 48 7f
        E 47 83 48 00
        E 1 93 4b 7f
        E 47 83 4b 00
        E 1 93 4e 7f
        E 191 83 4e 00
        E 1 93 4f 7f
        E 95 83 4f 00
        E 1 93 4d 7f
        E 47 83 4d 00
        E 1 93 4f 7f
        E 47 83 4f 00
        E 49 93 4d 7f
        E 47 83 4d 00
        E 1 93 4f 7f
        E 47 83 4f 00
        E 1 93 51 7f
        E 47 83 51 00
        E 1 93 52 7f
        E 47 83 52 00
        E 1 93 4f 7f
        E 47 83 4f 00
        E 1 93 54 7f
        E 47 83 54 00
        E 1 93 4f 7f
        E 47 83 4f 00
        E 1 93 56 7f
        E 191 83 56 00
        E 1 93 56 7f
        E 47 83 56 00
        E 1 93 54 7f
        E 47 83 54 00
        E 1 93 52 7f
        E 47 83 52 00
        E 1 93 56 7f
        E 47 83 56 00
        E 1 93 5b 7f
        E 47 83 5b 00
        E 1 93 5d 7f
        E 47 83 5d 00
        E 1 93 59 7f
        E 47 83 59 00
        E 1 93 56 7f
        E 47 83 56 00
        E 1 93 5b 7f
        E 383 83 5b 00
        E 1 b0 7b 00
        CCINTERP 32
        CHASE_CC_TAKEOFFS 1
        GUID {EA5431F9-6BD9-6A4E-A2F8-3AAEC43EC30F}
        IGNTEMPO 0 120 4 4
        SRCCOLOR 191
        VELLANE -1 100 0
        CFGEDITVIEW 0 0.524309 34 12 0 -1 0 0 0 0.5
        KEYSNAP 0
        TRACKSEL 0
        EVTFILTER 0 -1 -1 -1 -1 0 0 0 0 -1 -1 -1 -1 0 -1 0 -1 -1
        CFGEDIT 1 1 0 1 0 0 1 1 1 1 1 0.25 92 200 1421 923 0 0 0 0 0 0 0 0 0 0 0 0 1 64
      >
    >
  >
  <TRACK {5C62940C-43F3-B040-9084-B84614BCA82C}
    NAME bass
    PEAKCOL 16576
    BEAT -1
    AUTOMODE 0
    VOLPAN 2.72755634013736 0 -1 -1 1
    MUTESOLO 0 0 0
    IPHASE 0
    PLAYOFFS 0 1
    ISBUS 0 0
    BUSCOMP 0 0 0 0 0
    SHOWINMIX 1 0.6667 0.5 1 0.5 -1 -1 -1
    FREEMODE 0
    SEL 0
    REC 0 0 1 0 0 0 0
    VU 2
    TRACKHEIGHT 0 0 0 0 0 0
    INQ 0 0 0 0.5 100 0 0 100
    NCHAN 2
    FX 1
    TRACKID {5C62940C-43F3-B040-9084-B84614BCA82C}
    PERF 0
    MIDIOUT -1
    MAINSEND 1 0
    <FXCHAIN
      WNDRECT 133 414 1013 581
      SHOW 0
      LASTSEL 0
      DOCKED 0
      BYPASS 0 0 0
      <AU "AUi: sforzando (Plogue Art et Technologie)" "Plogue Art et Technologie: sforzando" "" 1635085685 1347176273 1347178311
        6QMAAAAAAAAAAAAAAgAAAAEAAAAAAAAAAgAAAAAAAACLGgAAPD94bWwgdmVyc2lvbj0iMS4wIiBlbmNvZGluZz0iVVRGLTgiPz4KPCFET0NUWVBFIHBsaXN0IFBVQkxJ
        QyAiLS8vQXBwbGUvL0RURCBQTElTVCAxLjAvL0VOIiAiaHR0cDovL3d3dy5hcHBsZS5jb20vRFREcy9Qcm9wZXJ0eUxpc3QtMS4wLmR0ZCI+CjxwbGlzdCB2ZXJzaW9u
        PSIxLjAiPgo8ZGljdD4KCTxrZXk+QXJpYURhdGE8L2tleT4KCTxkYXRhPgoJUTBWSFVBTUZBQUI0bklXVVRZK2pNQXlHNy8wVlVlNHRwS1hkclFRZGRUNTJ4YUhha1pn
        OUl4UFNialQ1NkVKQU0vOSsKCURaUVdyYVlLSitmMUU4YzJzdU9IRDYxSUs2cGFXcE5RdGdncGVkak40bjBsSVlOV1RGemJ6WmFTYzJYTGhydjBHWVdRCglSWFEzSS9q
        Rm1YQk9tbE5OL2phZ3BQdEVMeVcxcXdSb2xCTzZXbEtpNFNQcmxiMVNsaDhlRTdwbUtCL1M1L1JYNHc2MgoJRlAwdGFKelY0UEROVEZtWDBIQXFLZEVLbFZCcE1IYWpo
        WEdVS05tSzRUS1NOVS9vSnRwMEJpaEFpWkU1RVYxU2k1cXIKCWkveUU5MFNGSUY0NEtWdUFlbXRNbnlZS3dWZ1JQazVrMldzR05JYXZqOHNnZTVxdjEzbG1HMVArc01i
        bExjdVhSZDU1Cgl3akFNd2xXVXYwcitMc3I4c1Y1UVVvQjVUekZFaEU1NjZ5VGEvQThZMDFVeXg0clBWbjEyYVZQaWJubWNpN3dDY3hJWAoJeE9HaDdoMTZZbHJ1OEI5
        TktzY1l1bkc5TXRUUjEzSUFhY1phV2xETjBPamdLNEpkaWZBT3NmUVNLeThSZVltMWw5aDQKCWlXOWU0cnVYMkhvSkZ2b1JmMWVadjYzTTMxZm1ieXk3MjlsWHFFRC8x
        emgyRDJFcjlnVVVCOTNZWE95WDQxRndONTJqCgk2M1FPQTdYWGhSU0dpOXVnOUN0bHVuS2lZZVh3NjRDUEQvMzhuWTVSZ1R0Y0FlbHRXL1RubCt1NUZncnpFT1ViRk1N
        dwoJWVl3NEdCZmNidllQV3B0WGxRPT0KCTwvZGF0YT4KCTxrZXk+ZGF0YTwva2V5PgoJPGRhdGE+CglBQUFBQUFBQUFBQUFBQUlBQUFBQUFBQUFBQUFBQUFBQkFBQUFB
        QUFBQUFJQUFBQUFBQUFBQXdBQUFBQUFBQUFFQUFBQQoJQUFBQUFBVUFBQUFBQUFBQUJnQUFBQUFBQUFBSEFBQUFBQUFBQUFnQUFBQUFBQUFBQ1FBQUFBQUFBQUFLQUFB
        QUFBQUEKCUFBc0FBQUFBQUFBQURBQUFBQUFBQUFBTkFBQUFBQUFBQUE0QUFBQUFBQUFBRHdBQUFBQUFBQUFRQUFBQUFBQUFBQkVBCglBQUFBQUFBQUVnQUFBQUFBQUFB
        VEFBQUFBQUFBQUJRQUFBQUFBQUFBRlFBQUFBQUFBQUFXQUFBQUFBQUFBQmNBQUFBQQoJQUFBQUdBQUFBQUFBQUFBWkFBQUFBQUFBQUJvQUFBQUFBQUFBR3dBQUFBQUFB
        QUFjQUFBQUFBQUFBQjBBQUFBQUFBQUEKCUhnQUFBQUFBQUFBZkFBQUFBQUFBQUNBQUFBQUFBQUFBSVFBQUFBQUFBQUFpQUFBQUFBQUFBQ01BQUFBQUFBQUFKQUFBCglB
        QUFBQUFBbEFBQUFBQUFBQUNZQUFBQUFBQUFBSndBQUFBQUFBQUFvQUFBQUFBQUFBQ2tBQUFBQUFBQUFLZ0FBQUFBQQoJQUFBckFBQUFBQUFBQUN3QUFBQUFBQUFBTFFB
        QUFBQUFBQUF1QUFBQUFBQUFBQzhBQUFBQUFBQUFNQUFBQUFBQUFBQXgKCUFBQUFBQUFBQURJQUFBQUFBQUFBTXdBQUFBQUFBQUEwQUFBQUFBQUFBRFVBQUFBQUFBQUFO
        Z0FBQUFBQUFBQTNBQUFBCglBQUFBQURnQUFBQUFBQUFBT1FBQUFBQUFBQUE2QUFBQUFBQUFBRHNBQUFBQUFBQUFQQUFBQUFBQUFBQTlBQUFBQUFBQQoJQUQ0QUFBQUFB
        QUFBUHdBQUFBQUFBQUJBQUFBQUFBQUFBRUVBQUFBQUFBQUFRZ0FBQUFBQUFBQkRBQUFBQUFBQUFFUUEKCUFBQUFBQUFBUlFBQUFBQUFBQUJHQUFBQUFBQUFBRWNBQUFB
        QUFBQUFTQUFBQUFBQUFBQkpBQUFBQUFBQUFFb0FBQUFBCglBQUFBU3dBQUFBQUFBQUJNQUFBQUFBQUFBRTBBQUFBQUFBQUFUZ0FBQUFBQUFBQlBBQUFBQUFBQUFGQUFB
        QUFBQUFBQQoJVVFBQUFBQUFBQUJTQUFBQUFBQUFBRk1BQUFBQUFBQUFWQUFBQUFBQUFBQlZBQUFBQUFBQUFGWUFBQUFBQUFBQVZ3QUEKCUFBQUFBQUJZQUFBQUFBQUFB
        RmtBQUFBQUFBQUFXZ0FBQUFBQUFBQmJBQUFBQUFBQUFGd0FBQUFBQUFBQVhRQUFBQUFBCglBQUJlQUFBQUFBQUFBRjhBQUFBQUFBQUFZQUFBQUFBQUFBQmhBQUFBQUFB
        QUFHSUFBQUFBQUFBQVl3QUFBQUFBQUFCawoJQUFBQUFBQUFBR1VBQUFBQUFBQUFaZ0FBQUFBQUFBQm5BQUFBQUFBQUFHZ0FBQUFBQUFBQWFRQUFBQUFBQUFCcUFBQUEK
        CUFBQUFBR3NBQUFBQUFBQUFiQUFBQUFBQUFBQnRBQUFBQUFBQUFHNEFBQUFBQUFBQWJ3QUFBQUFBQUFCd0FBQUFBQUFBCglBSEVBQUFBQUFBQUFjZ0FBQUFBQUFBQnpB
        QUFBQUFBQUFIUUFBQUFBQUFBQWRRQUFBQUFBQUFCMkFBQUFBQUFBQUhjQQoJQUFBQUFBQUFlQUFBQUFBQUFBQjVBQUFBQUFBQUFIb0FBQUFBQUFBQWV3QUFBQUFBQUFC
        OEFBQUFBQUFBQUgwQUFBQUEKCUFBQUFmZ0FBQUFBQUFBQi9BQUFBQUFBQUFJQUFBQUFBQUFBQWdRQUFBQUFBQUFDQ0FBQUFBQUFBQUlNQUFBQUFBQUFBCgloQUFBQUFB
        QUFBQ0ZBQUFBQUFBQUFJWUFBQUFBQUFBQWh3QUFBQUFBQUFDSUFBQUFBQUFBQUlrQUFBQUFBQUFBaWdBQQoJQUFBQUFBQ0xBQUFBQUFBQUFJd0FBQUFBQUFBQWpRQUFB
        QUFBQUFDT0FBQUFBQUFBQUk4QUFBQUFBQUFBa0FBQUFBQUEKCUFBQ1JBQUFBQUFBQUFKSUFBQUFBQUFBQWt3QUFBQUFBQUFDVUFBQUFBQUFBQUpVQUFBQUFBQUFBbGdB
        QUFBQUFBQUNYCglBQUFBQUFBQUFKZ0FBQUFBQUFBQW1RQUFBQUFBQUFDYUFBQUFBQUFBQUpzQUFBQUFBQUFBbkFBQUFBQUFBQUNkQUFBQQoJQUFBQUFKNEFBQUFBQUFB
        QW53QUFBQUFBQUFDZ0FBQUFBQUFBQUtFQUFBQUFBQUFBb2dBQUFBQUFBQUNqQUFBQUFBQUEKCUFLUUFBQUFBQUFBQXBRQUFBQUFBQUFDbUFBQUFBQUFBQUtjQUFBQUFB
        QUFBcUFBQUFBQUFBQUNwQUFBQUFBQUFBS29BCglBQUFBQUFBQXF3QUFBQUFBQUFDc0FBQUFBQUFBQUswQUFBQUFBQUFBcmdBQUFBQUFBQUN2QUFBQUFBQUFBTEFBQUFB
        QQoJQUFBQXNRQUFBQUFBQUFDeUFBQUFBQUFBQUxNQUFBQUFBQUFBdEFBQUFBQUFBQUMxQUFBQUFBQUFBTFlBQUFBQUFBQUEKCXR3QUFBQUFBQUFDNEFBQUFBQUFBQUxr
        QUFBQUFBQUFBdWdBQUFBQUFBQUM3QUFBQUFBQUFBTHdBQUFBQUFBQUF2UUFBCglBQUFBQUFDK0FBQUFBQUFBQUw4QUFBQUFBQUFBd0FBQUFBQUFBQURCQUFBQUFBQUFB
        TUlBQUFBQUFBQUF3d0FBQUFBQQoJQUFERUFBQUFBQUFBQU1VQUFBQUFBQUFBeGdBQUFBQUFBQURIQUFBQUFBQUFBTWdBQUFBQUFBQUF5UUFBQUFBQUFBREsKCUFBQUFB
        QUFBQU1zQUFBQUFBQUFBekFBQUFBQUFBQUROQUFBQUFBQUFBTTRBQUFBQUFBQUF6d0FBQUFBQUFBRFFBQUFBCglBQUFBQU5FQUFBQUFBQUFBMGdBQUFBQUFBQURUQUFB
        QUFBQUFBTlFBQUFBQUFBQUExUUFBQUFBQUFBRFdBQUFBQUFBQQoJQU5jQUFBQUFBQUFBMkFBQUFBQUFBQURaQUFBQUFBQUFBTm9BQUFBQUFBQUEyd0FBQUFBQUFBRGNB
        QUFBQUFBQUFOMEEKCUFBQUFBQUFBM2dBQUFBQUFBQURmQUFBQUFBQUFBT0FBQUFBQUFBQUE0UUFBQUFBQUFBRGlBQUFBQUFBQUFPTUFBQUFBCglBQUFBNUFBQUFBQUFB
        QURsQUFBQUFBQUFBT1lBQUFBQUFBQUE1d0FBQUFBQUFBRG9BQUFBQUFBQUFPa0FBQUFBQUFBQQoJNmdBQUFBQUFBQURyQUFBQUFBQUFBT3dBQUFBQUFBQUE3UUFBQUFB
        QUFBRHVBQUFBQUFBQUFPOEFBQUFBQUFBQThBQUEKCUFBQUFBQUR4QUFBQUFBQUFBUElBQUFBQUFBQUE4d0FBQUFBQUFBRDBBQUFBQUFBQUFQVUFBQUFBQUFBQTlnQUFB
        QUFBCglBQUQzQUFBQUFBQUFBUGdBQUFBQUFBQUErUUFBQUFBQUFBRDZBQUFBQUFBQUFQc0FBQUFBQUFBQS9BQUFBQUFBQUFEOQoJQUFBQUFBQUFBUDRBQUFBQUFBQUEv
        d0FBQUFBQUFBRUFBQUFBQUFBQUFRRUFBQUFBQUFBQkFnQUFBQUFBQUFFREFBQUEKCUFBQUFBUVFBQUFBQUFBQUJCUUFBQUFBQUFBRUdBQUFBQUFBQUFRY0FBQUFBQUFB
        QkNBQUFBQUFBQUFFSkFBQUFBQUFBCglBUW9BQUFBQUFBQUJDd0FBQUFBQUFBRU1BQUFBQUFBQUFRMEFBQUFBQUFBQkRnQUFBQUFBQUFFUEFBQUFBQUFBQVJBQQoJQUFB
        QUFBQUJFUUFBQUFBQUFBRVNBQUFBQUFBQUFSTUFBQUFBQUFBQkZBQUFBQUFBQUFFVkFBQUFBQUFBQVJZQUFBQUEKCUFBQUJGd0FBQUFBQUFBRVlBQUFBQUFBQUFSa0FB
        QUFBQUFBQkdnQUFBQUFBQUFFYkFBQUFBQUFBQVJ3QUFBQUFBQUFCCglIUUFBQUFBQUFBRWVBQUFBQUFBQUFSOEFBQUFBQUFBQklBQUFBQUFBQUFFaEFBQUFBQUFBQVNJ
        QUFBQUFBQUFCSXdBQQoJQUFBQUFBRWtBQUFBQUFBQUFTVUFBQUFBQUFBQkpnQUFBQUFBQUFFbkFBQUFBQUFBQVNnQUFBQUFBQUFCS1FBQUFBQUEKCUFBRXFBQUFBQUFB
        QUFTc0FBQUFBQUFBQkxBQUFBQUFBQUFFdEFBQUFBQUFBQVM0QUFBQUFBQUFCTHdBQUFBQUFBQUV3CglBQUFBQUFBQUFURUFBQUFBQUFBQk1nQUFBQUFBQUFFekFBQUFB
        QUFBQVRRQUFBQUFBQUFCTlFBQUFBQUFBQUUyQUFBQQoJQUFBQUFUY0FBQUFBQUFBQk9BQUFBQUFBQUFFNUFBQUFBQUFBQVRvQUFBQUFBQUFCT3dBQUFBQUFBQUU4QUFB
        QUFBQUEKCUFUMEFBQUFBQUFBQlBnQUFBQUFBQUFFL0FBQUFBQUFBQVVBQUFBQUFBQUFCUVFBQUFBQUFBQUZDQUFBQUFBQUFBVU1BCglBQUFBQUFBQlJBQUFBQUFBQUFG
        RkFBQUFBQUFBQVVZQUFBQUFBQUFCUndBQUFBQUFBQUZJQUFBQUFBQUFBVWtBQUFBQQoJQUFBQlNnQUFBQUFBQUFGTEFBQUFBQUFBQVV3QUFBQUFBQUFCVFFBQUFBQUFB
        QUZPQUFBQUFBQUFBVThBQUFBQUFBQUIKCVVBQUFBQUFBQUFGUkFBQUFBQUFBQVZJQUFBQUFBQUFCVXdBQUFBQUFBQUZVQUFBQUFBQUFBVlVBQUFBQUFBQUJWZ0FBCglB
        QUFBQUFGWEFBQUFBQUFBQVZnQUFBQUFBQUFCV1FBQUFBQUFBQUZhQUFBQUFBQUFBVnNBQUFBQUFBQUJYQUFBQUFBQQoJQUFGZEFBQUFBQUFBQVY0QUFBQUFBQUFCWHdB
        QUFBQUFBQUZnQUFBQUFBQUFBV0VBQUFBQUFBQUJZZ0FBQUFBQUFBRmoKCUFBQUFBQUFBQVdRQUFBQUFBQUFCWlFBQUFBQUFBQUZtQUFBQUFBQUFBV2NBQUFBQUFBQUJh
        QUFBQUFBQUFBRnBBQUFBCglBQUFBQVdvQUFBQUFBQUFCYXdBQUFBQUFBQUZzQUFBQUFBQUFBVzBBQUFBQUFBQUJiZ0FBQUFBQUFBRnZBQUFBQUFBQQoJQVhBQUFBQUFB
        QUFCY1FBQUFBQUFBQUZ5QUFBQUFBQUFBWE1BQUFBQUFBQUJkQUFBQUFBQUFBRjFBQUFBQUFBQUFYWUEKCUFBQUFBQUFCZHdBQUFBQUFBQUY0QUFBQUFBQUFBWGtBQUFB
        QUFBQUJlZ0FBQUFBQUFBRjdBQUFBQUFBQUFYd0FBQUFBCglBQUFCZlFBQUFBQUFBQUYrQUFBQUFBQUFBWDhBQUFBQUFBQUJnQUFBQUFBQUFBR0JBQUFBQUFBQUFZSUFB
        QUFBQUFBQgoJZ3dBQUFBQUFBQUdFQUFBQUFBQUFBWVVBQUFBQUFBQUJoZ0FBQUFBQUFBR0hBQUFBQUFBQUFZZ0FBQUFBQUFBQmlRQUEKCUFBQUFBQUdLQUFBQUFBQUFB
        WXNBQUFBQUFBQUJqQUFBQUFBQUFBR05BQUFBQUFBQUFZNEFBQUFBQUFBQmp3QUFBQUFBCglBQUdRQUFBQUFBQUFBWkVBQUFBQUFBQUJrZ0FBQUFBQUFBR1RBQUFBQUFB
        QUFaUUFBQUFBQUFBQmxRQUFBQUFBQUFHVwoJQUFBQUFBQUFBWmNBQUFBQUFBQUJtQUFBQUFBQUFBR1pBQUFBQUFBQUFab0FBQUFBQUFBQm13QUFBQUFBQUFHY0FBQUEK
        CUFBQUFBWjBBQUFBQUFBQUJuZ0FBQUFBQUFBR2ZBQUFBQUFBQUFhQUFBQUFBQUFBQm9RQUFBQUFBQUFHaUFBQUFBQUFBCglBYU1BQUFBQUFBQUJwQUFBQUFBQUFBR2xB
        QUFBQUFBQUFhWUFBQUFBQUFBQnB3QUFBQUFBQUFHb0FBQUFBQUFBQWFrQQoJQUFBQUFBQUJxZ0FBQUFBQUFBR3JBQUFBQUFBQUFhd0FBQUFBQUFBQnJRQUFBQUFBQUFH
        dUFBQUFBQUFBQWE4QUFBQUEKCUFBQUJzQUFBQUFBQUFBR3hBQUFBQUFBQUFiSUFBQUFBQUFBQnN3QUFBQUFBQUFHMEFBQUFBQUFBQWJVQUFBQUFBQUFCCgl0Z0FBQUFB
        QUFBRzNBQUFBQUFBQUFiZ0FBQUFBQUFBQnVRQUFBQUFBQUFHNkFBQUFBQUFBQWJzQUFBQUFBQUFCdkFBQQoJQUFBQUFBRzlBQUFBQUFBQUFiNEFBQUFBQUFBQnZ3QUFB
        QUFBQUFIQUFBQUFBQUFBQWNFQUFBQUFBQUFCd2dBQUFBQUEKCUFBSERBQUFBQUFBQUFjUUFBQUFBQUFBQnhRQUFBQUFBQUFIR0FBQUFBQUFBQWNjQUFBQUFBQUFCeUFB
        QUFBQUFBQUhKCglBQUFBQUFBQUFjb0FBQUFBQUFBQnl3QUFBQUFBQUFITUFBQUFBQUFBQWMwQUFBQUFBQUFCemdBQUFBQUFBQUhQQUFBQQoJQUFBQUFkQUFBQUFBQUFB
        QjBRQUFBQUFBQUFIU0FBQUFBQUFBQWRNQUFBQUFBQUFCMUFBQUFBQUFBQUhWQUFBQUFBQUEKCUFkWUFBQUFBQUFBQjF3QUFBQUFBQUFIWUFBQUFBQUFBQWRrQUFBQUFB
        QUFCMmdBQUFBQUFBQUhiQUFBQUFBQUFBZHdBCglBQUFBQUFBQjNRQUFBQUFBQUFIZUFBQUFBQUFBQWQ4QUFBQUFBQUFCNEFBQUFBQUFBQUhoQUFBQUFBQUFBZUlBQUFB
        QQoJQUFBQjR3QUFBQUFBQUFIa0FBQUFBQUFBQWVVQUFBQUFBQUFCNWdBQUFBQUFBQUhuQUFBQUFBQUFBZWdBQUFBQUFBQUIKCTZRQUFBQUFBQUFIcUFBQUFBQUFBQWVz
        QUFBQUFBQUFCN0FBQUFBQUFBQUh0QUFBQUFBQUFBZTRBQUFBQUFBQUI3d0FBCglBQUFBQUFId0FBQUFBQUFBQWZFQUFBQUFBQUFCOGdBQUFBQUFBQUh6QUFBQUFBQUFB
        ZlFBQUFBQUFBQUI5UUFBQUFBQQoJQUFIMkFBQUFBQUFBQWZjQUFBQUFBQUFCK0FBQUFBQUFBQUg1QUFBQUFBQUFBZm9BQUFBQUFBQUIrd0FBQUFBQUFBSDgKCUFBQUFB
        QUFBQWYwQUFBQUFBQUFCL2dBQUFBQUFBQUgvQUFBQUFBPT0KCTwvZGF0YT4KCTxrZXk+bWFudWZhY3R1cmVyPC9rZXk+Cgk8aW50ZWdlcj4xMzQ3MTc4MzExPC9pbnRl
        Z2VyPgoJPGtleT5uYW1lPC9rZXk+Cgk8c3RyaW5nPlVudGl0bGVkPC9zdHJpbmc+Cgk8a2V5PnN1YnR5cGU8L2tleT4KCTxpbnRlZ2VyPjEzNDcxNzYyNzM8L2ludGVn
        ZXI+Cgk8a2V5PnR5cGU8L2tleT4KCTxpbnRlZ2VyPjE2MzUwODU2ODU8L2ludGVnZXI+Cgk8a2V5PnZlcnNpb248L2tleT4KCTxpbnRlZ2VyPjA8L2ludGVnZXI+Cjwv
        ZGljdD4KPC9wbGlzdD4KAQAAAAAAAAAAAA==
      >
      FLOATPOS 0 0 0 0
      FXID {713CD640-70A9-E341-9E9E-B10A7186A727}
      WAK 0 0
    >
    <ITEM
      POSITION 0
      SNAPOFFS 0
      LENGTH 12.875152
      LOOP 1
      ALLTAKES 0
      FADEIN 1 0 0 1 0 0 0
      FADEOUT 1 0 0 1 0 0 0
      MUTE 0 0
      BEAT 1
      SEL 0
      IGUID {5E22349E-E4F1-2C4C-ACAB-250708EAB56F}
      IID 46
      NAME the_centennial_festival_for_magical.mid
      VOLPAN 1 0 1 -1
      SOFFS 1.6 4
      PLAYRATE 1 1 0 -1 0 0.0025
      CHANMODE 0
      GUID {32D054FC-A1D3-E743-986C-25FCC1C73E60}
      <SOURCE MIDI
        HASDATA 1 96 QN
        CCINTERP 32
        POOLEDEVTS {CAC3F9DB-55A1-D340-AE4A-53F25A862AF7}
        <X 0 0
          /yEBAA==
        >
        <X 0 0 0 0 4 AttackFinger
          /wRBdHRhY2tGaW5nZXI=
        >
        E 9 b1 00 06
        E 1 b1 20 00
        E 1 c1 21 00
        E 1 b1 0a 40
        E 1 b1 07 6c
        E 1 b1 0b 7f
        E 1 b1 5b 00
        E 1 b1 5d 00
        E 1 b1 5e 00
        E 114 b1 65 00
        E 0 b1 64 01
        E 0 b1 06 40
        E 0 b1 26 00
        <X 1 0
          8EEQQhJAEkBAQEBAQEBAQEBAQEBu9w==
        >
        E 2 b1 40 00
        E 1 b1 63 01
        E 0 b1 62 08
        E 0 b1 06 40
        E 1 b1 63 01
        E 0 b1 62 09
        E 0 b1 06 40
        E 1 b1 63 01
        E 0 b1 62 0a
        E 0 b1 06 40
        E 1 b1 63 01
        E 0 b1 62 20
        E 0 b1 06 40
        E 1 b1 63 01
        E 0 b1 62 21
        E 0 b1 06 40
        E 1 b1 63 01
        E 0 b1 62 63
        E 0 b1 06 40
        E 1 b1 63 01
        E 0 b1 62 64
        E 0 b1 06 40
        E 1 b1 63 01
        E 0 b1 62 66
        E 0 b1 06 40
        <X 1 0
          8EEQQhJAQiAAXvc=
        >
        E 242 91 27 7f
        E 767 81 27 00
        E 1 91 23 7f
        E 767 81 23 00
        E 1 91 27 7f
        E 767 81 27 00
        E 1 91 23 7f
        E 671 81 23 00
        e 1 91 25 7f
        e 95 81 25 00
        E 0 b0 7b 00
        CCINTERP 32
        CHASE_CC_TAKEOFFS 1
        GUID {0EE54DFF-D0E1-EA4F-9CA1-23B9A3CC4AD0}
        IGNTEMPO 0 120 4 4
        SRCCOLOR 79
        VELLANE -1 100 0
        CFGEDITVIEW -58.987502 0.090376 67 12 0 -1 0 0 0 0.5
        KEYSNAP 0
        TRACKSEL 0
        EVTFILTER 0 -1 -1 -1 -1 0 0 0 0 -1 -1 -1 -1 0 -1 0 -1 -1
        CFGEDIT 1 1 0 1 0 0 1 1 1 1 1 0.25 1983 85 3360 856 0 0 0 0 0 0 0 0 0 0 0 0 1 64
      >
    >
    <ITEM
      POSITION 12.875152
      SNAPOFFS 0
      LENGTH 12.864416
      LOOP 1
      ALLTAKES 0
      FADEIN 1 0 0 1 0 0 0
      FADEOUT 1 0 0 1 0 0 0
      MUTE 0 0
      BEAT 1
      SEL 0
      IGUID {FDA8CB8C-AF4D-DB49-BC2B-025ECAD5EF4D}
      IID 70
      NAME the_centennial_festival_for_magical.mid
      VOLPAN 1 0 1 -1
      SOFFS 14.475152 36
      PLAYRATE 1 1 0 -1 0 0.0025
      CHANMODE 0
      GUID {590885D2-EAF6-D240-AD23-9345C6E03316}
      <SOURCE MIDI
        HASDATA 1 96 QN
        CCINTERP 32
        POOLEDEVTS {13AACBB3-FE3F-4C4C-8DA5-6B72FF5ADF23}
        <X 0 0
          /yEBAA==
        >
        <X 0 0 0 0 4 AttackFinger
          /wRBdHRhY2tGaW5nZXI=
        >
        E 9 b1 00 06
        E 1 b1 20 00
        E 1 c1 21 00
        E 1 b1 0a 40
        E 1 b1 07 6c
        E 1 b1 0b 7f
        E 1 b1 5b 00
        E 1 b1 5d 00
        E 1 b1 5e 00
        E 114 b1 65 00
        E 0 b1 64 01
        E 0 b1 06 40
        E 0 b1 26 00
        <X 1 0
          8EEQQhJAEkBAQEBAQEBAQEBAQEBu9w==
        >
        E 2 b1 40 00
        E 1 b1 63 01
        E 0 b1 62 08
        E 0 b1 06 40
        E 1 b1 63 01
        E 0 b1 62 09
        E 0 b1 06 40
        E 1 b1 63 01
        E 0 b1 62 0a
        E 0 b1 06 40
        E 1 b1 63 01
        E 0 b1 62 20
        E 0 b1 06 40
        E 1 b1 63 01
        E 0 b1 62 21
        E 0 b1 06 40
        E 1 b1 63 01
        E 0 b1 62 63
        E 0 b1 06 40
        E 1 b1 63 01
        E 0 b1 62 64
        E 0 b1 06 40
        E 1 b1 63 01
        E 0 b1 62 66
        E 0 b1 06 40
        <X 1 0
          8EEQQhJAQiAAXvc=
        >
        E 241 b1 40 00
        E 0 91 33 7f
        E 0 91 2e 7f
        E 767 81 33 00
        E 0 81 2e 00
        E 1 91 2f 7f
        E 0 91 2a 7f
        E 767 81 2f 00
        E 0 81 2a 00
        E 1 91 2e 7f
        E 0 91 33 7f
        E 767 81 2e 00
        E 0 81 33 00
        E 1 91 2a 7f
        E 0 91 2f 7f
        E 671 81 2a 00
        E 0 81 2f 00
        E 1 91 31 7f
        E 95 81 31 00
        E 2 91 1b 7f
        E 71 81 1b 00
        E 1 91 1e 7f
        E 71 81 1e 00
        e 1 91 22 7f
        e 47 81 22 00
        E 1 91 27 7f
        E 71 81 27 00
        E 1 91 22 7f
        E 71 81 22 00
        E 1 91 1e 7f
        E 47 81 1e 00
        E 1 91 1b 7f
        E 71 81 1b 00
        E 1 91 1e 7f
        E 71 81 1e 00
        E 1 91 22 7f
        E 47 81 22 00
        E 1 91 27 7f
        E 71 81 27 00
        E 1 91 22 7f
        E 71 81 22 00
        E 1 91 1e 7f
        E 47 81 1e 00
        E 1 91 1b 7f
        E 71 81 1b 00
        E 1 91 1e 7f
        E 71 81 1e 00
        E 1 91 23 7f
        E 47 81 23 00
        E 1 91 27 7f
        E 71 81 27 00
        E 1 91 23 7f
        E 71 81 23 00
        E 1 91 1e 7f
        E 47 81 1e 00
        E 1 91 1b 7f
        E 71 81 1b 00
        E 1 91 1e 7f
        E 71 81 1e 00
        E 1 91 23 7f
        E 47 81 23 00
        E 1 91 27 7f
        E 71 81 27 00
        E 1 91 23 7f
        E 71 81 23 00
        E 1 91 1e 7f
        E 47 81 1e 00
        E 1 91 1b 7f
        E 71 81 1b 00
        E 1 91 1e 7f
        E 71 81 1e 00
        E 1 91 22 7f
        E 47 81 22 00
        E 1 91 27 7f
        E 71 81 27 00
        E 1 91 22 7f
        E 71 81 22 00
        E 1 91 1e 7f
        E 47 81 1e 00
        E 1 91 1b 7f
        E 71 81 1b 00
        E 1 91 1e 7f
        E 71 81 1e 00
        E 1 91 22 7f
        E 47 81 22 00
        E 1 91 27 7f
        E 71 81 27 00
        E 1 91 22 7f
        E 71 81 22 00
        E 1 91 1e 7f
        E 47 81 1e 00
        E 1 91 1b 7f
        E 71 81 1b 00
        E 1 91 1e 7f
        E 71 81 1e 00
        E 1 91 23 7f
        E 47 81 23 00
        E 1 91 27 7f
        E 71 81 27 00
        E 1 91 23 7f
        E 71 81 23 00
        E 1 91 1e 7f
        E 47 81 1e 00
        E 1 91 1b 7f
        E 71 81 1b 00
        E 1 91 1e 7f
        E 71 81 1e 00
        E 1 91 23 7f
        E 47 81 23 00
        E 1 91 27 7f
        E 71 81 27 00
        E 1 91 23 7f
        E 71 81 23 00
        E 1 91 1e 7f
        E 47 81 1e 00
        E 0 b0 7b 00
        CCINTERP 32
        CHASE_CC_TAKEOFFS 1
        GUID {6D993FD5-2760-8141-9A94-D0D654220CC6}
        IGNTEMPO 0 120 4 4
        SRCCOLOR 138
        VELLANE -1 100 0
        CFGEDITVIEW 1983.697655 0.232898 73 12 0 -1 0 0 0 0.5
        KEYSNAP 0
        TRACKSEL 0
        EVTFILTER 0 -1 -1 -1 -1 0 0 0 0 -1 -1 -1 -1 0 -1 0 -1 -1
        CFGEDIT 1 1 0 1 0 0 1 1 1 1 1 0.25 1983 5 3360 776 0 0 0 0 0 0 0 0 0 0 0 0 1 64
      >
    >
    <ITEM
      POSITION 25.739568
      SNAPOFFS 0
      LENGTH 6.4
      LOOP 1
      ALLTAKES 0
      FADEIN 1 0 0 1 0 0 0
      FADEOUT 1 0 0 1 0 0 0
      MUTE 0 0
      BEAT 1
      SEL 0
      IGUID {F192E1F7-928F-154E-B28D-62C188FF2755}
      IID 73
      NAME the_centennial_festival_for_magical.mid
      VOLPAN 1 0 1 -1
      SOFFS 0 0
      PLAYRATE 1 1 0 -1 0 0.0025
      CHANMODE 0
      GUID {5D4A2050-32E0-0C4F-8E1F-D434A92F7DF0}
      <SOURCE MIDI
        HASDATA 1 96 QN
        CCINTERP 32
        POOLEDEVTS {1759ED7B-A8DF-BC47-A619-20E57ACF5417}
        e 1 91 23 7f
        e 383 81 23 00
        E 1 91 25 7f
        E 383 81 25 00
        E 1 91 27 7f
        E 383 81 27 00
        E 1 91 29 7f
        E 383 81 29 00
        E 0 b0 7b 00
        CCINTERP 32
        CHASE_CC_TAKEOFFS 1
        GUID {693B5240-099C-944B-BB52-766B91C93545}
        IGNTEMPO 0 120 4 4
        SRCCOLOR 141
        VELLANE -1 100 0
        CFGEDITVIEW -160.095387 0.25285 67 12 0 -1 0 0 0 0.5
        KEYSNAP 0
        TRACKSEL 0
        EVTFILTER 0 -1 -1 -1 -1 0 0 0 0 -1 -1 -1 -1 0 -1 0 -1 -1
        CFGEDIT 1 1 0 1 0 0 1 1 1 1 1 0.25 543 172 1920 943 0 0 0 0 0 0 0 0 0 0 0 0 1 64
      >
    >
    <ITEM
      POSITION 32.139568
      SNAPOFFS 0
      LENGTH 13.43098
      LOOP 1
      ALLTAKES 0
      FADEIN 1 0 0 1 0 0 0
      FADEOUT 1 0 0 1 0 0 0
      MUTE 0 0
      BEAT 1
      SEL 0
      IGUID {9F06FA05-3B1E-3148-81F4-33156A131970}
      IID 75
      NAME the_centennial_festival_for_magical.mid
      VOLPAN 1 0 1 -1
      SOFFS 0 0
      PLAYRATE 1 1 0 -1 0 0.0025
      CHANMODE 0
      GUID {31B1A305-E3A4-4443-AE05-666843901FEA}
      <SOURCE MIDI
        HASDATA 1 96 QN
        CCINTERP 32
        POOLEDEVTS {898513E3-AFF6-504F-B982-69CFA15D9085}
        E 0 91 1f 7f
        E 767 81 1f 00
        E 1 91 1b 7f
        E 767 81 1b 00
        E 1 91 1f 7f
        E 143 81 1f 00
        e 1 91 26 7f
        e 47 81 26 00
        E 1 91 1f 7f
        E 47 81 1f 00
        E 1 91 26 7f
        E 47 81 26 00
        E 1 91 1f 7f
        E 47 81 1f 00
        E 1 91 26 7f
        E 47 81 26 00
        E 1 91 1f 7f
        E 143 81 1f 00
        E 1 91 26 7f
        E 47 81 26 00
        E 1 91 1f 7f
        E 47 81 1f 00
        E 1 91 26 7f
        E 47 81 26 00
        E 1 91 1f 7f
        E 47 81 1f 00
        E 1 91 26 7f
        E 47 81 26 00
        E 1 91 1b 7f
        E 143 81 1b 00
        E 1 91 22 7f
        E 47 81 22 00
        E 1 91 1b 7f
        E 47 81 1b 00
        E 1 91 22 7f
        E 47 81 22 00
        E 1 91 1b 7f
        E 47 81 1b 00
        E 1 91 22 7f
        E 47 81 22 00
        E 1 91 1b 7f
        E 143 81 1b 00
        E 1 91 22 7f
        E 47 81 22 00
        E 1 91 1b 7f
        E 47 81 1b 00
        E 1 91 22 7f
        E 47 81 22 00
        E 1 91 1b 7f
        E 47 81 1b 00
        E 1 91 22 7f
        E 47 81 22 00
        E 1 b0 7b 00
        CCINTERP 32
        CHASE_CC_TAKEOFFS 1
        GUID {CA7A0391-280A-B249-A06A-DA639956493F}
        IGNTEMPO 0 120 4 4
        SRCCOLOR 143
        VELLANE -1 100 0
        CFGEDITVIEW -209.233958 0.189861 67 12 0 -1 0 0 0 0.5
        KEYSNAP 0
        TRACKSEL 0
        EVTFILTER 0 -1 -1 -1 -1 0 0 0 0 -1 -1 -1 -1 0 -1 0 -1 -1
        CFGEDIT 1 1 0 1 0 0 1 1 1 1 1 0.25 2056 92 3433 863 0 0 0 0 0 0 0 0 0 0 0 0 1 64
      >
    >
    <ITEM
      POSITION 45.570548
      SNAPOFFS 0
      LENGTH 6.76056
      LOOP 1
      ALLTAKES 0
      FADEIN 1 0 0 1 0 0 0
      FADEOUT 1 0 0 1 0 0 0
      MUTE 0 0
      BEAT 1
      SEL 0
      IGUID {4308ADD1-D30D-E441-BE5C-B851435A5C33}
      IID 77
      NAME the_centennial_festival_for_magical.mid
      VOLPAN 1 0 1 -1
      SOFFS 0 0
      PLAYRATE 1 1 0 -1 0 0.0025
      CHANMODE 0
      GUID {2101BD39-ED1C-F349-85EE-9372AD3DFAF1}
      <SOURCE MIDI
        HASDATA 1 96 QN
        CCINTERP 32
        POOLEDEVTS {19FC9E0D-3332-AC41-ADBA-093551B2E953}
        E 0 91 1b 7f
        E 383 81 1b 00
        E 1 91 1d 7f
        E 383 81 1d 00
        e 1 91 1b 7f
        e 191 81 1b 00
        E 1 91 1d 7f
        E 191 81 1d 00
        E 1 91 1b 7f
        E 95 81 1b 00
        E 1 91 1d 7f
        E 95 81 1d 00
        E 1 91 1f 7f
        E 191 81 1f 00
        E 1 b0 7b 00
        CCINTERP 32
        CHASE_CC_TAKEOFFS 1
        GUID {2A9100C4-F536-1B49-9A1D-F6426E5E49C4}
        IGNTEMPO 0 120 4 4
        SRCCOLOR 145
        VELLANE -1 100 0
        CFGEDITVIEW -260.970472 0.152155 67 12 0 -1 0 0 0 0.5
        KEYSNAP 0
        TRACKSEL 0
        EVTFILTER 0 -1 -1 -1 -1 0 0 0 0 -1 -1 -1 -1 0 -1 0 -1 -1
        CFGEDIT 1 1 0 1 0 0 1 1 1 1 1 0.25 543 172 1920 943 0 0 0 0 0 0 0 0 0 0 0 0 1 64
      >
    >
    <ITEM
      POSITION 52.331108
      SNAPOFFS 0
      LENGTH 10.02346
      LOOP 1
      ALLTAKES 0
      FADEIN 1 0 0 1 0 0 0
      FADEOUT 1 0 0 1 0 0 0
      MUTE 0 0
      BEAT 1
      SEL 0
      IGUID {4D567224-7022-4248-8CAD-AF28B3428FC1}
      IID 79
      NAME the_centennial_festival_for_magical.mid
      VOLPAN 1 0 1 -1
      SOFFS 0 0
      PLAYRATE 1 1 0 -1 0 0.0025
      CHANMODE 0
      GUID {1B9E1C6D-3FCC-6C4F-83C5-980F2E0E1DC1}
      <SOURCE MIDI
        HASDATA 1 96 QN
        CCINTERP 32
        POOLEDEVTS {150B3B93-A450-264B-A587-B31762F441AC}
        E 0 91 1f 7f
        E 383 81 1f 00
        E 1 91 1f 7f
        E 383 81 1f 00
        E 1 91 1b 7f
        E 383 81 1b 00
        E 1 91 1b 7f
        E 383 81 1b 00
        E 2 91 1b 7f
        E 383 81 1b 00
        e 0 91 1d 7f
        e 383 81 1d 00
        E 1 b0 7b 00
        CCINTERP 32
        CHASE_CC_TAKEOFFS 1
        GUID {159121C2-1DFD-0C4B-A1B1-EAAF06EA75C3}
        IGNTEMPO 0 120 4 4
        SRCCOLOR 147
        VELLANE -1 100 0
        CFGEDITVIEW -198.704637 0.200013 67 12 0 -1 0 0 0 0.5
        KEYSNAP 0
        TRACKSEL 0
        EVTFILTER 0 -1 -1 -1 -1 0 0 0 0 -1 -1 -1 -1 0 -1 0 -1 -1
        CFGEDIT 1 1 0 1 0 0 1 1 1 1 1 0.25 2101 98 3478 869 0 0 0 0 0 0 0 0 0 0 0 0 1 64
      >
    >
    <ITEM
      POSITION 62.354568
      SNAPOFFS 0
      LENGTH 25.816968
      LOOP 1
      ALLTAKES 0
      FADEIN 1 0 0 1 0 0 0
      FADEOUT 1 0 0 1 0 0 0
      MUTE 0 0
      BEAT 1
      SEL 0
      IGUID {B9423C06-84DC-F341-91D8-56BCA9C7067D}
      IID 82
      NAME the_centennial_festival_for_magical.mid
      VOLPAN 1 0 1 -1
      SOFFS 0 0
      PLAYRATE 1 1 0 -1 0 0.0025
      CHANMODE 0
      GUID {E81B3CF8-AA34-0942-B173-6C833562415F}
      <SOURCE MIDI
        HASDATA 1 96 QN
        CCINTERP 32
        POOLEDEVTS {FA749C3B-0EBB-6B47-9491-7F0223306B0E}
        e 0 91 1b 7f
        e 71 81 1b 00
        e 1 91 1e 7f
        e 71 81 1e 00
        e 1 91 22 7f
        e 47 81 22 00
        e 1 91 27 7f
        e 71 81 27 00
        e 1 91 22 7f
        e 71 81 22 00
        e 1 91 1e 7f
        e 47 81 1e 00
        e 1 91 1b 7f
        e 71 81 1b 00
        e 1 91 1e 7f
        e 71 81 1e 00
        e 1 91 22 7f
        e 47 81 22 00
        e 1 91 27 7f
        e 71 81 27 00
        e 1 91 22 7f
        e 71 81 22 00
        e 1 91 1e 7f
        e 47 81 1e 00
        e 1 91 1b 7f
        e 71 81 1b 00
        e 1 91 1e 7f
        e 71 81 1e 00
        e 1 91 23 7f
        e 47 81 23 00
        e 1 91 27 7f
        e 71 81 27 00
        e 1 91 23 7f
        e 71 81 23 00
        e 1 91 1e 7f
        e 47 81 1e 00
        e 1 91 1b 7f
        e 71 81 1b 00
        e 1 91 1e 7f
        e 71 81 1e 00
        e 1 91 23 7f
        e 47 81 23 00
        e 1 91 27 7f
        e 71 81 27 00
        e 1 91 23 7f
        e 71 81 23 00
        e 1 91 1e 7f
        e 47 81 1e 00
        e 1 91 1b 7f
        e 71 81 1b 00
        e 1 91 1e 7f
        e 71 81 1e 00
        e 1 91 22 7f
        e 47 81 22 00
        e 1 91 27 7f
        e 71 81 27 00
        e 1 91 22 7f
        e 71 81 22 00
        e 1 91 1e 7f
        e 47 81 1e 00
        e 1 91 1b 7f
        e 71 81 1b 00
        e 1 91 1e 7f
        e 71 81 1e 00
        e 1 91 22 7f
        e 47 81 22 00
        e 1 91 27 7f
        e 71 81 27 00
        e 1 91 22 7f
        e 71 81 22 00
        e 1 91 1e 7f
        e 47 81 1e 00
        e 1 91 1b 7f
        e 71 81 1b 00
        e 1 91 1e 7f
        e 71 81 1e 00
        e 1 91 23 7f
        e 47 81 23 00
        e 1 91 27 7f
        e 71 81 27 00
        e 1 91 23 7f
        e 71 81 23 00
        e 1 91 1e 7f
        e 47 81 1e 00
        e 1 91 1b 7f
        e 71 81 1b 00
        e 1 91 1e 7f
        e 71 81 1e 00
        e 1 91 23 7f
        e 47 81 23 00
        e 1 91 27 7f
        e 71 81 27 00
        e 1 91 23 7f
        e 71 81 23 00
        e 1 91 1e 7f
        e 47 81 1e 00
        e 1 91 1b 7f
        e 71 81 1b 00
        e 1 91 1e 7f
        e 71 81 1e 00
        e 1 91 22 7f
        e 47 81 22 00
        e 1 91 27 7f
        e 71 81 27 00
        e 1 91 22 7f
        e 71 81 22 00
        e 1 91 1e 7f
        e 47 81 1e 00
        e 1 91 1b 7f
        e 71 81 1b 00
        e 1 91 1e 7f
        e 71 81 1e 00
        e 1 91 22 7f
        e 47 81 22 00
        e 1 91 27 7f
        e 71 81 27 00
        e 1 91 22 7f
        e 71 81 22 00
        e 1 91 1e 7f
        e 47 81 1e 00
        e 1 91 1b 7f
        e 71 81 1b 00
        e 1 91 1e 7f
        e 71 81 1e 00
        e 1 91 23 7f
        e 47 81 23 00
        e 1 91 27 7f
        e 71 81 27 00
        e 1 91 23 7f
        e 71 81 23 00
        e 1 91 1e 7f
        e 47 81 1e 00
        e 1 91 1b 7f
        e 71 81 1b 00
        e 1 91 1e 7f
        e 71 81 1e 00
        e 1 91 23 7f
        e 47 81 23 00
        e 1 91 27 7f
        e 71 81 27 00
        e 1 91 23 7f
        e 71 81 23 00
        e 1 91 1e 7f
        e 47 81 1e 00
        e 1 91 1b 7f
        e 71 81 1b 00
        e 1 91 1e 7f
        e 71 81 1e 00
        e 1 91 22 7f
        e 47 81 22 00
        e 1 91 27 7f
        e 71 81 27 00
        e 1 91 22 7f
        e 71 81 22 00
        e 1 91 1e 7f
        e 47 81 1e 00
        e 1 91 1b 7f
        e 71 81 1b 00
        e 1 91 1e 7f
        e 71 81 1e 00
        e 1 91 22 7f
        e 47 81 22 00
        e 1 91 27 7f
        e 71 81 27 00
        e 1 91 22 7f
        e 71 81 22 00
        e 1 91 1e 7f
        e 47 81 1e 00
        e 1 91 1b 7f
        e 71 81 1b 00
        e 1 91 1e 7f
        e 71 81 1e 00
        e 1 91 23 7f
        e 47 81 23 00
        e 1 91 27 7f
        e 71 81 27 00
        e 1 91 23 7f
        e 71 81 23 00
        e 1 91 1e 7f
        e 47 81 1e 00
        e 1 91 1b 7f
        e 71 81 1b 00
        e 1 91 1e 7f
        e 71 81 1e 00
        e 1 91 23 7f
        e 47 81 23 00
        e 1 91 27 7f
        e 71 81 27 00
        e 1 91 23 7f
        e 71 81 23 00
        e 1 91 1e 7f
        e 47 81 1e 00
        E 1 b0 7b 00
        CCINTERP 32
        CHASE_CC_TAKEOFFS 1
        GUID {ADED8EA1-C92E-CE40-82A0-880792D66461}
        IGNTEMPO 0 120 4 4
        SRCCOLOR 150
        VELLANE -1 100 0
        CFGEDITVIEW 2887.826917 0.288019 67 12 0 -1 0 0 0 0.5
        KEYSNAP 0
        TRACKSEL 0
        EVTFILTER 0 -1 -1 -1 -1 0 0 0 0 -1 -1 -1 -1 0 -1 0 -1 -1
        CFGEDIT 1 1 0 1 0 0 1 1 1 1 1 0.25 543 172 1920 943 0 0 0 0 0 0 0 0 0 0 0 0 1 64
      >
    >
    <ITEM
      POSITION 88.171536
      SNAPOFFS 0
      LENGTH 6.442944
      LOOP 1
      ALLTAKES 0
      FADEIN 1 0 0 1 0 0 0
      FADEOUT 1 0 0 1 0 0 0
      MUTE 0 0
      BEAT 1
      SEL 0
      IGUID {7D1C2EC3-FE34-E347-AFFA-4A3149BA9248}
      IID 87
      NAME the_centennial_festival_for_magical.mid
      VOLPAN 1 0 1 -1
      SOFFS 0 0
      PLAYRATE 1 1 0 -1 0 0.0025
      CHANMODE 0
      GUID {8D7620F9-204C-5B43-87AE-60E017DE7D42}
      <SOURCE MIDI
        HASDATA 1 96 QN
        CCINTERP 32
        POOLEDEVTS {E42665ED-0F3D-BC4C-A5E8-7B2B12EB00FC}
        e 0 91 23 7f
        e 383 81 23 00
        e 1 91 25 7f
        e 383 81 25 00
        e 1 91 27 7f
        e 383 81 27 00
        e 1 91 29 7f
        e 383 81 29 00
        E 1 b0 7b 00
        CCINTERP 32
        CHASE_CC_TAKEOFFS 1
        GUID {6F7DDDD2-0AC0-8F4E-B038-F51E8B18B182}
        IGNTEMPO 0 120 4 4
        SRCCOLOR 155
        VELLANE -1 100 0
        CFGEDITVIEW 0 0.118803 67 12 0 -1 0 0 0 0.5
        KEYSNAP 0
        TRACKSEL 0
        EVTFILTER 0 -1 -1 -1 -1 0 0 0 0 -1 -1 -1 -1 0 -1 0 -1 -1
        CFGEDIT 1 1 0 1 0 0 1 1 1 1 1 0.25 543 172 1920 943 0 0 0 0 0 0 0 0 0 0 0 0 1 64
      >
    >
    <ITEM
      POSITION 94.61448
      SNAPOFFS 0
      LENGTH 12.84507
      LOOP 1
      ALLTAKES 0
      FADEIN 1 0 0 1 0 0 0
      FADEOUT 1 0 0 1 0 0 0
      MUTE 0 0
      BEAT 1
      SEL 0
      IGUID {79DE2E7E-DA23-3E4C-9F3E-C0ADE85FF5C4}
      IID 28
      NAME the_centennial_festival_for_magical.mid
      VOLPAN 1 0 1 -1
      SOFFS 97.01448 238
      PLAYRATE 1 1 0 -1 0 0.0025
      CHANMODE 0
      GUID {94F57B9B-9EC7-3C44-AD92-DE823DB596DF}
      <SOURCE MIDI
        HASDATA 1 96 QN
        CCINTERP 32
        POOLEDEVTS {AA58A941-273A-BE42-A56C-47352A6A7A0D}
        <X 0 0
          /yEBAA==
        >
        <X 0 0 0 0 4 AttackFinger
          /wRBdHRhY2tGaW5nZXI=
        >
        E 9 b1 00 06
        E 1 b1 20 00
        E 1 c1 21 00
        E 1 b1 0a 40
        E 1 b1 07 6c
        E 1 b1 0b 7f
        E 1 b1 5b 00
        E 1 b1 5d 00
        E 1 b1 5e 00
        E 114 b1 65 00
        E 0 b1 64 01
        E 0 b1 06 40
        E 0 b1 26 00
        <X 1 0
          8EEQQhJAEkBAQEBAQEBAQEBAQEBu9w==
        >
        E 2 b1 40 00
        E 1 b1 63 01
        E 0 b1 62 08
        E 0 b1 06 40
        E 1 b1 63 01
        E 0 b1 62 09
        E 0 b1 06 40
        E 1 b1 63 01
        E 0 b1 62 0a
        E 0 b1 06 40
        E 1 b1 63 01
        E 0 b1 62 20
        E 0 b1 06 40
        E 1 b1 63 01
        E 0 b1 62 21
        E 0 b1 06 40
        E 1 b1 63 01
        E 0 b1 62 63
        E 0 b1 06 40
        E 1 b1 63 01
        E 0 b1 62 64
        E 0 b1 06 40
        E 1 b1 63 01
        E 0 b1 62 66
        E 0 b1 06 40
        <X 1 0
          8EEQQhJAQiAAXvc=
        >
        E 241 b1 40 00
        E 0 91 33 7f
        E 0 91 2e 7f
        E 767 81 33 00
        E 0 81 2e 00
        E 1 91 2f 7f
        E 0 91 2a 7f
        E 767 81 2f 00
        E 0 81 2a 00
        E 1 91 2e 7f
        E 0 91 33 7f
        E 767 81 2e 00
        E 0 81 33 00
        E 1 91 2a 7f
        E 0 91 2f 7f
        E 671 81 2a 00
        E 0 81 2f 00
        E 1 91 31 7f
        E 95 81 31 00
        E 1 91 27 7f
        E 71 81 27 00
        E 1 91 2a 7f
        E 71 81 2a 00
        E 1 91 2e 7f
        E 47 81 2e 00
        E 1 91 33 7f
        E 71 81 33 00
        E 1 91 2e 7f
        E 71 81 2e 00
        E 1 91 2a 7f
        E 47 81 2a 00
        E 1 91 27 7f
        E 71 81 27 00
        E 1 91 2a 7f
        E 71 81 2a 00
        E 1 91 2e 7f
        E 47 81 2e 00
        E 1 91 33 7f
        E 71 81 33 00
        E 1 91 2e 7f
        E 71 81 2e 00
        E 1 91 2a 7f
        E 47 81 2a 00
        E 1 91 27 7f
        E 71 81 27 00
        E 1 91 2a 7f
        E 71 81 2a 00
        E 1 91 2f 7f
        E 47 81 2f 00
        E 1 91 33 7f
        E 71 81 33 00
        E 1 91 2f 7f
        E 71 81 2f 00
        E 1 91 2a 7f
        E 47 81 2a 00
        E 1 91 27 7f
        E 71 81 27 00
        E 1 91 2a 7f
        E 71 81 2a 00
        E 1 91 2f 7f
        E 47 81 2f 00
        E 1 91 33 7f
        E 71 81 33 00
        E 1 91 2f 7f
        E 71 81 2f 00
        E 1 91 2a 7f
        E 47 81 2a 00
        E 1 91 27 7f
        E 71 81 27 00
        E 1 91 2a 7f
        E 71 81 2a 00
        E 1 91 2e 7f
        E 47 81 2e 00
        E 1 91 33 7f
        E 71 81 33 00
        E 1 91 2e 7f
        E 71 81 2e 00
        E 1 91 2a 7f
        E 47 81 2a 00
        E 1 91 27 7f
        E 71 81 27 00
        E 1 91 2a 7f
        E 71 81 2a 00
        E 1 91 2e 7f
        E 47 81 2e 00
        E 1 91 33 7f
        E 71 81 33 00
        E 1 91 2e 7f
        E 71 81 2e 00
        E 1 91 2a 7f
        E 47 81 2a 00
        E 1 91 27 7f
        E 71 81 27 00
        E 1 91 2a 7f
        E 71 81 2a 00
        E 1 91 2f 7f
        E 47 81 2f 00
        E 1 91 33 7f
        E 71 81 33 00
        E 1 91 2f 7f
        E 71 81 2f 00
        E 1 91 2a 7f
        E 47 81 2a 00
        E 1 91 27 7f
        E 71 81 27 00
        E 1 91 2a 7f
        E 71 81 2a 00
        E 1 91 2f 7f
        E 47 81 2f 00
        E 1 91 33 7f
        E 71 81 33 00
        E 1 91 2f 7f
        E 71 81 2f 00
        E 1 91 2a 7f
        E 47 81 2a 00
        E 1 91 33 7f
        E 0 91 2f 7f
        E 0 91 36 7f
        E 383 81 33 00
        E 0 81 2f 00
        E 0 81 36 00
        E 1 91 31 7f
        E 0 91 38 7f
        E 0 91 35 7f
        E 383 81 31 00
        E 0 81 38 00
        E 0 81 35 00
        E 1 91 37 7f
        E 0 91 3a 7f
        E 0 91 33 7f
        E 383 81 37 00
        E 0 81 3a 00
        E 0 81 33 00
        E 1 91 39 7f
        E 0 91 35 7f
        E 0 91 3c 7f
        E 383 81 39 00
        E 0 81 35 00
        E 0 81 3c 00
        E 1 91 32 7f
        E 0 91 2b 7f
        E 767 81 32 00
        E 0 81 2b 00
        E 1 91 2e 7f
        E 0 91 27 7f
        E 767 81 2e 00
        E 0 81 27 00
        E 1 91 2b 7f
        E 143 81 2b 00
        E 1 91 32 7f
        E 47 81 32 00
        E 1 91 2b 7f
        E 47 81 2b 00
        E 1 91 32 7f
        E 47 81 32 00
        E 1 91 2b 7f
        E 47 81 2b 00
        E 1 91 32 7f
        E 47 81 32 00
        E 1 91 2b 7f
        E 143 81 2b 00
        E 1 91 32 7f
        E 47 81 32 00
        E 1 91 2b 7f
        E 47 81 2b 00
        E 1 91 32 7f
        E 47 81 32 00
        E 1 91 2b 7f
        E 47 81 2b 00
        E 1 91 32 7f
        E 47 81 32 00
        E 1 91 27 7f
        E 143 81 27 00
        E 1 91 2e 7f
        E 47 81 2e 00
        E 1 91 27 7f
        E 47 81 27 00
        E 1 91 2e 7f
        E 47 81 2e 00
        E 1 91 27 7f
        E 47 81 27 00
        E 1 91 2e 7f
        E 47 81 2e 00
        E 1 91 27 7f
        E 143 81 27 00
        E 1 91 2e 7f
        E 47 81 2e 00
        E 1 91 27 7f
        E 47 81 27 00
        E 1 91 2e 7f
        E 47 81 2e 00
        E 1 91 27 7f
        E 47 81 27 00
        E 1 91 2e 7f
        E 47 81 2e 00
        E 1 91 27 7f
        E 0 91 2e 7f
        E 383 81 27 00
        E 0 81 2e 00
        E 1 91 30 7f
        E 0 91 29 7f
        E 383 81 30 00
        E 0 81 29 00
        E 1 91 2e 7f
        E 0 91 27 7f
        E 191 81 2e 00
        E 0 81 27 00
        E 1 91 29 7f
        E 0 91 30 7f
        E 191 81 29 00
        E 0 81 30 00
        E 1 91 2e 7f
        E 0 91 27 7f
        E 95 81 2e 00
        E 0 81 27 00
        E 1 91 29 7f
        E 0 91 30 7f
        E 95 81 29 00
        E 0 81 30 00
        E 1 91 32 7f
        E 0 91 2b 7f
        E 191 81 32 00
        E 0 81 2b 00
        E 1 91 2b 7f
        E 383 81 2b 00
        E 1 91 2b 7f
        E 383 81 2b 00
        E 1 91 27 7f
        E 383 81 27 00
        E 1 91 27 7f
        E 383 81 27 00
        E 1 91 27 7f
        E 383 81 27 00
        E 1 91 29 7f
        E 383 81 29 00
        E 1 91 27 7f
        E 71 81 27 00
        E 1 91 2a 7f
        E 71 81 2a 00
        E 1 91 2e 7f
        E 47 81 2e 00
        E 1 91 33 7f
        E 71 81 33 00
        E 1 91 2e 7f
        E 71 81 2e 00
        E 1 91 2a 7f
        E 47 81 2a 00
        E 1 91 27 7f
        E 71 81 27 00
        E 1 91 2a 7f
        E 71 81 2a 00
        E 1 91 2e 7f
        E 47 81 2e 00
        E 1 91 33 7f
        E 71 81 33 00
        E 1 91 2e 7f
        E 71 81 2e 00
        E 1 91 2a 7f
        E 47 81 2a 00
        E 1 91 27 7f
        E 71 81 27 00
        E 1 91 2a 7f
        E 71 81 2a 00
        E 1 91 2f 7f
        E 47 81 2f 00
        E 1 91 33 7f
        E 71 81 33 00
        E 1 91 2f 7f
        E 71 81 2f 00
        E 1 91 2a 7f
        E 47 81 2a 00
        E 1 91 27 7f
        E 71 81 27 00
        E 1 91 2a 7f
        E 71 81 2a 00
        E 1 91 2f 7f
        E 47 81 2f 00
        E 1 91 33 7f
        E 71 81 33 00
        E 1 91 2f 7f
        E 71 81 2f 00
        E 1 91 2a 7f
        E 47 81 2a 00
        E 1 91 27 7f
        E 71 81 27 00
        E 1 91 2a 7f
        E 71 81 2a 00
        E 1 91 2e 7f
        E 47 81 2e 00
        E 1 91 33 7f
        E 71 81 33 00
        E 1 91 2e 7f
        E 71 81 2e 00
        E 1 91 2a 7f
        E 47 81 2a 00
        E 1 91 27 7f
        E 71 81 27 00
        E 1 91 2a 7f
        E 71 81 2a 00
        E 1 91 2e 7f
        E 47 81 2e 00
        E 1 91 33 7f
        E 71 81 33 00
        E 1 91 2e 7f
        E 71 81 2e 00
        E 1 91 2a 7f
        E 47 81 2a 00
        E 1 91 27 7f
        E 71 81 27 00
        E 1 91 2a 7f
        E 71 81 2a 00
        E 1 91 2f 7f
        E 47 81 2f 00
        E 1 91 33 7f
        E 71 81 33 00
        E 1 91 2f 7f
        E 71 81 2f 00
        E 1 91 2a 7f
        E 47 81 2a 00
        E 1 91 27 7f
        E 71 81 27 00
        E 1 91 2a 7f
        E 71 81 2a 00
        E 1 91 2f 7f
        E 47 81 2f 00
        E 1 91 33 7f
        E 71 81 33 00
        E 1 91 2f 7f
        E 71 81 2f 00
        E 1 91 2a 7f
        E 47 81 2a 00
        E 1 91 27 7f
        E 71 81 27 00
        E 1 91 2a 7f
        E 71 81 2a 00
        E 1 91 2e 7f
        E 47 81 2e 00
        E 1 91 33 7f
        E 71 81 33 00
        E 1 91 2e 7f
        E 71 81 2e 00
        E 1 91 2a 7f
        E 47 81 2a 00
        E 1 91 27 7f
        E 71 81 27 00
        E 1 91 2a 7f
        E 71 81 2a 00
        E 1 91 2e 7f
        E 47 81 2e 00
        E 1 91 33 7f
        E 71 81 33 00
        E 1 91 2e 7f
        E 71 81 2e 00
        E 1 91 2a 7f
        E 47 81 2a 00
        E 1 91 27 7f
        E 71 81 27 00
        E 1 91 2a 7f
        E 71 81 2a 00
        E 1 91 2f 7f
        E 47 81 2f 00
        E 1 91 33 7f
        E 71 81 33 00
        E 1 91 2f 7f
        E 71 81 2f 00
        E 1 91 2a 7f
        E 47 81 2a 00
        E 1 91 27 7f
        E 71 81 27 00
        E 1 91 2a 7f
        E 71 81 2a 00
        E 1 91 2f 7f
        E 47 81 2f 00
        E 1 91 33 7f
        E 71 81 33 00
        E 1 91 2f 7f
        E 71 81 2f 00
        E 1 91 2a 7f
        E 47 81 2a 00
        E 1 91 27 7f
        E 71 81 27 00
        E 1 91 2a 7f
        E 71 81 2a 00
        E 1 91 2e 7f
        E 47 81 2e 00
        E 1 91 33 7f
        E 71 81 33 00
        E 1 91 2e 7f
        E 71 81 2e 00
        E 1 91 2a 7f
        E 47 81 2a 00
        E 1 91 27 7f
        E 71 81 27 00
        E 1 91 2a 7f
        E 71 81 2a 00
        E 1 91 2e 7f
        E 47 81 2e 00
        E 1 91 33 7f
        E 71 81 33 00
        E 1 91 2e 7f
        E 71 81 2e 00
        E 1 91 2a 7f
        E 47 81 2a 00
        E 1 91 27 7f
        E 71 81 27 00
        E 1 91 2a 7f
        E 71 81 2a 00
        E 1 91 2f 7f
        E 47 81 2f 00
        E 1 91 33 7f
        E 71 81 33 00
        E 1 91 2f 7f
        E 71 81 2f 00
        E 1 91 2a 7f
        E 47 81 2a 00
        E 1 91 27 7f
        E 71 81 27 00
        E 1 91 2a 7f
        E 71 81 2a 00
        E 1 91 2f 7f
        E 47 81 2f 00
        E 1 91 33 7f
        E 71 81 33 00
        E 1 91 2f 7f
        E 71 81 2f 00
        E 1 91 2a 7f
        E 47 81 2a 00
        E 1 91 33 7f
        E 0 91 36 7f
        E 0 91 2f 7f
        E 383 81 33 00
        E 0 81 36 00
        E 0 81 2f 00
        E 1 91 31 7f
        E 0 91 35 7f
        E 0 91 38 7f
        E 383 81 31 00
        E 0 81 35 00
        E 0 81 38 00
        E 1 91 3a 7f
        E 0 91 37 7f
        E 0 91 33 7f
        E 383 81 3a 00
        E 0 81 37 00
        E 0 81 33 00
        E 1 91 35 7f
        E 0 91 3c 7f
        E 0 91 39 7f
        E 383 81 35 00
        E 0 81 3c 00
        E 0 81 39 00
        E 1 91 26 7f
        E 47 81 26 00
        E 1 91 30 7f
        E 47 81 30 00
        E 1 91 2d 7f
        E 47 81 2d 00
        E 1 91 29 7f
        E 23 81 29 00
        E 1 91 30 7f
        E 23 81 30 00
        E 1 91 27 7f
        E 47 81 27 00
        E 1 91 2e 7f
        E 47 81 2e 00
        E 1 91 27 7f
        E 47 81 27 00
        E 1 91 2e 7f
        E 47 81 2e 00
        E 1 91 29 7f
        E 47 81 29 00
        E 1 91 30 7f
        E 47 81 30 00
        E 1 91 29 7f
        E 47 81 29 00
        E 1 91 30 7f
        E 47 81 30 00
        E 1 91 2b 7f
        E 47 81 2b 00
        E 1 91 32 7f
        E 47 81 32 00
        E 1 91 2b 7f
        E 47 81 2b 00
        E 1 91 32 7f
        E 47 81 32 00
        E 1 91 29 7f
        E 47 81 29 00
        E 1 91 30 7f
        E 47 81 30 00
        E 1 91 29 7f
        E 47 81 29 00
        E 1 91 30 7f
        E 47 81 30 00
        E 1 91 27 7f
        E 47 81 27 00
        E 1 91 2e 7f
        E 47 81 2e 00
        E 1 91 27 7f
        E 47 81 27 00
        E 1 91 2e 7f
        E 47 81 2e 00
        E 1 91 29 7f
        E 47 81 29 00
        E 1 91 30 7f
        E 47 81 30 00
        E 1 91 29 7f
        E 47 81 29 00
        E 1 91 30 7f
        E 47 81 30 00
        E 1 91 27 7f
        E 47 81 27 00
        E 1 91 2e 7f
        E 47 81 2e 00
        E 1 91 27 7f
        E 47 81 27 00
        E 1 91 2e 7f
        E 47 81 2e 00
        E 1 91 2a 7f
        E 47 81 2a 00
        E 1 91 30 7f
        E 47 81 30 00
        E 1 91 2a 7f
        E 47 81 2a 00
        E 1 91 30 7f
        E 47 81 30 00
        E 1 91 27 7f
        E 47 81 27 00
        E 1 91 2e 7f
        E 47 81 2e 00
        E 1 91 27 7f
        E 47 81 27 00
        E 1 91 2e 7f
        E 47 81 2e 00
        E 1 91 29 7f
        E 47 81 29 00
        E 1 91 30 7f
        E 47 81 30 00
        E 1 91 29 7f
        E 47 81 29 00
        E 1 91 30 7f
        E 47 81 30 00
        E 1 91 2b 7f
        E 47 81 2b 00
        E 1 91 32 7f
        E 47 81 32 00
        E 1 91 2b 7f
        E 47 81 2b 00
        E 1 91 32 7f
        E 47 81 32 00
        E 1 91 29 7f
        E 47 81 29 00
        E 1 91 30 7f
        E 47 81 30 00
        E 1 91 29 7f
        E 47 81 29 00
        E 1 91 30 7f
        E 47 81 30 00
        E 1 91 27 7f
        E 47 81 27 00
        E 1 91 2e 7f
        E 47 81 2e 00
        E 1 91 27 7f
        E 47 81 27 00
        E 1 91 2e 7f
        E 47 81 2e 00
        E 1 91 29 7f
        E 47 81 29 00
        E 1 91 30 7f
        E 47 81 30 00
        E 1 91 29 7f
        E 47 81 29 00
        E 1 91 30 7f
        E 47 81 30 00
        E 1 91 26 7f
        E 47 81 26 00
        e 1 91 2b 7f
        e 47 81 2b 00
        E 1 91 26 7f
        E 47 81 26 00
        E 1 91 2b 7f
        E 47 81 2b 00
        E 1 91 26 7f
        E 47 81 26 00
        E 1 91 2b 7f
        E 47 81 2b 00
        E 1 91 26 7f
        E 47 81 26 00
        E 1 91 2b 7f
        E 47 81 2b 00
        E 1 b0 7b 00
        CCINTERP 32
        CHASE_CC_TAKEOFFS 1
        GUID {57405CB9-AA34-4E49-B5D0-D4F139B9D516}
        IGNTEMPO 0 120 4 4
        SRCCOLOR 132
        VELLANE -1 100 0
        CFGEDITVIEW 21670.418609 0.262924 67 12 0 -1 0 0 0 0.5
        KEYSNAP 0
        TRACKSEL 0
        EVTFILTER 0 -1 -1 -1 -1 0 0 0 0 -1 -1 -1 -1 0 -1 0 -1 -1
        CFGEDIT 1 1 0 1 0 0 1 1 1 1 1 0.25 1981 65 3358 836 0 0 0 0 0 0 0 0 0 0 0 0 1 64
      >
    >
    <ITEM
      POSITION 107.45955
      SNAPOFFS 0
      LENGTH 12.8
      LOOP 1
      ALLTAKES 0
      FADEIN 1 0 0 1 0 0 0
      FADEOUT 1 0 0 1 0 0 0
      MUTE 0 0
      BEAT 1
      SEL 0
      IGUID {8945344B-7323-BF48-8C4B-D6F17C7A39D8}
      IID 100
      NAME the_centennial_festival_for_magical.mid
      VOLPAN 1 0 1 -1
      SOFFS 109.85955 270
      PLAYRATE 1 1 0 -1 0 0.0025
      CHANMODE 0
      GUID {385B21AE-5A13-C148-B17C-BA233DC69448}
      <SOURCE MIDI
        HASDATA 1 96 QN
        CCINTERP 32
        POOLEDEVTS {12C4F3A0-C445-6C4D-AA34-89A06889BC6C}
        <X 0 0
          /yEBAA==
        >
        <X 0 0 0 0 4 AttackFinger
          /wRBdHRhY2tGaW5nZXI=
        >
        E 9 b1 00 06
        E 1 b1 20 00
        E 1 c1 21 00
        E 1 b1 0a 40
        E 1 b1 07 6c
        E 1 b1 0b 7f
        E 1 b1 5b 00
        E 1 b1 5d 00
        E 1 b1 5e 00
        E 114 b1 65 00
        E 0 b1 64 01
        E 0 b1 06 40
        E 0 b1 26 00
        <X 1 0
          8EEQQhJAEkBAQEBAQEBAQEBAQEBu9w==
        >
        E 2 b1 40 00
        E 1 b1 63 01
        E 0 b1 62 08
        E 0 b1 06 40
        E 1 b1 63 01
        E 0 b1 62 09
        E 0 b1 06 40
        E 1 b1 63 01
        E 0 b1 62 0a
        E 0 b1 06 40
        E 1 b1 63 01
        E 0 b1 62 20
        E 0 b1 06 40
        E 1 b1 63 01
        E 0 b1 62 21
        E 0 b1 06 40
        E 1 b1 63 01
        E 0 b1 62 63
        E 0 b1 06 40
        E 1 b1 63 01
        E 0 b1 62 64
        E 0 b1 06 40
        E 1 b1 63 01
        E 0 b1 62 66
        E 0 b1 06 40
        <X 1 0
          8EEQQhJAQiAAXvc=
        >
        e 241 b1 40 00
        e 0 91 33 7f
        e 0 91 2e 7f
        e 767 81 33 00
        e 0 81 2e 00
        e 1 91 2f 7f
        e 0 91 2a 7f
        e 767 81 2f 00
        e 0 81 2a 00
        e 1 91 2e 7f
        e 0 91 33 7f
        e 767 81 2e 00
        e 0 81 33 00
        e 1 91 2a 7f
        e 0 91 2f 7f
        e 671 81 2a 00
        e 0 81 2f 00
        e 1 91 31 7f
        e 95 81 31 00
        e 1 91 27 7f
        e 71 81 27 00
        e 1 91 2a 7f
        e 71 81 2a 00
        e 1 91 2e 7f
        e 47 81 2e 00
        e 1 91 33 7f
        e 71 81 33 00
        e 1 91 2e 7f
        e 71 81 2e 00
        e 1 91 2a 7f
        e 47 81 2a 00
        e 1 91 27 7f
        e 71 81 27 00
        e 1 91 2a 7f
        e 71 81 2a 00
        e 1 91 2e 7f
        e 47 81 2e 00
        e 1 91 33 7f
        e 71 81 33 00
        e 1 91 2e 7f
        e 71 81 2e 00
        e 1 91 2a 7f
        e 47 81 2a 00
        e 1 91 27 7f
        e 71 81 27 00
        e 1 91 2a 7f
        e 71 81 2a 00
        e 1 91 2f 7f
        e 47 81 2f 00
        e 1 91 33 7f
        e 71 81 33 00
        e 1 91 2f 7f
        e 71 81 2f 00
        e 1 91 2a 7f
        e 47 81 2a 00
        e 1 91 27 7f
        e 71 81 27 00
        e 1 91 2a 7f
        e 71 81 2a 00
        e 1 91 2f 7f
        e 47 81 2f 00
        e 1 91 33 7f
        e 71 81 33 00
        e 1 91 2f 7f
        e 71 81 2f 00
        e 1 91 2a 7f
        e 47 81 2a 00
        e 1 91 27 7f
        e 71 81 27 00
        e 1 91 2a 7f
        e 71 81 2a 00
        e 1 91 2e 7f
        e 47 81 2e 00
        e 1 91 33 7f
        e 71 81 33 00
        e 1 91 2e 7f
        e 71 81 2e 00
        e 1 91 2a 7f
        e 47 81 2a 00
        e 1 91 27 7f
        e 71 81 27 00
        e 1 91 2a 7f
        e 71 81 2a 00
        e 1 91 2e 7f
        e 47 81 2e 00
        e 1 91 33 7f
        e 71 81 33 00
        e 1 91 2e 7f
        e 71 81 2e 00
        e 1 91 2a 7f
        e 47 81 2a 00
        e 1 91 27 7f
        e 71 81 27 00
        e 1 91 2a 7f
        e 71 81 2a 00
        e 1 91 2f 7f
        e 47 81 2f 00
        e 1 91 33 7f
        e 71 81 33 00
        e 1 91 2f 7f
        e 71 81 2f 00
        e 1 91 2a 7f
        e 47 81 2a 00
        e 1 91 27 7f
        e 71 81 27 00
        e 1 91 2a 7f
        e 71 81 2a 00
        e 1 91 2f 7f
        e 47 81 2f 00
        e 1 91 33 7f
        e 71 81 33 00
        e 1 91 2f 7f
        e 71 81 2f 00
        e 1 91 2a 7f
        e 47 81 2a 00
        e 1 91 33 7f
        e 0 91 2f 7f
        e 0 91 36 7f
        e 383 81 33 00
        e 0 81 2f 00
        e 0 81 36 00
        e 1 91 31 7f
        e 0 91 38 7f
        e 0 91 35 7f
        e 383 81 31 00
        e 0 81 38 00
        e 0 81 35 00
        e 1 91 37 7f
        e 0 91 3a 7f
        e 0 91 33 7f
        e 383 81 37 00
        e 0 81 3a 00
        e 0 81 33 00
        e 1 91 39 7f
        e 0 91 35 7f
        e 0 91 3c 7f
        e 383 81 39 00
        e 0 81 35 00
        e 0 81 3c 00
        e 1 91 32 7f
        e 0 91 2b 7f
        e 767 81 32 00
        e 0 81 2b 00
        e 1 91 2e 7f
        e 0 91 27 7f
        e 767 81 2e 00
        e 0 81 27 00
        e 1 91 2b 7f
        e 143 81 2b 00
        e 1 91 32 7f
        e 47 81 32 00
        e 1 91 2b 7f
        e 47 81 2b 00
        e 1 91 32 7f
        e 47 81 32 00
        e 1 91 2b 7f
        e 47 81 2b 00
        e 1 91 32 7f
        e 47 81 32 00
        e 1 91 2b 7f
        e 143 81 2b 00
        e 1 91 32 7f
        e 47 81 32 00
        e 1 91 2b 7f
        e 47 81 2b 00
        e 1 91 32 7f
        e 47 81 32 00
        e 1 91 2b 7f
        e 47 81 2b 00
        e 1 91 32 7f
        e 47 81 32 00
        e 1 91 27 7f
        e 143 81 27 00
        e 1 91 2e 7f
        e 47 81 2e 00
        e 1 91 27 7f
        e 47 81 27 00
        e 1 91 2e 7f
        e 47 81 2e 00
        e 1 91 27 7f
        e 47 81 27 00
        e 1 91 2e 7f
        e 47 81 2e 00
        e 1 91 27 7f
        e 143 81 27 00
        e 1 91 2e 7f
        e 47 81 2e 00
        e 1 91 27 7f
        e 47 81 27 00
        e 1 91 2e 7f
        e 47 81 2e 00
        e 1 91 27 7f
        e 47 81 27 00
        e 1 91 2e 7f
        e 47 81 2e 00
        e 1 91 27 7f
        e 0 91 2e 7f
        e 383 81 27 00
        e 0 81 2e 00
        e 1 91 30 7f
        e 0 91 29 7f
        e 383 81 30 00
        e 0 81 29 00
        e 1 91 2e 7f
        e 0 91 27 7f
        e 191 81 2e 00
        e 0 81 27 00
        e 1 91 29 7f
        e 0 91 30 7f
        e 191 81 29 00
        e 0 81 30 00
        e 1 91 2e 7f
        e 0 91 27 7f
        e 95 81 2e 00
        e 0 81 27 00
        e 1 91 29 7f
        e 0 91 30 7f
        e 95 81 29 00
        e 0 81 30 00
        e 1 91 32 7f
        e 0 91 2b 7f
        e 191 81 32 00
        e 0 81 2b 00
        e 1 91 2b 7f
        e 383 81 2b 00
        e 1 91 2b 7f
        e 383 81 2b 00
        e 1 91 27 7f
        e 383 81 27 00
        e 1 91 27 7f
        e 383 81 27 00
        e 1 91 27 7f
        e 383 81 27 00
        e 1 91 29 7f
        e 383 81 29 00
        e 1 91 27 7f
        e 71 81 27 00
        e 1 91 2a 7f
        e 71 81 2a 00
        e 1 91 2e 7f
        e 47 81 2e 00
        e 1 91 33 7f
        e 71 81 33 00
        e 1 91 2e 7f
        e 71 81 2e 00
        e 1 91 2a 7f
        e 47 81 2a 00
        e 1 91 27 7f
        e 71 81 27 00
        e 1 91 2a 7f
        e 71 81 2a 00
        e 1 91 2e 7f
        e 47 81 2e 00
        e 1 91 33 7f
        e 71 81 33 00
        e 1 91 2e 7f
        e 71 81 2e 00
        e 1 91 2a 7f
        e 47 81 2a 00
        e 1 91 27 7f
        e 71 81 27 00
        e 1 91 2a 7f
        e 71 81 2a 00
        e 1 91 2f 7f
        e 47 81 2f 00
        e 1 91 33 7f
        e 71 81 33 00
        e 1 91 2f 7f
        e 71 81 2f 00
        e 1 91 2a 7f
        e 47 81 2a 00
        e 1 91 27 7f
        e 71 81 27 00
        e 1 91 2a 7f
        e 71 81 2a 00
        e 1 91 2f 7f
        e 47 81 2f 00
        e 1 91 33 7f
        e 71 81 33 00
        e 1 91 2f 7f
        e 71 81 2f 00
        e 1 91 2a 7f
        e 47 81 2a 00
        e 1 91 27 7f
        e 71 81 27 00
        e 1 91 2a 7f
        e 71 81 2a 00
        e 1 91 2e 7f
        e 47 81 2e 00
        e 1 91 33 7f
        e 71 81 33 00
        e 1 91 2e 7f
        e 71 81 2e 00
        e 1 91 2a 7f
        e 47 81 2a 00
        e 1 91 27 7f
        e 71 81 27 00
        e 1 91 2a 7f
        e 71 81 2a 00
        e 1 91 2e 7f
        e 47 81 2e 00
        e 1 91 33 7f
        e 71 81 33 00
        e 1 91 2e 7f
        e 71 81 2e 00
        e 1 91 2a 7f
        e 47 81 2a 00
        e 1 91 27 7f
        e 71 81 27 00
        e 1 91 2a 7f
        e 71 81 2a 00
        e 1 91 2f 7f
        e 47 81 2f 00
        e 1 91 33 7f
        e 71 81 33 00
        e 1 91 2f 7f
        e 71 81 2f 00
        e 1 91 2a 7f
        e 47 81 2a 00
        e 1 91 27 7f
        e 71 81 27 00
        e 1 91 2a 7f
        e 71 81 2a 00
        e 1 91 2f 7f
        e 47 81 2f 00
        e 1 91 33 7f
        e 71 81 33 00
        e 1 91 2f 7f
        e 71 81 2f 00
        e 1 91 2a 7f
        e 47 81 2a 00
        e 1 91 27 7f
        e 71 81 27 00
        e 1 91 2a 7f
        e 71 81 2a 00
        e 1 91 2e 7f
        e 47 81 2e 00
        e 1 91 33 7f
        e 71 81 33 00
        e 1 91 2e 7f
        e 71 81 2e 00
        e 1 91 2a 7f
        e 47 81 2a 00
        e 1 91 27 7f
        e 71 81 27 00
        e 1 91 2a 7f
        e 71 81 2a 00
        e 1 91 2e 7f
        e 47 81 2e 00
        e 1 91 33 7f
        e 71 81 33 00
        e 1 91 2e 7f
        e 71 81 2e 00
        e 1 91 2a 7f
        e 47 81 2a 00
        e 1 91 27 7f
        e 71 81 27 00
        e 1 91 2a 7f
        e 71 81 2a 00
        e 1 91 2f 7f
        e 47 81 2f 00
        e 1 91 33 7f
        e 71 81 33 00
        e 1 91 2f 7f
        e 71 81 2f 00
        e 1 91 2a 7f
        e 47 81 2a 00
        e 1 91 27 7f
        e 71 81 27 00
        e 1 91 2a 7f
        e 71 81 2a 00
        e 1 91 2f 7f
        e 47 81 2f 00
        e 1 91 33 7f
        e 71 81 33 00
        e 1 91 2f 7f
        e 71 81 2f 00
        e 1 91 2a 7f
        e 47 81 2a 00
        e 1 91 27 7f
        e 71 81 27 00
        e 1 91 2a 7f
        e 71 81 2a 00
        e 1 91 2e 7f
        e 47 81 2e 00
        e 1 91 33 7f
        e 71 81 33 00
        e 1 91 2e 7f
        e 71 81 2e 00
        e 1 91 2a 7f
        e 47 81 2a 00
        e 1 91 27 7f
        e 71 81 27 00
        e 1 91 2a 7f
        e 71 81 2a 00
        e 1 91 2e 7f
        e 47 81 2e 00
        e 1 91 33 7f
        e 71 81 33 00
        e 1 91 2e 7f
        e 71 81 2e 00
        e 1 91 2a 7f
        e 47 81 2a 00
        e 1 91 27 7f
        e 71 81 27 00
        e 1 91 2a 7f
        e 71 81 2a 00
        e 1 91 2f 7f
        e 47 81 2f 00
        e 1 91 33 7f
        e 71 81 33 00
        e 1 91 2f 7f
        e 71 81 2f 00
        e 1 91 2a 7f
        e 47 81 2a 00
        e 1 91 27 7f
        e 71 81 27 00
        e 1 91 2a 7f
        e 71 81 2a 00
        e 1 91 2f 7f
        e 47 81 2f 00
        e 1 91 33 7f
        e 71 81 33 00
        e 1 91 2f 7f
        e 71 81 2f 00
        e 1 91 2a 7f
        e 47 81 2a 00
        e 1 91 33 7f
        e 0 91 36 7f
        e 0 91 2f 7f
        e 383 81 33 00
        e 0 81 36 00
        e 0 81 2f 00
        e 1 91 31 7f
        e 0 91 35 7f
        e 0 91 38 7f
        e 383 81 31 00
        e 0 81 35 00
        e 0 81 38 00
        e 1 91 3a 7f
        e 0 91 37 7f
        e 0 91 33 7f
        e 383 81 3a 00
        e 0 81 37 00
        e 0 81 33 00
        e 1 91 35 7f
        e 0 91 3c 7f
        e 0 91 39 7f
        e 383 81 35 00
        e 0 81 3c 00
        e 0 81 39 00
        e 1 91 26 7f
        e 47 81 26 00
        e 1 91 30 7f
        e 47 81 30 00
        e 1 91 2d 7f
        e 47 81 2d 00
        e 1 91 29 7f
        e 23 81 29 00
        e 1 91 30 7f
        e 23 81 30 00
        e 1 91 27 7f
        e 47 81 27 00
        e 1 91 2e 7f
        e 47 81 2e 00
        e 1 91 27 7f
        e 47 81 27 00
        e 1 91 2e 7f
        e 47 81 2e 00
        e 1 91 29 7f
        e 47 81 29 00
        e 1 91 30 7f
        e 47 81 30 00
        e 1 91 29 7f
        e 47 81 29 00
        e 1 91 30 7f
        e 47 81 30 00
        e 1 91 2b 7f
        e 47 81 2b 00
        e 1 91 32 7f
        e 47 81 32 00
        e 1 91 2b 7f
        e 47 81 2b 00
        e 1 91 32 7f
        e 47 81 32 00
        e 1 91 29 7f
        e 47 81 29 00
        e 1 91 30 7f
        e 47 81 30 00
        e 1 91 29 7f
        e 47 81 29 00
        e 1 91 30 7f
        e 47 81 30 00
        e 1 91 27 7f
        e 47 81 27 00
        e 1 91 2e 7f
        e 47 81 2e 00
        e 1 91 27 7f
        e 47 81 27 00
        e 1 91 2e 7f
        e 47 81 2e 00
        e 1 91 29 7f
        e 47 81 29 00
        e 1 91 30 7f
        e 47 81 30 00
        e 1 91 29 7f
        e 47 81 29 00
        e 1 91 30 7f
        e 47 81 30 00
        e 1 91 27 7f
        e 47 81 27 00
        e 1 91 2e 7f
        e 47 81 2e 00
        e 1 91 27 7f
        e 47 81 27 00
        e 1 91 2e 7f
        e 47 81 2e 00
        e 1 91 2a 7f
        e 47 81 2a 00
        e 1 91 30 7f
        e 47 81 30 00
        e 1 91 2a 7f
        e 47 81 2a 00
        e 1 91 30 7f
        e 47 81 30 00
        e 1 91 27 7f
        e 47 81 27 00
        e 1 91 2e 7f
        e 47 81 2e 00
        e 1 91 27 7f
        e 47 81 27 00
        e 1 91 2e 7f
        e 47 81 2e 00
        e 1 91 29 7f
        e 47 81 29 00
        e 1 91 30 7f
        e 47 81 30 00
        e 1 91 29 7f
        e 47 81 29 00
        e 1 91 30 7f
        e 47 81 30 00
        e 1 91 2b 7f
        e 47 81 2b 00
        e 1 91 32 7f
        e 47 81 32 00
        e 1 91 2b 7f
        e 47 81 2b 00
        e 1 91 32 7f
        e 47 81 32 00
        e 1 91 29 7f
        e 47 81 29 00
        e 1 91 30 7f
        e 47 81 30 00
        e 1 91 29 7f
        e 47 81 29 00
        e 1 91 30 7f
        e 47 81 30 00
        e 1 91 27 7f
        e 47 81 27 00
        e 1 91 2e 7f
        e 47 81 2e 00
        e 1 91 27 7f
        e 47 81 27 00
        e 1 91 2e 7f
        e 47 81 2e 00
        e 1 91 29 7f
        e 47 81 29 00
        e 1 91 30 7f
        e 47 81 30 00
        e 1 91 29 7f
        e 47 81 29 00
        e 1 91 30 7f
        e 47 81 30 00
        e 1 91 26 7f
        e 47 81 26 00
        e 1 91 2b 7f
        e 47 81 2b 00
        e 1 91 26 7f
        e 47 81 26 00
        e 1 91 2b 7f
        e 47 81 2b 00
        e 1 91 26 7f
        e 47 81 26 00
        e 1 91 2b 7f
        e 47 81 2b 00
        e 1 91 26 7f
        e 47 81 26 00
        e 1 91 2b 7f
        e 47 81 2b 00
        e 1 91 27 7f
        e 47 81 27 00
        e 1 91 2e 7f
        e 47 81 2e 00
        e 1 91 27 7f
        e 47 81 27 00
        e 1 91 2e 7f
        e 47 81 2e 00
        e 1 91 29 7f
        e 47 81 29 00
        e 1 91 30 7f
        e 47 81 30 00
        e 1 91 29 7f
        e 47 81 29 00
        e 1 91 30 7f
        e 47 81 30 00
        e 1 91 2b 7f
        e 47 81 2b 00
        e 1 91 32 7f
        e 47 81 32 00
        e 1 91 2b 7f
        e 47 81 2b 00
        e 1 91 32 7f
        e 47 81 32 00
        e 1 91 29 7f
        e 47 81 29 00
        e 1 91 30 7f
        e 47 81 30 00
        e 1 91 29 7f
        e 47 81 29 00
        e 1 91 30 7f
        e 47 81 30 00
        e 1 91 27 7f
        e 47 81 27 00
        e 1 91 2e 7f
        e 47 81 2e 00
        e 1 91 27 7f
        e 47 81 27 00
        e 1 91 2e 7f
        e 47 81 2e 00
        e 1 91 29 7f
        e 47 81 29 00
        e 1 91 30 7f
        e 47 81 30 00
        e 1 91 29 7f
        e 47 81 29 00
        e 1 91 30 7f
        e 47 81 30 00
        e 1 91 27 7f
        e 47 81 27 00
        e 1 91 2e 7f
        e 47 81 2e 00
        e 1 91 27 7f
        e 47 81 27 00
        e 1 91 2e 7f
        e 47 81 2e 00
        e 1 91 2a 7f
        e 47 81 2a 00
        e 1 91 30 7f
        e 47 81 30 00
        e 1 91 2a 7f
        e 47 81 2a 00
        e 1 91 30 7f
        e 47 81 30 00
        e 1 91 27 7f
        e 47 81 27 00
        e 1 91 2e 7f
        e 47 81 2e 00
        e 1 91 27 7f
        e 47 81 27 00
        e 1 91 2e 7f
        e 47 81 2e 00
        e 1 91 29 7f
        e 47 81 29 00
        e 1 91 30 7f
        e 47 81 30 00
        e 1 91 29 7f
        e 47 81 29 00
        e 1 91 30 7f
        e 47 81 30 00
        e 1 91 2b 7f
        e 47 81 2b 00
        e 1 91 32 7f
        e 47 81 32 00
        e 1 91 2b 7f
        e 47 81 2b 00
        e 1 91 32 7f
        e 47 81 32 00
        e 1 91 29 7f
        e 47 81 29 00
        e 1 91 30 7f
        e 47 81 30 00
        e 1 91 29 7f
        e 47 81 29 00
        e 1 91 30 7f
        e 47 81 30 00
        e 1 91 27 7f
        e 47 81 27 00
        e 1 91 2e 7f
        e 47 81 2e 00
        e 1 91 27 7f
        e 47 81 27 00
        e 1 91 2e 7f
        e 47 81 2e 00
        e 1 91 29 7f
        e 47 81 29 00
        e 1 91 30 7f
        e 47 81 30 00
        e 1 91 29 7f
        e 47 81 29 00
        e 1 91 30 7f
        e 47 81 30 00
        e 1 91 26 7f
        e 47 81 26 00
        e 1 91 2b 7f
        e 47 81 2b 00
        e 1 91 26 7f
        e 47 81 26 00
        e 1 91 2b 7f
        e 47 81 2b 00
        e 1 91 26 7f
        e 47 81 26 00
        e 1 91 2b 7f
        e 47 81 2b 00
        e 1 91 26 7f
        e 47 81 26 00
        e 1 91 2b 7f
        e 47 81 2b 00
        E 1 b0 7b 00
        CCINTERP 32
        CHASE_CC_TAKEOFFS 1
        GUID {698ED664-DDF6-9544-B2E4-45BFA9318479}
        IGNTEMPO 0 120 4 4
        SRCCOLOR 194
        VELLANE -1 100 0
        CFGEDITVIEW 0 0.022143 67 12 0 -1 0 0 0 0.5
        KEYSNAP 0
        TRACKSEL 0
        EVTFILTER 0 -1 -1 -1 -1 0 0 0 0 -1 -1 -1 -1 0 -1 0 -1 -1
        CFGEDIT 1 1 0 1 0 0 1 1 1 1 1 0.25 543 172 1920 943 0 0 0 0 0 0 0 0 0 0 0 0 1 64
      >
    >
    <ITEM
      POSITION 120.25955
      SNAPOFFS 0
      LENGTH 25.6
      LOOP 1
      ALLTAKES 0
      FADEIN 1 0 0 1 0 0 0
      FADEOUT 1 0 0 1 0 0 0
      MUTE 0 0
      BEAT 1
      SEL 0
      IGUID {E5C36EB8-3891-2B41-A7DF-8E1A591DACCC}
      IID 101
      NAME the_centennial_festival_for_magical.mid
      VOLPAN 1 0 1 -1
      SOFFS 122.65955 302
      PLAYRATE 1 1 0 -1 0 0.0025
      CHANMODE 0
      GUID {E2DDC49C-340E-724D-9FCD-9DD938DF9F60}
      <SOURCE MIDI
        HASDATA 1 96 QN
        CCINTERP 32
        POOLEDEVTS {D3D946CC-04B4-3E48-9C1E-57815A639B80}
        <X 0 0
          /yEBAA==
        >
        <X 0 0 0 0 4 AttackFinger
          /wRBdHRhY2tGaW5nZXI=
        >
        E 9 b1 00 06
        E 1 b1 20 00
        E 1 c1 21 00
        E 1 b1 0a 40
        E 1 b1 07 6c
        E 1 b1 0b 7f
        E 1 b1 5b 00
        E 1 b1 5d 00
        E 1 b1 5e 00
        E 114 b1 65 00
        E 0 b1 64 01
        E 0 b1 06 40
        E 0 b1 26 00
        <X 1 0
          8EEQQhJAEkBAQEBAQEBAQEBAQEBu9w==
        >
        E 2 b1 40 00
        E 1 b1 63 01
        E 0 b1 62 08
        E 0 b1 06 40
        E 1 b1 63 01
        E 0 b1 62 09
        E 0 b1 06 40
        E 1 b1 63 01
        E 0 b1 62 0a
        E 0 b1 06 40
        E 1 b1 63 01
        E 0 b1 62 20
        E 0 b1 06 40
        E 1 b1 63 01
        E 0 b1 62 21
        E 0 b1 06 40
        E 1 b1 63 01
        E 0 b1 62 63
        E 0 b1 06 40
        E 1 b1 63 01
        E 0 b1 62 64
        E 0 b1 06 40
        E 1 b1 63 01
        E 0 b1 62 66
        E 0 b1 06 40
        <X 1 0
          8EEQQhJAQiAAXvc=
        >
        e 241 b1 40 00
        e 0 91 33 7f
        e 0 91 2e 7f
        e 767 81 33 00
        e 0 81 2e 00
        e 1 91 2f 7f
        e 0 91 2a 7f
        e 767 81 2f 00
        e 0 81 2a 00
        e 1 91 2e 7f
        e 0 91 33 7f
        e 767 81 2e 00
        e 0 81 33 00
        e 1 91 2a 7f
        e 0 91 2f 7f
        e 671 81 2a 00
        e 0 81 2f 00
        e 1 91 31 7f
        e 95 81 31 00
        e 1 91 27 7f
        e 71 81 27 00
        e 1 91 2a 7f
        e 71 81 2a 00
        e 1 91 2e 7f
        e 47 81 2e 00
        e 1 91 33 7f
        e 71 81 33 00
        e 1 91 2e 7f
        e 71 81 2e 00
        e 1 91 2a 7f
        e 47 81 2a 00
        e 1 91 27 7f
        e 71 81 27 00
        e 1 91 2a 7f
        e 71 81 2a 00
        e 1 91 2e 7f
        e 47 81 2e 00
        e 1 91 33 7f
        e 71 81 33 00
        e 1 91 2e 7f
        e 71 81 2e 00
        e 1 91 2a 7f
        e 47 81 2a 00
        e 1 91 27 7f
        e 71 81 27 00
        e 1 91 2a 7f
        e 71 81 2a 00
        e 1 91 2f 7f
        e 47 81 2f 00
        e 1 91 33 7f
        e 71 81 33 00
        e 1 91 2f 7f
        e 71 81 2f 00
        e 1 91 2a 7f
        e 47 81 2a 00
        e 1 91 27 7f
        e 71 81 27 00
        e 1 91 2a 7f
        e 71 81 2a 00
        e 1 91 2f 7f
        e 47 81 2f 00
        e 1 91 33 7f
        e 71 81 33 00
        e 1 91 2f 7f
        e 71 81 2f 00
        e 1 91 2a 7f
        e 47 81 2a 00
        e 1 91 27 7f
        e 71 81 27 00
        e 1 91 2a 7f
        e 71 81 2a 00
        e 1 91 2e 7f
        e 47 81 2e 00
        e 1 91 33 7f
        e 71 81 33 00
        e 1 91 2e 7f
        e 71 81 2e 00
        e 1 91 2a 7f
        e 47 81 2a 00
        e 1 91 27 7f
        e 71 81 27 00
        e 1 91 2a 7f
        e 71 81 2a 00
        e 1 91 2e 7f
        e 47 81 2e 00
        e 1 91 33 7f
        e 71 81 33 00
        e 1 91 2e 7f
        e 71 81 2e 00
        e 1 91 2a 7f
        e 47 81 2a 00
        e 1 91 27 7f
        e 71 81 27 00
        e 1 91 2a 7f
        e 71 81 2a 00
        e 1 91 2f 7f
        e 47 81 2f 00
        e 1 91 33 7f
        e 71 81 33 00
        e 1 91 2f 7f
        e 71 81 2f 00
        e 1 91 2a 7f
        e 47 81 2a 00
        e 1 91 27 7f
        e 71 81 27 00
        e 1 91 2a 7f
        e 71 81 2a 00
        e 1 91 2f 7f
        e 47 81 2f 00
        e 1 91 33 7f
        e 71 81 33 00
        e 1 91 2f 7f
        e 71 81 2f 00
        e 1 91 2a 7f
        e 47 81 2a 00
        e 1 91 33 7f
        e 0 91 2f 7f
        e 0 91 36 7f
        e 383 81 33 00
        e 0 81 2f 00
        e 0 81 36 00
        e 1 91 31 7f
        e 0 91 38 7f
        e 0 91 35 7f
        e 383 81 31 00
        e 0 81 38 00
        e 0 81 35 00
        e 1 91 37 7f
        e 0 91 3a 7f
        e 0 91 33 7f
        e 383 81 37 00
        e 0 81 3a 00
        e 0 81 33 00
        e 1 91 39 7f
        e 0 91 35 7f
        e 0 91 3c 7f
        e 383 81 39 00
        e 0 81 35 00
        e 0 81 3c 00
        e 1 91 32 7f
        e 0 91 2b 7f
        e 767 81 32 00
        e 0 81 2b 00
        e 1 91 2e 7f
        e 0 91 27 7f
        e 767 81 2e 00
        e 0 81 27 00
        e 1 91 2b 7f
        e 143 81 2b 00
        e 1 91 32 7f
        e 47 81 32 00
        e 1 91 2b 7f
        e 47 81 2b 00
        e 1 91 32 7f
        e 47 81 32 00
        e 1 91 2b 7f
        e 47 81 2b 00
        e 1 91 32 7f
        e 47 81 32 00
        e 1 91 2b 7f
        e 143 81 2b 00
        e 1 91 32 7f
        e 47 81 32 00
        e 1 91 2b 7f
        e 47 81 2b 00
        e 1 91 32 7f
        e 47 81 32 00
        e 1 91 2b 7f
        e 47 81 2b 00
        e 1 91 32 7f
        e 47 81 32 00
        e 1 91 27 7f
        e 143 81 27 00
        e 1 91 2e 7f
        e 47 81 2e 00
        e 1 91 27 7f
        e 47 81 27 00
        e 1 91 2e 7f
        e 47 81 2e 00
        e 1 91 27 7f
        e 47 81 27 00
        e 1 91 2e 7f
        e 47 81 2e 00
        e 1 91 27 7f
        e 143 81 27 00
        e 1 91 2e 7f
        e 47 81 2e 00
        e 1 91 27 7f
        e 47 81 27 00
        e 1 91 2e 7f
        e 47 81 2e 00
        e 1 91 27 7f
        e 47 81 27 00
        e 1 91 2e 7f
        e 47 81 2e 00
        e 1 91 27 7f
        e 0 91 2e 7f
        e 383 81 27 00
        e 0 81 2e 00
        e 1 91 30 7f
        e 0 91 29 7f
        e 383 81 30 00
        e 0 81 29 00
        e 1 91 2e 7f
        e 0 91 27 7f
        e 191 81 2e 00
        e 0 81 27 00
        e 1 91 29 7f
        e 0 91 30 7f
        e 191 81 29 00
        e 0 81 30 00
        e 1 91 2e 7f
        e 0 91 27 7f
        e 95 81 2e 00
        e 0 81 27 00
        e 1 91 29 7f
        e 0 91 30 7f
        e 95 81 29 00
        e 0 81 30 00
        e 1 91 32 7f
        e 0 91 2b 7f
        e 191 81 32 00
        e 0 81 2b 00
        e 1 91 2b 7f
        e 383 81 2b 00
        e 1 91 2b 7f
        e 383 81 2b 00
        e 1 91 27 7f
        e 383 81 27 00
        e 1 91 27 7f
        e 383 81 27 00
        e 1 91 27 7f
        e 383 81 27 00
        e 1 91 29 7f
        e 383 81 29 00
        e 1 91 27 7f
        e 71 81 27 00
        e 1 91 2a 7f
        e 71 81 2a 00
        e 1 91 2e 7f
        e 47 81 2e 00
        e 1 91 33 7f
        e 71 81 33 00
        e 1 91 2e 7f
        e 71 81 2e 00
        e 1 91 2a 7f
        e 47 81 2a 00
        e 1 91 27 7f
        e 71 81 27 00
        e 1 91 2a 7f
        e 71 81 2a 00
        e 1 91 2e 7f
        e 47 81 2e 00
        e 1 91 33 7f
        e 71 81 33 00
        e 1 91 2e 7f
        e 71 81 2e 00
        e 1 91 2a 7f
        e 47 81 2a 00
        e 1 91 27 7f
        e 71 81 27 00
        e 1 91 2a 7f
        e 71 81 2a 00
        e 1 91 2f 7f
        e 47 81 2f 00
        e 1 91 33 7f
        e 71 81 33 00
        e 1 91 2f 7f
        e 71 81 2f 00
        e 1 91 2a 7f
        e 47 81 2a 00
        e 1 91 27 7f
        e 71 81 27 00
        e 1 91 2a 7f
        e 71 81 2a 00
        e 1 91 2f 7f
        e 47 81 2f 00
        e 1 91 33 7f
        e 71 81 33 00
        e 1 91 2f 7f
        e 71 81 2f 00
        e 1 91 2a 7f
        e 47 81 2a 00
        e 1 91 27 7f
        e 71 81 27 00
        e 1 91 2a 7f
        e 71 81 2a 00
        e 1 91 2e 7f
        e 47 81 2e 00
        e 1 91 33 7f
        e 71 81 33 00
        e 1 91 2e 7f
        e 71 81 2e 00
        e 1 91 2a 7f
        e 47 81 2a 00
        e 1 91 27 7f
        e 71 81 27 00
        e 1 91 2a 7f
        e 71 81 2a 00
        e 1 91 2e 7f
        e 47 81 2e 00
        e 1 91 33 7f
        e 71 81 33 00
        e 1 91 2e 7f
        e 71 81 2e 00
        e 1 91 2a 7f
        e 47 81 2a 00
        e 1 91 27 7f
        e 71 81 27 00
        e 1 91 2a 7f
        e 71 81 2a 00
        e 1 91 2f 7f
        e 47 81 2f 00
        e 1 91 33 7f
        e 71 81 33 00
        e 1 91 2f 7f
        e 71 81 2f 00
        e 1 91 2a 7f
        e 47 81 2a 00
        e 1 91 27 7f
        e 71 81 27 00
        e 1 91 2a 7f
        e 71 81 2a 00
        e 1 91 2f 7f
        e 47 81 2f 00
        e 1 91 33 7f
        e 71 81 33 00
        e 1 91 2f 7f
        e 71 81 2f 00
        e 1 91 2a 7f
        e 47 81 2a 00
        e 1 91 27 7f
        e 71 81 27 00
        e 1 91 2a 7f
        e 71 81 2a 00
        e 1 91 2e 7f
        e 47 81 2e 00
        e 1 91 33 7f
        e 71 81 33 00
        e 1 91 2e 7f
        e 71 81 2e 00
        e 1 91 2a 7f
        e 47 81 2a 00
        e 1 91 27 7f
        e 71 81 27 00
        e 1 91 2a 7f
        e 71 81 2a 00
        e 1 91 2e 7f
        e 47 81 2e 00
        e 1 91 33 7f
        e 71 81 33 00
        e 1 91 2e 7f
        e 71 81 2e 00
        e 1 91 2a 7f
        e 47 81 2a 00
        e 1 91 27 7f
        e 71 81 27 00
        e 1 91 2a 7f
        e 71 81 2a 00
        e 1 91 2f 7f
        e 47 81 2f 00
        e 1 91 33 7f
        e 71 81 33 00
        e 1 91 2f 7f
        e 71 81 2f 00
        e 1 91 2a 7f
        e 47 81 2a 00
        e 1 91 27 7f
        e 71 81 27 00
        e 1 91 2a 7f
        e 71 81 2a 00
        e 1 91 2f 7f
        e 47 81 2f 00
        e 1 91 33 7f
        e 71 81 33 00
        e 1 91 2f 7f
        e 71 81 2f 00
        e 1 91 2a 7f
        e 47 81 2a 00
        e 1 91 27 7f
        e 71 81 27 00
        e 1 91 2a 7f
        e 71 81 2a 00
        e 1 91 2e 7f
        e 47 81 2e 00
        e 1 91 33 7f
        e 71 81 33 00
        e 1 91 2e 7f
        e 71 81 2e 00
        e 1 91 2a 7f
        e 47 81 2a 00
        e 1 91 27 7f
        e 71 81 27 00
        e 1 91 2a 7f
        e 71 81 2a 00
        e 1 91 2e 7f
        e 47 81 2e 00
        e 1 91 33 7f
        e 71 81 33 00
        e 1 91 2e 7f
        e 71 81 2e 00
        e 1 91 2a 7f
        e 47 81 2a 00
        e 1 91 27 7f
        e 71 81 27 00
        e 1 91 2a 7f
        e 71 81 2a 00
        e 1 91 2f 7f
        e 47 81 2f 00
        e 1 91 33 7f
        e 71 81 33 00
        e 1 91 2f 7f
        e 71 81 2f 00
        e 1 91 2a 7f
        e 47 81 2a 00
        e 1 91 27 7f
        e 71 81 27 00
        e 1 91 2a 7f
        e 71 81 2a 00
        e 1 91 2f 7f
        e 47 81 2f 00
        e 1 91 33 7f
        e 71 81 33 00
        e 1 91 2f 7f
        e 71 81 2f 00
        e 1 91 2a 7f
        e 47 81 2a 00
        e 1 91 33 7f
        e 0 91 36 7f
        e 0 91 2f 7f
        e 383 81 33 00
        e 0 81 36 00
        e 0 81 2f 00
        e 1 91 31 7f
        e 0 91 35 7f
        e 0 91 38 7f
        e 383 81 31 00
        e 0 81 35 00
        e 0 81 38 00
        e 1 91 3a 7f
        e 0 91 37 7f
        e 0 91 33 7f
        e 383 81 3a 00
        e 0 81 37 00
        e 0 81 33 00
        e 1 91 35 7f
        e 0 91 3c 7f
        e 0 91 39 7f
        e 383 81 35 00
        e 0 81 3c 00
        e 0 81 39 00
        e 1 91 26 7f
        e 47 81 26 00
        e 1 91 30 7f
        e 47 81 30 00
        e 1 91 2d 7f
        e 47 81 2d 00
        e 1 91 29 7f
        e 23 81 29 00
        e 1 91 30 7f
        e 23 81 30 00
        e 1 91 27 7f
        e 47 81 27 00
        e 1 91 2e 7f
        e 47 81 2e 00
        e 1 91 27 7f
        e 47 81 27 00
        e 1 91 2e 7f
        e 47 81 2e 00
        e 1 91 29 7f
        e 47 81 29 00
        e 1 91 30 7f
        e 47 81 30 00
        e 1 91 29 7f
        e 47 81 29 00
        e 1 91 30 7f
        e 47 81 30 00
        e 1 91 2b 7f
        e 47 81 2b 00
        e 1 91 32 7f
        e 47 81 32 00
        e 1 91 2b 7f
        e 47 81 2b 00
        e 1 91 32 7f
        e 47 81 32 00
        e 1 91 29 7f
        e 47 81 29 00
        e 1 91 30 7f
        e 47 81 30 00
        e 1 91 29 7f
        e 47 81 29 00
        e 1 91 30 7f
        e 47 81 30 00
        e 1 91 27 7f
        e 47 81 27 00
        e 1 91 2e 7f
        e 47 81 2e 00
        e 1 91 27 7f
        e 47 81 27 00
        e 1 91 2e 7f
        e 47 81 2e 00
        e 1 91 29 7f
        e 47 81 29 00
        e 1 91 30 7f
        e 47 81 30 00
        e 1 91 29 7f
        e 47 81 29 00
        e 1 91 30 7f
        e 47 81 30 00
        e 1 91 27 7f
        e 47 81 27 00
        e 1 91 2e 7f
        e 47 81 2e 00
        e 1 91 27 7f
        e 47 81 27 00
        e 1 91 2e 7f
        e 47 81 2e 00
        e 1 91 2a 7f
        e 47 81 2a 00
        e 1 91 30 7f
        e 47 81 30 00
        e 1 91 2a 7f
        e 47 81 2a 00
        e 1 91 30 7f
        e 47 81 30 00
        e 1 91 27 7f
        e 47 81 27 00
        e 1 91 2e 7f
        e 47 81 2e 00
        e 1 91 27 7f
        e 47 81 27 00
        e 1 91 2e 7f
        e 47 81 2e 00
        e 1 91 29 7f
        e 47 81 29 00
        e 1 91 30 7f
        e 47 81 30 00
        e 1 91 29 7f
        e 47 81 29 00
        e 1 91 30 7f
        e 47 81 30 00
        e 1 91 2b 7f
        e 47 81 2b 00
        e 1 91 32 7f
        e 47 81 32 00
        e 1 91 2b 7f
        e 47 81 2b 00
        e 1 91 32 7f
        e 47 81 32 00
        e 1 91 29 7f
        e 47 81 29 00
        e 1 91 30 7f
        e 47 81 30 00
        e 1 91 29 7f
        e 47 81 29 00
        e 1 91 30 7f
        e 47 81 30 00
        e 1 91 27 7f
        e 47 81 27 00
        e 1 91 2e 7f
        e 47 81 2e 00
        e 1 91 27 7f
        e 47 81 27 00
        e 1 91 2e 7f
        e 47 81 2e 00
        e 1 91 29 7f
        e 47 81 29 00
        e 1 91 30 7f
        e 47 81 30 00
        e 1 91 29 7f
        e 47 81 29 00
        e 1 91 30 7f
        e 47 81 30 00
        e 1 91 26 7f
        e 47 81 26 00
        e 1 91 2b 7f
        e 47 81 2b 00
        e 1 91 26 7f
        e 47 81 26 00
        e 1 91 2b 7f
        e 47 81 2b 00
        e 1 91 26 7f
        e 47 81 26 00
        e 1 91 2b 7f
        e 47 81 2b 00
        e 1 91 26 7f
        e 47 81 26 00
        e 1 91 2b 7f
        e 47 81 2b 00
        e 1 91 27 7f
        e 47 81 27 00
        e 1 91 2e 7f
        e 47 81 2e 00
        e 1 91 27 7f
        e 47 81 27 00
        e 1 91 2e 7f
        e 47 81 2e 00
        e 1 91 29 7f
        e 47 81 29 00
        e 1 91 30 7f
        e 47 81 30 00
        e 1 91 29 7f
        e 47 81 29 00
        e 1 91 30 7f
        e 47 81 30 00
        e 1 91 2b 7f
        e 47 81 2b 00
        e 1 91 32 7f
        e 47 81 32 00
        e 1 91 2b 7f
        e 47 81 2b 00
        e 1 91 32 7f
        e 47 81 32 00
        e 1 91 29 7f
        e 47 81 29 00
        e 1 91 30 7f
        e 47 81 30 00
        e 1 91 29 7f
        e 47 81 29 00
        e 1 91 30 7f
        e 47 81 30 00
        e 1 91 27 7f
        e 47 81 27 00
        e 1 91 2e 7f
        e 47 81 2e 00
        e 1 91 27 7f
        e 47 81 27 00
        e 1 91 2e 7f
        e 47 81 2e 00
        e 1 91 29 7f
        e 47 81 29 00
        e 1 91 30 7f
        e 47 81 30 00
        e 1 91 29 7f
        e 47 81 29 00
        e 1 91 30 7f
        e 47 81 30 00
        e 1 91 27 7f
        e 47 81 27 00
        e 1 91 2e 7f
        e 47 81 2e 00
        e 1 91 27 7f
        e 47 81 27 00
        e 1 91 2e 7f
        e 47 81 2e 00
        e 1 91 2a 7f
        e 47 81 2a 00
        e 1 91 30 7f
        e 47 81 30 00
        e 1 91 2a 7f
        e 47 81 2a 00
        e 1 91 30 7f
        e 47 81 30 00
        e 1 91 27 7f
        e 47 81 27 00
        e 1 91 2e 7f
        e 47 81 2e 00
        e 1 91 27 7f
        e 47 81 27 00
        e 1 91 2e 7f
        e 47 81 2e 00
        e 1 91 29 7f
        e 47 81 29 00
        e 1 91 30 7f
        e 47 81 30 00
        e 1 91 29 7f
        e 47 81 29 00
        e 1 91 30 7f
        e 47 81 30 00
        e 1 91 2b 7f
        e 47 81 2b 00
        e 1 91 32 7f
        e 47 81 32 00
        e 1 91 2b 7f
        e 47 81 2b 00
        e 1 91 32 7f
        e 47 81 32 00
        e 1 91 29 7f
        e 47 81 29 00
        e 1 91 30 7f
        e 47 81 30 00
        e 1 91 29 7f
        e 47 81 29 00
        e 1 91 30 7f
        e 47 81 30 00
        e 1 91 27 7f
        e 47 81 27 00
        e 1 91 2e 7f
        e 47 81 2e 00
        e 1 91 27 7f
        e 47 81 27 00
        e 1 91 2e 7f
        e 47 81 2e 00
        e 1 91 29 7f
        e 47 81 29 00
        e 1 91 30 7f
        e 47 81 30 00
        e 1 91 29 7f
        e 47 81 29 00
        e 1 91 30 7f
        e 47 81 30 00
        e 1 91 26 7f
        e 47 81 26 00
        e 1 91 2b 7f
        e 47 81 2b 00
        e 1 91 26 7f
        e 47 81 26 00
        e 1 91 2b 7f
        e 47 81 2b 00
        e 1 91 26 7f
        e 47 81 26 00
        e 1 91 2b 7f
        e 47 81 2b 00
        e 1 91 26 7f
        e 47 81 26 00
        e 1 91 2b 7f
        e 47 81 2b 00
        e 1 91 27 7f
        e 47 81 27 00
        e 1 91 2e 7f
        e 47 81 2e 00
        e 1 91 27 7f
        e 47 81 27 00
        e 1 91 2e 7f
        e 47 81 2e 00
        e 1 91 29 7f
        e 47 81 29 00
        e 1 91 30 7f
        e 47 81 30 00
        e 1 91 29 7f
        e 47 81 29 00
        e 1 91 30 7f
        e 47 81 30 00
        e 1 91 2b 7f
        e 47 81 2b 00
        e 1 91 32 7f
        e 47 81 32 00
        e 1 91 2b 7f
        e 47 81 2b 00
        e 1 91 32 7f
        e 47 81 32 00
        e 1 91 29 7f
        e 47 81 29 00
        e 1 91 30 7f
        e 47 81 30 00
        e 1 91 29 7f
        e 47 81 29 00
        e 1 91 30 7f
        e 47 81 30 00
        e 1 91 27 7f
        e 47 81 27 00
        e 1 91 2e 7f
        e 47 81 2e 00
        e 1 91 27 7f
        e 47 81 27 00
        e 1 91 2e 7f
        e 47 81 2e 00
        e 1 91 29 7f
        e 47 81 29 00
        e 1 91 30 7f
        e 47 81 30 00
        e 1 91 29 7f
        e 47 81 29 00
        e 1 91 30 7f
        e 47 81 30 00
        e 1 91 27 7f
        e 47 81 27 00
        e 1 91 2e 7f
        e 47 81 2e 00
        e 1 91 27 7f
        e 47 81 27 00
        e 1 91 2e 7f
        e 47 81 2e 00
        e 1 91 2a 7f
        e 47 81 2a 00
        e 1 91 30 7f
        e 47 81 30 00
        e 1 91 2a 7f
        e 47 81 2a 00
        e 1 91 30 7f
        e 47 81 30 00
        e 1 91 27 7f
        e 47 81 27 00
        e 1 91 2e 7f
        e 47 81 2e 00
        e 1 91 27 7f
        e 47 81 27 00
        e 1 91 2e 7f
        e 47 81 2e 00
        e 1 91 29 7f
        e 47 81 29 00
        e 1 91 30 7f
        e 47 81 30 00
        e 1 91 29 7f
        e 47 81 29 00
        e 1 91 30 7f
        e 47 81 30 00
        e 1 91 2b 7f
        e 47 81 2b 00
        e 1 91 32 7f
        e 47 81 32 00
        e 1 91 2b 7f
        e 47 81 2b 00
        e 1 91 32 7f
        e 47 81 32 00
        e 1 91 29 7f
        e 47 81 29 00
        e 1 91 30 7f
        e 47 81 30 00
        e 1 91 29 7f
        e 47 81 29 00
        e 1 91 30 7f
        e 47 81 30 00
        e 1 91 27 7f
        e 47 81 27 00
        e 1 91 2e 7f
        e 47 81 2e 00
        e 1 91 27 7f
        e 47 81 27 00
        e 1 91 2e 7f
        e 47 81 2e 00
        e 1 91 29 7f
        e 47 81 29 00
        e 1 91 30 7f
        e 47 81 30 00
        e 1 91 29 7f
        e 47 81 29 00
        e 1 91 30 7f
        e 47 81 30 00
        e 1 91 26 7f
        e 47 81 26 00
        e 1 91 2b 7f
        e 47 81 2b 00
        e 1 91 26 7f
        e 47 81 26 00
        e 1 91 2b 7f
        e 47 81 2b 00
        e 1 91 26 7f
        e 47 81 26 00
        e 1 91 2b 7f
        e 47 81 2b 00
        e 1 91 26 7f
        e 47 81 26 00
        e 1 91 2b 7f
        e 47 81 2b 00
        e 1 91 27 7f
        e 47 81 27 00
        e 1 91 2e 7f
        e 47 81 2e 00
        e 1 91 27 7f
        e 47 81 27 00
        e 1 91 2e 7f
        e 47 81 2e 00
        e 1 91 29 7f
        e 47 81 29 00
        e 1 91 30 7f
        e 47 81 30 00
        e 1 91 29 7f
        e 47 81 29 00
        e 1 91 30 7f
        e 47 81 30 00
        e 1 91 2b 7f
        e 47 81 2b 00
        e 1 91 32 7f
        e 47 81 32 00
        e 1 91 2b 7f
        e 47 81 2b 00
        e 1 91 32 7f
        e 47 81 32 00
        e 1 91 29 7f
        e 47 81 29 00
        e 1 91 30 7f
        e 47 81 30 00
        e 1 91 29 7f
        e 47 81 29 00
        e 1 91 30 7f
        e 47 81 30 00
        e 1 91 27 7f
        e 47 81 27 00
        e 1 91 2e 7f
        e 47 81 2e 00
        e 1 91 27 7f
        e 47 81 27 00
        e 1 91 2e 7f
        e 47 81 2e 00
        e 1 91 29 7f
        e 47 81 29 00
        e 1 91 30 7f
        e 47 81 30 00
        e 1 91 29 7f
        e 47 81 29 00
        e 1 91 30 7f
        e 47 81 30 00
        e 1 91 27 7f
        e 47 81 27 00
        e 1 91 2e 7f
        e 47 81 2e 00
        e 1 91 27 7f
        e 47 81 27 00
        e 1 91 2e 7f
        e 47 81 2e 00
        e 1 91 2a 7f
        e 47 81 2a 00
        e 1 91 30 7f
        e 47 81 30 00
        e 1 91 2a 7f
        e 47 81 2a 00
        e 1 91 30 7f
        e 47 81 30 00
        e 1 91 27 7f
        e 47 81 27 00
        e 1 91 2e 7f
        e 47 81 2e 00
        e 1 91 27 7f
        e 47 81 27 00
        e 1 91 2e 7f
        e 47 81 2e 00
        e 1 91 29 7f
        e 47 81 29 00
        e 1 91 30 7f
        e 47 81 30 00
        e 1 91 29 7f
        e 47 81 29 00
        e 1 91 30 7f
        e 47 81 30 00
        e 1 91 2b 7f
        e 47 81 2b 00
        e 1 91 32 7f
        e 47 81 32 00
        e 1 91 2b 7f
        e 47 81 2b 00
        e 1 91 32 7f
        e 47 81 32 00
        e 1 91 29 7f
        e 47 81 29 00
        e 1 91 30 7f
        e 47 81 30 00
        e 1 91 29 7f
        e 47 81 29 00
        e 1 91 30 7f
        e 47 81 30 00
        e 1 91 27 7f
        e 47 81 27 00
        e 1 91 2e 7f
        e 47 81 2e 00
        e 1 91 27 7f
        e 47 81 27 00
        e 1 91 2e 7f
        e 47 81 2e 00
        e 1 91 29 7f
        e 47 81 29 00
        e 1 91 30 7f
        e 47 81 30 00
        e 1 91 29 7f
        e 47 81 29 00
        e 1 91 30 7f
        e 47 81 30 00
        e 1 91 26 7f
        e 47 81 26 00
        e 1 91 2b 7f
        e 47 81 2b 00
        e 1 91 26 7f
        e 47 81 26 00
        e 1 91 2b 7f
        e 47 81 2b 00
        e 1 91 26 7f
        e 47 81 26 00
        e 1 91 2b 7f
        e 47 81 2b 00
        e 1 91 26 7f
        e 47 81 26 00
        e 1 91 2b 7f
        e 47 81 2b 00
        E 1 b0 7b 00
        CCINTERP 32
        CHASE_CC_TAKEOFFS 1
        GUID {4621745C-6631-3A42-968F-1C3FF0204C0E}
        IGNTEMPO 0 120 4 4
        SRCCOLOR 195
        VELLANE -1 100 0
        CFGEDITVIEW 0 0.022143 67 12 0 -1 0 0 0 0.5
        KEYSNAP 0
        TRACKSEL 0
        EVTFILTER 0 -1 -1 -1 -1 0 0 0 0 -1 -1 -1 -1 0 -1 0 -1 -1
        CFGEDIT 1 1 0 1 0 0 1 1 1 1 1 0.25 543 172 1920 943 0 0 0 0 0 0 0 0 0 0 0 0 1 64
      >
    >
  >
  <TRACK {01C72B38-5C58-2342-8722-F0F526A656D7}
    NAME drums
    PEAKCOL 16576
    BEAT -1
    AUTOMODE 0
    VOLPAN 2.35226041904999 0 -1 -1 1
    MUTESOLO 0 0 0
    IPHASE 0
    PLAYOFFS 0 1
    ISBUS 0 0
    BUSCOMP 0 0 0 0 0
    SHOWINMIX 1 0.6667 0.5 1 0.5 -1 -1 -1
    FREEMODE 0
    SEL 1
    REC 0 0 1 0 0 0 0
    VU 2
    TRACKHEIGHT 0 0 0 0 0 0
    INQ 0 0 0 0.5 100 0 0 100
    NCHAN 2
    FX 1
    TRACKID {01C72B38-5C58-2342-8722-F0F526A656D7}
    PERF 0
    MIDIOUT -1
    MAINSEND 1 0
    <FXCHAIN
      WNDRECT 133 414 1013 581
      SHOW 0
      LASTSEL 0
      DOCKED 0
      BYPASS 0 0 0
      <AU "AUi: sforzando (Plogue Art et Technologie)" "Plogue Art et Technologie: sforzando" "" 1635085685 1347176273 1347178311
        6QMAAAAAAAAAAAAAAgAAAAEAAAAAAAAAAgAAAAAAAACDGgAAPD94bWwgdmVyc2lvbj0iMS4wIiBlbmNvZGluZz0iVVRGLTgiPz4KPCFET0NUWVBFIHBsaXN0IFBVQkxJ
        QyAiLS8vQXBwbGUvL0RURCBQTElTVCAxLjAvL0VOIiAiaHR0cDovL3d3dy5hcHBsZS5jb20vRFREcy9Qcm9wZXJ0eUxpc3QtMS4wLmR0ZCI+CjxwbGlzdCB2ZXJzaW9u
        PSIxLjAiPgo8ZGljdD4KCTxrZXk+QXJpYURhdGE8L2tleT4KCTxkYXRhPgoJUTBWSFVONEVBQUI0bklWVVRYT2JNQkM5KzFkb2RIZEFCRHZ4RERoRDRyVER3VzJtdUdk
        bUViTERWRWd1U0V6Njc3dUEKCXNUa2tJNStrdDAvNzhmRGI2T21qbHFRVFRWdHBGVk4yNTFQeXRGMUVTVk5CQnAyWWhUYnJEU1huUnBlV20zU0hnTTlDCgl1bDBRL0VX
        Wk1LWlNwNWI4dFNBcjh3K2psTFNtRVZBakhOUDdnSklhUHJJQlNhVFVmUDhjMHhWRGVKL3UwcC9XN0hVcAoJaGxkZ2phN0JZTTFNYWhOVGZ3NUowUWtaMDBwaGJsc0xa
        U2lSVlNmR3g4aHNPV2J0KzJ3NVNFQ0lrU1VSZlZOM0xaY1gKCStBWGZpU2FtYTN4d2tyb0FlYkJxYUJNQmI1b0lpNU9xSERBRk5hWnZqNEdYdlN4WHF6elRWcFhmdERK
        NXgvS2d5UHNJCglDeDQ5My9mejdKRDgyQ1cvZHBRVW9QNmttQ0JFbU41MHhETi9CNlg2T1pZNDcxbExsR3NkVW1KdVhaeUx2QUYxRWhlSwoJd1VzN0JPclpVWE9EWDJn
        Mjl3T0MxZ3pJT01Vd3lSNHFOVTNTZ2JTanpONW5ESFpsK0Y4d0FpZmozc2tJbll5Vms3RjIKCU1oNmNqRWNuWStOa01OOU5jYXZLM0xJeXQ2N01MU3o3VXRrM2FLQytW
        R0tmL0ZFaXIzZkU1Zng2UEFwdTVoYTVHbS8wCglTbElYbFZCYzNGd3diSXY1TmduSGJjS3YzcDBLZmYrZFRsbUJHM1IzZWxzRXcvMzFlbStGeEQ1RWVZQmlkQXJtaUx4
        cAoJZDIwWC93RUQ2azRNCgk8L2RhdGE+Cgk8a2V5PmRhdGE8L2tleT4KCTxkYXRhPgoJQUFBQUFBQUFBQUFBQUFJQUFBQUFBQUFBQUFBQUFBQUJBQUFBQUFBQUFBSUFB
        QUFBQUFBQUF3QUFBQUFBQUFBRUFBQUEKCUFBQUFBQVVBQUFBQUFBQUFCZ0FBQUFBQUFBQUhBQUFBQUFBQUFBZ0FBQUFBQUFBQUNRQUFBQUFBQUFBS0FBQUFBQUFBCglB
        QXNBQUFBQUFBQUFEQUFBQUFBQUFBQU5BQUFBQUFBQUFBNEFBQUFBQUFBQUR3QUFBQUFBQUFBUUFBQUFBQUFBQUJFQQoJQUFBQUFBQUFFZ0FBQUFBQUFBQVRBQUFBQUFB
        QUFCUUFBQUFBQUFBQUZRQUFBQUFBQUFBV0FBQUFBQUFBQUJjQUFBQUEKCUFBQUFHQUFBQUFBQUFBQVpBQUFBQUFBQUFCb0FBQUFBQUFBQUd3QUFBQUFBQUFBY0FBQUFB
        QUFBQUIwQUFBQUFBQUFBCglIZ0FBQUFBQUFBQWZBQUFBQUFBQUFDQUFBQUFBQUFBQUlRQUFBQUFBQUFBaUFBQUFBQUFBQUNNQUFBQUFBQUFBSkFBQQoJQUFBQUFBQWxB
        QUFBQUFBQUFDWUFBQUFBQUFBQUp3QUFBQUFBQUFBb0FBQUFBQUFBQUNrQUFBQUFBQUFBS2dBQUFBQUEKCUFBQXJBQUFBQUFBQUFDd0FBQUFBQUFBQUxRQUFBQUFBQUFB
        dUFBQUFBQUFBQUM4QUFBQUFBQUFBTUFBQUFBQUFBQUF4CglBQUFBQUFBQUFESUFBQUFBQUFBQU13QUFBQUFBQUFBMEFBQUFBQUFBQURVQUFBQUFBQUFBTmdBQUFBQUFB
        QUEzQUFBQQoJQUFBQUFEZ0FBQUFBQUFBQU9RQUFBQUFBQUFBNkFBQUFBQUFBQURzQUFBQUFBQUFBUEFBQUFBQUFBQUE5QUFBQUFBQUEKCUFENEFBQUFBQUFBQVB3QUFB
        QUFBQUFCQUFBQUFBQUFBQUVFQUFBQUFBQUFBUWdBQUFBQUFBQUJEQUFBQUFBQUFBRVFBCglBQUFBQUFBQVJRQUFBQUFBQUFCR0FBQUFBQUFBQUVjQUFBQUFBQUFBU0FB
        QUFBQUFBQUJKQUFBQUFBQUFBRW9BQUFBQQoJQUFBQVN3QUFBQUFBQUFCTUFBQUFBQUFBQUUwQUFBQUFBQUFBVGdBQUFBQUFBQUJQQUFBQUFBQUFBRkFBQUFBQUFBQUEK
        CVVRQUFBQUFBQUFCU0FBQUFBQUFBQUZNQUFBQUFBQUFBVkFBQUFBQUFBQUJWQUFBQUFBQUFBRllBQUFBQUFBQUFWd0FBCglBQUFBQUFCWUFBQUFBQUFBQUZrQUFBQUFB
        QUFBV2dBQUFBQUFBQUJiQUFBQUFBQUFBRndBQUFBQUFBQUFYUUFBQUFBQQoJQUFCZUFBQUFBQUFBQUY4QUFBQUFBQUFBWUFBQUFBQUFBQUJoQUFBQUFBQUFBR0lBQUFB
        QUFBQUFZd0FBQUFBQUFBQmsKCUFBQUFBQUFBQUdVQUFBQUFBQUFBWmdBQUFBQUFBQUJuQUFBQUFBQUFBR2dBQUFBQUFBQUFhUUFBQUFBQUFBQnFBQUFBCglBQUFBQUdz
        QUFBQUFBQUFBYkFBQUFBQUFBQUJ0QUFBQUFBQUFBRzRBQUFBQUFBQUFid0FBQUFBQUFBQndBQUFBQUFBQQoJQUhFQUFBQUFBQUFBY2dBQUFBQUFBQUJ6QUFBQUFBQUFB
        SFFBQUFBQUFBQUFkUUFBQUFBQUFBQjJBQUFBQUFBQUFIY0EKCUFBQUFBQUFBZUFBQUFBQUFBQUI1QUFBQUFBQUFBSG9BQUFBQUFBQUFld0FBQUFBQUFBQjhBQUFBQUFB
        QUFIMEFBQUFBCglBQUFBZmdBQUFBQUFBQUIvQUFBQUFBQUFBSUFBQUFBQUFBQUFnUUFBQUFBQUFBQ0NBQUFBQUFBQUFJTUFBQUFBQUFBQQoJaEFBQUFBQUFBQUNGQUFB
        QUFBQUFBSVlBQUFBQUFBQUFod0FBQUFBQUFBQ0lBQUFBQUFBQUFJa0FBQUFBQUFBQWlnQUEKCUFBQUFBQUNMQUFBQUFBQUFBSXdBQUFBQUFBQUFqUUFBQUFBQUFBQ09B
        QUFBQUFBQUFJOEFBQUFBQUFBQWtBQUFBQUFBCglBQUNSQUFBQUFBQUFBSklBQUFBQUFBQUFrd0FBQUFBQUFBQ1VBQUFBQUFBQUFKVUFBQUFBQUFBQWxnQUFBQUFBQUFD
        WAoJQUFBQUFBQUFBSmdBQUFBQUFBQUFtUUFBQUFBQUFBQ2FBQUFBQUFBQUFKc0FBQUFBQUFBQW5BQUFBQUFBQUFDZEFBQUEKCUFBQUFBSjRBQUFBQUFBQUFud0FBQUFB
        QUFBQ2dBQUFBQUFBQUFLRUFBQUFBQUFBQW9nQUFBQUFBQUFDakFBQUFBQUFBCglBS1FBQUFBQUFBQUFwUUFBQUFBQUFBQ21BQUFBQUFBQUFLY0FBQUFBQUFBQXFBQUFB
        QUFBQUFDcEFBQUFBQUFBQUtvQQoJQUFBQUFBQUFxd0FBQUFBQUFBQ3NBQUFBQUFBQUFLMEFBQUFBQUFBQXJnQUFBQUFBQUFDdkFBQUFBQUFBQUxBQUFBQUEKCUFBQUFz
        UUFBQUFBQUFBQ3lBQUFBQUFBQUFMTUFBQUFBQUFBQXRBQUFBQUFBQUFDMUFBQUFBQUFBQUxZQUFBQUFBQUFBCgl0d0FBQUFBQUFBQzRBQUFBQUFBQUFMa0FBQUFBQUFB
        QXVnQUFBQUFBQUFDN0FBQUFBQUFBQUx3QUFBQUFBQUFBdlFBQQoJQUFBQUFBQytBQUFBQUFBQUFMOEFBQUFBQUFBQXdBQUFBQUFBQUFEQkFBQUFBQUFBQU1JQUFBQUFB
        QUFBd3dBQUFBQUEKCUFBREVBQUFBQUFBQUFNVUFBQUFBQUFBQXhnQUFBQUFBQUFESEFBQUFBQUFBQU1nQUFBQUFBQUFBeVFBQUFBQUFBQURLCglBQUFBQUFBQUFNc0FB
        QUFBQUFBQXpBQUFBQUFBQUFETkFBQUFBQUFBQU00QUFBQUFBQUFBendBQUFBQUFBQURRQUFBQQoJQUFBQUFORUFBQUFBQUFBQTBnQUFBQUFBQUFEVEFBQUFBQUFBQU5R
        QUFBQUFBQUFBMVFBQUFBQUFBQURXQUFBQUFBQUEKCUFOY0FBQUFBQUFBQTJBQUFBQUFBQUFEWkFBQUFBQUFBQU5vQUFBQUFBQUFBMndBQUFBQUFBQURjQUFBQUFBQUFB
        TjBBCglBQUFBQUFBQTNnQUFBQUFBQUFEZkFBQUFBQUFBQU9BQUFBQUFBQUFBNFFBQUFBQUFBQURpQUFBQUFBQUFBT01BQUFBQQoJQUFBQTVBQUFBQUFBQUFEbEFBQUFB
        QUFBQU9ZQUFBQUFBQUFBNXdBQUFBQUFBQURvQUFBQUFBQUFBT2tBQUFBQUFBQUEKCTZnQUFBQUFBQUFEckFBQUFBQUFBQU93QUFBQUFBQUFBN1FBQUFBQUFBQUR1QUFB
        QUFBQUFBTzhBQUFBQUFBQUE4QUFBCglBQUFBQUFEeEFBQUFBQUFBQVBJQUFBQUFBQUFBOHdBQUFBQUFBQUQwQUFBQUFBQUFBUFVBQUFBQUFBQUE5Z0FBQUFBQQoJQUFE
        M0FBQUFBQUFBQVBnQUFBQUFBQUFBK1FBQUFBQUFBQUQ2QUFBQUFBQUFBUHNBQUFBQUFBQUEvQUFBQUFBQUFBRDkKCUFBQUFBQUFBQVA0QUFBQUFBQUFBL3dBQUFBQUFB
        QUVBQUFBQUFBQUFBUUVBQUFBQUFBQUJBZ0FBQUFBQUFBRURBQUFBCglBQUFBQVFRQUFBQUFBQUFCQlFBQUFBQUFBQUVHQUFBQUFBQUFBUWNBQUFBQUFBQUJDQUFBQUFB
        QUFBRUpBQUFBQUFBQQoJQVFvQUFBQUFBQUFCQ3dBQUFBQUFBQUVNQUFBQUFBQUFBUTBBQUFBQUFBQUJEZ0FBQUFBQUFBRVBBQUFBQUFBQUFSQUEKCUFBQUFBQUFCRVFB
        QUFBQUFBQUVTQUFBQUFBQUFBUk1BQUFBQUFBQUJGQUFBQUFBQUFBRVZBQUFBQUFBQUFSWUFBQUFBCglBQUFCRndBQUFBQUFBQUVZQUFBQUFBQUFBUmtBQUFBQUFBQUJH
        Z0FBQUFBQUFBRWJBQUFBQUFBQUFSd0FBQUFBQUFBQgoJSFFBQUFBQUFBQUVlQUFBQUFBQUFBUjhBQUFBQUFBQUJJQUFBQUFBQUFBRWhBQUFBQUFBQUFTSUFBQUFBQUFB
        Qkl3QUEKCUFBQUFBQUVrQUFBQUFBQUFBU1VBQUFBQUFBQUJKZ0FBQUFBQUFBRW5BQUFBQUFBQUFTZ0FBQUFBQUFBQktRQUFBQUFBCglBQUVxQUFBQUFBQUFBU3NBQUFB
        QUFBQUJMQUFBQUFBQUFBRXRBQUFBQUFBQUFTNEFBQUFBQUFBQkx3QUFBQUFBQUFFdwoJQUFBQUFBQUFBVEVBQUFBQUFBQUJNZ0FBQUFBQUFBRXpBQUFBQUFBQUFUUUFB
        QUFBQUFBQk5RQUFBQUFBQUFFMkFBQUEKCUFBQUFBVGNBQUFBQUFBQUJPQUFBQUFBQUFBRTVBQUFBQUFBQUFUb0FBQUFBQUFBQk93QUFBQUFBQUFFOEFBQUFBQUFBCglB
        VDBBQUFBQUFBQUJQZ0FBQUFBQUFBRS9BQUFBQUFBQUFVQUFBQUFBQUFBQlFRQUFBQUFBQUFGQ0FBQUFBQUFBQVVNQQoJQUFBQUFBQUJSQUFBQUFBQUFBRkZBQUFBQUFB
        QUFVWUFBQUFBQUFBQlJ3QUFBQUFBQUFGSUFBQUFBQUFBQVVrQUFBQUEKCUFBQUJTZ0FBQUFBQUFBRkxBQUFBQUFBQUFVd0FBQUFBQUFBQlRRQUFBQUFBQUFGT0FBQUFB
        QUFBQVU4QUFBQUFBQUFCCglVQUFBQUFBQUFBRlJBQUFBQUFBQUFWSUFBQUFBQUFBQlV3QUFBQUFBQUFGVUFBQUFBQUFBQVZVQUFBQUFBQUFCVmdBQQoJQUFBQUFBRlhB
        QUFBQUFBQUFWZ0FBQUFBQUFBQldRQUFBQUFBQUFGYUFBQUFBQUFBQVZzQUFBQUFBQUFCWEFBQUFBQUEKCUFBRmRBQUFBQUFBQUFWNEFBQUFBQUFBQlh3QUFBQUFBQUFG
        Z0FBQUFBQUFBQVdFQUFBQUFBQUFCWWdBQUFBQUFBQUZqCglBQUFBQUFBQUFXUUFBQUFBQUFBQlpRQUFBQUFBQUFGbUFBQUFBQUFBQVdjQUFBQUFBQUFCYUFBQUFBQUFB
        QUZwQUFBQQoJQUFBQUFXb0FBQUFBQUFBQmF3QUFBQUFBQUFGc0FBQUFBQUFBQVcwQUFBQUFBQUFCYmdBQUFBQUFBQUZ2QUFBQUFBQUEKCUFYQUFBQUFBQUFBQmNRQUFB
        QUFBQUFGeUFBQUFBQUFBQVhNQUFBQUFBQUFCZEFBQUFBQUFBQUYxQUFBQUFBQUFBWFlBCglBQUFBQUFBQmR3QUFBQUFBQUFGNEFBQUFBQUFBQVhrQUFBQUFBQUFCZWdB
        QUFBQUFBQUY3QUFBQUFBQUFBWHdBQUFBQQoJQUFBQmZRQUFBQUFBQUFGK0FBQUFBQUFBQVg4QUFBQUFBQUFCZ0FBQUFBQUFBQUdCQUFBQUFBQUFBWUlBQUFBQUFBQUIK
        CWd3QUFBQUFBQUFHRUFBQUFBQUFBQVlVQUFBQUFBQUFCaGdBQUFBQUFBQUdIQUFBQUFBQUFBWWdBQUFBQUFBQUJpUUFBCglBQUFBQUFHS0FBQUFBQUFBQVlzQUFBQUFB
        QUFCakFBQUFBQUFBQUdOQUFBQUFBQUFBWTRBQUFBQUFBQUJqd0FBQUFBQQoJQUFHUUFBQUFBQUFBQVpFQUFBQUFBQUFCa2dBQUFBQUFBQUdUQUFBQUFBQUFBWlFBQUFB
        QUFBQUJsUUFBQUFBQUFBR1cKCUFBQUFBQUFBQVpjQUFBQUFBQUFCbUFBQUFBQUFBQUdaQUFBQUFBQUFBWm9BQUFBQUFBQUJtd0FBQUFBQUFBR2NBQUFBCglBQUFBQVow
        QUFBQUFBQUFCbmdBQUFBQUFBQUdmQUFBQUFBQUFBYUFBQUFBQUFBQUJvUUFBQUFBQUFBR2lBQUFBQUFBQQoJQWFNQUFBQUFBQUFCcEFBQUFBQUFBQUdsQUFBQUFBQUFB
        YVlBQUFBQUFBQUJwd0FBQUFBQUFBR29BQUFBQUFBQUFha0EKCUFBQUFBQUFCcWdBQUFBQUFBQUdyQUFBQUFBQUFBYXdBQUFBQUFBQUJyUUFBQUFBQUFBR3VBQUFBQUFB
        QUFhOEFBQUFBCglBQUFCc0FBQUFBQUFBQUd4QUFBQUFBQUFBYklBQUFBQUFBQUJzd0FBQUFBQUFBRzBBQUFBQUFBQUFiVUFBQUFBQUFBQgoJdGdBQUFBQUFBQUczQUFB
        QUFBQUFBYmdBQUFBQUFBQUJ1UUFBQUFBQUFBRzZBQUFBQUFBQUFic0FBQUFBQUFBQnZBQUEKCUFBQUFBQUc5QUFBQUFBQUFBYjRBQUFBQUFBQUJ2d0FBQUFBQUFBSEFB
        QUFBQUFBQUFjRUFBQUFBQUFBQndnQUFBQUFBCglBQUhEQUFBQUFBQUFBY1FBQUFBQUFBQUJ4UUFBQUFBQUFBSEdBQUFBQUFBQUFjY0FBQUFBQUFBQnlBQUFBQUFBQUFI
        SgoJQUFBQUFBQUFBY29BQUFBQUFBQUJ5d0FBQUFBQUFBSE1BQUFBQUFBQUFjMEFBQUFBQUFBQnpnQUFBQUFBQUFIUEFBQUEKCUFBQUFBZEFBQUFBQUFBQUIwUUFBQUFB
        QUFBSFNBQUFBQUFBQUFkTUFBQUFBQUFBQjFBQUFBQUFBQUFIVkFBQUFBQUFBCglBZFlBQUFBQUFBQUIxd0FBQUFBQUFBSFlBQUFBQUFBQUFka0FBQUFBQUFBQjJnQUFB
        QUFBQUFIYkFBQUFBQUFBQWR3QQoJQUFBQUFBQUIzUUFBQUFBQUFBSGVBQUFBQUFBQUFkOEFBQUFBQUFBQjRBQUFBQUFBQUFIaEFBQUFBQUFBQWVJQUFBQUEKCUFBQUI0
        d0FBQUFBQUFBSGtBQUFBQUFBQUFlVUFBQUFBQUFBQjVnQUFBQUFBQUFIbkFBQUFBQUFBQWVnQUFBQUFBQUFCCgk2UUFBQUFBQUFBSHFBQUFBQUFBQUFlc0FBQUFBQUFB
        QjdBQUFBQUFBQUFIdEFBQUFBQUFBQWU0QUFBQUFBQUFCN3dBQQoJQUFBQUFBSHdBQUFBQUFBQUFmRUFBQUFBQUFBQjhnQUFBQUFBQUFIekFBQUFBQUFBQWZRQUFBQUFB
        QUFCOVFBQUFBQUEKCUFBSDJBQUFBQUFBQUFmY0FBQUFBQUFBQitBQUFBQUFBQUFINUFBQUFBQUFBQWZvQUFBQUFBQUFCK3dBQUFBQUFBQUg4CglBQUFBQUFBQUFmMEFB
        QUFBQUFBQi9nQUFBQUFBQUFIL0FBQUFBQT09Cgk8L2RhdGE+Cgk8a2V5Pm1hbnVmYWN0dXJlcjwva2V5PgoJPGludGVnZXI+MTM0NzE3ODMxMTwvaW50ZWdlcj4KCTxr
        ZXk+bmFtZTwva2V5PgoJPHN0cmluZz5VbnRpdGxlZDwvc3RyaW5nPgoJPGtleT5zdWJ0eXBlPC9rZXk+Cgk8aW50ZWdlcj4xMzQ3MTc2MjczPC9pbnRlZ2VyPgoJPGtl
        eT50eXBlPC9rZXk+Cgk8aW50ZWdlcj4xNjM1MDg1Njg1PC9pbnRlZ2VyPgoJPGtleT52ZXJzaW9uPC9rZXk+Cgk8aW50ZWdlcj4wPC9pbnRlZ2VyPgo8L2RpY3Q+Cjwv
        cGxpc3Q+CgEAAAAAAAAAAAA=
      >
      FLOATPOS 0 0 0 0
      FXID {AD4E6226-EDF8-9A4F-8B5D-C7BF91858563}
      WAK 0 0
    >
    <ITEM
      POSITION 0
      SNAPOFFS 0
      LENGTH 94.61448
      LOOP 1
      ALLTAKES 0
      FADEIN 1 0 0 1 0 0 0
      FADEOUT 1 0 0 1 0 0 0
      MUTE 0 0
      BEAT 1
      SEL 0
      IGUID {3A335766-BEAD-8B49-A24E-D79E3C51E1ED}
      IID 47
      NAME the_centennial_festival_for_magical.mid
      VOLPAN 1 0 1 -1
      SOFFS 1.6 4
      PLAYRATE 1 1 0 -1 0 0.0025
      CHANMODE 0
      GUID {85CD8D67-B1AA-4847-88C4-AD86593A0022}
      <SOURCE MIDI
        HASDATA 1 96 QN
        CCINTERP 32
        POOLEDEVTS {CD005600-4FF9-AA40-8350-2B67B4CDD19A}
        <X 0 0
          /yEBAA==
        >
        <X 0 0 0 0 4 "STANDARD 1"
          /wRTVEFOREFSRCAx
        >
        e 384 b9 40 00
        e 3072 99 24 7f
        e 95 89 24 00
        e 1 99 24 7f
        e 95 89 24 00
        e 1 99 24 7f
        e 95 89 24 00
        e 1 99 24 7f
        e 95 89 24 00
        e 1 99 24 7f
        e 95 89 24 00
        e 1 99 24 7f
        e 95 89 24 00
        e 1 99 24 7f
        e 95 89 24 00
        e 1 99 24 7f
        e 95 89 24 00
        e 1 99 24 7f
        e 95 89 24 00
        e 1 99 24 7f
        e 95 89 24 00
        e 1 99 24 7f
        e 95 89 24 00
        e 1 99 24 7f
        e 95 89 24 00
        e 1 99 24 7f
        e 95 89 24 00
        e 1 99 24 7f
        e 95 89 24 00
        e 1 99 24 7f
        e 95 89 24 00
        e 1 99 24 7f
        e 95 89 24 00
        e 1 99 24 7f
        e 95 89 24 00
        e 1 99 24 7f
        e 95 89 24 00
        e 1 99 24 7f
        e 95 89 24 00
        e 1 99 24 7f
        e 95 89 24 00
        e 1 99 24 7f
        e 95 89 24 00
        e 1 99 24 7f
        e 95 89 24 00
        e 1 99 24 7f
        e 95 89 24 00
        e 1 99 24 7f
        e 95 89 24 00
        e 1 99 24 7f
        e 95 89 24 00
        e 1 99 24 7f
        e 95 89 24 00
        e 1 99 24 7f
        e 95 89 24 00
        e 1 99 24 7f
        e 95 89 24 00
        e 1 99 24 7f
        e 95 89 24 00
        e 1 99 24 7f
        e 95 89 24 00
        e 1 99 24 7f
        e 95 89 24 00
        e 1 99 24 7f
        e 95 89 24 00
        e 1 99 24 7f
        e 383 89 24 00
        e 1 99 24 7f
        e 383 89 24 00
        e 1 99 24 7f
        e 383 89 24 00
        e 1 99 24 7f
        e 383 89 24 00
        e 1 99 24 7f
        e 191 89 24 00
        e 1 99 24 7f
        e 191 89 24 00
        e 1 99 24 7f
        e 191 89 24 00
        e 1 99 24 7f
        e 191 89 24 00
        e 1 99 24 7f
        e 191 89 24 00
        e 1 99 24 7f
        e 191 89 24 00
        e 1 99 24 7f
        e 191 89 24 00
        e 1 99 24 7f
        e 191 89 24 00
        e 1 99 24 7f
        e 47 89 24 00
        e 1 99 26 7f
        e 47 89 26 00
        e 1 99 24 7f
        e 47 89 24 00
        e 1 99 26 7f
        e 47 89 26 00
        e 1 99 24 7f
        e 47 89 24 00
        e 1 99 26 7f
        e 47 89 26 00
        e 1 99 24 7f
        e 47 89 24 00
        e 1 99 26 7f
        e 47 89 26 00
        e 1 99 24 7f
        e 47 89 24 00
        e 1 99 26 7f
        e 47 89 26 00
        e 1 99 24 7f
        e 47 89 24 00
        e 1 99 26 7f
        e 47 89 26 00
        e 1 99 24 7f
        e 47 89 24 00
        e 1 99 26 7f
        e 47 89 26 00
        e 1 99 24 7f
        e 47 89 24 00
        e 1 99 26 7f
        e 47 89 26 00
        e 1 99 24 7f
        e 47 89 24 00
        e 1 99 26 7f
        e 47 89 26 00
        e 1 99 24 7f
        e 47 89 24 00
        e 1 99 26 7f
        e 47 89 26 00
        e 1 99 24 7f
        e 47 89 24 00
        e 1 99 26 7f
        e 47 89 26 00
        e 1 99 24 7f
        e 47 89 24 00
        e 1 99 26 7f
        e 47 89 26 00
        e 1 99 24 7f
        e 47 89 24 00
        e 1 99 26 7f
        e 47 89 26 00
        e 1 99 24 7f
        e 47 89 24 00
        e 1 99 26 7f
        e 47 89 26 00
        e 1 99 24 7f
        e 47 89 24 00
        e 1 99 26 7f
        e 47 89 26 00
        e 1 99 24 7f
        e 47 89 24 00
        e 1 99 26 7f
        e 47 89 26 00
        e 1 99 28 7f
        e 71 89 28 00
        e 1 99 2f 7f
        e 23 89 2f 00
        e 1 99 2d 7f
        e 95 89 2d 00
        e 1 99 24 7f
        e 23 89 24 00
        e 1 99 26 7f
        e 47 89 26 00
        e 1 99 26 7f
        e 23 89 26 00
        e 1 99 26 7f
        e 95 89 26 00
        e 1 99 28 7f
        e 0 99 24 7f
        e 47 89 28 00
        e 0 89 24 00
        e 25 99 24 7f
        e 23 89 24 00
        e 1 99 24 7f
        e 23 89 24 00
        e 1 99 24 7f
        e 23 89 24 00
        e 1 99 24 7f
        e 47 89 24 00
        e 1 99 26 7f
        e 47 89 26 00
        e 1 99 24 7f
        e 23 89 24 00
        e 1 99 24 7f
        e 23 89 24 00
        e 1 99 28 7f
        e 23 89 28 00
        e 1 99 28 7f
        e 23 89 28 00
        e 1 99 28 7f
        e 23 89 28 00
        e 1 99 28 7f
        e 23 89 28 00
        e 1 99 24 7f
        e 0 99 28 7f
        e 191 89 24 00
        e 0 89 28 00
        e 1 99 28 7f
        e 0 99 24 7f
        e 191 89 28 00
        e 0 89 24 00
        e 1 99 24 7f
        e 0 99 28 7f
        e 95 89 24 00
        e 0 89 28 00
        e 1 99 28 7f
        e 0 99 24 7f
        e 95 89 28 00
        e 0 89 24 00
        e 1 99 24 7f
        e 95 89 24 00
        e 1 99 28 7f
        e 23 89 28 00
        e 1 99 28 7f
        e 23 89 28 00
        e 1 99 28 7f
        e 23 89 28 00
        e 1 99 28 7f
        e 23 89 28 00
        e 1537 99 24 7f
        e 383 89 24 00
        e 1 99 24 7f
        e 47 89 24 00
        e 1 99 24 7f
        e 23 89 24 00
        e 1 99 24 7f
        e 23 89 24 00
        e 97 99 26 7f
        e 23 89 26 00
        e 1 99 28 7f
        e 23 89 28 00
        e 1 99 28 7f
        e 23 89 28 00
        e 1 99 24 7f
        e 23 89 24 00
        e 1 99 24 7f
        e 23 89 24 00
        e 1 99 28 7f
        e 23 89 28 00
        e 1 99 28 7f
        e 23 89 28 00
        e 1 99 28 7f
        e 23 89 28 00
        e 1 99 24 7f
        e 95 89 24 00
        e 1 99 24 7f
        e 95 89 24 00
        e 1 99 24 7f
        e 95 89 24 00
        e 1 99 24 7f
        e 95 89 24 00
        e 1 99 24 7f
        e 95 89 24 00
        e 1 99 24 7f
        e 95 89 24 00
        e 1 99 24 7f
        e 95 89 24 00
        e 1 99 24 7f
        e 95 89 24 00
        e 1 99 24 7f
        e 95 89 24 00
        e 1 99 24 7f
        e 95 89 24 00
        e 1 99 24 7f
        e 95 89 24 00
        e 1 99 24 7f
        e 95 89 24 00
        e 1 99 24 7f
        e 95 89 24 00
        e 1 99 24 7f
        e 95 89 24 00
        e 1 99 24 7f
        e 95 89 24 00
        e 1 99 24 7f
        e 95 89 24 00
        e 1 99 24 7f
        e 95 89 24 00
        e 1 99 24 7f
        e 95 89 24 00
        e 1 99 24 7f
        e 95 89 24 00
        e 1 99 24 7f
        e 95 89 24 00
        e 1 99 24 7f
        e 95 89 24 00
        e 1 99 24 7f
        e 95 89 24 00
        e 1 99 24 7f
        e 95 89 24 00
        e 1 99 24 7f
        e 95 89 24 00
        e 1 99 24 7f
        e 95 89 24 00
        e 1 99 24 7f
        e 95 89 24 00
        e 1 99 24 7f
        e 95 89 24 00
        e 1 99 24 7f
        e 95 89 24 00
        e 1 99 24 7f
        e 95 89 24 00
        e 1 99 24 7f
        e 95 89 24 00
        e 1 99 24 7f
        e 95 89 24 00
        e 1 99 24 7f
        e 95 89 24 00
        e 1 99 24 7f
        e 95 89 24 00
        e 1 99 24 7f
        e 95 89 24 00
        e 1 99 24 7f
        e 95 89 24 00
        e 1 99 24 7f
        e 95 89 24 00
        e 1 99 24 7f
        e 95 89 24 00
        e 1 99 24 7f
        e 95 89 24 00
        e 1 99 24 7f
        e 95 89 24 00
        e 1 99 24 7f
        e 95 89 24 00
        e 1 99 24 7f
        e 95 89 24 00
        e 1 99 24 7f
        e 95 89 24 00
        e 1 99 24 7f
        e 95 89 24 00
        e 1 99 24 7f
        e 95 89 24 00
        e 1 99 24 7f
        e 95 89 24 00
        e 1 99 24 7f
        e 95 89 24 00
        e 1 99 24 7f
        e 95 89 24 00
        e 1 99 24 7f
        e 95 89 24 00
        e 1 99 24 7f
        e 95 89 24 00
        e 1 99 24 7f
        e 95 89 24 00
        e 1 99 24 7f
        e 95 89 24 00
        e 1 99 24 7f
        e 95 89 24 00
        e 1 99 24 7f
        e 95 89 24 00
        e 1 99 24 7f
        e 95 89 24 00
        e 1 99 24 7f
        e 95 89 24 00
        e 1 99 24 7f
        e 95 89 24 00
        e 1 99 24 7f
        e 95 89 24 00
        e 1 99 24 7f
        e 95 89 24 00
        e 1 99 24 7f
        e 95 89 24 00
        e 1 99 24 7f
        e 95 89 24 00
        e 1 99 24 7f
        e 95 89 24 00
        e 1 99 24 7f
        e 95 89 24 00
        e 1 99 24 7f
        e 95 89 24 00
        e 1 99 24 7f
        e 95 89 24 00
        e 1 99 24 7f
        e 383 89 24 00
        e 1 99 24 7f
        e 383 89 24 00
        e 1 99 24 7f
        e 383 89 24 00
        e 1 99 24 7f
        e 383 89 24 00
        E 1 b0 7b 00
        CCINTERP 32
        CHASE_CC_TAKEOFFS 1
        GUID {8AB6430D-A212-A647-B683-8A82B0C20FF5}
        IGNTEMPO 0 120 4 4
        SRCCOLOR 80
        VELLANE -1 100 0
        CFGEDITVIEW 0 0.012316 80 12 0 -1 0 0 0 0.5
        KEYSNAP 0
        TRACKSEL 0
        EVTFILTER 0 -1 -1 -1 -1 0 0 0 0 -1 -1 -1 -1 0 -1 0 -1 -1
        CFGEDIT 1 1 0 1 0 0 1 1 1 1 1 0.25 543 172 1920 943 0 0 0 0 0 0 0 0 0 0 0 0 1 64
      >
    >
    <ITEM
      POSITION 94.61448
      SNAPOFFS 0
      LENGTH 51.24507
      LOOP 1
      ALLTAKES 0
      FADEIN 1 0 0 1 0 0 0
      FADEOUT 1 0 0 1 0 0 0
      MUTE 0 0
      BEAT 1
      SEL 0
      IGUID {6E210F6C-052C-734D-9C7E-2500F6F1448D}
      IID 29
      NAME the_centennial_festival_for_magical.mid
      VOLPAN 1 0 1 -1
      SOFFS 97.01448 238
      PLAYRATE 1 1 0 -1 0 0.0025
      CHANMODE 0
      GUID {97A07544-8C50-7646-B6AB-F94CAC0BC211}
      <SOURCE MIDI
        HASDATA 1 96 QN
        CCINTERP 32
        POOLEDEVTS {660EB442-7D6D-4C4D-A085-D911F10BB46D}
        <X 0 0
          /yEBAA==
        >
        <X 0 0 0 0 4 "STANDARD 1"
          /wRTVEFOREFSRCAx
        >
        e 384 b9 40 00
        e 3072 99 24 7f
        e 95 89 24 00
        e 1 99 24 7f
        e 95 89 24 00
        e 1 99 24 7f
        e 95 89 24 00
        e 1 99 24 7f
        e 95 89 24 00
        e 1 99 24 7f
        e 95 89 24 00
        e 1 99 24 7f
        e 95 89 24 00
        e 1 99 24 7f
        e 95 89 24 00
        e 1 99 24 7f
        e 95 89 24 00
        e 1 99 24 7f
        e 95 89 24 00
        e 1 99 24 7f
        e 95 89 24 00
        e 1 99 24 7f
        e 95 89 24 00
        e 1 99 24 7f
        e 95 89 24 00
        e 1 99 24 7f
        e 95 89 24 00
        e 1 99 24 7f
        e 95 89 24 00
        e 1 99 24 7f
        e 95 89 24 00
        e 1 99 24 7f
        e 95 89 24 00
        e 1 99 24 7f
        e 95 89 24 00
        e 1 99 24 7f
        e 95 89 24 00
        e 1 99 24 7f
        e 95 89 24 00
        e 1 99 24 7f
        e 95 89 24 00
        e 1 99 24 7f
        e 95 89 24 00
        e 1 99 24 7f
        e 95 89 24 00
        e 1 99 24 7f
        e 95 89 24 00
        e 1 99 24 7f
        e 95 89 24 00
        e 1 99 24 7f
        e 95 89 24 00
        e 1 99 24 7f
        e 95 89 24 00
        e 1 99 24 7f
        e 95 89 24 00
        e 1 99 24 7f
        e 95 89 24 00
        e 1 99 24 7f
        e 95 89 24 00
        e 1 99 24 7f
        e 95 89 24 00
        e 1 99 24 7f
        e 95 89 24 00
        e 1 99 24 7f
        e 95 89 24 00
        e 1 99 24 7f
        e 383 89 24 00
        e 1 99 24 7f
        e 383 89 24 00
        e 1 99 24 7f
        e 383 89 24 00
        e 1 99 24 7f
        e 383 89 24 00
        e 1 99 24 7f
        e 191 89 24 00
        e 1 99 24 7f
        e 191 89 24 00
        e 1 99 24 7f
        e 191 89 24 00
        e 1 99 24 7f
        e 191 89 24 00
        e 1 99 24 7f
        e 191 89 24 00
        e 1 99 24 7f
        e 191 89 24 00
        e 1 99 24 7f
        e 191 89 24 00
        e 1 99 24 7f
        e 191 89 24 00
        e 1 99 24 7f
        e 47 89 24 00
        e 1 99 26 7f
        e 47 89 26 00
        e 1 99 24 7f
        e 47 89 24 00
        e 1 99 26 7f
        e 47 89 26 00
        e 1 99 24 7f
        e 47 89 24 00
        e 1 99 26 7f
        e 47 89 26 00
        e 1 99 24 7f
        e 47 89 24 00
        e 1 99 26 7f
        e 47 89 26 00
        e 1 99 24 7f
        e 47 89 24 00
        e 1 99 26 7f
        e 47 89 26 00
        e 1 99 24 7f
        e 47 89 24 00
        e 1 99 26 7f
        e 47 89 26 00
        e 1 99 24 7f
        e 47 89 24 00
        e 1 99 26 7f
        e 47 89 26 00
        e 1 99 24 7f
        e 47 89 24 00
        e 1 99 26 7f
        e 47 89 26 00
        e 1 99 24 7f
        e 47 89 24 00
        e 1 99 26 7f
        e 47 89 26 00
        e 1 99 24 7f
        e 47 89 24 00
        e 1 99 26 7f
        e 47 89 26 00
        e 1 99 24 7f
        e 47 89 24 00
        e 1 99 26 7f
        e 47 89 26 00
        e 1 99 24 7f
        e 47 89 24 00
        e 1 99 26 7f
        e 47 89 26 00
        e 1 99 24 7f
        e 47 89 24 00
        e 1 99 26 7f
        e 47 89 26 00
        e 1 99 24 7f
        e 47 89 24 00
        e 1 99 26 7f
        e 47 89 26 00
        e 1 99 24 7f
        e 47 89 24 00
        e 1 99 26 7f
        e 47 89 26 00
        e 1 99 24 7f
        e 47 89 24 00
        e 1 99 26 7f
        e 47 89 26 00
        e 1 99 28 7f
        e 71 89 28 00
        e 1 99 2f 7f
        e 23 89 2f 00
        e 1 99 2d 7f
        e 95 89 2d 00
        e 1 99 24 7f
        e 23 89 24 00
        e 1 99 26 7f
        e 47 89 26 00
        e 1 99 26 7f
        e 23 89 26 00
        e 1 99 26 7f
        e 95 89 26 00
        e 1 99 28 7f
        e 0 99 24 7f
        e 47 89 28 00
        e 0 89 24 00
        e 25 99 24 7f
        e 23 89 24 00
        e 1 99 24 7f
        e 23 89 24 00
        e 1 99 24 7f
        e 23 89 24 00
        e 1 99 24 7f
        e 47 89 24 00
        e 1 99 26 7f
        e 47 89 26 00
        e 1 99 24 7f
        e 23 89 24 00
        e 1 99 24 7f
        e 23 89 24 00
        e 1 99 28 7f
        e 23 89 28 00
        e 1 99 28 7f
        e 23 89 28 00
        e 1 99 28 7f
        e 23 89 28 00
        e 1 99 28 7f
        e 23 89 28 00
        e 1 99 24 7f
        e 0 99 28 7f
        e 191 89 24 00
        e 0 89 28 00
        e 1 99 28 7f
        e 0 99 24 7f
        e 191 89 28 00
        e 0 89 24 00
        e 1 99 24 7f
        e 0 99 28 7f
        e 95 89 24 00
        e 0 89 28 00
        e 1 99 28 7f
        e 0 99 24 7f
        e 95 89 28 00
        e 0 89 24 00
        e 1 99 24 7f
        e 95 89 24 00
        e 1 99 28 7f
        e 23 89 28 00
        e 1 99 28 7f
        e 23 89 28 00
        e 1 99 28 7f
        e 23 89 28 00
        e 1 99 28 7f
        e 23 89 28 00
        e 1537 99 24 7f
        e 383 89 24 00
        e 1 99 24 7f
        e 47 89 24 00
        e 1 99 24 7f
        e 23 89 24 00
        e 1 99 24 7f
        e 23 89 24 00
        e 97 99 26 7f
        e 23 89 26 00
        e 1 99 28 7f
        e 23 89 28 00
        e 1 99 28 7f
        e 23 89 28 00
        e 1 99 24 7f
        e 23 89 24 00
        e 1 99 24 7f
        e 23 89 24 00
        e 1 99 28 7f
        e 23 89 28 00
        e 1 99 28 7f
        e 23 89 28 00
        e 1 99 28 7f
        e 23 89 28 00
        e 1 99 24 7f
        e 95 89 24 00
        e 1 99 24 7f
        e 95 89 24 00
        e 1 99 24 7f
        e 95 89 24 00
        e 1 99 24 7f
        e 95 89 24 00
        e 1 99 24 7f
        e 95 89 24 00
        e 1 99 24 7f
        e 95 89 24 00
        e 1 99 24 7f
        e 95 89 24 00
        e 1 99 24 7f
        e 95 89 24 00
        e 1 99 24 7f
        e 95 89 24 00
        e 1 99 24 7f
        e 95 89 24 00
        e 1 99 24 7f
        e 95 89 24 00
        e 1 99 24 7f
        e 95 89 24 00
        e 1 99 24 7f
        e 95 89 24 00
        e 1 99 24 7f
        e 95 89 24 00
        e 1 99 24 7f
        e 95 89 24 00
        e 1 99 24 7f
        e 95 89 24 00
        e 1 99 24 7f
        e 95 89 24 00
        e 1 99 24 7f
        e 95 89 24 00
        e 1 99 24 7f
        e 95 89 24 00
        e 1 99 24 7f
        e 95 89 24 00
        e 1 99 24 7f
        e 95 89 24 00
        e 1 99 24 7f
        e 95 89 24 00
        e 1 99 24 7f
        e 95 89 24 00
        e 1 99 24 7f
        e 95 89 24 00
        e 1 99 24 7f
        e 95 89 24 00
        e 1 99 24 7f
        e 95 89 24 00
        e 1 99 24 7f
        e 95 89 24 00
        e 1 99 24 7f
        e 95 89 24 00
        e 1 99 24 7f
        e 95 89 24 00
        e 1 99 24 7f
        e 95 89 24 00
        e 1 99 24 7f
        e 95 89 24 00
        e 1 99 24 7f
        e 95 89 24 00
        e 1 99 24 7f
        e 95 89 24 00
        e 1 99 24 7f
        e 95 89 24 00
        e 1 99 24 7f
        e 95 89 24 00
        e 1 99 24 7f
        e 95 89 24 00
        e 1 99 24 7f
        e 95 89 24 00
        e 1 99 24 7f
        e 95 89 24 00
        e 1 99 24 7f
        e 95 89 24 00
        e 1 99 24 7f
        e 95 89 24 00
        e 1 99 24 7f
        e 95 89 24 00
        e 1 99 24 7f
        e 95 89 24 00
        e 1 99 24 7f
        e 95 89 24 00
        e 1 99 24 7f
        e 95 89 24 00
        e 1 99 24 7f
        e 95 89 24 00
        e 1 99 24 7f
        e 95 89 24 00
        e 1 99 24 7f
        e 95 89 24 00
        e 1 99 24 7f
        e 95 89 24 00
        e 1 99 24 7f
        e 95 89 24 00
        e 1 99 24 7f
        e 95 89 24 00
        e 1 99 24 7f
        e 95 89 24 00
        e 1 99 24 7f
        e 95 89 24 00
        e 1 99 24 7f
        e 95 89 24 00
        e 1 99 24 7f
        e 95 89 24 00
        e 1 99 24 7f
        e 95 89 24 00
        e 1 99 24 7f
        e 95 89 24 00
        e 1 99 24 7f
        e 95 89 24 00
        e 1 99 24 7f
        e 95 89 24 00
        e 1 99 24 7f
        e 95 89 24 00
        e 1 99 24 7f
        e 95 89 24 00
        e 1 99 24 7f
        e 95 89 24 00
        e 1 99 24 7f
        e 95 89 24 00
        e 1 99 24 7f
        e 95 89 24 00
        e 1 99 24 7f
        e 95 89 24 00
        e 1 99 24 7f
        e 383 89 24 00
        e 1 99 24 7f
        e 383 89 24 00
        e 1 99 24 7f
        e 383 89 24 00
        e 1 99 24 7f
        e 383 89 24 00
        e 97 99 24 7f
        e 23 89 24 00
        e 1 99 28 7f
        e 23 89 28 00
        e 1 99 24 7f
        e 23 89 24 00
        e 1 99 26 7f
        e 23 89 26 00
        e 1 99 24 7f
        e 47 89 24 00
        e 1 99 28 7f
        e 47 89 28 00
        e 1 99 24 7f
        e 23 89 24 00
        e 1 99 24 7f
        e 23 89 24 00
        e 1 99 28 7f
        e 47 89 28 00
        e 1 99 24 7f
        e 47 89 24 00
        e 1 99 28 7f
        e 47 89 28 00
        e 1 99 24 7f
        e 47 89 24 00
        e 1 99 28 7f
        e 47 89 28 00
        e 1 99 24 7f
        e 47 89 24 00
        e 1 99 28 7f
        e 47 89 28 00
        e 1 99 24 7f
        e 23 89 24 00
        e 1 99 24 7f
        e 23 89 24 00
        e 1 99 28 7f
        e 47 89 28 00
        e 1 99 24 7f
        e 47 89 24 00
        e 1 99 28 7f
        e 47 89 28 00
        e 1 99 24 7f
        e 47 89 24 00
        e 1 99 28 7f
        e 47 89 28 00
        e 1 99 24 7f
        e 47 89 24 00
        e 1 99 28 7f
        e 47 89 28 00
        e 1 99 24 7f
        e 23 89 24 00
        e 1 99 24 7f
        e 23 89 24 00
        e 1 99 28 7f
        e 47 89 28 00
        e 1 99 24 7f
        e 47 89 24 00
        e 1 99 28 7f
        e 47 89 28 00
        e 1 99 24 7f
        e 47 89 24 00
        e 1 99 28 7f
        e 47 89 28 00
        e 1 99 24 7f
        e 47 89 24 00
        e 1 99 28 7f
        e 47 89 28 00
        e 1 99 24 7f
        e 23 89 24 00
        e 1 99 24 7f
        e 23 89 24 00
        e 1 99 28 7f
        e 47 89 28 00
        e 1 99 24 7f
        e 47 89 24 00
        e 1 99 28 7f
        e 47 89 28 00
        e 1 99 24 7f
        e 47 89 24 00
        e 1 99 28 7f
        e 47 89 28 00
        e 1 99 24 7f
        e 47 89 24 00
        e 1 99 28 7f
        e 47 89 28 00
        e 1 99 24 7f
        e 23 89 24 00
        e 1 99 24 7f
        e 23 89 24 00
        e 1 99 28 7f
        e 47 89 28 00
        e 1 99 24 7f
        e 47 89 24 00
        e 1 99 28 7f
        e 47 89 28 00
        e 1 99 24 7f
        e 47 89 24 00
        e 1 99 28 7f
        e 47 89 28 00
        e 1 99 24 7f
        e 47 89 24 00
        e 1 99 28 7f
        e 47 89 28 00
        e 1 99 24 7f
        e 23 89 24 00
        e 1 99 24 7f
        e 23 89 24 00
        e 1 99 28 7f
        e 47 89 28 00
        e 1 99 24 7f
        e 47 89 24 00
        e 1 99 28 7f
        e 47 89 28 00
        e 1 99 24 7f
        e 47 89 24 00
        e 1 99 28 7f
        e 47 89 28 00
        e 1 99 24 7f
        e 47 89 24 00
        e 1 99 28 7f
        e 47 89 28 00
        e 1 99 24 7f
        e 23 89 24 00
        e 1 99 24 7f
        e 23 89 24 00
        e 1 99 28 7f
        e 47 89 28 00
        e 1 99 24 7f
        e 47 89 24 00
        e 1 99 28 7f
        e 47 89 28 00
        e 1 99 24 7f
        e 47 89 24 00
        e 1 99 28 7f
        e 47 89 28 00
        e 1 99 24 7f
        e 47 89 24 00
        e 1 99 28 7f
        e 47 89 28 00
        e 1 99 24 7f
        e 23 89 24 00
        e 1 99 24 7f
        e 23 89 24 00
        e 1 99 28 7f
        e 47 89 28 00
        e 1 99 24 7f
        e 47 89 24 00
        e 1 99 28 7f
        e 47 89 28 00
        e 1 99 28 7f
        e 0 99 24 7f
        e 23 89 28 00
        e 1 99 28 7f
        e 23 89 24 00
        e 0 89 28 00
        e 1 99 28 7f
        e 47 89 28 00
        e 1 99 24 7f
        e 47 89 24 00
        e 1 99 28 7f
        e 47 89 28 00
        e 1 99 24 7f
        e 23 89 24 00
        e 1 99 24 7f
        e 23 89 24 00
        e 1 99 28 7f
        e 47 89 28 00
        e 1 99 24 7f
        e 47 89 24 00
        e 1 99 28 7f
        e 47 89 28 00
        e 1 99 24 7f
        e 47 89 24 00
        e 1 99 28 7f
        e 47 89 28 00
        e 1 99 24 7f
        e 47 89 24 00
        e 1 99 28 7f
        e 47 89 28 00
        e 1 99 24 7f
        e 23 89 24 00
        e 1 99 24 7f
        e 23 89 24 00
        e 1 99 28 7f
        e 47 89 28 00
        e 1 99 24 7f
        e 47 89 24 00
        e 1 99 28 7f
        e 47 89 28 00
        e 1 99 24 7f
        e 47 89 24 00
        e 1 99 28 7f
        e 47 89 28 00
        e 1 99 24 7f
        e 47 89 24 00
        e 1 99 28 7f
        e 47 89 28 00
        e 1 99 24 7f
        e 23 89 24 00
        e 1 99 24 7f
        e 23 89 24 00
        e 1 99 28 7f
        e 47 89 28 00
        e 1 99 24 7f
        e 47 89 24 00
        e 1 99 28 7f
        e 47 89 28 00
        e 1 99 24 7f
        e 47 89 24 00
        e 1 99 28 7f
        e 47 89 28 00
        e 1 99 24 7f
        e 47 89 24 00
        e 1 99 28 7f
        e 47 89 28 00
        e 1 99 24 7f
        e 23 89 24 00
        e 1 99 24 7f
        e 23 89 24 00
        e 1 99 28 7f
        e 47 89 28 00
        e 1 99 24 7f
        e 47 89 24 00
        e 1 99 28 7f
        e 47 89 28 00
        e 1 99 24 7f
        e 47 89 24 00
        e 1 99 28 7f
        e 47 89 28 00
        e 1 99 24 7f
        e 47 89 24 00
        e 1 99 28 7f
        e 47 89 28 00
        e 1 99 24 7f
        e 23 89 24 00
        e 1 99 24 7f
        e 23 89 24 00
        e 1 99 28 7f
        e 47 89 28 00
        e 1 99 24 7f
        e 47 89 24 00
        e 1 99 28 7f
        e 47 89 28 00
        e 1 99 24 7f
        e 47 89 24 00
        e 1 99 28 7f
        e 47 89 28 00
        e 1 99 24 7f
        e 47 89 24 00
        e 1 99 28 7f
        e 47 89 28 00
        e 1 99 24 7f
        e 23 89 24 00
        e 1 99 24 7f
        e 23 89 24 00
        e 1 99 28 7f
        e 47 89 28 00
        e 1 99 24 7f
        e 47 89 24 00
        e 1 99 28 7f
        e 47 89 28 00
        e 1 99 24 7f
        e 47 89 24 00
        e 1 99 28 7f
        e 47 89 28 00
        e 1 99 24 7f
        e 47 89 24 00
        e 1 99 28 7f
        e 47 89 28 00
        e 1 99 24 7f
        e 23 89 24 00
        e 1 99 24 7f
        e 23 89 24 00
        e 1 99 28 7f
        e 47 89 28 00
        e 1 99 24 7f
        e 47 89 24 00
        e 1 99 28 7f
        e 47 89 28 00
        e 1 99 24 7f
        e 47 89 24 00
        e 1 99 28 7f
        e 47 89 28 00
        e 1 99 24 7f
        e 47 89 24 00
        e 1 99 28 7f
        e 47 89 28 00
        e 1 99 24 7f
        e 23 89 24 00
        e 1 99 24 7f
        e 23 89 24 00
        e 1 99 28 7f
        e 47 89 28 00
        e 1 99 24 7f
        e 47 89 24 00
        e 1 99 28 7f
        e 47 89 28 00
        e 1 99 28 7f
        e 0 99 24 7f
        e 23 89 28 00
        e 1 99 28 7f
        e 23 89 24 00
        e 0 89 28 00
        e 1 99 28 7f
        e 47 89 28 00
        e 1 99 24 7f
        e 47 89 24 00
        e 1 99 28 7f
        e 47 89 28 00
        e 1 99 24 7f
        e 23 89 24 00
        e 1 99 24 7f
        e 23 89 24 00
        e 1 99 28 7f
        e 47 89 28 00
        e 1 99 24 7f
        e 47 89 24 00
        e 1 99 28 7f
        e 47 89 28 00
        e 1 99 24 7f
        e 47 89 24 00
        e 1 99 28 7f
        e 47 89 28 00
        e 1 99 24 7f
        e 47 89 24 00
        e 1 99 28 7f
        e 47 89 28 00
        e 1 99 24 7f
        e 23 89 24 00
        e 1 99 24 7f
        e 23 89 24 00
        e 1 99 28 7f
        e 47 89 28 00
        e 1 99 24 7f
        e 47 89 24 00
        e 1 99 28 7f
        e 47 89 28 00
        e 1 99 24 7f
        e 47 89 24 00
        e 1 99 28 7f
        e 47 89 28 00
        e 1 99 24 7f
        e 47 89 24 00
        e 1 99 28 7f
        e 47 89 28 00
        e 1 99 24 7f
        e 23 89 24 00
        e 1 99 24 7f
        e 23 89 24 00
        e 1 99 28 7f
        e 47 89 28 00
        e 1 99 24 7f
        e 47 89 24 00
        e 1 99 28 7f
        e 47 89 28 00
        e 1 99 24 7f
        e 47 89 24 00
        e 1 99 28 7f
        e 47 89 28 00
        e 1 99 24 7f
        e 47 89 24 00
        e 1 99 28 7f
        e 47 89 28 00
        e 1 99 24 7f
        e 23 89 24 00
        e 1 99 24 7f
        e 23 89 24 00
        e 1 99 28 7f
        e 47 89 28 00
        e 1 99 24 7f
        e 47 89 24 00
        e 1 99 28 7f
        e 47 89 28 00
        e 1 99 24 7f
        e 47 89 24 00
        e 1 99 28 7f
        e 47 89 28 00
        e 1 99 24 7f
        e 47 89 24 00
        e 1 99 28 7f
        e 47 89 28 00
        e 1 99 24 7f
        e 23 89 24 00
        e 1 99 24 7f
        e 23 89 24 00
        e 1 99 28 7f
        e 47 89 28 00
        e 1 99 24 7f
        e 47 89 24 00
        e 1 99 28 7f
        e 47 89 28 00
        e 1 99 24 7f
        e 47 89 24 00
        e 1 99 28 7f
        e 47 89 28 00
        e 1 99 24 7f
        e 47 89 24 00
        e 1 99 28 7f
        e 47 89 28 00
        e 1 99 24 7f
        e 23 89 24 00
        e 1 99 24 7f
        e 23 89 24 00
        e 1 99 28 7f
        e 47 89 28 00
        e 1 99 24 7f
        e 47 89 24 00
        e 1 99 28 7f
        e 47 89 28 00
        e 1 99 24 7f
        e 47 89 24 00
        e 1 99 28 7f
        e 47 89 28 00
        e 1 99 24 7f
        e 47 89 24 00
        e 1 99 28 7f
        e 47 89 28 00
        e 1 99 24 7f
        e 23 89 24 00
        e 1 99 24 7f
        e 23 89 24 00
        e 1 99 28 7f
        e 47 89 28 00
        e 1 99 24 7f
        e 47 89 24 00
        e 1 99 28 7f
        e 47 89 28 00
        e 1 99 24 7f
        e 47 89 24 00
        e 1 99 28 7f
        e 47 89 28 00
        e 1 99 24 7f
        e 47 89 24 00
        e 1 99 28 7f
        e 47 89 28 00
        e 1 99 24 7f
        e 23 89 24 00
        e 1 99 24 7f
        e 23 89 24 00
        e 1 99 28 7f
        e 47 89 28 00
        e 1 99 24 7f
        e 47 89 24 00
        e 1 99 28 7f
        e 47 89 28 00
        e 1 99 28 7f
        e 0 99 24 7f
        e 23 89 28 00
        e 1 99 28 7f
        e 23 89 24 00
        e 0 89 28 00
        e 1 99 28 7f
        e 47 89 28 00
        e 1 99 24 7f
        e 47 89 24 00
        e 1 99 28 7f
        e 47 89 28 00
        e 1 99 24 7f
        e 23 89 24 00
        e 1 99 24 7f
        e 23 89 24 00
        e 1 99 28 7f
        e 47 89 28 00
        e 1 99 24 7f
        e 47 89 24 00
        e 1 99 28 7f
        e 47 89 28 00
        e 1 99 24 7f
        e 47 89 24 00
        e 1 99 28 7f
        e 47 89 28 00
        e 1 99 24 7f
        e 47 89 24 00
        e 1 99 28 7f
        e 47 89 28 00
        e 1 99 24 7f
        e 23 89 24 00
        e 1 99 24 7f
        e 23 89 24 00
        e 1 99 28 7f
        e 47 89 28 00
        e 1 99 24 7f
        e 47 89 24 00
        e 1 99 28 7f
        e 47 89 28 00
        e 1 99 24 7f
        e 47 89 24 00
        e 1 99 28 7f
        e 47 89 28 00
        e 1 99 24 7f
        e 47 89 24 00
        e 1 99 28 7f
        e 47 89 28 00
        e 1 99 24 7f
        e 23 89 24 00
        e 1 99 24 7f
        e 23 89 24 00
        e 1 99 28 7f
        e 47 89 28 00
        e 1 99 24 7f
        e 47 89 24 00
        e 1 99 28 7f
        e 47 89 28 00
        e 1 99 24 7f
        e 47 89 24 00
        e 1 99 28 7f
        e 47 89 28 00
        e 1 99 24 7f
        e 47 89 24 00
        e 1 99 28 7f
        e 47 89 28 00
        e 1 99 24 7f
        e 23 89 24 00
        e 1 99 24 7f
        e 23 89 24 00
        e 1 99 28 7f
        e 47 89 28 00
        e 1 99 24 7f
        e 47 89 24 00
        e 1 99 28 7f
        e 47 89 28 00
        e 1 99 24 7f
        e 47 89 24 00
        e 1 99 28 7f
        e 47 89 28 00
        e 1 99 24 7f
        e 47 89 24 00
        e 1 99 28 7f
        e 47 89 28 00
        e 1 99 24 7f
        e 23 89 24 00
        e 1 99 24 7f
        e 23 89 24 00
        e 1 99 28 7f
        e 47 89 28 00
        e 1 99 24 7f
        e 47 89 24 00
        e 1 99 28 7f
        e 47 89 28 00
        e 1 99 24 7f
        e 47 89 24 00
        e 1 99 28 7f
        e 47 89 28 00
        e 1 99 24 7f
        e 47 89 24 00
        e 1 99 28 7f
        e 47 89 28 00
        e 1 99 24 7f
        e 23 89 24 00
        e 1 99 24 7f
        e 23 89 24 00
        e 1 99 28 7f
        e 47 89 28 00
        e 1 99 24 7f
        e 47 89 24 00
        e 1 99 28 7f
        e 47 89 28 00
        e 1 99 24 7f
        e 47 89 24 00
        e 1 99 28 7f
        e 47 89 28 00
        e 1 99 24 7f
        e 47 89 24 00
        e 1 99 28 7f
        e 47 89 28 00
        e 1 99 24 7f
        e 23 89 24 00
        e 1 99 24 7f
        e 23 89 24 00
        e 1 99 28 7f
        e 47 89 28 00
        e 1 99 24 7f
        e 47 89 24 00
        e 1 99 28 7f
        e 47 89 28 00
        e 1 99 24 7f
        e 47 89 24 00
        e 1 99 28 7f
        e 47 89 28 00
        e 1 99 24 7f
        e 47 89 24 00
        e 1 99 28 7f
        e 47 89 28 00
        e 1 99 24 7f
        e 23 89 24 00
        e 1 99 24 7f
        e 23 89 24 00
        e 1 99 28 7f
        e 47 89 28 00
        e 1 99 24 7f
        e 47 89 24 00
        e 1 99 28 7f
        e 23 89 28 00
        e 1 99 28 7f
        e 23 89 28 00
        e 1 99 24 7f
        e 23 89 24 00
        e 1 99 28 7f
        e 23 89 28 00
        e 1 99 28 7f
        e 23 89 28 00
        e 1 99 28 7f
        e 23 89 28 00
        E 1 b0 7b 00
        CCINTERP 32
        CHASE_CC_TAKEOFFS 1
        GUID {F79D592E-CDE0-0A4C-8DC3-0697A9007438}
        IGNTEMPO 0 120 4 4
        SRCCOLOR 133
        VELLANE -1 100 0
        CFGEDITVIEW 0 0.012316 80 12 0 -1 0 0 0 0.5
        KEYSNAP 0
        TRACKSEL 0
        EVTFILTER 0 -1 -1 -1 -1 0 0 0 0 -1 -1 -1 -1 0 -1 0 -1 -1
        CFGEDIT 1 1 0 1 0 0 1 1 1 1 1 0.25 543 172 1920 943 0 0 0 0 0 0 0 0 0 0 0 0 1 64
      >
    >
  >
  <TRACK {D78B6255-22C0-3E4C-8B60-5549CC85DB92}
    NAME drums
    PEAKCOL 16576
    BEAT -1
    AUTOMODE 0
    VOLPAN 2.35226041904999 0 -1 -1 1
    MUTESOLO 0 0 0
    IPHASE 0
    PLAYOFFS 0 1
    ISBUS 0 0
    BUSCOMP 0 0 0 0 0
    SHOWINMIX 1 0.6667 0.5 1 0.5 -1 -1 -1
    FREEMODE 0
    SEL 0
    REC 0 0 1 0 0 0 0
    VU 2
    TRACKHEIGHT 0 0 0 0 0 0
    INQ 0 0 0 0.5 100 0 0 100
    NCHAN 2
    FX 1
    TRACKID {D78B6255-22C0-3E4C-8B60-5549CC85DB92}
    PERF 0
    MIDIOUT -1
    MAINSEND 1 0
    <FXCHAIN
      WNDRECT 133 414 1013 581
      SHOW 0
      LASTSEL 0
      DOCKED 0
      BYPASS 0 0 0
      <AU "AUi: sforzando (Plogue Art et Technologie)" "Plogue Art et Technologie: sforzando" "" 1635085685 1347176273 1347178311
        6QMAAAAAAAAAAAAAAgAAAAEAAAAAAAAAAgAAAAAAAACDGgAAPD94bWwgdmVyc2lvbj0iMS4wIiBlbmNvZGluZz0iVVRGLTgiPz4KPCFET0NUWVBFIHBsaXN0IFBVQkxJ
        QyAiLS8vQXBwbGUvL0RURCBQTElTVCAxLjAvL0VOIiAiaHR0cDovL3d3dy5hcHBsZS5jb20vRFREcy9Qcm9wZXJ0eUxpc3QtMS4wLmR0ZCI+CjxwbGlzdCB2ZXJzaW9u
        PSIxLjAiPgo8ZGljdD4KCTxrZXk+QXJpYURhdGE8L2tleT4KCTxkYXRhPgoJUTBWSFVONEVBQUI0bklWVVRYT2JNQkM5KzFkb2RIZEFCRWc4QTg2UU9PMXdjSnNwN3Bs
        WmhPd3dGWklMZ2tuL2ZSY3cKCU5vZGs1TlBxN2R1dmgzZWpwNDlha2w0MGJhVlZUTm1kUzhuVGRoVWxUUVVaOUdMaDJvUWJTczZOTGp0dTBoMENMdlBwCglka1h3RjJY
        Q21FcWRXdkszQTFtWmYraWxwRFdOZ0JyaG1ONTdsTlR3a1kxSUlxWG0rK2VZQmd6aGZicExmM1ptcjBzeAoJUmtGbmRBMEdhMlpTbTVpNlMwaUtYc2lZVmdwemQ3VlFo
        aEpaOVdJS1JtYkxNV3Y0TUJnZ0FTRkcxa1FNVGQyMVhGN2cKCUY0d1RUVXhERERoSlhZQThkR3BzRXdGbm5naUxrNm9jTVFVMXBtK1BucE85cklNZ3ozU255bTlhbWJ4
        bnVWZmtnNGQ1CglqNDdydW5sMlNIN3NrbDg3U2dwUWYxSk00Q05NYnpxaXpkOUJxV0dPTmM1NzFoTGxDbjFLeksyTGM1RTNvRTdpUWpINAoJYUVkSHZUQTFOL2lGRm5N
        SENIWm1SS1lweGtuMlVLbDVraDVrTjhuc2ZNWmdWNGI3QmNPek11NnRETi9LQ0t5TTBNcDQKCXNESWVyWXlObGNGY084V3VLclBMeXV5Nk1ydXc3RXRsMzZDQitsS0pm
        ZkpIaVp4aEl5NzI2L0VvdUZtdXlIWHhwbDFKCgk2cUlTaW92YkZvelhZbmxOL09tYThPdnV6b1crLzA3bnJNQU5ibmQ2T3dUaisvWDZib1hFUGtSNWdHTGFGTXdST2ZQ
        dAoJMnE3K0EvU0hUZ1k9Cgk8L2RhdGE+Cgk8a2V5PmRhdGE8L2tleT4KCTxkYXRhPgoJQUFBQUFBQUFBQUFBQUFJQUFBQUFBQUFBQUFBQUFBQUJBQUFBQUFBQUFBSUFB
        QUFBQUFBQUF3QUFBQUFBQUFBRUFBQUEKCUFBQUFBQVVBQUFBQUFBQUFCZ0FBQUFBQUFBQUhBQUFBQUFBQUFBZ0FBQUFBQUFBQUNRQUFBQUFBQUFBS0FBQUFBQUFBCglB
        QXNBQUFBQUFBQUFEQUFBQUFBQUFBQU5BQUFBQUFBQUFBNEFBQUFBQUFBQUR3QUFBQUFBQUFBUUFBQUFBQUFBQUJFQQoJQUFBQUFBQUFFZ0FBQUFBQUFBQVRBQUFBQUFB
        QUFCUUFBQUFBQUFBQUZRQUFBQUFBQUFBV0FBQUFBQUFBQUJjQUFBQUEKCUFBQUFHQUFBQUFBQUFBQVpBQUFBQUFBQUFCb0FBQUFBQUFBQUd3QUFBQUFBQUFBY0FBQUFB
        QUFBQUIwQUFBQUFBQUFBCglIZ0FBQUFBQUFBQWZBQUFBQUFBQUFDQUFBQUFBQUFBQUlRQUFBQUFBQUFBaUFBQUFBQUFBQUNNQUFBQUFBQUFBSkFBQQoJQUFBQUFBQWxB
        QUFBQUFBQUFDWUFBQUFBQUFBQUp3QUFBQUFBQUFBb0FBQUFBQUFBQUNrQUFBQUFBQUFBS2dBQUFBQUEKCUFBQXJBQUFBQUFBQUFDd0FBQUFBQUFBQUxRQUFBQUFBQUFB
        dUFBQUFBQUFBQUM4QUFBQUFBQUFBTUFBQUFBQUFBQUF4CglBQUFBQUFBQUFESUFBQUFBQUFBQU13QUFBQUFBQUFBMEFBQUFBQUFBQURVQUFBQUFBQUFBTmdBQUFBQUFB
        QUEzQUFBQQoJQUFBQUFEZ0FBQUFBQUFBQU9RQUFBQUFBQUFBNkFBQUFBQUFBQURzQUFBQUFBQUFBUEFBQUFBQUFBQUE5QUFBQUFBQUEKCUFENEFBQUFBQUFBQVB3QUFB
        QUFBQUFCQUFBQUFBQUFBQUVFQUFBQUFBQUFBUWdBQUFBQUFBQUJEQUFBQUFBQUFBRVFBCglBQUFBQUFBQVJRQUFBQUFBQUFCR0FBQUFBQUFBQUVjQUFBQUFBQUFBU0FB
        QUFBQUFBQUJKQUFBQUFBQUFBRW9BQUFBQQoJQUFBQVN3QUFBQUFBQUFCTUFBQUFBQUFBQUUwQUFBQUFBQUFBVGdBQUFBQUFBQUJQQUFBQUFBQUFBRkFBQUFBQUFBQUEK
        CVVRQUFBQUFBQUFCU0FBQUFBQUFBQUZNQUFBQUFBQUFBVkFBQUFBQUFBQUJWQUFBQUFBQUFBRllBQUFBQUFBQUFWd0FBCglBQUFBQUFCWUFBQUFBQUFBQUZrQUFBQUFB
        QUFBV2dBQUFBQUFBQUJiQUFBQUFBQUFBRndBQUFBQUFBQUFYUUFBQUFBQQoJQUFCZUFBQUFBQUFBQUY4QUFBQUFBQUFBWUFBQUFBQUFBQUJoQUFBQUFBQUFBR0lBQUFB
        QUFBQUFZd0FBQUFBQUFBQmsKCUFBQUFBQUFBQUdVQUFBQUFBQUFBWmdBQUFBQUFBQUJuQUFBQUFBQUFBR2dBQUFBQUFBQUFhUUFBQUFBQUFBQnFBQUFBCglBQUFBQUdz
        QUFBQUFBQUFBYkFBQUFBQUFBQUJ0QUFBQUFBQUFBRzRBQUFBQUFBQUFid0FBQUFBQUFBQndBQUFBQUFBQQoJQUhFQUFBQUFBQUFBY2dBQUFBQUFBQUJ6QUFBQUFBQUFB
        SFFBQUFBQUFBQUFkUUFBQUFBQUFBQjJBQUFBQUFBQUFIY0EKCUFBQUFBQUFBZUFBQUFBQUFBQUI1QUFBQUFBQUFBSG9BQUFBQUFBQUFld0FBQUFBQUFBQjhBQUFBQUFB
        QUFIMEFBQUFBCglBQUFBZmdBQUFBQUFBQUIvQUFBQUFBQUFBSUFBQUFBQUFBQUFnUUFBQUFBQUFBQ0NBQUFBQUFBQUFJTUFBQUFBQUFBQQoJaEFBQUFBQUFBQUNGQUFB
        QUFBQUFBSVlBQUFBQUFBQUFod0FBQUFBQUFBQ0lBQUFBQUFBQUFJa0FBQUFBQUFBQWlnQUEKCUFBQUFBQUNMQUFBQUFBQUFBSXdBQUFBQUFBQUFqUUFBQUFBQUFBQ09B
        QUFBQUFBQUFJOEFBQUFBQUFBQWtBQUFBQUFBCglBQUNSQUFBQUFBQUFBSklBQUFBQUFBQUFrd0FBQUFBQUFBQ1VBQUFBQUFBQUFKVUFBQUFBQUFBQWxnQUFBQUFBQUFD
        WAoJQUFBQUFBQUFBSmdBQUFBQUFBQUFtUUFBQUFBQUFBQ2FBQUFBQUFBQUFKc0FBQUFBQUFBQW5BQUFBQUFBQUFDZEFBQUEKCUFBQUFBSjRBQUFBQUFBQUFud0FBQUFB
        QUFBQ2dBQUFBQUFBQUFLRUFBQUFBQUFBQW9nQUFBQUFBQUFDakFBQUFBQUFBCglBS1FBQUFBQUFBQUFwUUFBQUFBQUFBQ21BQUFBQUFBQUFLY0FBQUFBQUFBQXFBQUFB
        QUFBQUFDcEFBQUFBQUFBQUtvQQoJQUFBQUFBQUFxd0FBQUFBQUFBQ3NBQUFBQUFBQUFLMEFBQUFBQUFBQXJnQUFBQUFBQUFDdkFBQUFBQUFBQUxBQUFBQUEKCUFBQUFz
        UUFBQUFBQUFBQ3lBQUFBQUFBQUFMTUFBQUFBQUFBQXRBQUFBQUFBQUFDMUFBQUFBQUFBQUxZQUFBQUFBQUFBCgl0d0FBQUFBQUFBQzRBQUFBQUFBQUFMa0FBQUFBQUFB
        QXVnQUFBQUFBQUFDN0FBQUFBQUFBQUx3QUFBQUFBQUFBdlFBQQoJQUFBQUFBQytBQUFBQUFBQUFMOEFBQUFBQUFBQXdBQUFBQUFBQUFEQkFBQUFBQUFBQU1JQUFBQUFB
        QUFBd3dBQUFBQUEKCUFBREVBQUFBQUFBQUFNVUFBQUFBQUFBQXhnQUFBQUFBQUFESEFBQUFBQUFBQU1nQUFBQUFBQUFBeVFBQUFBQUFBQURLCglBQUFBQUFBQUFNc0FB
        QUFBQUFBQXpBQUFBQUFBQUFETkFBQUFBQUFBQU00QUFBQUFBQUFBendBQUFBQUFBQURRQUFBQQoJQUFBQUFORUFBQUFBQUFBQTBnQUFBQUFBQUFEVEFBQUFBQUFBQU5R
        QUFBQUFBQUFBMVFBQUFBQUFBQURXQUFBQUFBQUEKCUFOY0FBQUFBQUFBQTJBQUFBQUFBQUFEWkFBQUFBQUFBQU5vQUFBQUFBQUFBMndBQUFBQUFBQURjQUFBQUFBQUFB
        TjBBCglBQUFBQUFBQTNnQUFBQUFBQUFEZkFBQUFBQUFBQU9BQUFBQUFBQUFBNFFBQUFBQUFBQURpQUFBQUFBQUFBT01BQUFBQQoJQUFBQTVBQUFBQUFBQUFEbEFBQUFB
        QUFBQU9ZQUFBQUFBQUFBNXdBQUFBQUFBQURvQUFBQUFBQUFBT2tBQUFBQUFBQUEKCTZnQUFBQUFBQUFEckFBQUFBQUFBQU93QUFBQUFBQUFBN1FBQUFBQUFBQUR1QUFB
        QUFBQUFBTzhBQUFBQUFBQUE4QUFBCglBQUFBQUFEeEFBQUFBQUFBQVBJQUFBQUFBQUFBOHdBQUFBQUFBQUQwQUFBQUFBQUFBUFVBQUFBQUFBQUE5Z0FBQUFBQQoJQUFE
        M0FBQUFBQUFBQVBnQUFBQUFBQUFBK1FBQUFBQUFBQUQ2QUFBQUFBQUFBUHNBQUFBQUFBQUEvQUFBQUFBQUFBRDkKCUFBQUFBQUFBQVA0QUFBQUFBQUFBL3dBQUFBQUFB
        QUVBQUFBQUFBQUFBUUVBQUFBQUFBQUJBZ0FBQUFBQUFBRURBQUFBCglBQUFBQVFRQUFBQUFBQUFCQlFBQUFBQUFBQUVHQUFBQUFBQUFBUWNBQUFBQUFBQUJDQUFBQUFB
        QUFBRUpBQUFBQUFBQQoJQVFvQUFBQUFBQUFCQ3dBQUFBQUFBQUVNQUFBQUFBQUFBUTBBQUFBQUFBQUJEZ0FBQUFBQUFBRVBBQUFBQUFBQUFSQUEKCUFBQUFBQUFCRVFB
        QUFBQUFBQUVTQUFBQUFBQUFBUk1BQUFBQUFBQUJGQUFBQUFBQUFBRVZBQUFBQUFBQUFSWUFBQUFBCglBQUFCRndBQUFBQUFBQUVZQUFBQUFBQUFBUmtBQUFBQUFBQUJH
        Z0FBQUFBQUFBRWJBQUFBQUFBQUFSd0FBQUFBQUFBQgoJSFFBQUFBQUFBQUVlQUFBQUFBQUFBUjhBQUFBQUFBQUJJQUFBQUFBQUFBRWhBQUFBQUFBQUFTSUFBQUFBQUFB
        Qkl3QUEKCUFBQUFBQUVrQUFBQUFBQUFBU1VBQUFBQUFBQUJKZ0FBQUFBQUFBRW5BQUFBQUFBQUFTZ0FBQUFBQUFBQktRQUFBQUFBCglBQUVxQUFBQUFBQUFBU3NBQUFB
        QUFBQUJMQUFBQUFBQUFBRXRBQUFBQUFBQUFTNEFBQUFBQUFBQkx3QUFBQUFBQUFFdwoJQUFBQUFBQUFBVEVBQUFBQUFBQUJNZ0FBQUFBQUFBRXpBQUFBQUFBQUFUUUFB
        QUFBQUFBQk5RQUFBQUFBQUFFMkFBQUEKCUFBQUFBVGNBQUFBQUFBQUJPQUFBQUFBQUFBRTVBQUFBQUFBQUFUb0FBQUFBQUFBQk93QUFBQUFBQUFFOEFBQUFBQUFBCglB
        VDBBQUFBQUFBQUJQZ0FBQUFBQUFBRS9BQUFBQUFBQUFVQUFBQUFBQUFBQlFRQUFBQUFBQUFGQ0FBQUFBQUFBQVVNQQoJQUFBQUFBQUJSQUFBQUFBQUFBRkZBQUFBQUFB
        QUFVWUFBQUFBQUFBQlJ3QUFBQUFBQUFGSUFBQUFBQUFBQVVrQUFBQUEKCUFBQUJTZ0FBQUFBQUFBRkxBQUFBQUFBQUFVd0FBQUFBQUFBQlRRQUFBQUFBQUFGT0FBQUFB
        QUFBQVU4QUFBQUFBQUFCCglVQUFBQUFBQUFBRlJBQUFBQUFBQUFWSUFBQUFBQUFBQlV3QUFBQUFBQUFGVUFBQUFBQUFBQVZVQUFBQUFBQUFCVmdBQQoJQUFBQUFBRlhB
        QUFBQUFBQUFWZ0FBQUFBQUFBQldRQUFBQUFBQUFGYUFBQUFBQUFBQVZzQUFBQUFBQUFCWEFBQUFBQUEKCUFBRmRBQUFBQUFBQUFWNEFBQUFBQUFBQlh3QUFBQUFBQUFG
        Z0FBQUFBQUFBQVdFQUFBQUFBQUFCWWdBQUFBQUFBQUZqCglBQUFBQUFBQUFXUUFBQUFBQUFBQlpRQUFBQUFBQUFGbUFBQUFBQUFBQVdjQUFBQUFBQUFCYUFBQUFBQUFB
        QUZwQUFBQQoJQUFBQUFXb0FBQUFBQUFBQmF3QUFBQUFBQUFGc0FBQUFBQUFBQVcwQUFBQUFBQUFCYmdBQUFBQUFBQUZ2QUFBQUFBQUEKCUFYQUFBQUFBQUFBQmNRQUFB
        QUFBQUFGeUFBQUFBQUFBQVhNQUFBQUFBQUFCZEFBQUFBQUFBQUYxQUFBQUFBQUFBWFlBCglBQUFBQUFBQmR3QUFBQUFBQUFGNEFBQUFBQUFBQVhrQUFBQUFBQUFCZWdB
        QUFBQUFBQUY3QUFBQUFBQUFBWHdBQUFBQQoJQUFBQmZRQUFBQUFBQUFGK0FBQUFBQUFBQVg4QUFBQUFBQUFCZ0FBQUFBQUFBQUdCQUFBQUFBQUFBWUlBQUFBQUFBQUIK
        CWd3QUFBQUFBQUFHRUFBQUFBQUFBQVlVQUFBQUFBQUFCaGdBQUFBQUFBQUdIQUFBQUFBQUFBWWdBQUFBQUFBQUJpUUFBCglBQUFBQUFHS0FBQUFBQUFBQVlzQUFBQUFB
        QUFCakFBQUFBQUFBQUdOQUFBQUFBQUFBWTRBQUFBQUFBQUJqd0FBQUFBQQoJQUFHUUFBQUFBQUFBQVpFQUFBQUFBQUFCa2dBQUFBQUFBQUdUQUFBQUFBQUFBWlFBQUFB
        QUFBQUJsUUFBQUFBQUFBR1cKCUFBQUFBQUFBQVpjQUFBQUFBQUFCbUFBQUFBQUFBQUdaQUFBQUFBQUFBWm9BQUFBQUFBQUJtd0FBQUFBQUFBR2NBQUFBCglBQUFBQVow
        QUFBQUFBQUFCbmdBQUFBQUFBQUdmQUFBQUFBQUFBYUFBQUFBQUFBQUJvUUFBQUFBQUFBR2lBQUFBQUFBQQoJQWFNQUFBQUFBQUFCcEFBQUFBQUFBQUdsQUFBQUFBQUFB
        YVlBQUFBQUFBQUJwd0FBQUFBQUFBR29BQUFBQUFBQUFha0EKCUFBQUFBQUFCcWdBQUFBQUFBQUdyQUFBQUFBQUFBYXdBQUFBQUFBQUJyUUFBQUFBQUFBR3VBQUFBQUFB
        QUFhOEFBQUFBCglBQUFCc0FBQUFBQUFBQUd4QUFBQUFBQUFBYklBQUFBQUFBQUJzd0FBQUFBQUFBRzBBQUFBQUFBQUFiVUFBQUFBQUFBQgoJdGdBQUFBQUFBQUczQUFB
        QUFBQUFBYmdBQUFBQUFBQUJ1UUFBQUFBQUFBRzZBQUFBQUFBQUFic0FBQUFBQUFBQnZBQUEKCUFBQUFBQUc5QUFBQUFBQUFBYjRBQUFBQUFBQUJ2d0FBQUFBQUFBSEFB
        QUFBQUFBQUFjRUFBQUFBQUFBQndnQUFBQUFBCglBQUhEQUFBQUFBQUFBY1FBQUFBQUFBQUJ4UUFBQUFBQUFBSEdBQUFBQUFBQUFjY0FBQUFBQUFBQnlBQUFBQUFBQUFI
        SgoJQUFBQUFBQUFBY29BQUFBQUFBQUJ5d0FBQUFBQUFBSE1BQUFBQUFBQUFjMEFBQUFBQUFBQnpnQUFBQUFBQUFIUEFBQUEKCUFBQUFBZEFBQUFBQUFBQUIwUUFBQUFB
        QUFBSFNBQUFBQUFBQUFkTUFBQUFBQUFBQjFBQUFBQUFBQUFIVkFBQUFBQUFBCglBZFlBQUFBQUFBQUIxd0FBQUFBQUFBSFlBQUFBQUFBQUFka0FBQUFBQUFBQjJnQUFB
        QUFBQUFIYkFBQUFBQUFBQWR3QQoJQUFBQUFBQUIzUUFBQUFBQUFBSGVBQUFBQUFBQUFkOEFBQUFBQUFBQjRBQUFBQUFBQUFIaEFBQUFBQUFBQWVJQUFBQUEKCUFBQUI0
        d0FBQUFBQUFBSGtBQUFBQUFBQUFlVUFBQUFBQUFBQjVnQUFBQUFBQUFIbkFBQUFBQUFBQWVnQUFBQUFBQUFCCgk2UUFBQUFBQUFBSHFBQUFBQUFBQUFlc0FBQUFBQUFB
        QjdBQUFBQUFBQUFIdEFBQUFBQUFBQWU0QUFBQUFBQUFCN3dBQQoJQUFBQUFBSHdBQUFBQUFBQUFmRUFBQUFBQUFBQjhnQUFBQUFBQUFIekFBQUFBQUFBQWZRQUFBQUFB
        QUFCOVFBQUFBQUEKCUFBSDJBQUFBQUFBQUFmY0FBQUFBQUFBQitBQUFBQUFBQUFINUFBQUFBQUFBQWZvQUFBQUFBQUFCK3dBQUFBQUFBQUg4CglBQUFBQUFBQUFmMEFB
        QUFBQUFBQi9nQUFBQUFBQUFIL0FBQUFBQT09Cgk8L2RhdGE+Cgk8a2V5Pm1hbnVmYWN0dXJlcjwva2V5PgoJPGludGVnZXI+MTM0NzE3ODMxMTwvaW50ZWdlcj4KCTxr
        ZXk+bmFtZTwva2V5PgoJPHN0cmluZz5VbnRpdGxlZDwvc3RyaW5nPgoJPGtleT5zdWJ0eXBlPC9rZXk+Cgk8aW50ZWdlcj4xMzQ3MTc2MjczPC9pbnRlZ2VyPgoJPGtl
        eT50eXBlPC9rZXk+Cgk8aW50ZWdlcj4xNjM1MDg1Njg1PC9pbnRlZ2VyPgoJPGtleT52ZXJzaW9uPC9rZXk+Cgk8aW50ZWdlcj4wPC9pbnRlZ2VyPgo8L2RpY3Q+Cjwv
        cGxpc3Q+CgEAAAAAAAAAAAA=
      >
      FLOATPOS 0 0 0 0
      FXID {7FD9A2A2-8664-F14C-9374-05A33AAC559B}
      WAK 0 0
    >
    <ITEM
      POSITION 0
      SNAPOFFS 0
      LENGTH 12.875152
      LOOP 1
      ALLTAKES 0
      FADEIN 1 0 0 1 0 0 0
      FADEOUT 1 0 0 1 0 0 0
      MUTE 0 0
      BEAT 1
      SEL 0
      IGUID {4D488B2C-CB2C-2147-A37F-2F8AB20852E6}
      IID 18
      NAME the_centennial_festival_for_magical.mid
      VOLPAN 1 0 1 -1
      SOFFS 1.6 4
      PLAYRATE 1 1 0 -1 0 0.0025
      CHANMODE 0
      GUID {B019CC9F-DDC4-FD47-83BC-B796E46E5251}
      <SOURCE MIDI
        HASDATA 1 96 QN
        CCINTERP 32
        POOLEDEVTS {00B90DA7-03FA-7945-8503-13438B3902FC}
        <X 0 0
          /yEBAA==
        >
        <X 0 0 0 0 4 "STANDARD 1"
          /wRTVEFOREFSRCAx
        >
        e 384 b9 40 00
        e 2976 99 26 7f
        e 23 89 26 00
        e 1 99 26 7f
        e 23 89 26 00
        e 1 99 26 7f
        e 23 89 26 00
        e 1 99 26 7f
        e 23 89 26 00
        E 1 b0 7b 00
        CCINTERP 32
        CHASE_CC_TAKEOFFS 1
        GUID {180D7C70-8FFD-A940-9233-C7422A48C573}
        IGNTEMPO 0 120 4 4
        SRCCOLOR 122
        VELLANE -1 100 0
        CFGEDITVIEW 0 0.022143 79 12 0 -1 0 0 0 0.5
        KEYSNAP 0
        TRACKSEL 0
        EVTFILTER 0 -1 -1 -1 -1 0 0 0 0 -1 -1 -1 -1 0 -1 0 -1 -1
        CFGEDIT 1 1 0 1 0 0 1 1 1 1 1 0.25 591 205 1920 928 0 0 0 0 0 0 0 0 0 0 0 0 1 64
      >
    >
    <ITEM
      POSITION 12.875152
      SNAPOFFS 0
      LENGTH 81.739328
      LOOP 1
      ALLTAKES 0
      FADEIN 1 0 0 1 0 0 0
      FADEOUT 1 0 0 1 0 0 0
      MUTE 0 0
      BEAT 1
      SEL 0
      IGUID {C909BD37-85F0-444C-A8A4-3B40C2900097}
      IID 24
      NAME the_centennial_festival_for_magical.mid
      VOLPAN 1 0 1 -1
      SOFFS 14.475152 36
      PLAYRATE 1 1 0 -1 0 0.0025
      CHANMODE 0
      GUID {49CCDA1F-7B76-2240-9A5D-18E7234FE5D6}
      <SOURCE MIDI
        HASDATA 1 96 QN
        CCINTERP 32
        POOLEDEVTS {5B3B74FE-14A7-9D48-A452-0C2C1FC6F951}
        <X 0 0
          /yEBAA==
        >
        <X 0 0 0 0 4 "STANDARD 1"
          /wRTVEFOREFSRCAx
        >
        e 384 b9 40 00
        e 2976 99 26 7f
        e 23 89 26 00
        e 1 99 26 7f
        e 23 89 26 00
        e 1 99 26 7f
        e 23 89 26 00
        e 1 99 26 7f
        e 23 89 26 00
        e 1 99 2f 7f
        e 23 89 2f 00
        e 1 99 2f 7f
        e 23 89 2f 00
        e 1 99 2f 7f
        e 23 89 2f 00
        e 1 99 2f 7f
        e 23 89 2f 00
        e 1 99 2f 7f
        e 23 89 2f 00
        e 1 99 30 7f
        e 23 89 30 00
        e 49 99 2f 7f
        e 23 89 2f 00
        e 1 99 30 7f
        e 23 89 30 00
        e 25 99 2f 7f
        e 23 89 2f 00
        e 1 99 30 7f
        e 23 89 30 00
        e 1 99 2f 7f
        e 23 89 2f 00
        e 49 99 2f 7f
        e 23 89 2f 00
        e 1 99 2f 7f
        e 23 89 2f 00
        e 1 99 2f 7f
        e 23 89 2f 00
        e 1 99 2f 7f
        e 23 89 2f 00
        e 1 99 2f 7f
        e 23 89 2f 00
        e 1 99 30 7f
        e 23 89 30 00
        e 49 99 2f 7f
        e 23 89 2f 00
        e 1 99 30 7f
        e 23 89 30 00
        e 25 99 2f 7f
        e 23 89 2f 00
        e 1 99 30 7f
        e 23 89 30 00
        e 1 99 2f 7f
        e 23 89 2f 00
        e 25 99 2f 7f
        e 23 89 2f 00
        e 1 99 2f 7f
        e 23 89 2f 00
        e 1 99 2f 7f
        e 23 89 2f 00
        e 1 99 2f 7f
        e 23 89 2f 00
        e 1 99 2f 7f
        e 23 89 2f 00
        e 1 99 2f 7f
        e 23 89 2f 00
        e 1 99 30 7f
        e 23 89 30 00
        e 49 99 2f 7f
        e 23 89 2f 00
        e 1 99 30 7f
        e 23 89 30 00
        e 25 99 2f 7f
        e 23 89 2f 00
        e 1 99 30 7f
        e 23 89 30 00
        e 1 99 2f 7f
        e 23 89 2f 00
        e 49 99 2f 7f
        e 23 89 2f 00
        e 1 99 2f 7f
        e 23 89 2f 00
        e 1 99 2f 7f
        e 23 89 2f 00
        e 1 99 2f 7f
        e 23 89 2f 00
        e 1 99 2f 7f
        e 23 89 2f 00
        e 1 99 30 7f
        e 23 89 30 00
        e 49 99 2f 7f
        e 23 89 2f 00
        e 1 99 30 7f
        e 23 89 30 00
        e 25 99 2f 7f
        e 23 89 2f 00
        e 1 99 30 7f
        e 23 89 30 00
        e 1 99 2f 7f
        e 23 89 2f 00
        e 25 99 2f 7f
        e 23 89 2f 00
        e 1 99 2f 7f
        e 23 89 2f 00
        e 1 99 2f 7f
        e 23 89 2f 00
        e 1 99 2f 7f
        e 23 89 2f 00
        e 1 99 2f 7f
        e 23 89 2f 00
        e 1 99 2f 7f
        e 23 89 2f 00
        e 1 99 30 7f
        e 23 89 30 00
        e 49 99 2f 7f
        e 23 89 2f 00
        e 1 99 30 7f
        e 23 89 30 00
        e 25 99 2f 7f
        e 23 89 2f 00
        e 1 99 30 7f
        e 23 89 30 00
        e 1 99 2f 7f
        e 23 89 2f 00
        e 49 99 2f 7f
        e 23 89 2f 00
        e 1 99 2f 7f
        e 23 89 2f 00
        e 1 99 2f 7f
        e 23 89 2f 00
        e 1 99 2f 7f
        e 23 89 2f 00
        e 1 99 2f 7f
        e 23 89 2f 00
        e 1 99 30 7f
        e 23 89 30 00
        e 49 99 2f 7f
        e 23 89 2f 00
        e 1 99 30 7f
        e 23 89 30 00
        e 25 99 2f 7f
        e 23 89 2f 00
        e 1 99 30 7f
        e 23 89 30 00
        e 1 99 2f 7f
        e 23 89 2f 00
        e 25 99 2f 7f
        e 23 89 2f 00
        e 1 99 2f 7f
        e 23 89 2f 00
        e 1 99 2f 7f
        e 23 89 2f 00
        e 1 99 2f 7f
        e 23 89 2f 00
        e 1 99 2f 7f
        e 23 89 2f 00
        e 1 99 2f 7f
        e 23 89 2f 00
        e 1 99 30 7f
        e 23 89 30 00
        e 49 99 2f 7f
        e 23 89 2f 00
        e 1 99 30 7f
        e 23 89 30 00
        e 25 99 2f 7f
        e 23 89 2f 00
        e 1 99 30 7f
        e 23 89 30 00
        e 1 99 2f 7f
        e 23 89 2f 00
        e 49 99 2f 7f
        e 23 89 2f 00
        e 1 99 2f 7f
        e 23 89 2f 00
        e 1 99 2f 7f
        e 23 89 2f 00
        e 1 99 2f 7f
        e 23 89 2f 00
        e 1 99 2f 7f
        e 23 89 2f 00
        e 1 99 28 7f
        e 0 99 30 7f
        e 23 89 28 00
        e 0 89 30 00
        e 49 99 2f 7f
        e 0 99 28 7f
        e 23 89 2f 00
        e 0 89 28 00
        e 1 99 30 7f
        e 0 99 28 7f
        e 23 89 30 00
        e 0 89 28 00
        e 1 99 28 7f
        e 23 89 28 00
        e 1 99 2f 7f
        e 0 99 28 7f
        e 23 89 2f 00
        e 0 89 28 00
        e 1 99 28 7f
        e 0 99 30 7f
        e 23 89 28 00
        e 0 89 30 00
        e 1 99 28 7f
        e 0 99 2f 7f
        e 23 89 28 00
        e 0 89 2f 00
        e 1 99 28 7f
        e 23 89 28 00
        e 1 99 28 7f
        e 0 99 2f 7f
        e 23 89 28 00
        e 0 89 2f 00
        e 481 99 26 7f
        e 47 89 26 00
        e 1 99 26 7f
        e 47 89 26 00
        e 1 99 26 7f
        e 23 89 26 00
        e 1 99 26 7f
        e 47 89 26 00
        e 1 99 26 7f
        e 23 89 26 00
        e 1 99 26 7f
        e 23 89 26 00
        e 1 99 26 7f
        e 23 89 26 00
        e 1 99 26 7f
        e 23 89 26 00
        e 1 99 26 7f
        e 23 89 26 00
        e 97 99 26 7f
        e 47 89 26 00
        e 1 99 28 7f
        e 47 89 28 00
        e 25 99 26 7f
        e 23 89 26 00
        e 1 99 26 7f
        e 47 89 26 00
        e 25 99 28 7f
        e 47 89 28 00
        e 25 99 26 7f
        e 287 89 26 00
        e 1 99 26 7f
        e 23 89 26 00
        e 1 99 26 7f
        e 23 89 26 00
        e 1 99 26 7f
        e 23 89 26 00
        e 1 99 26 7f
        e 23 89 26 00
        e 433 99 26 7f
        e 47 89 26 00
        e 193 99 26 7f
        e 95 89 26 00
        e 97 99 26 7f
        e 47 89 26 00
        e 1 99 26 7f
        e 47 89 26 00
        e 121 99 26 7f
        e 23 89 26 00
        e 1 99 26 7f
        e 47 89 26 00
        e 49 99 28 7f
        e 23 89 28 00
        e 1 99 28 7f
        e 23 89 28 00
        e 49 99 28 7f
        e 23 89 28 00
        e 1 99 28 7f
        e 23 89 28 00
        e 1393 99 25 7f
        e 23 89 25 00
        e 1 99 25 7f
        e 23 89 25 00
        e 1 99 28 7f
        e 23 89 28 00
        e 1 99 28 7f
        e 23 89 28 00
        e 1 99 28 7f
        e 47 89 28 00
        e 1 99 28 7f
        e 23 89 28 00
        e 1 99 28 7f
        e 23 89 28 00
        e 25 99 28 7f
        e 23 89 28 00
        e 25 99 28 7f
        e 23 89 28 00
        e 1 99 28 7f
        e 47 89 28 00
        e 3841 99 2f 7f
        e 23 89 2f 00
        e 1 99 2f 7f
        e 23 89 2f 00
        e 1 99 2f 7f
        e 23 89 2f 00
        e 1 99 2f 7f
        e 23 89 2f 00
        e 1 99 2f 7f
        e 23 89 2f 00
        e 1 99 30 7f
        e 23 89 30 00
        e 49 99 2f 7f
        e 23 89 2f 00
        e 1 99 30 7f
        e 23 89 30 00
        e 25 99 2f 7f
        e 23 89 2f 00
        e 1 99 30 7f
        e 23 89 30 00
        e 1 99 2f 7f
        e 23 89 2f 00
        e 49 99 2f 7f
        e 23 89 2f 00
        e 1 99 2f 7f
        e 23 89 2f 00
        e 1 99 2f 7f
        e 23 89 2f 00
        e 1 99 2f 7f
        e 23 89 2f 00
        e 1 99 2f 7f
        e 23 89 2f 00
        e 1 99 30 7f
        e 23 89 30 00
        e 49 99 2f 7f
        e 23 89 2f 00
        e 1 99 30 7f
        e 23 89 30 00
        e 25 99 2f 7f
        e 23 89 2f 00
        e 1 99 30 7f
        e 23 89 30 00
        e 1 99 2f 7f
        e 23 89 2f 00
        e 25 99 2f 7f
        e 23 89 2f 00
        e 1 99 2f 7f
        e 23 89 2f 00
        e 1 99 2f 7f
        e 23 89 2f 00
        e 1 99 2f 7f
        e 23 89 2f 00
        e 1 99 2f 7f
        e 23 89 2f 00
        e 1 99 2f 7f
        e 23 89 2f 00
        e 1 99 30 7f
        e 23 89 30 00
        e 49 99 2f 7f
        e 23 89 2f 00
        e 1 99 30 7f
        e 23 89 30 00
        e 25 99 2f 7f
        e 23 89 2f 00
        e 1 99 30 7f
        e 23 89 30 00
        e 1 99 2f 7f
        e 23 89 2f 00
        e 49 99 2f 7f
        e 23 89 2f 00
        e 1 99 2f 7f
        e 23 89 2f 00
        e 1 99 2f 7f
        e 23 89 2f 00
        e 1 99 2f 7f
        e 23 89 2f 00
        e 1 99 2f 7f
        e 23 89 2f 00
        e 1 99 30 7f
        e 23 89 30 00
        e 49 99 2f 7f
        e 23 89 2f 00
        e 1 99 30 7f
        e 23 89 30 00
        e 25 99 2f 7f
        e 23 89 2f 00
        e 1 99 30 7f
        e 23 89 30 00
        e 1 99 2f 7f
        e 23 89 2f 00
        e 25 99 2f 7f
        e 23 89 2f 00
        e 1 99 2f 7f
        e 23 89 2f 00
        e 1 99 2f 7f
        e 23 89 2f 00
        e 1 99 2f 7f
        e 23 89 2f 00
        e 1 99 2f 7f
        e 23 89 2f 00
        e 1 99 2f 7f
        e 23 89 2f 00
        e 1 99 30 7f
        e 23 89 30 00
        e 49 99 2f 7f
        e 23 89 2f 00
        e 1 99 30 7f
        e 23 89 30 00
        e 25 99 2f 7f
        e 23 89 2f 00
        e 1 99 30 7f
        e 23 89 30 00
        e 1 99 2f 7f
        e 23 89 2f 00
        e 49 99 2f 7f
        e 23 89 2f 00
        e 1 99 2f 7f
        e 23 89 2f 00
        e 1 99 2f 7f
        e 23 89 2f 00
        e 1 99 2f 7f
        e 23 89 2f 00
        e 1 99 2f 7f
        e 23 89 2f 00
        e 1 99 30 7f
        e 23 89 30 00
        e 49 99 2f 7f
        e 23 89 2f 00
        e 1 99 30 7f
        e 23 89 30 00
        e 25 99 2f 7f
        e 23 89 2f 00
        e 1 99 30 7f
        e 23 89 30 00
        e 1 99 2f 7f
        e 23 89 2f 00
        e 25 99 2f 7f
        e 23 89 2f 00
        e 1 99 2f 7f
        e 23 89 2f 00
        e 1 99 2f 7f
        e 23 89 2f 00
        e 1 99 2f 7f
        e 23 89 2f 00
        e 1 99 2f 7f
        e 23 89 2f 00
        e 1 99 2f 7f
        e 23 89 2f 00
        e 1 99 30 7f
        e 23 89 30 00
        e 49 99 2f 7f
        e 23 89 2f 00
        e 1 99 30 7f
        e 23 89 30 00
        e 25 99 2f 7f
        e 23 89 2f 00
        e 1 99 30 7f
        e 23 89 30 00
        e 1 99 2f 7f
        e 23 89 2f 00
        e 49 99 2f 7f
        e 23 89 2f 00
        e 1 99 2f 7f
        e 23 89 2f 00
        e 1 99 2f 7f
        e 23 89 2f 00
        e 1 99 2f 7f
        e 23 89 2f 00
        e 1 99 2f 7f
        e 23 89 2f 00
        e 1 99 28 7f
        e 0 99 30 7f
        e 23 89 28 00
        e 0 89 30 00
        e 49 99 2f 7f
        e 0 99 28 7f
        e 23 89 2f 00
        e 0 89 28 00
        e 1 99 30 7f
        e 0 99 28 7f
        e 23 89 30 00
        e 0 89 28 00
        e 1 99 28 7f
        e 23 89 28 00
        e 1 99 28 7f
        e 0 99 2f 7f
        e 23 89 28 00
        e 0 89 2f 00
        e 1 99 30 7f
        e 0 99 28 7f
        e 23 89 30 00
        e 0 89 28 00
        e 1 99 2f 7f
        e 0 99 28 7f
        e 23 89 2f 00
        e 0 89 28 00
        e 1 99 28 7f
        e 23 89 28 00
        e 1 99 28 7f
        e 0 99 2f 7f
        e 23 89 28 00
        e 0 89 2f 00
        e 1 99 2f 7f
        e 23 89 2f 00
        e 1 99 2f 7f
        e 23 89 2f 00
        e 1 99 2f 7f
        e 23 89 2f 00
        e 1 99 2f 7f
        e 23 89 2f 00
        e 1 99 2f 7f
        e 23 89 2f 00
        e 1 99 30 7f
        e 23 89 30 00
        e 49 99 2f 7f
        e 23 89 2f 00
        e 1 99 30 7f
        e 23 89 30 00
        e 25 99 2f 7f
        e 23 89 2f 00
        e 1 99 30 7f
        e 23 89 30 00
        e 1 99 2f 7f
        e 23 89 2f 00
        e 49 99 2f 7f
        e 23 89 2f 00
        e 1 99 2f 7f
        e 23 89 2f 00
        e 1 99 2f 7f
        e 23 89 2f 00
        e 1 99 2f 7f
        e 23 89 2f 00
        e 1 99 2f 7f
        e 23 89 2f 00
        e 1 99 30 7f
        e 23 89 30 00
        e 49 99 2f 7f
        e 23 89 2f 00
        e 1 99 30 7f
        e 23 89 30 00
        e 25 99 2f 7f
        e 23 89 2f 00
        e 1 99 30 7f
        e 23 89 30 00
        e 1 99 2f 7f
        e 23 89 2f 00
        e 25 99 2f 7f
        e 23 89 2f 00
        e 1 99 2f 7f
        e 23 89 2f 00
        e 1 99 2f 7f
        e 23 89 2f 00
        e 1 99 2f 7f
        e 23 89 2f 00
        e 1 99 2f 7f
        e 23 89 2f 00
        e 1 99 2f 7f
        e 23 89 2f 00
        e 1 99 30 7f
        e 23 89 30 00
        e 49 99 2f 7f
        e 23 89 2f 00
        e 1 99 30 7f
        e 23 89 30 00
        e 25 99 2f 7f
        e 23 89 2f 00
        e 1 99 30 7f
        e 23 89 30 00
        e 1 99 2f 7f
        e 23 89 2f 00
        e 49 99 2f 7f
        e 23 89 2f 00
        e 1 99 2f 7f
        e 23 89 2f 00
        e 1 99 2f 7f
        e 23 89 2f 00
        e 1 99 2f 7f
        e 23 89 2f 00
        e 1 99 2f 7f
        e 23 89 2f 00
        e 1 99 30 7f
        e 23 89 30 00
        e 49 99 2f 7f
        e 23 89 2f 00
        e 1 99 30 7f
        e 23 89 30 00
        e 25 99 2f 7f
        e 23 89 2f 00
        e 1 99 30 7f
        e 23 89 30 00
        e 1 99 2f 7f
        e 23 89 2f 00
        e 25 99 2f 7f
        e 23 89 2f 00
        e 1 99 2f 7f
        e 23 89 2f 00
        e 1 99 2f 7f
        e 23 89 2f 00
        e 1 99 2f 7f
        e 23 89 2f 00
        e 1 99 2f 7f
        e 23 89 2f 00
        e 1 99 2f 7f
        e 23 89 2f 00
        e 1 99 30 7f
        e 23 89 30 00
        e 49 99 2f 7f
        e 23 89 2f 00
        e 1 99 30 7f
        e 23 89 30 00
        e 25 99 2f 7f
        e 23 89 2f 00
        e 1 99 30 7f
        e 23 89 30 00
        e 1 99 2f 7f
        e 23 89 2f 00
        e 49 99 2f 7f
        e 23 89 2f 00
        e 1 99 2f 7f
        e 23 89 2f 00
        e 1 99 2f 7f
        e 23 89 2f 00
        e 1 99 2f 7f
        e 23 89 2f 00
        e 1 99 2f 7f
        e 23 89 2f 00
        e 1 99 30 7f
        e 23 89 30 00
        e 49 99 2f 7f
        e 23 89 2f 00
        e 1 99 30 7f
        e 23 89 30 00
        e 25 99 2f 7f
        e 23 89 2f 00
        e 1 99 30 7f
        e 23 89 30 00
        e 1 99 2f 7f
        e 23 89 2f 00
        e 25 99 2f 7f
        e 23 89 2f 00
        e 1 99 2f 7f
        e 23 89 2f 00
        e 1 99 2f 7f
        e 23 89 2f 00
        e 1 99 2f 7f
        e 23 89 2f 00
        e 1 99 2f 7f
        e 23 89 2f 00
        e 1 99 2f 7f
        e 23 89 2f 00
        e 1 99 30 7f
        e 23 89 30 00
        e 49 99 2f 7f
        e 23 89 2f 00
        e 1 99 30 7f
        e 23 89 30 00
        e 25 99 2f 7f
        e 23 89 2f 00
        e 1 99 30 7f
        e 23 89 30 00
        e 1 99 2f 7f
        e 23 89 2f 00
        e 49 99 2f 7f
        e 23 89 2f 00
        e 1 99 2f 7f
        e 23 89 2f 00
        e 1 99 2f 7f
        e 23 89 2f 00
        e 1 99 2f 7f
        e 23 89 2f 00
        e 1 99 2f 7f
        e 23 89 2f 00
        e 1 99 28 7f
        e 0 99 30 7f
        e 23 89 28 00
        e 0 89 30 00
        e 49 99 2f 7f
        e 0 99 28 7f
        e 23 89 2f 00
        e 0 89 28 00
        e 1 99 30 7f
        e 0 99 28 7f
        e 23 89 30 00
        e 0 89 28 00
        e 1 99 28 7f
        e 23 89 28 00
        e 1 99 28 7f
        e 0 99 2f 7f
        e 23 89 28 00
        e 0 89 2f 00
        e 1 99 28 7f
        e 0 99 30 7f
        e 23 89 28 00
        e 0 89 30 00
        e 1 99 28 7f
        e 0 99 2f 7f
        e 23 89 28 00
        e 0 89 2f 00
        e 1 99 28 7f
        e 23 89 28 00
        e 1 99 28 7f
        e 0 99 2f 7f
        e 23 89 28 00
        e 0 89 2f 00
        e 481 99 26 7f
        e 47 89 26 00
        e 1 99 26 7f
        e 47 89 26 00
        e 1 99 26 7f
        e 23 89 26 00
        e 1 99 26 7f
        e 47 89 26 00
        e 1 99 26 7f
        e 23 89 26 00
        e 1 99 26 7f
        e 23 89 26 00
        e 1 99 26 7f
        e 23 89 26 00
        e 1 99 26 7f
        e 23 89 26 00
        e 1 99 26 7f
        e 23 89 26 00
        e 97 99 26 7f
        e 47 89 26 00
        e 1 99 28 7f
        e 47 89 28 00
        e 25 99 26 7f
        e 23 89 26 00
        e 1 99 26 7f
        e 47 89 26 00
        e 25 99 28 7f
        e 47 89 28 00
        e 25 99 26 7f
        e 287 89 26 00
        e 1 99 26 7f
        e 23 89 26 00
        e 1 99 26 7f
        e 23 89 26 00
        e 1 99 26 7f
        e 23 89 26 00
        e 1 99 26 7f
        e 23 89 26 00
        E 1 b0 7b 00
        CCINTERP 32
        CHASE_CC_TAKEOFFS 1
        GUID {9D727371-F12F-3F44-B991-AFE0C691E821}
        IGNTEMPO 0 120 4 4
        SRCCOLOR 185
        VELLANE -1 100 0
        CFGEDITVIEW 0 0.022143 79 12 0 -1 0 0 0 0.5
        KEYSNAP 0
        TRACKSEL 0
        EVTFILTER 0 -1 -1 -1 -1 0 0 0 0 -1 -1 -1 -1 0 -1 0 -1 -1
        CFGEDIT 1 1 0 1 0 0 1 1 1 1 1 0.25 591 205 1920 928 0 0 0 0 0 0 0 0 0 0 0 0 1 64
      >
    >
  >
  <TRACK {94B0C113-C744-2F48-A407-748CE313377D}
    NAME drums
    PEAKCOL 16576
    BEAT -1
    AUTOMODE 0
    VOLPAN 2.35226041904999 0 -1 -1 1
    MUTESOLO 0 0 0
    IPHASE 0
    PLAYOFFS 0 1
    ISBUS 0 0
    BUSCOMP 0 0 0 0 0
    SHOWINMIX 1 0.6667 0.5 1 0.5 -1 -1 -1
    FREEMODE 0
    SEL 0
    REC 0 0 1 0 0 0 0
    VU 2
    TRACKHEIGHT 0 0 0 0 0 0
    INQ 0 0 0 0.5 100 0 0 100
    NCHAN 2
    FX 1
    TRACKID {94B0C113-C744-2F48-A407-748CE313377D}
    PERF 0
    MIDIOUT -1
    MAINSEND 1 0
    <FXCHAIN
      WNDRECT 133 414 1013 581
      SHOW 0
      LASTSEL 0
      DOCKED 0
      BYPASS 0 0 0
      <AU "AUi: sforzando (Plogue Art et Technologie)" "Plogue Art et Technologie: sforzando" "" 1635085685 1347176273 1347178311
        6QMAAAAAAAAAAAAAAgAAAAEAAAAAAAAAAgAAAAAAAACLGgAAPD94bWwgdmVyc2lvbj0iMS4wIiBlbmNvZGluZz0iVVRGLTgiPz4KPCFET0NUWVBFIHBsaXN0IFBVQkxJ
        QyAiLS8vQXBwbGUvL0RURCBQTElTVCAxLjAvL0VOIiAiaHR0cDovL3d3dy5hcHBsZS5jb20vRFREcy9Qcm9wZXJ0eUxpc3QtMS4wLmR0ZCI+CjxwbGlzdCB2ZXJzaW9u
        PSIxLjAiPgo8ZGljdD4KCTxrZXk+QXJpYURhdGE8L2tleT4KCTxkYXRhPgoJUTBWSFVBRUZBQUI0bklXVXdZNmJNQkNHNzNrS3kvY3NtRUIySTBGVzdHWmJjVWhibGZT
        TUJ1TmtVWTJkZ2tIYnQrOEEKCUlVSFZSdVkwL3YxNTdQblJUUGo4VVVuU2lib3B0WW9vZTNBcGVkNHV3cmd1SVlWT3pMWTI2dzBsNTFvWExUZkpEZ1dYCgkrWFM3SVBp
        RnFUQ21WS2VHL0dsQmx1WXY3bExTbUZwQWhYSkVWeDRsRlh5a2d4SkxxZm4rSmFJQlEzbWY3Skx2cmRucgoJUWd5bm9EVzZBb04zcGxLYmlMcHpTWXBPeUlpV0NuTzNs
        VkNHRWxsMllqeU1aTU1qdXZZZSt3QWtvTVRJa29qK1VROE4KCWx4ZjVGYytKR2tFOGNKSTZCM2xvMWZCTUZKeXBJcnljbE1XZ0thZ3dmWFAwblBSMUdRUlpxbHRWZk5I
        S1pCM0x2RHpyCglkNWozNUxpdW02V0grTnN1L3JtakpBZjFPOEVFUHNyMDVpUEcvQjJVNnV0WVlyMW5MZEd1dFUrSnViM2luR2MxcUpPNAoJSUFZWHpiQlJ6VUxORGY2
        aFdkMEJpcTBabExHS29aSTlsR3FxcEFQWmpqWTdueEhzU3JoM0NNOUtyS3lFYnlVQ0s3RzIKCUVvOVc0c2xLYkt3RWMrMkkzVlZtdDVYWmZXVjJZOWxkWjM5QURkVi94
        ckY3Q0Z1eFQ2RFE2WnZtRXI4ZGo0S2JlUmRkCgllM05zcDdqS1M2RzR1RFhLTUZEbUE4Y2ZCdzYvdHZkMDBkZGZ5WlFWdU1FQmtOeG14YkIrdTY0YklmRWRvamhBUGpZ
        VAoJNWdpZGFieHRGLzhBNzRWV1ZRPT0KCTwvZGF0YT4KCTxrZXk+ZGF0YTwva2V5PgoJPGRhdGE+CglBQUFBQUFBQUFBQUFBQUlBQUFBQUFBQUFBQUFBQUFBQkFBQUFB
        QUFBQUFJQUFBQUFBQUFBQXdBQUFBQUFBQUFFQUFBQQoJQUFBQUFBVUFBQUFBQUFBQUJnQUFBQUFBQUFBSEFBQUFBQUFBQUFnQUFBQUFBQUFBQ1FBQUFBQUFBQUFLQUFB
        QUFBQUEKCUFBc0FBQUFBQUFBQURBQUFBQUFBQUFBTkFBQUFBQUFBQUE0QUFBQUFBQUFBRHdBQUFBQUFBQUFRQUFBQUFBQUFBQkVBCglBQUFBQUFBQUVnQUFBQUFBQUFB
        VEFBQUFBQUFBQUJRQUFBQUFBQUFBRlFBQUFBQUFBQUFXQUFBQUFBQUFBQmNBQUFBQQoJQUFBQUdBQUFBQUFBQUFBWkFBQUFBQUFBQUJvQUFBQUFBQUFBR3dBQUFBQUFB
        QUFjQUFBQUFBQUFBQjBBQUFBQUFBQUEKCUhnQUFBQUFBQUFBZkFBQUFBQUFBQUNBQUFBQUFBQUFBSVFBQUFBQUFBQUFpQUFBQUFBQUFBQ01BQUFBQUFBQUFKQUFBCglB
        QUFBQUFBbEFBQUFBQUFBQUNZQUFBQUFBQUFBSndBQUFBQUFBQUFvQUFBQUFBQUFBQ2tBQUFBQUFBQUFLZ0FBQUFBQQoJQUFBckFBQUFBQUFBQUN3QUFBQUFBQUFBTFFB
        QUFBQUFBQUF1QUFBQUFBQUFBQzhBQUFBQUFBQUFNQUFBQUFBQUFBQXgKCUFBQUFBQUFBQURJQUFBQUFBQUFBTXdBQUFBQUFBQUEwQUFBQUFBQUFBRFVBQUFBQUFBQUFO
        Z0FBQUFBQUFBQTNBQUFBCglBQUFBQURnQUFBQUFBQUFBT1FBQUFBQUFBQUE2QUFBQUFBQUFBRHNBQUFBQUFBQUFQQUFBQUFBQUFBQTlBQUFBQUFBQQoJQUQ0QUFBQUFB
        QUFBUHdBQUFBQUFBQUJBQUFBQUFBQUFBRUVBQUFBQUFBQUFRZ0FBQUFBQUFBQkRBQUFBQUFBQUFFUUEKCUFBQUFBQUFBUlFBQUFBQUFBQUJHQUFBQUFBQUFBRWNBQUFB
        QUFBQUFTQUFBQUFBQUFBQkpBQUFBQUFBQUFFb0FBQUFBCglBQUFBU3dBQUFBQUFBQUJNQUFBQUFBQUFBRTBBQUFBQUFBQUFUZ0FBQUFBQUFBQlBBQUFBQUFBQUFGQUFB
        QUFBQUFBQQoJVVFBQUFBQUFBQUJTQUFBQUFBQUFBRk1BQUFBQUFBQUFWQUFBQUFBQUFBQlZBQUFBQUFBQUFGWUFBQUFBQUFBQVZ3QUEKCUFBQUFBQUJZQUFBQUFBQUFB
        RmtBQUFBQUFBQUFXZ0FBQUFBQUFBQmJBQUFBQUFBQUFGd0FBQUFBQUFBQVhRQUFBQUFBCglBQUJlQUFBQUFBQUFBRjhBQUFBQUFBQUFZQUFBQUFBQUFBQmhBQUFBQUFB
        QUFHSUFBQUFBQUFBQVl3QUFBQUFBQUFCawoJQUFBQUFBQUFBR1VBQUFBQUFBQUFaZ0FBQUFBQUFBQm5BQUFBQUFBQUFHZ0FBQUFBQUFBQWFRQUFBQUFBQUFCcUFBQUEK
        CUFBQUFBR3NBQUFBQUFBQUFiQUFBQUFBQUFBQnRBQUFBQUFBQUFHNEFBQUFBQUFBQWJ3QUFBQUFBQUFCd0FBQUFBQUFBCglBSEVBQUFBQUFBQUFjZ0FBQUFBQUFBQnpB
        QUFBQUFBQUFIUUFBQUFBQUFBQWRRQUFBQUFBQUFCMkFBQUFBQUFBQUhjQQoJQUFBQUFBQUFlQUFBQUFBQUFBQjVBQUFBQUFBQUFIb0FBQUFBQUFBQWV3QUFBQUFBQUFC
        OEFBQUFBQUFBQUgwQUFBQUEKCUFBQUFmZ0FBQUFBQUFBQi9BQUFBQUFBQUFJQUFBQUFBQUFBQWdRQUFBQUFBQUFDQ0FBQUFBQUFBQUlNQUFBQUFBQUFBCgloQUFBQUFB
        QUFBQ0ZBQUFBQUFBQUFJWUFBQUFBQUFBQWh3QUFBQUFBQUFDSUFBQUFBQUFBQUlrQUFBQUFBQUFBaWdBQQoJQUFBQUFBQ0xBQUFBQUFBQUFJd0FBQUFBQUFBQWpRQUFB
        QUFBQUFDT0FBQUFBQUFBQUk4QUFBQUFBQUFBa0FBQUFBQUEKCUFBQ1JBQUFBQUFBQUFKSUFBQUFBQUFBQWt3QUFBQUFBQUFDVUFBQUFBQUFBQUpVQUFBQUFBQUFBbGdB
        QUFBQUFBQUNYCglBQUFBQUFBQUFKZ0FBQUFBQUFBQW1RQUFBQUFBQUFDYUFBQUFBQUFBQUpzQUFBQUFBQUFBbkFBQUFBQUFBQUNkQUFBQQoJQUFBQUFKNEFBQUFBQUFB
        QW53QUFBQUFBQUFDZ0FBQUFBQUFBQUtFQUFBQUFBQUFBb2dBQUFBQUFBQUNqQUFBQUFBQUEKCUFLUUFBQUFBQUFBQXBRQUFBQUFBQUFDbUFBQUFBQUFBQUtjQUFBQUFB
        QUFBcUFBQUFBQUFBQUNwQUFBQUFBQUFBS29BCglBQUFBQUFBQXF3QUFBQUFBQUFDc0FBQUFBQUFBQUswQUFBQUFBQUFBcmdBQUFBQUFBQUN2QUFBQUFBQUFBTEFBQUFB
        QQoJQUFBQXNRQUFBQUFBQUFDeUFBQUFBQUFBQUxNQUFBQUFBQUFBdEFBQUFBQUFBQUMxQUFBQUFBQUFBTFlBQUFBQUFBQUEKCXR3QUFBQUFBQUFDNEFBQUFBQUFBQUxr
        QUFBQUFBQUFBdWdBQUFBQUFBQUM3QUFBQUFBQUFBTHdBQUFBQUFBQUF2UUFBCglBQUFBQUFDK0FBQUFBQUFBQUw4QUFBQUFBQUFBd0FBQUFBQUFBQURCQUFBQUFBQUFB
        TUlBQUFBQUFBQUF3d0FBQUFBQQoJQUFERUFBQUFBQUFBQU1VQUFBQUFBQUFBeGdBQUFBQUFBQURIQUFBQUFBQUFBTWdBQUFBQUFBQUF5UUFBQUFBQUFBREsKCUFBQUFB
        QUFBQU1zQUFBQUFBQUFBekFBQUFBQUFBQUROQUFBQUFBQUFBTTRBQUFBQUFBQUF6d0FBQUFBQUFBRFFBQUFBCglBQUFBQU5FQUFBQUFBQUFBMGdBQUFBQUFBQURUQUFB
        QUFBQUFBTlFBQUFBQUFBQUExUUFBQUFBQUFBRFdBQUFBQUFBQQoJQU5jQUFBQUFBQUFBMkFBQUFBQUFBQURaQUFBQUFBQUFBTm9BQUFBQUFBQUEyd0FBQUFBQUFBRGNB
        QUFBQUFBQUFOMEEKCUFBQUFBQUFBM2dBQUFBQUFBQURmQUFBQUFBQUFBT0FBQUFBQUFBQUE0UUFBQUFBQUFBRGlBQUFBQUFBQUFPTUFBQUFBCglBQUFBNUFBQUFBQUFB
        QURsQUFBQUFBQUFBT1lBQUFBQUFBQUE1d0FBQUFBQUFBRG9BQUFBQUFBQUFPa0FBQUFBQUFBQQoJNmdBQUFBQUFBQURyQUFBQUFBQUFBT3dBQUFBQUFBQUE3UUFBQUFB
        QUFBRHVBQUFBQUFBQUFPOEFBQUFBQUFBQThBQUEKCUFBQUFBQUR4QUFBQUFBQUFBUElBQUFBQUFBQUE4d0FBQUFBQUFBRDBBQUFBQUFBQUFQVUFBQUFBQUFBQTlnQUFB
        QUFBCglBQUQzQUFBQUFBQUFBUGdBQUFBQUFBQUErUUFBQUFBQUFBRDZBQUFBQUFBQUFQc0FBQUFBQUFBQS9BQUFBQUFBQUFEOQoJQUFBQUFBQUFBUDRBQUFBQUFBQUEv
        d0FBQUFBQUFBRUFBQUFBQUFBQUFRRUFBQUFBQUFBQkFnQUFBQUFBQUFFREFBQUEKCUFBQUFBUVFBQUFBQUFBQUJCUUFBQUFBQUFBRUdBQUFBQUFBQUFRY0FBQUFBQUFB
        QkNBQUFBQUFBQUFFSkFBQUFBQUFBCglBUW9BQUFBQUFBQUJDd0FBQUFBQUFBRU1BQUFBQUFBQUFRMEFBQUFBQUFBQkRnQUFBQUFBQUFFUEFBQUFBQUFBQVJBQQoJQUFB
        QUFBQUJFUUFBQUFBQUFBRVNBQUFBQUFBQUFSTUFBQUFBQUFBQkZBQUFBQUFBQUFFVkFBQUFBQUFBQVJZQUFBQUEKCUFBQUJGd0FBQUFBQUFBRVlBQUFBQUFBQUFSa0FB
        QUFBQUFBQkdnQUFBQUFBQUFFYkFBQUFBQUFBQVJ3QUFBQUFBQUFCCglIUUFBQUFBQUFBRWVBQUFBQUFBQUFSOEFBQUFBQUFBQklBQUFBQUFBQUFFaEFBQUFBQUFBQVNJ
        QUFBQUFBQUFCSXdBQQoJQUFBQUFBRWtBQUFBQUFBQUFTVUFBQUFBQUFBQkpnQUFBQUFBQUFFbkFBQUFBQUFBQVNnQUFBQUFBQUFCS1FBQUFBQUEKCUFBRXFBQUFBQUFB
        QUFTc0FBQUFBQUFBQkxBQUFBQUFBQUFFdEFBQUFBQUFBQVM0QUFBQUFBQUFCTHdBQUFBQUFBQUV3CglBQUFBQUFBQUFURUFBQUFBQUFBQk1nQUFBQUFBQUFFekFBQUFB
        QUFBQVRRQUFBQUFBQUFCTlFBQUFBQUFBQUUyQUFBQQoJQUFBQUFUY0FBQUFBQUFBQk9BQUFBQUFBQUFFNUFBQUFBQUFBQVRvQUFBQUFBQUFCT3dBQUFBQUFBQUU4QUFB
        QUFBQUEKCUFUMEFBQUFBQUFBQlBnQUFBQUFBQUFFL0FBQUFBQUFBQVVBQUFBQUFBQUFCUVFBQUFBQUFBQUZDQUFBQUFBQUFBVU1BCglBQUFBQUFBQlJBQUFBQUFBQUFG
        RkFBQUFBQUFBQVVZQUFBQUFBQUFCUndBQUFBQUFBQUZJQUFBQUFBQUFBVWtBQUFBQQoJQUFBQlNnQUFBQUFBQUFGTEFBQUFBQUFBQVV3QUFBQUFBQUFCVFFBQUFBQUFB
        QUZPQUFBQUFBQUFBVThBQUFBQUFBQUIKCVVBQUFBQUFBQUFGUkFBQUFBQUFBQVZJQUFBQUFBQUFCVXdBQUFBQUFBQUZVQUFBQUFBQUFBVlVBQUFBQUFBQUJWZ0FBCglB
        QUFBQUFGWEFBQUFBQUFBQVZnQUFBQUFBQUFCV1FBQUFBQUFBQUZhQUFBQUFBQUFBVnNBQUFBQUFBQUJYQUFBQUFBQQoJQUFGZEFBQUFBQUFBQVY0QUFBQUFBQUFCWHdB
        QUFBQUFBQUZnQUFBQUFBQUFBV0VBQUFBQUFBQUJZZ0FBQUFBQUFBRmoKCUFBQUFBQUFBQVdRQUFBQUFBQUFCWlFBQUFBQUFBQUZtQUFBQUFBQUFBV2NBQUFBQUFBQUJh
        QUFBQUFBQUFBRnBBQUFBCglBQUFBQVdvQUFBQUFBQUFCYXdBQUFBQUFBQUZzQUFBQUFBQUFBVzBBQUFBQUFBQUJiZ0FBQUFBQUFBRnZBQUFBQUFBQQoJQVhBQUFBQUFB
        QUFCY1FBQUFBQUFBQUZ5QUFBQUFBQUFBWE1BQUFBQUFBQUJkQUFBQUFBQUFBRjFBQUFBQUFBQUFYWUEKCUFBQUFBQUFCZHdBQUFBQUFBQUY0QUFBQUFBQUFBWGtBQUFB
        QUFBQUJlZ0FBQUFBQUFBRjdBQUFBQUFBQUFYd0FBQUFBCglBQUFCZlFBQUFBQUFBQUYrQUFBQUFBQUFBWDhBQUFBQUFBQUJnQUFBQUFBQUFBR0JBQUFBQUFBQUFZSUFB
        QUFBQUFBQgoJZ3dBQUFBQUFBQUdFQUFBQUFBQUFBWVVBQUFBQUFBQUJoZ0FBQUFBQUFBR0hBQUFBQUFBQUFZZ0FBQUFBQUFBQmlRQUEKCUFBQUFBQUdLQUFBQUFBQUFB
        WXNBQUFBQUFBQUJqQUFBQUFBQUFBR05BQUFBQUFBQUFZNEFBQUFBQUFBQmp3QUFBQUFBCglBQUdRQUFBQUFBQUFBWkVBQUFBQUFBQUJrZ0FBQUFBQUFBR1RBQUFBQUFB
        QUFaUUFBQUFBQUFBQmxRQUFBQUFBQUFHVwoJQUFBQUFBQUFBWmNBQUFBQUFBQUJtQUFBQUFBQUFBR1pBQUFBQUFBQUFab0FBQUFBQUFBQm13QUFBQUFBQUFHY0FBQUEK
        CUFBQUFBWjBBQUFBQUFBQUJuZ0FBQUFBQUFBR2ZBQUFBQUFBQUFhQUFBQUFBQUFBQm9RQUFBQUFBQUFHaUFBQUFBQUFBCglBYU1BQUFBQUFBQUJwQUFBQUFBQUFBR2xB
        QUFBQUFBQUFhWUFBQUFBQUFBQnB3QUFBQUFBQUFHb0FBQUFBQUFBQWFrQQoJQUFBQUFBQUJxZ0FBQUFBQUFBR3JBQUFBQUFBQUFhd0FBQUFBQUFBQnJRQUFBQUFBQUFH
        dUFBQUFBQUFBQWE4QUFBQUEKCUFBQUJzQUFBQUFBQUFBR3hBQUFBQUFBQUFiSUFBQUFBQUFBQnN3QUFBQUFBQUFHMEFBQUFBQUFBQWJVQUFBQUFBQUFCCgl0Z0FBQUFB
        QUFBRzNBQUFBQUFBQUFiZ0FBQUFBQUFBQnVRQUFBQUFBQUFHNkFBQUFBQUFBQWJzQUFBQUFBQUFCdkFBQQoJQUFBQUFBRzlBQUFBQUFBQUFiNEFBQUFBQUFBQnZ3QUFB
        QUFBQUFIQUFBQUFBQUFBQWNFQUFBQUFBQUFCd2dBQUFBQUEKCUFBSERBQUFBQUFBQUFjUUFBQUFBQUFBQnhRQUFBQUFBQUFIR0FBQUFBQUFBQWNjQUFBQUFBQUFCeUFB
        QUFBQUFBQUhKCglBQUFBQUFBQUFjb0FBQUFBQUFBQnl3QUFBQUFBQUFITUFBQUFBQUFBQWMwQUFBQUFBQUFCemdBQUFBQUFBQUhQQUFBQQoJQUFBQUFkQUFBQUFBQUFB
        QjBRQUFBQUFBQUFIU0FBQUFBQUFBQWRNQUFBQUFBQUFCMUFBQUFBQUFBQUhWQUFBQUFBQUEKCUFkWUFBQUFBQUFBQjF3QUFBQUFBQUFIWUFBQUFBQUFBQWRrQUFBQUFB
        QUFCMmdBQUFBQUFBQUhiQUFBQUFBQUFBZHdBCglBQUFBQUFBQjNRQUFBQUFBQUFIZUFBQUFBQUFBQWQ4QUFBQUFBQUFCNEFBQUFBQUFBQUhoQUFBQUFBQUFBZUlBQUFB
        QQoJQUFBQjR3QUFBQUFBQUFIa0FBQUFBQUFBQWVVQUFBQUFBQUFCNWdBQUFBQUFBQUhuQUFBQUFBQUFBZWdBQUFBQUFBQUIKCTZRQUFBQUFBQUFIcUFBQUFBQUFBQWVz
        QUFBQUFBQUFCN0FBQUFBQUFBQUh0QUFBQUFBQUFBZTRBQUFBQUFBQUI3d0FBCglBQUFBQUFId0FBQUFBQUFBQWZFQUFBQUFBQUFCOGdBQUFBQUFBQUh6QUFBQUFBQUFB
        ZlFBQUFBQUFBQUI5UUFBQUFBQQoJQUFIMkFBQUFBQUFBQWZjQUFBQUFBQUFCK0FBQUFBQUFBQUg1QUFBQUFBQUFBZm9BQUFBQUFBQUIrd0FBQUFBQUFBSDgKCUFBQUFB
        QUFBQWYwQUFBQUFBQUFCL2dBQUFBQUFBQUgvQUFBQUFBPT0KCTwvZGF0YT4KCTxrZXk+bWFudWZhY3R1cmVyPC9rZXk+Cgk8aW50ZWdlcj4xMzQ3MTc4MzExPC9pbnRl
        Z2VyPgoJPGtleT5uYW1lPC9rZXk+Cgk8c3RyaW5nPlVudGl0bGVkPC9zdHJpbmc+Cgk8a2V5PnN1YnR5cGU8L2tleT4KCTxpbnRlZ2VyPjEzNDcxNzYyNzM8L2ludGVn
        ZXI+Cgk8a2V5PnR5cGU8L2tleT4KCTxpbnRlZ2VyPjE2MzUwODU2ODU8L2ludGVnZXI+Cgk8a2V5PnZlcnNpb248L2tleT4KCTxpbnRlZ2VyPjA8L2ludGVnZXI+Cjwv
        ZGljdD4KPC9wbGlzdD4KAQAAAAAAAAAAAA==
      >
      FLOATPOS 0 0 0 0
      FXID {4AEE60EF-9933-C944-8EAD-0637B63356CF}
      WAK 0 0
    >
    <ITEM
      POSITION 0
      SNAPOFFS 0
      LENGTH 94.61448
      LOOP 1
      ALLTAKES 0
      FADEIN 1 0 0 1 0 0 0
      FADEOUT 1 0 0 1 0 0 0
      MUTE 0 0
      BEAT 1
      SEL 0
      IGUID {88C2C2A1-D048-304D-B958-0C23AFF24F95}
      IID 48
      NAME the_centennial_festival_for_magical.mid
      VOLPAN 1 0 1 -1
      SOFFS 1.6 4
      PLAYRATE 1 1 0 -1 0 0.0025
      CHANMODE 0
      GUID {C3142AAE-AD33-0946-83DC-70FC85792FD7}
      <SOURCE MIDI
        HASDATA 1 96 QN
        CCINTERP 32
        POOLEDEVTS {03228B8A-6C5E-7945-B596-0231F676947F}
        <X 0 0
          /yEBAA==
        >
        <X 0 0 0 0 4 "STANDARD 1"
          /wRTVEFOREFSRCAx
        >
        E 81 b9 00 00
        E 1 b9 20 00
        E 1 c9 00 00
        E 1 b9 0a 40
        E 1 b9 07 7a
        E 1 b9 0b 7f
        E 1 b9 5b 00
        E 1 b9 5d 00
        E 1 b9 5e 00
        E 154 b9 65 00
        E 0 b9 64 01
        E 0 b9 06 40
        E 0 b9 26 00
        <X 1 0
          8EEQQhJAEEBAQEBAQEBAQEBAQEBw9w==
        >
        E 2 b9 40 00
        E 1 b9 63 01
        E 0 b9 62 08
        E 0 b9 06 40
        E 1 b9 63 01
        E 0 b9 62 09
        E 0 b9 06 40
        E 1 b9 63 01
        E 0 b9 62 0a
        E 0 b9 06 40
        E 1 b9 63 01
        E 0 b9 62 20
        E 0 b9 06 40
        E 1 b9 63 01
        E 0 b9 62 21
        E 0 b9 06 40
        E 1 b9 63 01
        E 0 b9 62 63
        E 0 b9 06 40
        E 1 b9 63 01
        E 0 b9 62 64
        E 0 b9 06 40
        E 1 b9 63 01
        E 0 b9 62 66
        E 0 b9 06 40
        <X 1 0
          8EEQQhJAQCAAYPc=
        >
        e 129 b9 40 00
        e 6144 99 2c 7f
        e 47 89 2c 00
        e 1 99 2c 7f
        e 23 89 2c 00
        e 1 99 2c 7f
        e 95 89 2c 00
        e 1 99 2c 7f
        e 47 89 2c 00
        e 1 99 2e 7f
        e 71 89 2e 00
        e 1 99 2e 7f
        e 71 89 2e 00
        e 25 99 2c 7f
        e 47 89 2c 00
        e 1 99 2c 7f
        e 23 89 2c 00
        e 1 99 2c 7f
        e 95 89 2c 00
        e 1 99 2c 7f
        e 47 89 2c 00
        e 1 99 2e 7f
        e 47 89 2e 00
        e 1 99 2c 7f
        e 47 89 2c 00
        e 1 99 2e 7f
        e 47 89 2e 00
        e 25 99 2c 7f
        e 47 89 2c 00
        e 1 99 2c 7f
        e 23 89 2c 00
        e 1 99 2c 7f
        e 95 89 2c 00
        e 1 99 2c 7f
        e 47 89 2c 00
        e 1 99 2e 7f
        e 47 89 2e 00
        e 1 99 2c 7f
        e 47 89 2c 00
        e 1 99 2e 7f
        e 47 89 2e 00
        e 25 99 2c 7f
        e 383 89 2c 00
        e 3097 99 2c 7f
        e 23 89 2c 00
        e 1 99 2c 7f
        e 23 89 2c 00
        e 49 99 2c 7f
        e 23 89 2c 00
        e 1 99 2c 7f
        e 23 89 2c 00
        e 1 99 2c 7f
        e 23 89 2c 00
        e 49 99 2c 7f
        e 23 89 2c 00
        e 49 99 2c 7f
        e 23 89 2c 00
        e 1 99 2c 7f
        e 23 89 2c 00
        e 1 99 2c 7f
        e 23 89 2c 00
        e 25 99 2c 7f
        e 23 89 2c 00
        e 1 99 2c 7f
        e 23 89 2c 00
        e 97 99 2c 7f
        e 23 89 2c 00
        e 25 99 2c 7f
        e 23 89 2c 00
        e 1 99 2c 7f
        e 23 89 2c 00
        e 121 99 37 7f
        e 191 89 37 00
        e 1 99 37 7f
        e 191 89 37 00
        e 1 99 37 7f
        e 95 89 37 00
        e 1 99 37 7f
        e 95 89 37 00
        e 1 99 37 7f
        e 191 89 37 00
        e 1 99 2c 7f
        e 23 89 2c 00
        e 1 99 2c 7f
        e 23 89 2c 00
        e 1 99 2e 7f
        e 47 89 2e 00
        e 1 99 2c 7f
        e 23 89 2c 00
        e 1 99 2c 7f
        e 23 89 2c 00
        e 1 99 2e 7f
        e 23 89 2e 00
        e 1 99 2c 7f
        e 23 89 2c 00
        e 25 99 2c 7f
        e 23 89 2c 00
        e 1 99 2e 7f
        e 47 89 2e 00
        e 1 99 2c 7f
        e 23 89 2c 00
        e 1 99 2c 7f
        e 23 89 2c 00
        e 1 99 2e 7f
        e 47 89 2e 00
        e 1 99 2c 7f
        e 23 89 2c 00
        e 1 99 2c 7f
        e 23 89 2c 00
        e 1 99 2e 7f
        e 47 89 2e 00
        e 1 99 2c 7f
        e 23 89 2c 00
        e 1 99 2c 7f
        e 23 89 2c 00
        e 1 99 2e 7f
        e 47 89 2e 00
        e 1 99 2e 7f
        e 47 89 2e 00
        e 1 99 2c 7f
        e 47 89 2c 00
        e 1 99 2c 7f
        e 23 89 2c 00
        e 1 99 2c 7f
        e 23 89 2c 00
        e 1 99 2e 7f
        e 47 89 2e 00
        e 1 99 2c 7f
        e 23 89 2c 00
        e 1 99 2c 7f
        e 23 89 2c 00
        e 1 99 2e 7f
        e 47 89 2e 00
        e 1 99 2c 7f
        e 23 89 2c 00
        e 1 99 2c 7f
        e 23 89 2c 00
        e 1 99 2e 7f
        e 23 89 2e 00
        e 1 99 2c 7f
        e 23 89 2c 00
        e 25 99 2c 7f
        e 23 89 2c 00
        e 1 99 2e 7f
        e 47 89 2e 00
        e 1 99 2c 7f
        e 23 89 2c 00
        e 1 99 2c 7f
        e 23 89 2c 00
        e 1 99 2e 7f
        e 47 89 2e 00
        e 1 99 2c 7f
        e 23 89 2c 00
        e 1 99 2c 7f
        e 23 89 2c 00
        e 1 99 2e 7f
        e 47 89 2e 00
        e 1 99 2c 7f
        e 23 89 2c 00
        e 1 99 2c 7f
        e 23 89 2c 00
        e 1 99 2e 7f
        e 23 89 2e 00
        e 1 99 2c 7f
        e 23 89 2c 00
        e 25 99 2c 7f
        e 23 89 2c 00
        e 1 99 2e 7f
        e 47 89 2e 00
        e 1 99 2c 7f
        e 23 89 2c 00
        e 1 99 2c 7f
        e 23 89 2c 00
        e 1 99 2e 7f
        e 47 89 2e 00
        e 1 99 2c 7f
        e 23 89 2c 00
        e 1 99 2c 7f
        e 23 89 2c 00
        e 1 99 2e 7f
        e 47 89 2e 00
        e 1 99 2c 7f
        e 23 89 2c 00
        e 1 99 2c 7f
        e 23 89 2c 00
        e 1 99 2e 7f
        e 23 89 2e 00
        e 1 99 2c 7f
        e 23 89 2c 00
        e 25 99 2c 7f
        e 23 89 2c 00
        e 1 99 2e 7f
        e 47 89 2e 00
        e 1 99 2c 7f
        e 23 89 2c 00
        e 1 99 2c 7f
        e 23 89 2c 00
        e 1 99 2e 7f
        e 47 89 2e 00
        e 1 99 2c 7f
        e 23 89 2c 00
        e 1 99 2c 7f
        e 23 89 2c 00
        e 1 99 2e 7f
        e 47 89 2e 00
        e 1 99 2c 7f
        e 23 89 2c 00
        e 1 99 2c 7f
        e 23 89 2c 00
        e 1 99 2e 7f
        e 23 89 2e 00
        e 1 99 2c 7f
        e 23 89 2c 00
        e 25 99 2c 7f
        e 23 89 2c 00
        e 1 99 2e 7f
        e 47 89 2e 00
        e 1 99 2c 7f
        e 23 89 2c 00
        e 1 99 2c 7f
        e 23 89 2c 00
        e 1 99 2e 7f
        e 47 89 2e 00
        e 1 99 2c 7f
        e 23 89 2c 00
        e 1 99 2c 7f
        e 23 89 2c 00
        e 1 99 2e 7f
        e 47 89 2e 00
        e 1 99 2c 7f
        e 23 89 2c 00
        e 1 99 2c 7f
        e 23 89 2c 00
        e 1 99 2e 7f
        e 47 89 2e 00
        e 1 99 2e 7f
        e 47 89 2e 00
        e 1 99 2c 7f
        e 47 89 2c 00
        e 1 99 2c 7f
        e 23 89 2c 00
        e 1 99 2c 7f
        e 23 89 2c 00
        e 1 99 2e 7f
        e 47 89 2e 00
        e 1 99 2c 7f
        e 23 89 2c 00
        e 1 99 2c 7f
        e 23 89 2c 00
        e 1 99 2e 7f
        e 47 89 2e 00
        e 1 99 2c 7f
        e 23 89 2c 00
        e 1 99 2c 7f
        e 23 89 2c 00
        e 1 99 2e 7f
        e 47 89 2e 00
        e 1 99 2e 7f
        e 47 89 2e 00
        e 1 99 2c 7f
        e 47 89 2c 00
        e 1 99 2c 7f
        e 23 89 2c 00
        e 1 99 2c 7f
        e 23 89 2c 00
        e 1 99 2e 7f
        e 47 89 2e 00
        e 1 99 2c 7f
        e 23 89 2c 00
        e 1 99 2c 7f
        e 23 89 2c 00
        e 1 99 2e 7f
        e 47 89 2e 00
        e 1 99 2c 7f
        e 23 89 2c 00
        e 1 99 2c 7f
        e 23 89 2c 00
        e 1 99 2e 7f
        e 47 89 2e 00
        e 1 99 2e 7f
        e 47 89 2e 00
        e 1 99 2c 7f
        e 47 89 2c 00
        e 1 99 2c 7f
        e 23 89 2c 00
        e 1 99 2c 7f
        e 23 89 2c 00
        e 1 99 2e 7f
        e 47 89 2e 00
        e 1 99 2c 7f
        e 23 89 2c 00
        e 1 99 2c 7f
        e 23 89 2c 00
        e 1 99 2e 7f
        e 47 89 2e 00
        e 1 99 2c 7f
        e 23 89 2c 00
        e 1 99 2c 7f
        e 23 89 2c 00
        e 1 99 2e 7f
        e 47 89 2e 00
        e 1 99 2e 7f
        e 47 89 2e 00
        e 1 99 2c 7f
        e 47 89 2c 00
        e 1 99 2c 7f
        e 23 89 2c 00
        e 1 99 2c 7f
        e 23 89 2c 00
        e 1 99 2e 7f
        e 47 89 2e 00
        e 1 99 2c 7f
        e 23 89 2c 00
        e 1 99 2c 7f
        e 23 89 2c 00
        e 1 99 2e 7f
        e 47 89 2e 00
        e 1 99 2c 7f
        e 23 89 2c 00
        e 1 99 2c 7f
        e 23 89 2c 00
        e 1 99 2e 7f
        e 47 89 2e 00
        e 1 99 2e 7f
        e 47 89 2e 00
        e 1 99 2c 7f
        e 47 89 2c 00
        e 1 99 2c 7f
        e 23 89 2c 00
        e 1 99 2c 7f
        e 23 89 2c 00
        e 1 99 2e 7f
        e 47 89 2e 00
        e 1 99 2c 7f
        e 23 89 2c 00
        e 1 99 2c 7f
        e 23 89 2c 00
        e 1 99 2e 7f
        e 47 89 2e 00
        e 1 99 2c 7f
        e 23 89 2c 00
        e 1 99 2c 7f
        e 23 89 2c 00
        e 1 99 2e 7f
        e 47 89 2e 00
        e 1 99 2e 7f
        e 47 89 2e 00
        e 1 99 2c 7f
        e 47 89 2c 00
        e 1 99 2c 7f
        e 23 89 2c 00
        e 1 99 2c 7f
        e 23 89 2c 00
        e 1 99 2e 7f
        e 47 89 2e 00
        e 1 99 2c 7f
        e 23 89 2c 00
        e 1 99 2c 7f
        e 23 89 2c 00
        e 1 99 2e 7f
        e 47 89 2e 00
        e 1 99 2c 7f
        e 23 89 2c 00
        e 1 99 2c 7f
        e 23 89 2c 00
        e 1 99 2e 7f
        e 47 89 2e 00
        e 1 99 2e 7f
        e 47 89 2e 00
        e 1 99 2c 7f
        e 47 89 2c 00
        e 1 99 2c 7f
        e 23 89 2c 00
        e 1 99 2c 7f
        e 23 89 2c 00
        e 1 99 2e 7f
        e 47 89 2e 00
        e 1 99 2c 7f
        e 23 89 2c 00
        e 1 99 2c 7f
        e 23 89 2c 00
        e 1 99 2e 7f
        e 47 89 2e 00
        e 1 99 2c 7f
        e 23 89 2c 00
        e 1 99 2c 7f
        e 23 89 2c 00
        e 1 99 2e 7f
        e 47 89 2e 00
        e 1 99 2e 7f
        e 47 89 2e 00
        e 1 99 2c 7f
        e 47 89 2c 00
        e 1 99 2c 7f
        e 23 89 2c 00
        e 1 99 2c 7f
        e 23 89 2c 00
        e 1 99 2e 7f
        e 47 89 2e 00
        e 1 99 2c 7f
        e 23 89 2c 00
        e 1 99 2c 7f
        e 23 89 2c 00
        e 1 99 2e 7f
        e 47 89 2e 00
        e 1 99 2c 7f
        e 23 89 2c 00
        e 1 99 2c 7f
        e 23 89 2c 00
        e 1 99 2e 7f
        e 47 89 2e 00
        e 1 99 2e 7f
        e 47 89 2e 00
        e 1 99 2c 7f
        e 47 89 2c 00
        e 1 99 2c 7f
        e 23 89 2c 00
        e 1 99 2c 7f
        e 23 89 2c 00
        e 1 99 2e 7f
        e 47 89 2e 00
        e 1 99 2c 7f
        e 23 89 2c 00
        e 1 99 2c 7f
        e 23 89 2c 00
        e 1 99 2e 7f
        e 47 89 2e 00
        e 1 99 2c 7f
        e 23 89 2c 00
        e 1 99 2c 7f
        e 23 89 2c 00
        e 1 99 2e 7f
        e 47 89 2e 00
        e 1 99 2e 7f
        e 47 89 2e 00
        e 1 99 2c 7f
        e 47 89 2c 00
        e 1 99 2c 7f
        e 23 89 2c 00
        e 1 99 2c 7f
        e 23 89 2c 00
        e 1 99 2e 7f
        e 47 89 2e 00
        e 1 99 2c 7f
        e 23 89 2c 00
        e 1 99 2c 7f
        e 23 89 2c 00
        e 1 99 2e 7f
        e 47 89 2e 00
        e 1 99 2c 7f
        e 23 89 2c 00
        e 1 99 2c 7f
        e 23 89 2c 00
        e 1 99 2e 7f
        e 47 89 2e 00
        e 1 99 2e 7f
        e 47 89 2e 00
        e 1 99 2c 7f
        e 47 89 2c 00
        e 1 99 2c 7f
        e 23 89 2c 00
        e 1 99 2c 7f
        e 23 89 2c 00
        e 1 99 2e 7f
        e 47 89 2e 00
        e 1 99 2c 7f
        e 23 89 2c 00
        e 1 99 2c 7f
        e 23 89 2c 00
        e 1 99 2e 7f
        e 47 89 2e 00
        e 1 99 2c 7f
        e 23 89 2c 00
        e 1 99 2c 7f
        e 23 89 2c 00
        e 1 99 2e 7f
        e 47 89 2e 00
        e 1 99 2e 7f
        e 47 89 2e 00
        e 1 99 2c 7f
        e 47 89 2c 00
        e 1 99 2c 7f
        e 23 89 2c 00
        e 1 99 2c 7f
        e 23 89 2c 00
        e 1 99 2e 7f
        e 47 89 2e 00
        e 1 99 2c 7f
        e 23 89 2c 00
        e 1 99 2c 7f
        e 23 89 2c 00
        e 1 99 2e 7f
        e 47 89 2e 00
        e 1 99 2c 7f
        e 23 89 2c 00
        e 1 99 2c 7f
        e 23 89 2c 00
        e 1 99 2e 7f
        e 47 89 2e 00
        e 1 99 2e 7f
        e 47 89 2e 00
        e 1 99 2c 7f
        e 47 89 2c 00
        e 1 99 2c 7f
        e 23 89 2c 00
        e 1 99 2c 7f
        e 23 89 2c 00
        e 1 99 2e 7f
        e 47 89 2e 00
        e 1 99 2c 7f
        e 23 89 2c 00
        e 1 99 2c 7f
        e 23 89 2c 00
        e 1 99 2e 7f
        e 47 89 2e 00
        e 1 99 2c 7f
        e 23 89 2c 00
        e 1 99 2c 7f
        e 23 89 2c 00
        e 1 99 2e 7f
        e 47 89 2e 00
        e 1 99 2e 7f
        e 47 89 2e 00
        e 1 99 2c 7f
        e 47 89 2c 00
        e 1 99 2c 7f
        e 23 89 2c 00
        e 1 99 2c 7f
        e 23 89 2c 00
        e 1 99 2e 7f
        e 47 89 2e 00
        e 1 99 2c 7f
        e 23 89 2c 00
        e 1 99 2c 7f
        e 23 89 2c 00
        e 1 99 2e 7f
        e 47 89 2e 00
        e 1 99 2c 7f
        e 23 89 2c 00
        e 1 99 2c 7f
        e 23 89 2c 00
        e 1 99 2e 7f
        e 47 89 2e 00
        e 1 99 2e 7f
        e 47 89 2e 00
        e 1 99 2c 7f
        e 47 89 2c 00
        e 1 99 2c 7f
        e 23 89 2c 00
        e 1 99 2c 7f
        e 23 89 2c 00
        e 1 99 2e 7f
        e 47 89 2e 00
        e 1 99 2c 7f
        e 23 89 2c 00
        e 1 99 2c 7f
        e 23 89 2c 00
        e 1 99 2e 7f
        e 47 89 2e 00
        e 1 99 2c 7f
        e 23 89 2c 00
        e 1 99 2c 7f
        e 23 89 2c 00
        e 1 99 2e 7f
        e 47 89 2e 00
        e 1 99 2e 7f
        e 47 89 2e 00
        e 1 99 2c 7f
        e 47 89 2c 00
        e 1 99 2c 7f
        e 23 89 2c 00
        e 1 99 2c 7f
        e 23 89 2c 00
        e 1 99 2e 7f
        e 47 89 2e 00
        e 1 99 2c 7f
        e 47 89 2c 00
        e 1 99 2c 7f
        e 23 89 2c 00
        e 1 99 2c 7f
        e 95 89 2c 00
        e 1 99 2c 7f
        e 47 89 2c 00
        e 1 99 2e 7f
        e 71 89 2e 00
        e 1 99 2e 7f
        e 71 89 2e 00
        e 25 99 2c 7f
        e 47 89 2c 00
        e 1 99 2c 7f
        e 23 89 2c 00
        e 1 99 2c 7f
        e 95 89 2c 00
        e 1 99 2c 7f
        e 47 89 2c 00
        e 1 99 2e 7f
        e 47 89 2e 00
        e 1 99 2c 7f
        e 47 89 2c 00
        e 1 99 2e 7f
        e 47 89 2e 00
        e 25 99 2c 7f
        e 47 89 2c 00
        e 1 99 2c 7f
        e 23 89 2c 00
        e 1 99 2c 7f
        e 95 89 2c 00
        e 1 99 2c 7f
        e 47 89 2c 00
        e 1 99 2e 7f
        e 47 89 2e 00
        e 1 99 2c 7f
        e 47 89 2c 00
        e 1 99 2e 7f
        e 47 89 2e 00
        e 25 99 2c 7f
        e 383 89 2c 00
        E 1 b0 7b 00
        CCINTERP 32
        CHASE_CC_TAKEOFFS 1
        GUID {326B8508-6599-364A-BF13-25C8A2D79A9B}
        IGNTEMPO 0 120 4 4
        SRCCOLOR 81
        VELLANE -1 100 0
        CFGEDITVIEW 15598.384614 0.637418 72 12 0 -1 0 0 0 0.5
        KEYSNAP 0
        TRACKSEL 0
        EVTFILTER 0 -1 -1 -1 -1 0 0 0 0 -1 -1 -1 -1 0 -1 0 -1 -1
        CFGEDIT 1 1 0 1 0 0 1 1 1 1 1 0.25 591 205 1920 928 0 0 0 0 0 0 0 0 0 0 0 0 1 64
      >
    >
  >
>
